<svg xmlns="http://www.w3.org/2000/svg" xmlns:xlink="http://www.w3.org/1999/xlink" width="500" zoomAndPan="magnify" viewBox="0 0 375 374.999991" height="500" preserveAspectRatio="xMidYMid meet" version="1.0"><defs><clipPath id="db536b8b1a"><path d="M 78 0.390625 L 297 0.390625 L 297 313 L 78 313 Z M 78 0.390625 " clip-rule="nonzero"/></clipPath><clipPath id="4ff9c00c3c"><path d="M 179 234 L 375 234 L 375 374.640625 L 179 374.640625 Z M 179 234 " clip-rule="nonzero"/></clipPath><clipPath id="a7e14dcdab"><path d="M 0 234 L 195 234 L 195 374.640625 L 0 374.640625 Z M 0 234 " clip-rule="nonzero"/></clipPath></defs><path fill="#60c6b4" d="M 187.675781 156.488281 C 161.855469 156.488281 140.851562 135.484375 140.851562 109.664062 C 140.851562 83.839844 161.855469 62.835938 187.675781 62.835938 C 213.496094 62.835938 234.5 83.839844 234.5 109.664062 C 234.5 135.484375 213.496094 156.488281 187.675781 156.488281 Z M 187.675781 78.445312 C 170.460938 78.445312 156.460938 92.445312 156.460938 109.664062 C 156.460938 126.878906 170.460938 140.878906 187.675781 140.878906 C 204.890625 140.878906 218.894531 126.878906 218.894531 109.664062 C 218.894531 92.445312 204.890625 78.445312 187.675781 78.445312 Z M 187.675781 78.445312 " fill-opacity="1" fill-rule="nonzero"/><g clip-path="url(#db536b8b1a)"><path fill="#60c6b4" d="M 187.675781 312.570312 C 184.957031 312.570312 182.433594 311.152344 181.015625 308.828125 L 94.230469 166.476562 C 93.964844 166.042969 93.742188 165.585938 93.570312 165.121094 C 83.652344 148.371094 78.417969 129.234375 78.417969 109.664062 C 78.417969 49.414062 127.429688 0.402344 187.675781 0.402344 C 247.921875 0.402344 296.933594 49.414062 296.933594 109.664062 C 296.933594 129.242188 291.691406 148.394531 281.761719 165.152344 C 281.59375 165.609375 281.378906 166.050781 281.121094 166.476562 L 194.335938 308.828125 C 192.917969 311.152344 190.398438 312.570312 187.675781 312.570312 Z M 108.355469 159.664062 L 187.675781 289.777344 L 267.011719 159.640625 C 267.183594 159.191406 267.386719 158.757812 267.644531 158.339844 C 276.59375 143.722656 281.328125 126.894531 281.328125 109.664062 C 281.328125 58.019531 239.316406 16.011719 187.675781 16.011719 C 136.035156 16.011719 94.027344 58.019531 94.027344 109.664062 C 94.027344 126.894531 98.757812 143.722656 107.707031 158.339844 C 107.964844 158.765625 108.1875 159.207031 108.355469 159.664062 Z M 108.355469 159.664062 " fill-opacity="1" fill-rule="nonzero"/></g><g clip-path="url(#4ff9c00c3c)"><path fill="#60c6b4" d="M 367.171875 375.003906 L 187.675781 375.003906 C 183.363281 375.003906 179.871094 371.515625 179.871094 367.199219 C 179.871094 362.886719 183.363281 359.394531 187.675781 359.394531 L 355.90625 359.394531 L 314.9375 250.136719 L 273.523438 250.136719 C 269.207031 250.136719 265.71875 246.648438 265.71875 242.332031 C 265.71875 238.019531 269.207031 234.527344 273.523438 234.527344 L 320.347656 234.527344 C 323.601562 234.527344 326.511719 236.546875 327.65625 239.589844 L 374.480469 364.457031 C 375.378906 366.855469 375.046875 369.539062 373.589844 371.644531 C 372.125 373.746094 369.734375 375.003906 367.171875 375.003906 Z M 367.171875 375.003906 " fill-opacity="1" fill-rule="nonzero"/></g><g clip-path="url(#a7e14dcdab)"><path fill="#60c6b4" d="M 186.320312 375.003906 L 8.179688 375.003906 C 5.621094 375.003906 3.226562 373.746094 1.761719 371.644531 C 0.308594 369.539062 -0.0273438 366.855469 0.871094 364.457031 L 47.695312 239.589844 C 48.839844 236.546875 51.75 234.527344 55.003906 234.527344 L 101.832031 234.527344 C 106.144531 234.527344 109.632812 238.019531 109.632812 242.332031 C 109.632812 246.648438 106.144531 250.136719 101.832031 250.136719 L 60.417969 250.136719 L 19.445312 359.394531 L 186.320312 359.394531 C 190.632812 359.394531 194.125 362.886719 194.125 367.199219 C 194.125 371.515625 190.632812 375.003906 186.320312 375.003906 Z M 186.320312 375.003906 " fill-opacity="1" fill-rule="nonzero"/></g></svg>