<svg xmlns="http://www.w3.org/2000/svg" xmlns:xlink="http://www.w3.org/1999/xlink" width="500" zoomAndPan="magnify" viewBox="0 0 375 374.999991" height="500" preserveAspectRatio="xMidYMid meet" version="1.0"><defs><clipPath id="475c4d1fa0"><path d="M 37.5 37.5 L 337.5 37.5 L 337.5 337.5 L 37.5 337.5 Z M 37.5 37.5 " clip-rule="nonzero"/></clipPath></defs><g clip-path="url(#475c4d1fa0)"><path fill="#60c6b4" d="M 285.230469 180.710938 L 289.113281 185.925781 L 292.992188 180.710938 C 309.996094 157.871094 323.792969 132.625 334.167969 105.261719 C 336.378906 99.417969 337.5 93.261719 337.5 86.972656 C 337.5 59.691406 316.363281 37.5 290.378906 37.5 L 287.851562 37.5 C 272.207031 37.5 258.359375 45.574219 249.785156 57.933594 C 246.066406 54.101562 240.835938 51.816406 235.28125 52.027344 C 233.128906 43.683594 225.535156 37.5 216.53125 37.5 C 209.480469 37.5 203.105469 41.378906 199.730469 47.351562 C 191.917969 46.269531 184.152344 50.332031 180.378906 57.027344 C 178.683594 56.796875 176.957031 56.796875 175.261719 57.027344 C 171.894531 51.058594 165.519531 47.175781 158.46875 47.175781 C 153.246094 47.175781 148.359375 49.257812 144.769531 52.890625 C 142.738281 52.242188 140.628906 51.9375 138.503906 52.027344 C 136.355469 43.683594 128.761719 37.5 119.757812 37.5 C 110.753906 37.5 103.160156 43.683594 101.011719 52.027344 C 99.953125 51.980469 98.894531 52.046875 97.847656 52.191406 C 94.476562 46.21875 88.097656 42.339844 81.046875 42.339844 C 71.875 42.339844 64.167969 48.757812 62.1875 57.347656 C 53.597656 59.328125 47.175781 67.03125 47.175781 76.210938 L 37.5 76.210938 L 37.5 85.886719 L 47.175781 85.886719 L 47.175781 105.242188 L 37.5 105.242188 L 37.5 114.917969 L 66.53125 114.917969 L 66.53125 134.273438 L 37.5 134.273438 L 37.5 143.953125 L 107.621094 143.953125 C 104 147.601562 100.769531 151.679688 98.074219 156.167969 L 87.988281 172.984375 L 79.636719 172.984375 C 66.726562 172.984375 55.121094 180.160156 49.339844 191.710938 L 41.074219 208.238281 C 38.738281 212.914062 37.5 218.152344 37.5 223.390625 L 37.5 226.210938 C 37.5 234.210938 44.011719 240.726562 52.015625 240.726562 L 71.496094 240.726562 C 75.917969 246.566406 82.859375 250.402344 90.726562 250.402344 C 98.59375 250.402344 105.535156 246.566406 109.953125 240.726562 L 151.851562 240.726562 L 146.046875 250.402344 L 139.113281 250.402344 C 120.441406 250.402344 105.242188 265.597656 105.242188 284.273438 L 105.242188 303.628906 C 105.242188 311.632812 111.753906 318.144531 119.757812 318.144531 L 127.910156 318.144531 C 133.359375 329.570312 144.992188 337.5 158.46875 337.5 C 171.945312 337.5 183.570312 329.570312 189.023438 318.144531 L 244.039062 318.144531 C 249.488281 329.570312 261.121094 337.5 274.597656 337.5 C 288.074219 337.5 299.699219 329.570312 305.152344 318.144531 L 313.304688 318.144531 C 321.308594 318.144531 327.824219 311.632812 327.824219 303.628906 L 327.824219 239.066406 C 327.824219 232.605469 325.300781 226.527344 320.734375 221.960938 L 307.882812 209.105469 C 303.316406 204.53125 297.238281 202.015625 290.773438 202.015625 L 260.082031 202.015625 C 260.082031 187.335938 249.121094 175.160156 234.960938 173.246094 C 232.011719 161.914062 226.082031 151.917969 218.183594 143.953125 L 261.773438 143.953125 C 268.726562 156.769531 276.554688 169.058594 285.230469 180.710938 Z M 287.84375 47.175781 L 290.375 47.175781 C 311.023438 47.175781 327.824219 65.027344 327.824219 86.972656 C 327.824219 92.089844 326.914062 97.089844 324.953125 102.242188 C 315.847656 126.277344 303.808594 148.90625 289.113281 169.597656 C 274.417969 148.902344 262.363281 126.246094 253.117188 101.832031 C 251.3125 97.082031 250.402344 92.085938 250.402344 86.972656 C 250.402344 65.027344 267.203125 47.175781 287.84375 47.175781 Z M 205.980469 134.273438 C 201.710938 131.652344 197.148438 129.5 192.339844 127.90625 L 192.339844 114.917969 L 211.695312 114.917969 L 211.695312 134.273438 Z M 119.859375 134.273438 L 105.242188 134.273438 L 105.242188 114.917969 L 124.597656 114.917969 L 124.597656 131.621094 C 122.980469 132.441406 121.402344 133.324219 119.859375 134.273438 Z M 105.242188 85.886719 L 105.242188 105.242188 L 85.886719 105.242188 L 85.886719 85.886719 Z M 221.371094 85.886719 L 221.371094 105.242188 L 202.015625 105.242188 L 202.015625 85.886719 Z M 192.339844 105.242188 L 172.984375 105.242188 L 172.984375 85.886719 L 192.339844 85.886719 Z M 163.304688 105.242188 L 143.953125 105.242188 L 143.953125 85.886719 L 163.304688 85.886719 Z M 134.273438 105.242188 L 114.917969 105.242188 L 114.917969 85.886719 L 134.273438 85.886719 Z M 134.273438 114.917969 L 153.628906 114.917969 L 153.628906 124.601562 C 146.984375 124.621094 140.472656 125.695312 134.273438 127.667969 Z M 163.304688 114.917969 L 182.660156 114.917969 L 182.660156 125.488281 C 179.1875 124.90625 175.636719 124.597656 172.027344 124.597656 L 163.304688 124.597656 Z M 231.046875 85.886719 L 240.777344 85.886719 C 240.769531 86.25 240.726562 86.601562 240.726562 86.972656 C 240.726562 93.121094 241.820312 99.136719 244.074219 105.242188 L 231.046875 105.242188 Z M 66.53125 66.53125 L 71.371094 66.53125 L 71.371094 61.695312 C 71.371094 56.355469 75.710938 52.015625 81.046875 52.015625 C 85.375 52.015625 89.195312 54.964844 90.339844 59.183594 L 91.761719 64.4375 L 96.8125 62.40625 C 99.007812 61.523438 101.171875 61.414062 103.695312 62.316406 L 110.734375 64.859375 L 110.164062 57.398438 L 110.082031 56.855469 C 110.082031 51.519531 114.421875 47.175781 119.757812 47.175781 C 125.09375 47.175781 129.433594 51.519531 129.429688 56.730469 L 128.78125 64.863281 L 135.824219 62.324219 C 138.792969 61.242188 141.316406 61.566406 143.84375 63 L 147.851562 65.269531 L 150.316406 61.378906 C 152.113281 58.546875 155.15625 56.855469 158.46875 56.855469 C 162.792969 56.855469 166.617188 59.800781 167.757812 64.019531 L 169.179688 69.277344 L 174.230469 67.242188 C 176.582031 66.300781 179.0625 66.300781 181.414062 67.242188 L 186.464844 69.277344 L 187.886719 64.019531 C 189.351562 58.621094 195.378906 55.402344 200.769531 57.566406 L 205.820312 59.597656 L 207.242188 54.34375 C 208.382812 50.125 212.207031 47.175781 216.53125 47.175781 C 221.871094 47.175781 226.210938 51.519531 226.203125 56.730469 L 225.554688 64.863281 L 232.597656 62.324219 C 233.773438 61.898438 234.84375 61.695312 235.886719 61.695312 C 239.699219 61.695312 243.027344 64.027344 244.578125 67.417969 C 243.425781 70.222656 242.527344 73.167969 241.882812 76.210938 L 56.855469 76.210938 C 56.855469 70.871094 61.195312 66.53125 66.53125 66.53125 Z M 56.855469 85.886719 L 76.210938 85.886719 L 76.210938 105.242188 L 56.855469 105.242188 Z M 76.210938 114.917969 L 95.566406 114.917969 L 95.566406 134.273438 L 76.210938 134.273438 Z M 52.015625 231.046875 C 49.34375 231.046875 47.175781 228.875 47.175781 226.210938 L 47.175781 223.390625 C 47.175781 222.710938 47.242188 222.042969 47.292969 221.371094 L 67.019531 221.371094 C 66.703125 222.933594 66.53125 224.554688 66.53125 226.210938 C 66.53125 227.863281 66.703125 229.484375 67.019531 231.046875 Z M 90.726562 240.726562 C 82.722656 240.726562 76.210938 234.210938 76.210938 226.210938 C 76.210938 218.207031 82.722656 211.695312 90.726562 211.695312 C 98.730469 211.695312 105.242188 218.207031 105.242188 226.210938 C 105.242188 234.210938 98.730469 240.726562 90.726562 240.726562 Z M 114.429688 231.046875 C 114.75 229.484375 114.917969 227.863281 114.917969 226.210938 C 114.917969 224.554688 114.75 222.933594 114.429688 221.371094 L 163.472656 221.371094 L 157.664062 231.046875 Z M 119.757812 308.46875 C 117.085938 308.46875 114.917969 306.296875 114.917969 303.628906 L 114.917969 298.789062 L 124.984375 298.789062 C 124.757812 300.378906 124.597656 301.984375 124.597656 303.628906 C 124.597656 305.273438 124.757812 306.878906 124.984375 308.46875 Z M 158.46875 327.824219 C 145.128906 327.824219 134.273438 316.96875 134.273438 303.628906 C 134.273438 290.289062 145.128906 279.433594 158.46875 279.433594 C 171.808594 279.433594 182.660156 290.289062 182.660156 303.628906 C 182.660156 316.96875 171.808594 327.824219 158.46875 327.824219 Z M 298.789062 279.972656 C 292.636719 273.675781 284.070312 269.757812 274.597656 269.757812 C 261.121094 269.757812 249.492188 277.6875 244.039062 289.113281 L 240.726562 289.113281 L 240.726562 260.082031 L 298.789062 260.082031 Z M 298.789062 250.402344 L 240.726562 250.402344 L 240.726562 231.046875 L 288.769531 231.046875 L 298.789062 241.070312 Z M 231.046875 250.402344 L 181.128906 250.402344 L 191.660156 231.046875 L 231.046875 231.046875 Z M 177.824219 260.082031 L 231.046875 260.082031 L 231.046875 289.113281 L 189.023438 289.113281 C 186.484375 283.789062 182.617188 279.226562 177.824219 275.875 Z M 191.953125 308.46875 C 192.179688 306.878906 192.339844 305.273438 192.339844 303.628906 C 192.339844 301.984375 192.179688 300.378906 191.953125 298.789062 L 241.113281 298.789062 C 240.886719 300.378906 240.726562 301.984375 240.726562 303.628906 C 240.726562 305.273438 240.886719 306.878906 241.113281 308.46875 Z M 274.597656 327.824219 C 261.257812 327.824219 250.402344 316.96875 250.402344 303.628906 C 250.402344 290.289062 261.257812 279.433594 274.597656 279.433594 C 287.9375 279.433594 298.789062 290.289062 298.789062 303.628906 C 298.789062 316.96875 287.9375 327.824219 274.597656 327.824219 Z M 313.304688 308.46875 L 308.082031 308.46875 C 308.308594 306.878906 308.46875 305.273438 308.46875 303.628906 C 308.46875 301.984375 308.308594 300.378906 308.082031 298.789062 L 318.144531 298.789062 L 318.144531 303.628906 C 318.144531 306.296875 315.976562 308.46875 313.304688 308.46875 Z M 290.773438 211.695312 C 294.652344 211.695312 298.300781 213.203125 301.039062 215.941406 L 313.890625 228.796875 C 316.597656 231.503906 318.144531 235.242188 318.144531 239.066406 L 318.144531 289.113281 L 308.46875 289.113281 L 308.46875 241.070312 C 308.46875 238.484375 307.460938 236.054688 305.632812 234.226562 L 295.609375 224.207031 C 293.8125 222.402344 291.316406 221.371094 288.769531 221.371094 L 191.65625 221.371094 C 188.105469 221.371094 184.847656 223.304688 183.15625 226.421875 L 168.144531 254.011719 L 168.144531 271.183594 C 165.078125 270.265625 161.832031 269.757812 158.46875 269.757812 C 144.992188 269.757812 133.363281 277.6875 127.910156 289.113281 L 114.917969 289.113281 L 114.917969 284.273438 C 114.917969 270.933594 125.773438 260.082031 139.113281 260.082031 L 151.527344 260.082031 L 176.332031 218.742188 C 178.941406 214.394531 183.710938 211.695312 188.78125 211.695312 Z M 226.304688 178.769531 L 227.085938 182.660156 L 231.046875 182.660156 C 241.722656 182.660156 250.402344 191.34375 250.402344 202.015625 L 188.78125 202.015625 C 181.175781 202.015625 174.003906 205.683594 169.472656 211.695312 L 109.953125 211.695312 C 105.53125 205.851562 98.59375 202.015625 90.726562 202.015625 C 82.859375 202.015625 75.914062 205.851562 71.496094 211.695312 L 50.167969 211.695312 L 57.996094 196.035156 C 62.125 187.785156 70.417969 182.660156 79.636719 182.660156 L 93.464844 182.660156 L 106.371094 161.148438 C 116.316406 144.570312 134.507812 134.273438 153.835938 134.273438 L 172.027344 134.273438 C 198.316406 134.273438 221.144531 152.992188 226.304688 178.769531 Z M 221.371094 134.273438 L 221.371094 114.917969 L 247.90625 114.917969 C 250.636719 121.484375 253.582031 127.941406 256.738281 134.273438 Z M 221.371094 134.273438 " fill-opacity="1" fill-rule="nonzero"/></g><path fill="#60c6b4" d="M 284.273438 105.242188 L 293.953125 105.242188 C 304.625 105.242188 313.304688 96.5625 313.304688 85.886719 C 313.304688 75.214844 304.625 66.53125 293.953125 66.53125 L 274.597656 66.53125 L 274.597656 124.597656 L 284.273438 124.597656 Z M 284.273438 76.210938 L 293.953125 76.210938 C 299.289062 76.210938 303.628906 80.550781 303.628906 85.886719 C 303.628906 91.222656 299.289062 95.566406 293.953125 95.566406 L 284.273438 95.566406 Z M 284.273438 76.210938 " fill-opacity="1" fill-rule="nonzero"/><path fill="#60c6b4" d="M 274.597656 289.113281 C 266.59375 289.113281 260.082031 295.625 260.082031 303.628906 C 260.082031 311.632812 266.59375 318.144531 274.597656 318.144531 C 282.601562 318.144531 289.113281 311.632812 289.113281 303.628906 C 289.113281 295.625 282.601562 289.113281 274.597656 289.113281 Z M 274.597656 308.46875 C 271.925781 308.46875 269.757812 306.296875 269.757812 303.628906 C 269.757812 300.964844 271.925781 298.789062 274.597656 298.789062 C 277.269531 298.789062 279.433594 300.964844 279.433594 303.628906 C 279.433594 306.296875 277.269531 308.46875 274.597656 308.46875 Z M 274.597656 308.46875 " fill-opacity="1" fill-rule="nonzero"/><path fill="#60c6b4" d="M 158.46875 289.113281 C 150.464844 289.113281 143.953125 295.625 143.953125 303.628906 C 143.953125 311.632812 150.464844 318.144531 158.46875 318.144531 C 166.472656 318.144531 172.984375 311.632812 172.984375 303.628906 C 172.984375 295.625 166.472656 289.113281 158.46875 289.113281 Z M 158.46875 308.46875 C 155.796875 308.46875 153.628906 306.296875 153.628906 303.628906 C 153.628906 300.964844 155.796875 298.789062 158.46875 298.789062 C 161.140625 298.789062 163.304688 300.964844 163.304688 303.628906 C 163.304688 306.296875 161.140625 308.46875 158.46875 308.46875 Z M 158.46875 308.46875 " fill-opacity="1" fill-rule="nonzero"/><path fill="#60c6b4" d="M 95.566406 226.210938 C 95.566406 226.527344 95.535156 226.84375 95.472656 227.152344 C 95.410156 227.464844 95.316406 227.769531 95.195312 228.0625 C 95.074219 228.355469 94.925781 228.632812 94.75 228.898438 C 94.574219 229.160156 94.371094 229.40625 94.148438 229.632812 C 93.921875 229.855469 93.679688 230.054688 93.414062 230.234375 C 93.148438 230.410156 92.871094 230.558594 92.578125 230.679688 C 92.285156 230.800781 91.980469 230.894531 91.667969 230.957031 C 91.359375 231.015625 91.042969 231.046875 90.726562 231.046875 C 90.40625 231.046875 90.09375 231.015625 89.78125 230.957031 C 89.46875 230.894531 89.167969 230.800781 88.875 230.679688 C 88.582031 230.558594 88.300781 230.410156 88.039062 230.234375 C 87.773438 230.054688 87.527344 229.855469 87.304688 229.632812 C 87.078125 229.40625 86.878906 229.160156 86.703125 228.898438 C 86.527344 228.632812 86.378906 228.355469 86.253906 228.0625 C 86.132812 227.769531 86.042969 227.464844 85.980469 227.152344 C 85.917969 226.84375 85.886719 226.527344 85.886719 226.210938 C 85.886719 225.890625 85.917969 225.578125 85.980469 225.265625 C 86.042969 224.953125 86.132812 224.652344 86.253906 224.359375 C 86.378906 224.0625 86.527344 223.785156 86.703125 223.519531 C 86.878906 223.257812 87.078125 223.011719 87.304688 222.789062 C 87.527344 222.5625 87.773438 222.363281 88.039062 222.1875 C 88.300781 222.011719 88.582031 221.859375 88.875 221.738281 C 89.167969 221.617188 89.46875 221.527344 89.78125 221.464844 C 90.09375 221.402344 90.40625 221.371094 90.726562 221.371094 C 91.042969 221.371094 91.359375 221.402344 91.667969 221.464844 C 91.980469 221.527344 92.285156 221.617188 92.578125 221.738281 C 92.871094 221.859375 93.148438 222.011719 93.414062 222.1875 C 93.679688 222.363281 93.921875 222.5625 94.148438 222.789062 C 94.371094 223.011719 94.574219 223.257812 94.75 223.519531 C 94.925781 223.785156 95.074219 224.0625 95.195312 224.359375 C 95.316406 224.652344 95.410156 224.953125 95.472656 225.265625 C 95.535156 225.578125 95.566406 225.890625 95.566406 226.210938 Z M 95.566406 226.210938 " fill-opacity="1" fill-rule="nonzero"/><path fill="#60c6b4" d="M 172.027344 143.953125 L 153.835938 143.953125 C 137.882812 143.953125 122.878906 152.449219 114.667969 166.128906 L 104.75 182.660156 L 217.625 182.660156 L 215.734375 176.417969 C 209.957031 157.300781 191.976562 143.953125 172.027344 143.953125 Z M 121.839844 172.984375 L 122.964844 171.105469 C 129.433594 160.324219 141.261719 153.628906 153.835938 153.628906 L 172.027344 153.628906 C 185.472656 153.628906 197.78125 161.328125 203.917969 172.984375 Z M 121.839844 172.984375 " fill-opacity="1" fill-rule="nonzero"/></svg>