<svg xmlns="http://www.w3.org/2000/svg" xmlns:xlink="http://www.w3.org/1999/xlink" width="500" zoomAndPan="magnify" viewBox="0 0 375 374.999991" height="500" preserveAspectRatio="xMidYMid meet" version="1.0"><defs><clipPath id="c7a1678224"><path d="M 10 261 L 129 261 L 129 374.890625 L 10 374.890625 Z M 10 261 " clip-rule="nonzero"/></clipPath><clipPath id="5b610a149b"><path d="M 10 25.390625 L 129 25.390625 L 129 139 L 10 139 Z M 10 25.390625 " clip-rule="nonzero"/></clipPath><clipPath id="861da3fa67"><path d="M 246 25.390625 L 365 25.390625 L 365 139 L 246 139 Z M 246 25.390625 " clip-rule="nonzero"/></clipPath><clipPath id="99508def53"><path d="M 246 261 L 365 261 L 365 374.890625 L 246 374.890625 Z M 246 261 " clip-rule="nonzero"/></clipPath></defs><g clip-path="url(#c7a1678224)"><path fill="#60c6b4" d="M 14.910156 363.933594 C 31.875 371.308594 51.050781 374.996094 69.488281 374.996094 C 87.929688 374.996094 106.367188 371.308594 124.070312 363.933594 C 127.019531 362.457031 128.496094 360.246094 128.496094 357.292969 C 128.496094 336.644531 115.957031 317.464844 96.78125 310.089844 L 93.089844 308.617188 C 96.78125 303.453125 98.992188 297.550781 98.992188 290.914062 C 98.992188 274.6875 85.714844 261.410156 69.488281 261.410156 C 53.261719 261.410156 39.988281 274.6875 39.988281 290.914062 C 39.988281 297.550781 42.199219 303.453125 45.886719 308.617188 L 42.199219 310.089844 C 23.023438 317.464844 10.484375 336.644531 10.484375 357.292969 C 10.484375 360.246094 11.960938 363.195312 14.910156 363.933594 Z M 69.488281 276.164062 C 77.601562 276.164062 84.242188 282.800781 84.242188 290.914062 C 84.242188 299.027344 77.601562 305.664062 69.488281 305.664062 C 61.375 305.664062 54.738281 299.027344 54.738281 290.914062 C 54.738281 282.800781 61.375 276.164062 69.488281 276.164062 Z M 48.101562 323.367188 L 56.214844 320.417969 L 82.765625 320.417969 L 90.878906 323.367188 C 103.417969 328.53125 111.53125 339.59375 113.003906 352.132812 C 84.976562 363.195312 53.261719 363.195312 25.234375 352.132812 C 27.449219 339.59375 35.5625 328.53125 48.101562 323.367188 Z M 48.101562 323.367188 " fill-opacity="1" fill-rule="nonzero"/></g><g clip-path="url(#5b610a149b)"><path fill="#60c6b4" d="M 14.910156 127.914062 C 31.875 135.289062 51.050781 138.976562 69.488281 138.976562 C 87.929688 138.976562 106.367188 135.289062 124.070312 127.914062 C 127.019531 126.4375 128.496094 124.222656 128.496094 121.273438 C 128.496094 100.621094 115.957031 81.445312 96.78125 74.070312 L 93.089844 72.59375 C 96.78125 67.433594 98.992188 61.53125 98.992188 54.894531 C 98.992188 38.667969 85.714844 25.390625 69.488281 25.390625 C 53.261719 25.390625 39.988281 38.667969 39.988281 54.894531 C 39.988281 61.53125 42.199219 67.433594 45.886719 72.59375 L 42.199219 74.070312 C 23.023438 81.445312 10.484375 100.621094 10.484375 121.273438 C 10.484375 124.222656 11.960938 127.175781 14.910156 127.914062 Z M 69.488281 40.140625 C 77.601562 40.140625 84.242188 46.78125 84.242188 54.894531 C 84.242188 63.007812 77.601562 69.644531 69.488281 69.644531 C 61.375 69.644531 54.738281 63.007812 54.738281 54.894531 C 54.738281 46.78125 61.375 40.140625 69.488281 40.140625 Z M 48.101562 87.347656 L 56.214844 84.394531 L 82.765625 84.394531 L 90.878906 87.347656 C 103.417969 92.507812 111.53125 103.574219 113.003906 116.109375 C 84.976562 127.175781 53.261719 127.175781 25.234375 116.109375 C 27.449219 103.574219 35.5625 92.507812 48.101562 87.347656 Z M 48.101562 87.347656 " fill-opacity="1" fill-rule="nonzero"/></g><g clip-path="url(#861da3fa67)"><path fill="#60c6b4" d="M 332.800781 74.070312 L 329.113281 72.59375 C 332.800781 67.433594 335.011719 61.53125 335.011719 54.894531 C 335.011719 38.667969 321.738281 25.390625 305.511719 25.390625 C 289.285156 25.390625 276.007812 38.667969 276.007812 54.894531 C 276.007812 61.53125 278.21875 67.433594 281.90625 72.59375 L 278.21875 74.070312 C 259.042969 81.445312 246.503906 100.621094 246.503906 121.273438 C 246.503906 124.222656 247.980469 127.175781 250.929688 127.914062 C 267.894531 135.289062 287.070312 138.976562 305.511719 138.976562 C 323.949219 138.976562 342.386719 135.289062 360.089844 127.914062 C 363.039062 126.4375 364.515625 124.222656 364.515625 121.273438 C 364.515625 100.621094 351.976562 81.445312 332.800781 74.070312 Z M 305.511719 40.140625 C 313.625 40.140625 320.261719 46.78125 320.261719 54.894531 C 320.261719 63.007812 313.625 69.644531 305.511719 69.644531 C 297.398438 69.644531 290.757812 63.007812 290.757812 54.894531 C 290.757812 46.78125 297.398438 40.140625 305.511719 40.140625 Z M 261.257812 116.109375 C 262.730469 103.574219 271.582031 92.507812 283.382812 87.347656 L 292.234375 84.394531 L 318.785156 84.394531 L 326.898438 87.347656 C 339.4375 92.507812 347.550781 103.574219 349.027344 116.109375 C 321 127.175781 290.019531 127.175781 261.257812 116.109375 Z M 261.257812 116.109375 " fill-opacity="1" fill-rule="nonzero"/></g><g clip-path="url(#99508def53)"><path fill="#60c6b4" d="M 332.800781 310.089844 L 329.113281 308.617188 C 332.800781 303.453125 335.011719 297.550781 335.011719 290.914062 C 335.011719 274.6875 321.738281 261.410156 305.511719 261.410156 C 289.285156 261.410156 276.007812 274.6875 276.007812 290.914062 C 276.007812 297.550781 278.21875 303.453125 281.90625 308.617188 L 278.21875 310.089844 C 259.042969 317.464844 246.503906 336.644531 246.503906 357.292969 C 246.503906 360.246094 247.980469 363.195312 250.929688 363.933594 C 267.894531 371.308594 287.070312 374.996094 305.511719 374.996094 C 323.949219 374.996094 342.386719 371.308594 360.089844 363.933594 C 363.039062 362.457031 364.515625 360.246094 364.515625 357.292969 C 364.515625 336.644531 351.976562 317.464844 332.800781 310.089844 Z M 305.511719 276.164062 C 313.625 276.164062 320.261719 282.800781 320.261719 290.914062 C 320.261719 299.027344 313.625 305.664062 305.511719 305.664062 C 297.398438 305.664062 290.757812 299.027344 290.757812 290.914062 C 290.757812 282.800781 297.398438 276.164062 305.511719 276.164062 Z M 261.257812 352.132812 C 262.730469 339.59375 271.582031 328.53125 283.382812 323.367188 L 291.496094 320.417969 L 318.046875 320.417969 L 326.160156 323.367188 C 338.699219 328.53125 346.8125 339.59375 348.289062 352.132812 C 321 363.195312 290.019531 363.195312 261.257812 352.132812 Z M 261.257812 352.132812 " fill-opacity="1" fill-rule="nonzero"/></g><path fill="#60c6b4" d="M 268.632812 202.40625 C 268.632812 165.527344 233.964844 136.027344 191.1875 136.027344 C 148.410156 136.027344 113.742188 165.527344 113.742188 202.40625 C 113.742188 223.796875 126.28125 244.449219 146.933594 256.984375 L 139.558594 279.851562 C 138.082031 284.277344 139.558594 288.703125 143.246094 291.652344 C 145.457031 293.125 146.933594 293.863281 149.144531 293.863281 C 151.359375 293.863281 153.570312 293.125 155.046875 291.652344 L 186.761719 268.785156 C 188.238281 268.785156 189.710938 268.785156 191.1875 268.785156 C 233.964844 268.785156 268.632812 239.285156 268.632812 202.40625 Z M 191.1875 254.035156 C 188.976562 254.035156 187.5 254.035156 185.285156 254.035156 C 183.8125 254.035156 181.597656 254.035156 180.125 255.511719 L 157.257812 271.738281 L 162.421875 255.511719 C 163.898438 251.824219 161.683594 248.136719 158.734375 246.660156 C 139.558594 237.070312 128.496094 220.109375 128.496094 202.40625 C 128.496094 173.640625 156.523438 150.777344 191.1875 150.777344 C 225.851562 150.777344 253.878906 173.640625 253.878906 202.40625 C 253.878906 231.171875 225.851562 254.035156 191.1875 254.035156 Z M 191.1875 254.035156 " fill-opacity="1" fill-rule="nonzero"/><path fill="#60c6b4" d="M 34.824219 148.5625 C 28.1875 165.527344 25.234375 183.96875 25.234375 202.40625 C 25.234375 220.84375 28.1875 239.285156 34.824219 256.25 L 48.835938 251.085938 C 42.9375 235.597656 39.988281 219.371094 39.988281 202.40625 C 39.988281 185.441406 42.9375 169.214844 48.101562 152.988281 Z M 34.824219 148.5625 " fill-opacity="1" fill-rule="nonzero"/><path fill="#60c6b4" d="M 145.457031 344.019531 L 141.035156 358.03125 C 155.785156 362.457031 171.273438 364.671875 187.5 364.671875 C 203.726562 364.671875 219.214844 362.457031 233.964844 358.03125 L 229.539062 344.019531 C 202.25 352.132812 172.75 352.132812 145.457031 344.019531 Z M 145.457031 344.019531 " fill-opacity="1" fill-rule="nonzero"/><path fill="#60c6b4" d="M 340.175781 256.25 C 346.8125 239.285156 349.765625 220.84375 349.765625 202.40625 C 349.765625 183.96875 346.8125 165.527344 340.175781 148.5625 L 326.160156 153.726562 C 332.0625 169.214844 334.273438 186.179688 334.273438 203.144531 C 334.273438 220.109375 331.324219 236.335938 326.160156 252.5625 Z M 340.175781 256.25 " fill-opacity="1" fill-rule="nonzero"/><path fill="#60c6b4" d="M 257.570312 72.59375 L 264.945312 59.320312 C 241.34375 46.78125 214.789062 40.140625 187.5 40.140625 C 160.210938 40.140625 133.65625 46.78125 110.054688 60.054688 L 117.429688 73.332031 C 160.210938 49.730469 214.789062 49.730469 257.570312 72.59375 Z M 257.570312 72.59375 " fill-opacity="1" fill-rule="nonzero"/></svg>