<svg xmlns="http://www.w3.org/2000/svg" xmlns:xlink="http://www.w3.org/1999/xlink" width="500" zoomAndPan="magnify" viewBox="0 0 375 374.999991" height="500" preserveAspectRatio="xMidYMid meet" version="1.0"><defs><clipPath id="7c247ce865"><path d="M 187 170 L 305 170 L 305 337.5 L 187 337.5 Z M 187 170 " clip-rule="nonzero"/></clipPath><clipPath id="62082d4bea"><path d="M 254 109 L 331.875 109 L 331.875 337.5 L 254 337.5 Z M 254 109 " clip-rule="nonzero"/></clipPath><clipPath id="90b79a530f"><path d="M 70 170 L 188 170 L 188 337.5 L 70 337.5 Z M 70 170 " clip-rule="nonzero"/></clipPath><clipPath id="ab3c86e56a"><path d="M 43.125 109 L 121 109 L 121 337.5 L 43.125 337.5 Z M 43.125 109 " clip-rule="nonzero"/></clipPath><clipPath id="ab8957aed8"><path d="M 81 37.5 L 294 37.5 L 294 216 L 81 216 Z M 81 37.5 " clip-rule="nonzero"/></clipPath></defs><g clip-path="url(#7c247ce865)"><path fill="#60c6b4" d="M 198.605469 337.429688 C 195.546875 337.429688 193.054688 334.933594 193.054688 331.875 L 193.054688 315.214844 C 193.054688 312.570312 192.335938 309.273438 191.449219 305.109375 C 189.777344 297.40625 187.5 286.84375 187.5 270.792969 C 187.5 252.289062 217.605469 228.300781 221.035156 225.632812 L 250.339844 205.589844 C 255.371094 199.410156 258.691406 194.203125 261.359375 189.972656 C 269.773438 176.699219 274.503906 170.839844 298.558594 170.839844 C 300.183594 170.839844 301.746094 171.558594 302.808594 172.816406 C 303.851562 174.050781 304.304688 175.699219 304.023438 177.328125 C 303.871094 178.238281 300.121094 200.144531 292.527344 217.5 C 292.246094 218.171875 291.8125 218.777344 291.292969 219.277344 C 291.117188 219.429688 273.9375 235.957031 263.742188 246.824219 C 261.640625 249.058594 258.125 249.167969 255.890625 247.085938 C 253.65625 244.980469 253.550781 241.46875 255.632812 239.234375 C 264.871094 229.386719 279.210938 215.503906 282.789062 212.03125 C 287.171875 201.707031 290.183594 189.496094 291.769531 182.121094 C 278.992188 182.878906 276.78125 186.394531 270.75 195.917969 C 267.820312 200.535156 264.15625 206.285156 258.429688 213.246094 C 258.082031 213.660156 257.714844 214.007812 257.28125 214.289062 L 227.585938 234.589844 C 216.542969 243.222656 198.605469 260.902344 198.605469 270.792969 C 198.605469 285.652344 200.753906 295.542969 202.292969 302.765625 C 203.289062 307.40625 204.160156 311.398438 204.160156 315.214844 L 204.160156 331.875 C 204.160156 334.933594 201.664062 337.429688 198.605469 337.429688 " fill-opacity="1" fill-rule="nonzero"/></g><g clip-path="url(#62082d4bea)"><path fill="#60c6b4" d="M 259.6875 337.429688 C 256.628906 337.429688 254.132812 334.933594 254.132812 331.875 L 254.132812 304.109375 C 254.132812 284.546875 277.710938 262.789062 296.671875 245.328125 C 304.152344 238.429688 314.371094 228.996094 315.257812 225.9375 C 315.214844 218.863281 320.097656 171.167969 320.726562 164.964844 L 315.890625 121.34375 C 314.132812 122.015625 312.613281 123.121094 311.226562 124.640625 C 302.808594 134.03125 303.222656 156.742188 304.066406 164.679688 C 304.089844 164.875 304.109375 165.09375 304.109375 165.289062 L 304.109375 176.394531 C 304.109375 179.453125 301.617188 181.945312 298.558594 181.945312 C 295.5 181.945312 293.003906 179.453125 293.003906 176.394531 L 293.003906 165.59375 C 292.527344 160.929688 290.054688 131.644531 302.9375 117.242188 C 307.539062 112.125 313.699219 109.414062 320.769531 109.414062 C 323.609375 109.414062 325.976562 111.539062 326.277344 114.359375 L 331.832031 164.335938 C 331.898438 164.722656 331.898438 165.113281 331.832031 165.503906 C 330.3125 180.386719 326.320312 220.339844 326.320312 226.371094 C 326.320312 232.8125 319.140625 239.710938 304.199219 253.484375 C 287.753906 268.644531 265.242188 289.402344 265.242188 304.109375 L 265.242188 331.875 C 265.242188 334.933594 262.746094 337.429688 259.6875 337.429688 " fill-opacity="1" fill-rule="nonzero"/></g><g clip-path="url(#90b79a530f)"><path fill="#60c6b4" d="M 176.394531 337.429688 C 173.335938 337.429688 170.839844 334.933594 170.839844 331.875 L 170.839844 315.214844 C 170.839844 311.398438 171.707031 307.40625 172.707031 302.765625 C 174.269531 295.542969 176.394531 285.652344 176.394531 270.792969 C 176.394531 260.878906 158.433594 243.203125 147.132812 234.394531 L 117.71875 214.289062 C 117.308594 214.007812 116.917969 213.660156 116.59375 213.246094 C 110.84375 206.285156 107.179688 200.535156 104.25 195.917969 C 98.21875 186.394531 95.984375 182.878906 83.230469 182.121094 C 84.816406 189.496094 87.828125 201.707031 92.210938 212.03125 C 95.789062 215.503906 110.128906 229.386719 119.367188 239.234375 C 121.449219 241.46875 121.34375 244.980469 119.109375 247.085938 C 116.875 249.1875 113.359375 249.058594 111.257812 246.824219 C 101.0625 235.957031 83.882812 219.429688 83.707031 219.277344 C 83.167969 218.777344 82.753906 218.171875 82.449219 217.5 C 74.878906 200.144531 71.128906 178.238281 70.976562 177.328125 C 70.695312 175.699219 71.148438 174.050781 72.210938 172.816406 C 73.253906 171.558594 74.816406 170.839844 76.441406 170.839844 C 100.496094 170.839844 105.226562 176.699219 113.640625 189.972656 C 116.308594 194.203125 119.628906 199.410156 124.660156 205.589844 L 153.660156 225.4375 C 157.394531 228.300781 187.5 252.289062 187.5 270.792969 C 187.5 286.84375 185.222656 297.40625 183.550781 305.109375 C 182.664062 309.273438 181.945312 312.570312 181.945312 315.214844 L 181.945312 331.875 C 181.945312 334.933594 179.453125 337.429688 176.394531 337.429688 " fill-opacity="1" fill-rule="nonzero"/></g><g clip-path="url(#ab3c86e56a)"><path fill="#60c6b4" d="M 115.3125 337.429688 C 112.253906 337.429688 109.757812 334.933594 109.757812 331.875 L 109.757812 304.109375 C 109.757812 289.402344 87.246094 268.644531 70.800781 253.484375 C 55.859375 239.710938 48.679688 232.8125 48.679688 226.371094 C 48.679688 220.339844 44.6875 180.386719 43.148438 165.503906 C 43.101562 165.113281 43.101562 164.722656 43.167969 164.335938 L 48.722656 114.359375 C 49.023438 111.539062 51.390625 109.414062 54.230469 109.414062 C 61.300781 109.414062 67.460938 112.125 72.039062 117.242188 C 84.945312 131.644531 82.472656 160.929688 81.996094 165.59375 L 81.996094 176.394531 C 81.996094 179.453125 79.5 181.945312 76.441406 181.945312 C 73.382812 181.945312 70.890625 179.453125 70.890625 176.394531 L 70.890625 165.289062 C 70.890625 165.09375 70.890625 164.875 70.933594 164.679688 C 71.800781 156.742188 72.191406 134.03125 63.773438 124.640625 C 62.386719 123.121094 60.867188 122.015625 59.109375 121.34375 L 54.273438 164.964844 C 54.902344 171.167969 59.785156 218.886719 59.785156 226.371094 C 60.609375 228.996094 70.847656 238.429688 78.328125 245.328125 C 97.289062 262.789062 120.867188 284.546875 120.867188 304.109375 L 120.867188 331.875 C 120.867188 334.933594 118.371094 337.429688 115.3125 337.429688 " fill-opacity="1" fill-rule="nonzero"/></g><g clip-path="url(#ab8957aed8)"><path fill="#60c6b4" d="M 131.972656 48.679688 C 113.121094 48.679688 93.101562 63.992188 93.101562 92.339844 C 93.101562 125.574219 133.488281 172.921875 187.5 203.355469 C 241.488281 172.921875 281.898438 125.574219 281.898438 92.339844 C 281.898438 63.992188 261.878906 48.679688 243.027344 48.679688 C 219.796875 48.679688 200.6875 74.1875 192.769531 97.894531 C 192.011719 100.152344 189.886719 101.691406 187.5 101.691406 C 185.113281 101.691406 182.988281 100.152344 182.230469 97.894531 C 174.3125 74.1875 155.203125 48.679688 131.972656 48.679688 Z M 187.5 215.265625 C 186.589844 215.265625 185.65625 215.046875 184.832031 214.59375 C 125.246094 181.882812 81.996094 130.472656 81.996094 92.339844 C 81.996094 56.769531 107.742188 37.570312 131.972656 37.570312 C 156.394531 37.570312 176.242188 57.984375 187.5 81.410156 C 198.757812 57.984375 218.582031 37.570312 243.027344 37.570312 C 267.257812 37.570312 293.003906 56.769531 293.003906 92.339844 C 293.003906 130.472656 249.753906 181.882812 190.167969 214.59375 C 189.34375 215.046875 188.410156 215.265625 187.5 215.265625 " fill-opacity="1" fill-rule="nonzero"/></g></svg>