<svg xmlns="http://www.w3.org/2000/svg" xmlns:xlink="http://www.w3.org/1999/xlink" width="500" zoomAndPan="magnify" viewBox="0 0 375 374.999991" height="500" preserveAspectRatio="xMidYMid meet" version="1.0"><defs><clipPath id="e7bd50f781"><path d="M 37.5 81.375 L 337.5 81.375 L 337.5 337.875 L 37.5 337.875 Z M 37.5 81.375 " clip-rule="nonzero"/></clipPath></defs><g clip-path="url(#e7bd50f781)"><path fill="#60c6b4" d="M 168.277344 147.324219 L 151.613281 147.324219 L 151.613281 130.660156 C 151.613281 130.390625 151.585938 130.125 151.535156 129.859375 C 151.484375 129.597656 151.40625 129.339844 151.300781 129.089844 C 151.199219 128.84375 151.074219 128.605469 150.921875 128.382812 C 150.773438 128.160156 150.605469 127.953125 150.414062 127.761719 C 150.222656 127.570312 150.015625 127.402344 149.792969 127.25 C 149.566406 127.101562 149.332031 126.976562 149.082031 126.875 C 148.835938 126.769531 148.578125 126.691406 148.316406 126.640625 C 148.050781 126.585938 147.785156 126.5625 147.515625 126.5625 L 119.960938 126.5625 C 119.691406 126.5625 119.425781 126.585938 119.160156 126.640625 C 118.894531 126.691406 118.640625 126.769531 118.390625 126.875 C 118.144531 126.976562 117.90625 127.101562 117.683594 127.25 C 117.460938 127.402344 117.253906 127.570312 117.0625 127.761719 C 116.871094 127.953125 116.703125 128.160156 116.550781 128.382812 C 116.402344 128.605469 116.277344 128.84375 116.171875 129.089844 C 116.070312 129.339844 115.992188 129.597656 115.941406 129.859375 C 115.886719 130.125 115.859375 130.390625 115.859375 130.660156 L 115.859375 147.324219 L 99.195312 147.324219 C 98.929688 147.324219 98.660156 147.351562 98.398438 147.402344 C 98.132812 147.457031 97.878906 147.535156 97.628906 147.636719 C 97.378906 147.738281 97.144531 147.867188 96.921875 148.015625 C 96.695312 148.164062 96.488281 148.335938 96.296875 148.523438 C 96.109375 148.714844 95.9375 148.921875 95.789062 149.144531 C 95.640625 149.371094 95.511719 149.605469 95.410156 149.855469 C 95.308594 150.105469 95.230469 150.359375 95.175781 150.625 C 95.125 150.886719 95.097656 151.15625 95.097656 151.421875 L 95.097656 178.976562 C 95.097656 179.246094 95.125 179.511719 95.175781 179.777344 C 95.230469 180.042969 95.308594 180.296875 95.410156 180.546875 C 95.511719 180.796875 95.640625 181.03125 95.789062 181.253906 C 95.9375 181.480469 96.109375 181.6875 96.296875 181.875 C 96.488281 182.066406 96.695312 182.234375 96.921875 182.386719 C 97.144531 182.535156 97.378906 182.660156 97.628906 182.765625 C 97.878906 182.867188 98.132812 182.945312 98.398438 182.996094 C 98.660156 183.050781 98.929688 183.078125 99.195312 183.078125 L 115.863281 183.078125 L 115.863281 199.742188 C 115.863281 200.011719 115.890625 200.277344 115.941406 200.539062 C 115.992188 200.804688 116.070312 201.0625 116.175781 201.308594 C 116.277344 201.558594 116.402344 201.792969 116.554688 202.019531 C 116.703125 202.242188 116.875 202.449219 117.0625 202.640625 C 117.253906 202.828125 117.460938 203 117.683594 203.148438 C 117.910156 203.296875 118.144531 203.425781 118.394531 203.527344 C 118.640625 203.632812 118.898438 203.707031 119.164062 203.761719 C 119.425781 203.8125 119.691406 203.839844 119.960938 203.839844 L 147.515625 203.839844 C 147.785156 203.839844 148.050781 203.8125 148.316406 203.761719 C 148.578125 203.707031 148.835938 203.632812 149.085938 203.527344 C 149.332031 203.425781 149.570312 203.296875 149.792969 203.148438 C 150.015625 203 150.222656 202.828125 150.414062 202.640625 C 150.605469 202.449219 150.773438 202.242188 150.921875 202.019531 C 151.074219 201.792969 151.199219 201.558594 151.300781 201.308594 C 151.40625 201.0625 151.484375 200.804688 151.535156 200.539062 C 151.589844 200.277344 151.613281 200.011719 151.613281 199.742188 L 151.613281 183.078125 L 168.28125 183.078125 C 168.546875 183.078125 168.816406 183.050781 169.078125 183 C 169.34375 182.949219 169.597656 182.871094 169.847656 182.765625 C 170.097656 182.664062 170.332031 182.539062 170.558594 182.386719 C 170.78125 182.238281 170.988281 182.070312 171.179688 181.878906 C 171.367188 181.6875 171.539062 181.480469 171.6875 181.257812 C 171.835938 181.035156 171.964844 180.796875 172.066406 180.546875 C 172.167969 180.300781 172.246094 180.042969 172.300781 179.78125 C 172.351562 179.515625 172.378906 179.25 172.378906 178.980469 L 172.378906 151.425781 C 172.378906 151.15625 172.351562 150.890625 172.300781 150.625 C 172.246094 150.359375 172.167969 150.105469 172.066406 149.855469 C 171.964844 149.605469 171.835938 149.371094 171.6875 149.148438 C 171.539062 148.921875 171.367188 148.714844 171.179688 148.523438 C 170.988281 148.335938 170.78125 148.164062 170.558594 148.015625 C 170.332031 147.867188 170.097656 147.738281 169.847656 147.636719 C 169.597656 147.535156 169.34375 147.457031 169.078125 147.402344 C 168.816406 147.351562 168.546875 147.324219 168.277344 147.324219 Z M 164.179688 174.878906 L 147.515625 174.878906 C 147.246094 174.878906 146.980469 174.90625 146.714844 174.957031 C 146.453125 175.011719 146.195312 175.085938 145.945312 175.191406 C 145.699219 175.292969 145.460938 175.421875 145.238281 175.570312 C 145.015625 175.71875 144.808594 175.890625 144.617188 176.078125 C 144.425781 176.269531 144.257812 176.476562 144.105469 176.699219 C 143.957031 176.925781 143.832031 177.160156 143.726562 177.410156 C 143.625 177.65625 143.546875 177.914062 143.496094 178.179688 C 143.441406 178.441406 143.414062 178.707031 143.414062 178.976562 L 143.414062 195.640625 L 124.058594 195.640625 L 124.058594 178.980469 C 124.058594 178.710938 124.035156 178.441406 123.980469 178.179688 C 123.929688 177.914062 123.851562 177.660156 123.75 177.410156 C 123.644531 177.160156 123.519531 176.925781 123.371094 176.703125 C 123.21875 176.476562 123.050781 176.269531 122.859375 176.082031 C 122.667969 175.890625 122.460938 175.71875 122.238281 175.570312 C 122.015625 175.421875 121.777344 175.296875 121.53125 175.191406 C 121.28125 175.089844 121.023438 175.011719 120.761719 174.957031 C 120.496094 174.90625 120.230469 174.878906 119.960938 174.878906 L 103.296875 174.878906 L 103.296875 155.523438 L 119.960938 155.523438 C 120.230469 155.523438 120.496094 155.5 120.761719 155.445312 C 121.027344 155.394531 121.28125 155.316406 121.53125 155.210938 C 121.777344 155.109375 122.015625 154.984375 122.238281 154.832031 C 122.460938 154.683594 122.667969 154.515625 122.859375 154.324219 C 123.050781 154.132812 123.21875 153.925781 123.371094 153.703125 C 123.519531 153.480469 123.644531 153.242188 123.75 152.996094 C 123.851562 152.746094 123.929688 152.488281 123.980469 152.226562 C 124.035156 151.960938 124.0625 151.695312 124.0625 151.425781 L 124.0625 134.761719 L 143.414062 134.761719 L 143.414062 151.425781 C 143.414062 151.695312 143.441406 151.960938 143.492188 152.222656 C 143.546875 152.488281 143.625 152.746094 143.726562 152.992188 C 143.828125 153.242188 143.957031 153.476562 144.105469 153.703125 C 144.253906 153.925781 144.425781 154.132812 144.613281 154.324219 C 144.804688 154.511719 145.011719 154.683594 145.234375 154.832031 C 145.460938 154.980469 145.695312 155.109375 145.945312 155.210938 C 146.191406 155.316406 146.449219 155.390625 146.714844 155.445312 C 146.976562 155.496094 147.242188 155.523438 147.511719 155.523438 L 164.179688 155.523438 Z M 257 265.875 L 233.859375 265.875 C 233.589844 265.875 233.324219 265.902344 233.058594 265.953125 C 232.796875 266.007812 232.539062 266.085938 232.292969 266.1875 C 232.042969 266.289062 231.808594 266.417969 231.582031 266.566406 C 231.359375 266.714844 231.152344 266.886719 230.960938 267.074219 C 230.769531 267.265625 230.601562 267.472656 230.453125 267.695312 C 230.300781 267.921875 230.175781 268.15625 230.074219 268.40625 C 229.96875 268.652344 229.890625 268.910156 229.839844 269.175781 C 229.789062 269.4375 229.761719 269.703125 229.761719 269.972656 L 229.761719 293.113281 C 229.761719 293.382812 229.789062 293.648438 229.839844 293.914062 C 229.890625 294.179688 229.96875 294.433594 230.074219 294.683594 C 230.175781 294.929688 230.300781 295.167969 230.453125 295.390625 C 230.601562 295.617188 230.769531 295.824219 230.960938 296.011719 C 231.152344 296.203125 231.359375 296.371094 231.582031 296.523438 C 231.808594 296.671875 232.042969 296.796875 232.292969 296.902344 C 232.539062 297.003906 232.796875 297.082031 233.058594 297.132812 C 233.324219 297.1875 233.589844 297.214844 233.859375 297.214844 L 257 297.214844 C 257.269531 297.214844 257.535156 297.1875 257.800781 297.132812 C 258.0625 297.082031 258.320312 297.003906 258.566406 296.902344 C 258.816406 296.796875 259.050781 296.671875 259.277344 296.523438 C 259.5 296.371094 259.707031 296.203125 259.898438 296.011719 C 260.085938 295.824219 260.257812 295.617188 260.40625 295.390625 C 260.558594 295.167969 260.683594 294.929688 260.785156 294.683594 C 260.890625 294.433594 260.96875 294.179688 261.019531 293.914062 C 261.070312 293.648438 261.097656 293.382812 261.097656 293.113281 L 261.097656 269.972656 C 261.097656 269.703125 261.070312 269.4375 261.019531 269.171875 C 260.96875 268.910156 260.890625 268.652344 260.785156 268.40625 C 260.683594 268.15625 260.558594 267.917969 260.40625 267.695312 C 260.257812 267.472656 260.089844 267.265625 259.898438 267.074219 C 259.707031 266.882812 259.5 266.714844 259.277344 266.5625 C 259.054688 266.414062 258.816406 266.289062 258.566406 266.183594 C 258.320312 266.082031 258.0625 266.003906 257.800781 265.953125 C 257.535156 265.898438 257.269531 265.875 257 265.875 Z M 252.902344 289.011719 L 237.960938 289.011719 L 237.960938 274.074219 L 252.898438 274.074219 Z M 333.304688 196.390625 C 333.574219 196.390625 333.839844 196.363281 334.105469 196.3125 C 334.367188 196.257812 334.625 196.179688 334.875 196.078125 C 335.121094 195.976562 335.359375 195.847656 335.582031 195.699219 C 335.804688 195.550781 336.011719 195.378906 336.203125 195.191406 C 336.394531 195 336.5625 194.792969 336.714844 194.570312 C 336.863281 194.34375 336.988281 194.109375 337.09375 193.859375 C 337.195312 193.613281 337.273438 193.355469 337.324219 193.089844 C 337.378906 192.828125 337.402344 192.5625 337.402344 192.292969 L 337.402344 173.203125 C 337.402344 172.933594 337.378906 172.667969 337.324219 172.402344 C 337.273438 172.136719 337.195312 171.882812 337.09375 171.632812 C 336.988281 171.386719 336.863281 171.148438 336.714844 170.925781 C 336.5625 170.703125 336.394531 170.496094 336.203125 170.304688 C 336.011719 170.113281 335.804688 169.945312 335.582031 169.792969 C 335.359375 169.644531 335.121094 169.519531 334.875 169.414062 C 334.625 169.3125 334.367188 169.234375 334.105469 169.183594 C 333.839844 169.128906 333.574219 169.101562 333.304688 169.101562 L 218.292969 169.101562 L 218.292969 108.667969 L 225.777344 108.667969 C 226.046875 108.667969 226.3125 108.640625 226.574219 108.585938 C 226.839844 108.535156 227.097656 108.457031 227.34375 108.355469 C 227.59375 108.25 227.828125 108.125 228.054688 107.976562 C 228.277344 107.824219 228.484375 107.65625 228.675781 107.464844 C 228.863281 107.277344 229.035156 107.070312 229.183594 106.84375 C 229.335938 106.621094 229.460938 106.382812 229.5625 106.136719 C 229.667969 105.886719 229.742188 105.632812 229.796875 105.367188 C 229.847656 105.101562 229.875 104.835938 229.875 104.566406 L 229.875 85.476562 C 229.875 85.207031 229.847656 84.941406 229.796875 84.679688 C 229.742188 84.414062 229.667969 84.15625 229.5625 83.910156 C 229.460938 83.660156 229.335938 83.425781 229.183594 83.199219 C 229.035156 82.976562 228.863281 82.769531 228.675781 82.578125 C 228.484375 82.390625 228.277344 82.21875 228.054688 82.070312 C 227.828125 81.921875 227.59375 81.792969 227.34375 81.691406 C 227.097656 81.589844 226.839844 81.511719 226.574219 81.457031 C 226.3125 81.40625 226.046875 81.378906 225.777344 81.378906 L 41.695312 81.378906 C 41.425781 81.378906 41.160156 81.40625 40.894531 81.457031 C 40.632812 81.511719 40.375 81.589844 40.125 81.691406 C 39.878906 81.792969 39.640625 81.921875 39.417969 82.070312 C 39.195312 82.21875 38.988281 82.390625 38.796875 82.578125 C 38.605469 82.769531 38.4375 82.976562 38.285156 83.199219 C 38.136719 83.425781 38.011719 83.660156 37.90625 83.910156 C 37.804688 84.15625 37.726562 84.414062 37.675781 84.679688 C 37.621094 84.941406 37.597656 85.207031 37.597656 85.476562 L 37.597656 104.566406 C 37.597656 104.835938 37.621094 105.101562 37.675781 105.367188 C 37.726562 105.632812 37.804688 105.886719 37.90625 106.136719 C 38.011719 106.382812 38.136719 106.621094 38.285156 106.84375 C 38.4375 107.070312 38.605469 107.277344 38.796875 107.464844 C 38.988281 107.65625 39.195312 107.824219 39.417969 107.976562 C 39.640625 108.125 39.878906 108.25 40.125 108.355469 C 40.375 108.457031 40.632812 108.535156 40.894531 108.585938 C 41.160156 108.640625 41.425781 108.667969 41.695312 108.667969 L 49.164062 108.667969 L 49.164062 310.207031 L 41.695312 310.207031 C 41.425781 310.207031 41.160156 310.234375 40.894531 310.289062 C 40.632812 310.339844 40.375 310.417969 40.125 310.519531 C 39.878906 310.625 39.640625 310.75 39.417969 310.898438 C 39.195312 311.050781 38.988281 311.21875 38.796875 311.410156 C 38.605469 311.597656 38.4375 311.804688 38.285156 312.03125 C 38.136719 312.253906 38.011719 312.492188 37.90625 312.738281 C 37.804688 312.988281 37.726562 313.242188 37.675781 313.507812 C 37.621094 313.773438 37.597656 314.039062 37.597656 314.308594 L 37.597656 333.398438 C 37.597656 333.667969 37.621094 333.933594 37.675781 334.195312 C 37.726562 334.460938 37.804688 334.71875 37.90625 334.964844 C 38.011719 335.214844 38.136719 335.449219 38.285156 335.675781 C 38.4375 335.898438 38.605469 336.105469 38.796875 336.296875 C 38.988281 336.484375 39.195312 336.65625 39.417969 336.804688 C 39.640625 336.953125 39.878906 337.082031 40.125 337.183594 C 40.375 337.285156 40.632812 337.363281 40.894531 337.417969 C 41.160156 337.46875 41.425781 337.496094 41.695312 337.496094 L 333.304688 337.496094 C 333.574219 337.496094 333.839844 337.46875 334.105469 337.417969 C 334.367188 337.363281 334.625 337.285156 334.875 337.183594 C 335.121094 337.082031 335.359375 336.953125 335.582031 336.804688 C 335.804688 336.65625 336.011719 336.484375 336.203125 336.296875 C 336.394531 336.105469 336.5625 335.898438 336.714844 335.675781 C 336.863281 335.449219 336.988281 335.214844 337.09375 334.964844 C 337.195312 334.71875 337.273438 334.460938 337.324219 334.195312 C 337.378906 333.933594 337.402344 333.667969 337.402344 333.398438 L 337.402344 314.308594 C 337.402344 314.039062 337.378906 313.773438 337.324219 313.507812 C 337.273438 313.242188 337.195312 312.988281 337.09375 312.738281 C 336.988281 312.492188 336.863281 312.253906 336.714844 312.03125 C 336.5625 311.804688 336.394531 311.597656 336.203125 311.410156 C 336.011719 311.21875 335.804688 311.050781 335.582031 310.898438 C 335.359375 310.75 335.121094 310.625 334.875 310.519531 C 334.625 310.417969 334.367188 310.339844 334.105469 310.289062 C 333.839844 310.234375 333.574219 310.207031 333.304688 310.207031 L 324.324219 310.207031 L 324.324219 196.390625 Z M 45.792969 100.464844 L 45.792969 89.578125 L 221.675781 89.578125 L 221.675781 100.464844 Z M 218.289062 196.386719 L 316.125 196.386719 L 316.125 310.207031 L 218.292969 310.207031 Z M 187.75 221.734375 L 79.707031 221.734375 C 79.4375 221.734375 79.171875 221.761719 78.910156 221.8125 C 78.644531 221.867188 78.386719 221.941406 78.140625 222.046875 C 77.890625 222.148438 77.65625 222.277344 77.429688 222.425781 C 77.207031 222.574219 77 222.746094 76.808594 222.933594 C 76.621094 223.125 76.449219 223.332031 76.300781 223.554688 C 76.148438 223.78125 76.023438 224.015625 75.921875 224.265625 C 75.816406 224.511719 75.742188 224.769531 75.6875 225.035156 C 75.636719 225.296875 75.609375 225.5625 75.609375 225.832031 C 75.609375 226.101562 75.636719 226.367188 75.6875 226.632812 C 75.742188 226.898438 75.816406 227.152344 75.921875 227.402344 C 76.023438 227.652344 76.148438 227.886719 76.300781 228.109375 C 76.449219 228.335938 76.621094 228.542969 76.808594 228.730469 C 77 228.921875 77.207031 229.09375 77.429688 229.242188 C 77.65625 229.390625 77.890625 229.515625 78.140625 229.621094 C 78.386719 229.722656 78.644531 229.800781 78.910156 229.851562 C 79.171875 229.90625 79.4375 229.933594 79.707031 229.933594 L 86.265625 229.933594 L 86.265625 310.207031 L 57.367188 310.207031 L 57.367188 108.667969 L 210.089844 108.667969 L 210.089844 310.207031 L 181.210938 310.207031 L 181.210938 229.9375 L 187.75 229.9375 C 188.019531 229.9375 188.285156 229.910156 188.546875 229.859375 C 188.8125 229.804688 189.070312 229.726562 189.316406 229.625 C 189.566406 229.523438 189.800781 229.394531 190.027344 229.246094 C 190.25 229.097656 190.457031 228.925781 190.648438 228.734375 C 190.835938 228.546875 191.007812 228.339844 191.15625 228.113281 C 191.304688 227.890625 191.433594 227.65625 191.535156 227.40625 C 191.640625 227.15625 191.714844 226.902344 191.769531 226.636719 C 191.820312 226.375 191.847656 226.105469 191.847656 225.839844 C 191.847656 225.570312 191.820312 225.300781 191.769531 225.039062 C 191.714844 224.773438 191.640625 224.519531 191.535156 224.269531 C 191.433594 224.019531 191.304688 223.785156 191.15625 223.5625 C 191.007812 223.335938 190.835938 223.128906 190.648438 222.941406 C 190.457031 222.75 190.25 222.578125 190.027344 222.429688 C 189.800781 222.28125 189.566406 222.152344 189.316406 222.050781 C 189.070312 221.949219 188.8125 221.871094 188.546875 221.816406 C 188.285156 221.765625 188.019531 221.738281 187.75 221.738281 Z M 173.007812 229.933594 L 173.007812 310.207031 L 137.835938 310.207031 L 137.835938 229.9375 Z M 129.636719 229.933594 L 129.636719 310.207031 L 94.464844 310.207031 L 94.464844 229.9375 Z M 329.207031 318.410156 L 329.207031 329.300781 L 45.792969 329.300781 L 45.792969 318.410156 Z M 218.292969 188.191406 L 218.292969 177.304688 L 329.207031 177.304688 L 329.207031 188.191406 Z M 142.75 273.410156 L 142.75 265.890625 C 142.75 265.621094 142.777344 265.355469 142.828125 265.089844 C 142.878906 264.824219 142.957031 264.570312 143.0625 264.320312 C 143.164062 264.074219 143.289062 263.835938 143.441406 263.613281 C 143.589844 263.390625 143.761719 263.183594 143.949219 262.992188 C 144.140625 262.800781 144.347656 262.632812 144.570312 262.480469 C 144.796875 262.332031 145.03125 262.207031 145.28125 262.101562 C 145.527344 262 145.785156 261.921875 146.046875 261.871094 C 146.3125 261.816406 146.578125 261.789062 146.847656 261.789062 C 147.117188 261.789062 147.382812 261.816406 147.648438 261.871094 C 147.914062 261.921875 148.167969 262 148.417969 262.101562 C 148.664062 262.207031 148.902344 262.332031 149.125 262.480469 C 149.347656 262.632812 149.554688 262.800781 149.746094 262.992188 C 149.9375 263.183594 150.105469 263.390625 150.257812 263.613281 C 150.40625 263.835938 150.53125 264.074219 150.636719 264.320312 C 150.738281 264.570312 150.816406 264.824219 150.867188 265.089844 C 150.921875 265.355469 150.949219 265.621094 150.949219 265.890625 L 150.949219 273.410156 C 150.949219 273.679688 150.921875 273.945312 150.867188 274.207031 C 150.816406 274.472656 150.738281 274.730469 150.636719 274.976562 C 150.53125 275.226562 150.40625 275.460938 150.257812 275.6875 C 150.105469 275.910156 149.9375 276.117188 149.746094 276.308594 C 149.554688 276.496094 149.347656 276.667969 149.125 276.816406 C 148.902344 276.964844 148.664062 277.09375 148.417969 277.195312 C 148.167969 277.300781 147.914062 277.375 147.648438 277.429688 C 147.382812 277.480469 147.117188 277.507812 146.847656 277.507812 C 146.578125 277.507812 146.3125 277.480469 146.046875 277.429688 C 145.785156 277.375 145.527344 277.300781 145.28125 277.195312 C 145.03125 277.09375 144.796875 276.964844 144.570312 276.816406 C 144.347656 276.667969 144.140625 276.496094 143.949219 276.308594 C 143.761719 276.117188 143.589844 275.910156 143.441406 275.6875 C 143.289062 275.460938 143.164062 275.226562 143.0625 274.976562 C 142.957031 274.730469 142.878906 274.472656 142.828125 274.207031 C 142.777344 273.945312 142.75 273.679688 142.75 273.410156 Z M 300.570312 218.933594 L 277.433594 218.933594 C 277.164062 218.933594 276.898438 218.957031 276.632812 219.011719 C 276.367188 219.0625 276.113281 219.140625 275.863281 219.242188 C 275.613281 219.347656 275.378906 219.472656 275.15625 219.621094 C 274.929688 219.773438 274.722656 219.941406 274.535156 220.132812 C 274.34375 220.324219 274.171875 220.53125 274.023438 220.753906 C 273.875 220.976562 273.75 221.214844 273.644531 221.460938 C 273.542969 221.710938 273.464844 221.96875 273.414062 222.230469 C 273.359375 222.496094 273.332031 222.761719 273.332031 223.03125 L 273.332031 246.167969 C 273.332031 246.4375 273.359375 246.703125 273.414062 246.96875 C 273.464844 247.234375 273.542969 247.488281 273.644531 247.738281 C 273.75 247.988281 273.875 248.222656 274.023438 248.445312 C 274.171875 248.671875 274.34375 248.878906 274.535156 249.066406 C 274.722656 249.257812 274.929688 249.429688 275.15625 249.578125 C 275.378906 249.726562 275.613281 249.851562 275.863281 249.957031 C 276.113281 250.058594 276.367188 250.136719 276.632812 250.1875 C 276.898438 250.242188 277.164062 250.269531 277.433594 250.269531 L 300.570312 250.269531 C 300.839844 250.269531 301.109375 250.242188 301.371094 250.1875 C 301.636719 250.136719 301.890625 250.058594 302.140625 249.957031 C 302.390625 249.851562 302.625 249.726562 302.847656 249.578125 C 303.074219 249.429688 303.28125 249.257812 303.46875 249.066406 C 303.660156 248.878906 303.832031 248.671875 303.980469 248.445312 C 304.128906 248.222656 304.257812 247.988281 304.359375 247.738281 C 304.460938 247.488281 304.539062 247.234375 304.59375 246.96875 C 304.644531 246.703125 304.671875 246.4375 304.671875 246.167969 L 304.671875 223.03125 C 304.671875 222.761719 304.644531 222.496094 304.59375 222.230469 C 304.539062 221.96875 304.460938 221.710938 304.359375 221.464844 C 304.257812 221.214844 304.128906 220.976562 303.980469 220.753906 C 303.832031 220.53125 303.660156 220.324219 303.472656 220.132812 C 303.28125 219.941406 303.074219 219.773438 302.851562 219.621094 C 302.625 219.472656 302.390625 219.347656 302.140625 219.242188 C 301.890625 219.140625 301.636719 219.0625 301.371094 219.011719 C 301.109375 218.957031 300.839844 218.933594 300.570312 218.933594 Z M 296.472656 242.070312 L 281.53125 242.070312 L 281.53125 227.132812 L 296.472656 227.132812 Z M 257 218.933594 L 233.859375 218.933594 C 233.589844 218.933594 233.324219 218.957031 233.058594 219.011719 C 232.796875 219.0625 232.539062 219.140625 232.292969 219.242188 C 232.042969 219.347656 231.808594 219.472656 231.582031 219.621094 C 231.359375 219.773438 231.152344 219.941406 230.960938 220.132812 C 230.769531 220.324219 230.601562 220.53125 230.453125 220.753906 C 230.300781 220.976562 230.175781 221.214844 230.074219 221.460938 C 229.96875 221.710938 229.890625 221.96875 229.839844 222.230469 C 229.789062 222.496094 229.761719 222.761719 229.761719 223.03125 L 229.761719 246.167969 C 229.761719 246.4375 229.789062 246.703125 229.839844 246.96875 C 229.890625 247.234375 229.96875 247.488281 230.074219 247.738281 C 230.175781 247.988281 230.300781 248.222656 230.453125 248.445312 C 230.601562 248.671875 230.769531 248.878906 230.960938 249.066406 C 231.152344 249.257812 231.359375 249.429688 231.582031 249.578125 C 231.808594 249.726562 232.042969 249.851562 232.292969 249.957031 C 232.539062 250.058594 232.796875 250.136719 233.058594 250.1875 C 233.324219 250.242188 233.589844 250.269531 233.859375 250.269531 L 257 250.269531 C 257.269531 250.269531 257.535156 250.242188 257.800781 250.1875 C 258.0625 250.136719 258.320312 250.058594 258.566406 249.957031 C 258.816406 249.851562 259.050781 249.726562 259.277344 249.578125 C 259.5 249.429688 259.707031 249.257812 259.898438 249.066406 C 260.085938 248.878906 260.257812 248.671875 260.40625 248.445312 C 260.558594 248.222656 260.683594 247.988281 260.785156 247.738281 C 260.890625 247.488281 260.96875 247.234375 261.019531 246.96875 C 261.070312 246.703125 261.097656 246.4375 261.097656 246.167969 L 261.097656 223.03125 C 261.097656 222.761719 261.070312 222.496094 261.019531 222.230469 C 260.96875 221.96875 260.890625 221.710938 260.785156 221.464844 C 260.683594 221.214844 260.558594 220.976562 260.40625 220.753906 C 260.257812 220.53125 260.089844 220.324219 259.898438 220.132812 C 259.707031 219.941406 259.5 219.773438 259.277344 219.621094 C 259.054688 219.472656 258.816406 219.347656 258.566406 219.242188 C 258.320312 219.140625 258.0625 219.0625 257.800781 219.011719 C 257.535156 218.957031 257.269531 218.933594 257 218.933594 Z M 252.902344 242.070312 L 237.960938 242.070312 L 237.960938 227.132812 L 252.898438 227.132812 Z M 116.523438 273.410156 L 116.523438 265.890625 C 116.523438 265.621094 116.550781 265.355469 116.605469 265.089844 C 116.65625 264.824219 116.734375 264.570312 116.835938 264.320312 C 116.941406 264.074219 117.066406 263.835938 117.214844 263.613281 C 117.367188 263.390625 117.535156 263.183594 117.726562 262.992188 C 117.914062 262.800781 118.125 262.632812 118.347656 262.480469 C 118.570312 262.332031 118.808594 262.207031 119.054688 262.101562 C 119.304688 262 119.558594 261.921875 119.824219 261.871094 C 120.089844 261.816406 120.355469 261.789062 120.625 261.789062 C 120.894531 261.789062 121.160156 261.816406 121.421875 261.871094 C 121.6875 261.921875 121.945312 262 122.191406 262.101562 C 122.441406 262.207031 122.675781 262.332031 122.902344 262.480469 C 123.125 262.632812 123.332031 262.800781 123.523438 262.992188 C 123.710938 263.183594 123.882812 263.390625 124.03125 263.613281 C 124.183594 263.835938 124.308594 264.074219 124.410156 264.320312 C 124.515625 264.570312 124.589844 264.824219 124.644531 265.089844 C 124.695312 265.355469 124.722656 265.621094 124.722656 265.890625 L 124.722656 273.410156 C 124.722656 273.679688 124.695312 273.945312 124.644531 274.207031 C 124.589844 274.472656 124.515625 274.730469 124.410156 274.976562 C 124.308594 275.226562 124.183594 275.460938 124.03125 275.6875 C 123.882812 275.910156 123.710938 276.117188 123.523438 276.308594 C 123.332031 276.496094 123.125 276.667969 122.902344 276.816406 C 122.675781 276.964844 122.441406 277.09375 122.191406 277.195312 C 121.945312 277.300781 121.6875 277.375 121.421875 277.429688 C 121.160156 277.480469 120.894531 277.507812 120.625 277.507812 C 120.355469 277.507812 120.089844 277.480469 119.824219 277.429688 C 119.558594 277.375 119.304688 277.300781 119.054688 277.195312 C 118.808594 277.09375 118.570312 276.964844 118.347656 276.816406 C 118.125 276.667969 117.914062 276.496094 117.726562 276.308594 C 117.535156 276.117188 117.367188 275.910156 117.214844 275.6875 C 117.066406 275.460938 116.941406 275.226562 116.835938 274.976562 C 116.734375 274.730469 116.65625 274.472656 116.605469 274.207031 C 116.550781 273.945312 116.523438 273.679688 116.523438 273.410156 Z M 300.570312 265.875 L 277.433594 265.875 C 277.164062 265.875 276.898438 265.898438 276.632812 265.953125 C 276.367188 266.003906 276.113281 266.082031 275.863281 266.183594 C 275.613281 266.289062 275.378906 266.414062 275.15625 266.5625 C 274.929688 266.714844 274.722656 266.882812 274.535156 267.074219 C 274.34375 267.265625 274.171875 267.472656 274.023438 267.695312 C 273.875 267.917969 273.75 268.15625 273.644531 268.402344 C 273.542969 268.652344 273.464844 268.910156 273.414062 269.171875 C 273.359375 269.4375 273.332031 269.703125 273.332031 269.972656 L 273.332031 293.113281 C 273.332031 293.382812 273.359375 293.648438 273.414062 293.914062 C 273.464844 294.179688 273.542969 294.433594 273.644531 294.683594 C 273.75 294.929688 273.875 295.167969 274.023438 295.390625 C 274.171875 295.617188 274.34375 295.824219 274.535156 296.011719 C 274.722656 296.203125 274.929688 296.371094 275.15625 296.523438 C 275.378906 296.671875 275.613281 296.796875 275.863281 296.902344 C 276.113281 297.003906 276.367188 297.082031 276.632812 297.132812 C 276.898438 297.1875 277.164062 297.214844 277.433594 297.214844 L 300.570312 297.214844 C 300.839844 297.214844 301.109375 297.1875 301.371094 297.132812 C 301.636719 297.082031 301.890625 297.003906 302.140625 296.902344 C 302.390625 296.796875 302.625 296.671875 302.847656 296.523438 C 303.074219 296.371094 303.28125 296.203125 303.46875 296.011719 C 303.660156 295.824219 303.832031 295.617188 303.980469 295.390625 C 304.128906 295.167969 304.257812 294.929688 304.359375 294.683594 C 304.460938 294.433594 304.539062 294.179688 304.59375 293.914062 C 304.644531 293.648438 304.671875 293.382812 304.671875 293.113281 L 304.671875 269.972656 C 304.671875 269.703125 304.644531 269.4375 304.59375 269.171875 C 304.539062 268.910156 304.460938 268.652344 304.359375 268.40625 C 304.257812 268.15625 304.128906 267.917969 303.980469 267.695312 C 303.832031 267.472656 303.660156 267.265625 303.472656 267.074219 C 303.28125 266.882812 303.074219 266.714844 302.851562 266.5625 C 302.625 266.414062 302.390625 266.289062 302.140625 266.183594 C 301.890625 266.082031 301.636719 266.003906 301.371094 265.953125 C 301.109375 265.898438 300.839844 265.875 300.570312 265.875 Z M 296.472656 289.011719 L 281.53125 289.011719 L 281.53125 274.074219 L 296.472656 274.074219 Z M 296.472656 289.011719 " fill-opacity="1" fill-rule="nonzero"/></g></svg>