<svg xmlns="http://www.w3.org/2000/svg" xmlns:xlink="http://www.w3.org/1999/xlink" width="500" zoomAndPan="magnify" viewBox="0 0 375 374.999991" height="500" preserveAspectRatio="xMidYMid meet" version="1.0"><rect x="-37.5" width="450" fill="#ffffff" y="-37.499999" height="449.999989" fill-opacity="1"/><rect x="-37.5" width="450" fill="#ffffff" y="-37.499999" height="449.999989" fill-opacity="1"/><path fill="#60c6b4" d="M 365.867188 23.457031 C 364.523438 22.457031 363.085938 21.628906 361.546875 20.964844 C 360.011719 20.304688 358.417969 19.832031 356.769531 19.542969 C 355.121094 19.257812 353.460938 19.167969 351.792969 19.269531 C 350.121094 19.371094 348.488281 19.667969 346.886719 20.15625 C 346.308594 18.421875 345.519531 16.792969 344.511719 15.269531 C 343.507812 13.742188 342.320312 12.375 340.953125 11.164062 C 339.585938 9.949219 338.085938 8.9375 336.449219 8.121094 C 334.816406 7.304688 333.101562 6.714844 331.3125 6.351562 C 329.800781 6.089844 328.28125 5.992188 326.753906 6.058594 C 325.222656 6.125 323.71875 6.355469 322.238281 6.746094 C 320.757812 7.140625 319.335938 7.683594 317.972656 8.382812 C 316.609375 9.082031 315.335938 9.917969 314.15625 10.890625 C 313.273438 9.707031 312.265625 8.640625 311.140625 7.6875 C 310.011719 6.738281 308.789062 5.925781 307.476562 5.257812 C 306.160156 4.585938 304.789062 4.074219 303.355469 3.71875 C 301.921875 3.367188 300.46875 3.179688 298.992188 3.160156 C 297.671875 3.183594 296.363281 3.339844 295.074219 3.628906 C 293.785156 3.921875 292.535156 4.335938 291.332031 4.882812 C 290.125 5.425781 288.988281 6.085938 287.917969 6.859375 C 286.847656 7.636719 285.863281 8.511719 284.972656 9.488281 C 282.339844 7.351562 279.347656 6.035156 275.992188 5.542969 C 275.039062 5.445312 274.082031 5.414062 273.125 5.453125 C 272.164062 5.492188 271.214844 5.597656 270.269531 5.773438 C 269.328125 5.945312 268.398438 6.1875 267.488281 6.492188 C 266.582031 6.796875 265.695312 7.164062 264.839844 7.59375 C 263.984375 8.027344 263.160156 8.515625 262.371094 9.0625 C 261.585938 9.609375 260.839844 10.210938 260.136719 10.863281 C 259.433594 11.519531 258.78125 12.21875 258.179688 12.964844 C 257.574219 13.710938 257.027344 14.496094 256.535156 15.320312 C 255.671875 16.789062 255.035156 18.347656 254.625 20 C 253.898438 23.378906 253.402344 26.792969 253.136719 30.238281 C 236.324219 30.191406 198.578125 30.101562 194.976562 30.191406 C 194.410156 30.261719 193.863281 30.183594 193.339844 29.949219 C 192.816406 29.71875 192.386719 29.371094 192.054688 28.902344 C 185.339844 22.640625 178.109375 17.042969 170.359375 12.109375 C 165.925781 9.386719 161.207031 7.296875 156.210938 5.839844 C 148.902344 3.84375 141.484375 3.269531 133.953125 4.113281 C 129.019531 4.453125 123.484375 4.300781 115.824219 4.113281 C 110.609375 3.925781 104.367188 3.734375 96.5625 3.683594 L 78.566406 3.492188 C 66.832031 3.367188 55.109375 3.257812 43.402344 3.160156 C 41.734375 3.113281 40.085938 3.261719 38.453125 3.605469 C 36.820312 3.949219 35.253906 4.476562 33.746094 5.191406 C 32.238281 5.90625 30.835938 6.785156 29.539062 7.832031 C 28.242188 8.878906 27.082031 10.0625 26.066406 11.386719 C 25.074219 12.722656 24.253906 14.15625 23.597656 15.683594 C 22.941406 17.214844 22.472656 18.796875 22.1875 20.4375 C 21.902344 22.078125 21.8125 23.726562 21.914062 25.386719 C 22.015625 27.046875 22.308594 28.675781 22.792969 30.265625 L 22.792969 30.308594 C 21.058594 30.890625 19.429688 31.6875 17.90625 32.699219 C 16.382812 33.710938 15.015625 34.902344 13.804688 36.269531 C 12.59375 37.640625 11.578125 39.144531 10.761719 40.78125 C 9.945312 42.417969 9.355469 44.132812 8.988281 45.921875 C 8.734375 47.433594 8.640625 48.949219 8.707031 50.480469 C 8.777344 52.007812 9.007812 53.511719 9.402344 54.992188 C 9.792969 56.472656 10.339844 57.894531 11.035156 59.253906 C 11.734375 60.617188 12.566406 61.890625 13.539062 63.074219 C 12.355469 63.949219 11.289062 64.949219 10.339844 66.074219 C 9.386719 67.195312 8.578125 68.410156 7.90625 69.722656 C 7.238281 71.03125 6.726562 72.398438 6.371094 73.828125 C 6.015625 75.257812 5.828125 76.707031 5.808594 78.175781 C 5.820312 79.503906 5.964844 80.8125 6.246094 82.109375 C 6.527344 83.40625 6.941406 84.660156 7.480469 85.871094 C 8.019531 87.082031 8.675781 88.222656 9.449219 89.300781 C 10.222656 90.375 11.101562 91.363281 12.078125 92.257812 C 9.976562 94.878906 8.671875 97.851562 8.167969 101.171875 C 8.058594 102.128906 8.019531 103.085938 8.046875 104.046875 C 8.078125 105.011719 8.175781 105.964844 8.34375 106.914062 C 8.511719 107.859375 8.746094 108.789062 9.046875 109.703125 C 9.351562 110.617188 9.71875 111.503906 10.148438 112.367188 C 10.578125 113.226562 11.066406 114.050781 11.617188 114.84375 C 12.164062 115.632812 12.769531 116.378906 13.425781 117.082031 C 14.082031 117.785156 14.789062 118.4375 15.539062 119.039062 C 16.289062 119.640625 17.082031 120.183594 17.910156 120.667969 C 19.375 121.546875 20.9375 122.179688 22.605469 122.5625 C 23.816406 122.859375 25.289062 123.136719 27.007812 123.390625 L 27.007812 139.402344 C 27.007812 157.230469 26.945312 179.410156 27.007812 182.066406 C 27.066406 182.640625 26.984375 183.191406 26.757812 183.71875 C 26.53125 184.246094 26.191406 184.6875 25.738281 185.039062 C 19.460938 191.757812 13.863281 198.996094 8.949219 206.765625 C 6.210938 211.210938 4.105469 215.9375 2.621094 220.941406 C 0.730469 227.972656 0.132812 235.113281 0.828125 242.359375 L 0.878906 243.207031 C 1.253906 248.136719 1.09375 253.675781 0.878906 261.328125 C 0.734375 266.539062 0.550781 272.773438 0.484375 280.578125 L 0.484375 282.996094 C 0.289062 299.90625 0.125 316.816406 0 333.730469 C -0.0390625 335.394531 0.113281 337.042969 0.460938 338.671875 C 0.808594 340.300781 1.339844 341.871094 2.050781 343.375 C 2.765625 344.878906 3.644531 346.28125 4.6875 347.582031 C 5.730469 348.878906 6.910156 350.042969 8.226562 351.066406 C 9.5625 352.058594 10.996094 352.878906 12.53125 353.535156 C 14.0625 354.191406 15.648438 354.660156 17.289062 354.945312 C 18.929688 355.230469 20.582031 355.320312 22.246094 355.214844 C 23.90625 355.113281 25.535156 354.816406 27.128906 354.332031 C 27.710938 356.066406 28.503906 357.699219 29.515625 359.226562 C 30.527344 360.753906 31.714844 362.121094 33.089844 363.332031 C 34.460938 364.546875 35.964844 365.558594 37.605469 366.371094 C 39.246094 367.1875 40.960938 367.773438 42.757812 368.136719 C 44.265625 368.390625 45.78125 368.484375 47.3125 368.417969 C 48.839844 368.347656 50.34375 368.117188 51.820312 367.726562 C 53.296875 367.332031 54.71875 366.789062 56.082031 366.09375 C 57.441406 365.394531 58.714844 364.5625 59.894531 363.589844 C 60.769531 364.78125 61.769531 365.851562 62.894531 366.808594 C 64.015625 367.761719 65.234375 368.578125 66.550781 369.25 C 67.863281 369.921875 69.234375 370.433594 70.667969 370.789062 C 72.101562 371.140625 73.554688 371.324219 75.027344 371.339844 C 76.351562 371.316406 77.65625 371.160156 78.949219 370.871094 C 80.238281 370.578125 81.488281 370.164062 82.695312 369.617188 C 83.898438 369.074219 85.039062 368.414062 86.109375 367.640625 C 87.179688 366.863281 88.164062 365.988281 89.058594 365.011719 C 91.6875 367.140625 94.679688 368.453125 98.027344 368.953125 C 98.984375 369.050781 99.941406 369.078125 100.898438 369.039062 C 101.859375 369 102.808594 368.894531 103.753906 368.722656 C 104.699219 368.546875 105.625 368.308594 106.535156 368.003906 C 107.445312 367.699219 108.328125 367.332031 109.1875 366.898438 C 110.042969 366.46875 110.867188 365.980469 111.652344 365.433594 C 112.441406 364.882812 113.1875 364.285156 113.890625 363.628906 C 114.59375 362.976562 115.246094 362.277344 115.851562 361.53125 C 116.453125 360.785156 117 360 117.492188 359.175781 C 118.351562 357.707031 118.988281 356.144531 119.402344 354.492188 C 120.125 351.09375 120.621094 347.660156 120.890625 344.199219 C 136.996094 344.3125 175.347656 344.410156 179.027344 344.300781 C 179.597656 344.234375 180.140625 344.316406 180.664062 344.546875 C 181.1875 344.777344 181.617188 345.125 181.949219 345.589844 C 188.667969 351.859375 195.90625 357.457031 203.660156 362.390625 C 208.101562 365.105469 212.820312 367.195312 217.816406 368.660156 C 225.144531 370.65625 232.582031 371.230469 240.132812 370.382812 C 245.027344 370.050781 250.542969 370.207031 258.175781 370.382812 C 263.390625 370.527344 269.644531 370.699219 277.460938 370.769531 L 294.511719 370.949219 C 306.550781 371.082031 318.605469 371.195312 330.679688 371.289062 L 330.78125 371.289062 C 331.609375 371.3125 332.4375 371.285156 333.261719 371.210938 C 334.085938 371.136719 334.90625 371.011719 335.714844 370.839844 C 336.527344 370.667969 337.324219 370.445312 338.105469 370.179688 C 338.890625 369.910156 339.65625 369.597656 340.402344 369.238281 C 341.148438 368.878906 341.871094 368.476562 342.570312 368.03125 C 343.269531 367.585938 343.9375 367.101562 344.578125 366.574219 C 345.21875 366.050781 345.828125 365.488281 346.402344 364.890625 C 346.976562 364.292969 347.511719 363.664062 348.011719 363 C 348.507812 362.339844 348.964844 361.652344 349.382812 360.933594 C 349.796875 360.21875 350.171875 359.480469 350.5 358.71875 C 350.828125 357.957031 351.109375 357.179688 351.34375 356.386719 C 351.578125 355.59375 351.765625 354.785156 351.90625 353.96875 C 352.046875 353.152344 352.136719 352.332031 352.175781 351.503906 C 352.21875 350.675781 352.210938 349.847656 352.152344 349.023438 C 352.09375 348.195312 351.988281 347.375 351.832031 346.5625 C 351.675781 345.75 351.472656 344.945312 351.222656 344.15625 C 352.957031 343.574219 354.585938 342.777344 356.109375 341.765625 C 357.632812 340.753906 359 339.5625 360.210938 338.191406 C 361.421875 336.824219 362.4375 335.320312 363.253906 333.683594 C 364.070312 332.046875 364.660156 330.332031 365.027344 328.542969 C 365.292969 327.03125 365.390625 325.511719 365.328125 323.980469 C 365.261719 322.449219 365.035156 320.941406 364.640625 319.460938 C 364.25 317.980469 363.703125 316.558594 363 315.195312 C 362.300781 313.832031 361.460938 312.558594 360.484375 311.378906 C 361.050781 310.96875 361.589844 310.527344 362.105469 310.058594 C 362.625 309.585938 363.113281 309.089844 363.574219 308.5625 C 364.035156 308.039062 364.464844 307.488281 364.863281 306.914062 C 365.261719 306.34375 365.628906 305.75 365.964844 305.132812 C 366.296875 304.519531 366.59375 303.890625 366.855469 303.242188 C 367.117188 302.59375 367.34375 301.933594 367.535156 301.261719 C 367.722656 300.585938 367.871094 299.90625 367.984375 299.214844 C 368.097656 298.527344 368.171875 297.832031 368.207031 297.132812 C 368.242188 296.4375 368.238281 295.738281 368.195312 295.042969 C 368.152344 294.34375 368.070312 293.652344 367.949219 292.960938 C 367.828125 292.273438 367.667969 291.59375 367.472656 290.921875 C 367.277344 290.253906 367.042969 289.59375 366.773438 288.949219 C 366.503906 288.304688 366.199219 287.679688 365.855469 287.070312 C 365.515625 286.457031 365.144531 285.867188 364.738281 285.300781 C 364.332031 284.730469 363.894531 284.1875 363.429688 283.667969 C 362.960938 283.148438 362.464844 282.65625 361.945312 282.191406 C 364.042969 279.566406 365.34375 276.597656 365.847656 273.273438 C 365.957031 272.320312 366 271.359375 365.96875 270.398438 C 365.9375 269.4375 365.839844 268.484375 365.671875 267.535156 C 365.503906 266.589844 365.269531 265.65625 364.96875 264.746094 C 364.667969 263.832031 364.300781 262.945312 363.871094 262.082031 C 363.441406 261.222656 362.949219 260.398438 362.402344 259.609375 C 361.851562 258.816406 361.25 258.070312 360.589844 257.371094 C 359.933594 256.667969 359.230469 256.015625 358.476562 255.414062 C 357.726562 254.8125 356.9375 254.269531 356.105469 253.785156 C 354.636719 252.90625 353.066406 252.273438 351.394531 251.886719 C 350.140625 251.585938 348.65625 251.308594 346.96875 251.0625 C 347.070312 235.578125 347.121094 196.054688 347.007812 192.398438 C 346.949219 191.824219 347.03125 191.273438 347.257812 190.746094 C 347.484375 190.21875 347.824219 189.777344 348.277344 189.421875 C 354.570312 182.699219 360.195312 175.453125 365.152344 167.695312 C 366.792969 165.054688 368.199219 162.300781 369.378906 159.425781 C 370.558594 156.554688 371.488281 153.601562 372.175781 150.574219 C 372.859375 147.542969 373.289062 144.480469 373.460938 141.378906 C 373.632812 138.277344 373.550781 135.183594 373.207031 132.097656 L 373.152344 131.285156 C 372.820312 126.359375 372.96875 120.84375 373.152344 113.203125 C 373.296875 107.980469 373.46875 101.703125 373.539062 93.890625 L 373.539062 91.476562 C 373.707031 74.566406 373.855469 57.65625 373.976562 40.746094 C 374.023438 39.089844 373.878906 37.449219 373.539062 35.824219 C 373.203125 34.199219 372.683594 32.636719 371.976562 31.136719 C 371.273438 29.636719 370.40625 28.234375 369.371094 26.9375 C 368.339844 25.640625 367.171875 24.480469 365.867188 23.457031 Z M 349.601562 273.429688 C 349.332031 273.863281 349.011719 274.25 348.640625 274.597656 C 348.269531 274.941406 347.859375 275.234375 347.410156 275.472656 C 346.960938 275.707031 346.488281 275.882812 345.992188 275.996094 C 345.496094 276.109375 344.996094 276.15625 344.488281 276.132812 C 336.574219 276.132812 328.652344 276.035156 320.738281 275.9375 L 284.828125 275.617188 C 284.375 275.578125 283.925781 275.578125 283.476562 275.617188 C 283.027344 275.65625 282.582031 275.734375 282.144531 275.847656 C 281.707031 275.960938 281.28125 276.113281 280.871094 276.300781 C 280.460938 276.488281 280.066406 276.707031 279.691406 276.960938 C 279.320312 277.21875 278.96875 277.5 278.644531 277.816406 C 278.320312 278.128906 278.023438 278.46875 277.753906 278.832031 C 277.488281 279.195312 277.25 279.582031 277.050781 279.984375 C 276.847656 280.390625 276.679688 280.808594 276.550781 281.242188 C 276.292969 282.035156 276.175781 282.847656 276.191406 283.683594 C 276.210938 284.515625 276.363281 285.324219 276.652344 286.109375 C 276.941406 286.890625 277.351562 287.601562 277.882812 288.246094 C 278.410156 288.890625 279.03125 289.433594 279.742188 289.867188 C 281.421875 290.835938 283.230469 291.304688 285.167969 291.285156 C 297.578125 291.425781 306.371094 291.285156 314.878906 291.152344 C 323.058594 291.019531 331.523438 290.886719 343.335938 290.996094 C 344.296875 290.996094 345.15625 290.996094 346.042969 291.042969 C 346.390625 291.058594 346.738281 291.105469 347.078125 291.191406 C 347.417969 291.273438 347.746094 291.386719 348.066406 291.535156 C 348.382812 291.679688 348.6875 291.855469 348.96875 292.0625 C 349.253906 292.269531 349.515625 292.5 349.753906 292.753906 C 349.996094 293.011719 350.207031 293.289062 350.394531 293.585938 C 350.578125 293.882812 350.734375 294.195312 350.859375 294.519531 C 350.984375 294.847656 351.078125 295.183594 351.136719 295.53125 C 351.199219 295.875 351.226562 296.222656 351.21875 296.574219 C 351.242188 296.925781 351.230469 297.277344 351.179688 297.628906 C 351.132812 297.976562 351.050781 298.316406 350.929688 298.652344 C 350.8125 298.984375 350.664062 299.300781 350.480469 299.601562 C 350.296875 299.90625 350.085938 300.183594 349.84375 300.445312 C 349.605469 300.703125 349.339844 300.933594 349.054688 301.136719 C 348.765625 301.34375 348.460938 301.515625 348.136719 301.65625 C 347.8125 301.800781 347.480469 301.910156 347.132812 301.980469 C 346.789062 302.054688 346.441406 302.09375 346.085938 302.097656 C 341.667969 302.195312 337.253906 302.128906 332.859375 302.097656 L 329.441406 302.054688 C 319.394531 301.96875 313.003906 302.140625 306.828125 302.304688 C 300.8125 302.464844 294.714844 302.636719 285.132812 302.574219 C 283.9375 302.523438 282.773438 302.691406 281.644531 303.085938 C 280.511719 303.476562 279.492188 304.0625 278.585938 304.84375 C 277.808594 305.851562 277.226562 306.964844 276.847656 308.179688 C 276.464844 309.394531 276.304688 310.636719 276.367188 311.910156 C 276.398438 312.308594 276.464844 312.699219 276.570312 313.085938 C 276.671875 313.472656 276.808594 313.847656 276.976562 314.210938 C 277.148438 314.574219 277.351562 314.917969 277.582031 315.242188 C 277.816406 315.570312 278.074219 315.871094 278.363281 316.148438 C 278.648438 316.429688 278.957031 316.679688 279.289062 316.902344 C 279.625 317.125 279.972656 317.316406 280.339844 317.476562 C 280.707031 317.636719 281.085938 317.761719 281.476562 317.855469 C 281.863281 317.945312 282.257812 318 282.660156 318.023438 C 283.96875 318.175781 285.285156 318.246094 286.605469 318.242188 L 288.046875 318.273438 C 306.453125 318.449219 324.800781 318.621094 343.222656 318.734375 C 343.808594 318.644531 344.398438 318.644531 344.984375 318.734375 C 345.574219 318.820312 346.132812 318.996094 346.667969 319.257812 C 347.199219 319.519531 347.683594 319.855469 348.113281 320.265625 C 348.546875 320.671875 348.90625 321.136719 349.191406 321.65625 C 349.644531 322.464844 349.867188 323.328125 349.859375 324.253906 C 349.847656 325.175781 349.605469 326.039062 349.136719 326.832031 C 348.542969 327.734375 347.765625 328.429688 346.808594 328.925781 C 345.847656 329.417969 344.828125 329.640625 343.75 329.601562 C 334.832031 329.542969 325.910156 329.453125 316.984375 329.328125 L 315.636719 329.328125 C 305.105469 329.214844 294.578125 329.097656 284.039062 329.097656 C 282.910156 329.066406 281.816406 329.257812 280.761719 329.664062 C 279.707031 330.074219 278.773438 330.671875 277.960938 331.457031 C 277.253906 332.195312 276.714844 333.039062 276.347656 333.992188 C 275.980469 334.941406 275.8125 335.929688 275.84375 336.949219 C 275.84375 337.472656 275.894531 337.988281 276 338.5 C 276.105469 339.007812 276.257812 339.503906 276.460938 339.984375 C 276.664062 340.464844 276.914062 340.921875 277.207031 341.351562 C 277.503906 341.78125 277.835938 342.175781 278.210938 342.539062 C 278.585938 342.902344 278.992188 343.226562 279.429688 343.507812 C 279.867188 343.789062 280.328125 344.027344 280.816406 344.214844 C 281.300781 344.402344 281.800781 344.542969 282.316406 344.632812 C 282.828125 344.722656 283.347656 344.757812 283.867188 344.742188 L 285.59375 344.742188 C 299.78125 344.917969 313.992188 345.050781 328.234375 345.144531 L 329.5625 345.144531 C 332.714844 345.210938 336.464844 346.191406 336.464844 350.496094 C 336.464844 354.796875 332.570312 355.589844 329.382812 355.671875 L 298.585938 355.367188 C 278.542969 355.160156 258.496094 354.96875 238.441406 354.792969 C 236.195312 354.851562 233.949219 354.777344 231.710938 354.574219 C 229.472656 354.371094 227.253906 354.035156 225.054688 353.570312 C 222.855469 353.105469 220.691406 352.511719 218.5625 351.792969 C 216.433594 351.074219 214.351562 350.230469 212.320312 349.265625 C 210.289062 348.300781 208.324219 347.222656 206.417969 346.027344 C 204.515625 344.832031 202.6875 343.53125 200.9375 342.121094 C 199.183594 340.710938 197.523438 339.203125 195.949219 337.597656 C 194.375 335.992188 192.902344 334.300781 191.527344 332.523438 C 191.054688 331.90625 190.515625 331.351562 189.914062 330.863281 C 189.3125 330.371094 188.660156 329.957031 187.960938 329.621094 C 187.261719 329.285156 186.535156 329.03125 185.777344 328.867188 C 185.015625 328.699219 184.25 328.625 183.472656 328.640625 L 183.214844 328.640625 C 178.5 328.691406 139.117188 328.59375 121.804688 328.476562 C 122.109375 319.597656 122.175781 310.902344 122.1875 305.890625 C 123.917969 306.34375 125.675781 306.601562 127.464844 306.667969 C 129.136719 306.703125 130.792969 306.558594 132.429688 306.242188 C 134.070312 305.921875 135.65625 305.429688 137.191406 304.769531 C 138.726562 304.109375 140.175781 303.292969 141.535156 302.324219 C 142.894531 301.351562 144.136719 300.25 145.261719 299.011719 C 146.410156 297.886719 147.398438 296.636719 148.222656 295.253906 C 149.050781 293.875 149.6875 292.410156 150.132812 290.863281 C 150.578125 289.320312 150.820312 287.742188 150.859375 286.132812 C 150.898438 284.523438 150.730469 282.9375 150.355469 281.375 C 149.929688 277.6875 149.539062 274.046875 149.207031 270.375 C 163.457031 270.375 177.527344 270.375 179.625 270.484375 C 180.5 270.554688 181.367188 270.511719 182.230469 270.359375 C 183.089844 270.207031 183.921875 269.953125 184.71875 269.589844 C 185.515625 269.230469 186.253906 268.773438 186.9375 268.226562 C 187.621094 267.675781 188.222656 267.050781 188.75 266.351562 C 190.753906 263.628906 192.957031 261.074219 195.351562 258.6875 C 197.746094 256.300781 200.304688 254.109375 203.03125 252.109375 C 205.757812 250.109375 208.621094 248.328125 211.617188 246.761719 C 214.613281 245.195312 217.710938 243.867188 220.910156 242.769531 C 224.375 241.621094 227.917969 240.855469 231.546875 240.46875 C 240.910156 239.664062 250.273438 238.863281 259.640625 238.167969 L 280.480469 236.621094 C 282.238281 236.492188 283.886719 236.855469 285.429688 237.707031 C 285.910156 237.976562 286.328125 238.320312 286.691406 238.734375 C 287.050781 239.148438 287.332031 239.609375 287.539062 240.117188 C 287.742188 240.628906 287.855469 241.15625 287.878906 241.703125 C 287.902344 242.253906 287.832031 242.789062 287.675781 243.316406 C 287.605469 243.867188 287.449219 244.398438 287.207031 244.898438 C 286.96875 245.402344 286.652344 245.855469 286.265625 246.257812 C 285.878906 246.660156 285.4375 246.988281 284.945312 247.25 C 284.449219 247.507812 283.929688 247.683594 283.378906 247.773438 C 281.480469 248.222656 279.582031 248.519531 277.691406 248.820312 L 275.390625 249.195312 C 274.152344 249.328125 272.992188 249.707031 271.917969 250.332031 C 270.839844 250.957031 269.9375 251.773438 269.207031 252.78125 C 268.164062 254.230469 267.714844 255.84375 267.859375 257.621094 C 267.898438 258.160156 267.992188 258.6875 268.136719 259.207031 C 268.28125 259.730469 268.480469 260.230469 268.726562 260.710938 C 268.972656 261.191406 269.265625 261.640625 269.605469 262.0625 C 269.945312 262.484375 270.324219 262.863281 270.742188 263.210938 C 271.15625 263.554688 271.605469 263.851562 272.082031 264.105469 C 272.558594 264.359375 273.058594 264.558594 273.578125 264.710938 C 274.09375 264.863281 274.625 264.960938 275.164062 265.007812 C 275.703125 265.050781 276.238281 265.039062 276.773438 264.976562 L 277.476562 264.976562 C 299.273438 265.207031 321.015625 265.429688 342.882812 265.601562 L 343.632812 265.601562 C 346.726562 265.601562 348.410156 266.363281 349.457031 268.238281 C 349.703125 268.621094 349.894531 269.035156 350.027344 269.472656 C 350.164062 269.910156 350.238281 270.355469 350.25 270.8125 C 350.261719 271.269531 350.214844 271.722656 350.101562 272.167969 C 349.992188 272.609375 349.824219 273.03125 349.601562 273.429688 Z M 90.074219 279.671875 C 89.683594 279.535156 89.28125 279.433594 88.875 279.363281 C 88.464844 279.296875 88.050781 279.265625 87.636719 279.269531 C 87.222656 279.273438 86.8125 279.3125 86.402344 279.386719 C 85.996094 279.460938 85.597656 279.570312 85.207031 279.714844 C 84.820312 279.859375 84.445312 280.035156 84.085938 280.242188 C 83.726562 280.449219 83.390625 280.6875 83.070312 280.957031 C 82.753906 281.222656 82.460938 281.515625 82.195312 281.832031 C 81.929688 282.148438 81.691406 282.488281 81.480469 282.847656 C 80.515625 284.503906 80.042969 286.292969 80.0625 288.210938 C 79.917969 300.640625 80.0625 309.429688 80.195312 317.925781 C 80.324219 326.113281 80.464844 334.605469 80.347656 346.445312 C 80.347656 347.378906 80.347656 348.257812 80.296875 349.144531 C 80.269531 349.488281 80.207031 349.824219 80.113281 350.15625 C 80.023438 350.488281 79.902344 350.808594 79.75 351.117188 C 79.597656 351.425781 79.417969 351.71875 79.210938 351.992188 C 79.007812 352.269531 78.777344 352.523438 78.523438 352.753906 C 78.269531 352.988281 77.996094 353.195312 77.703125 353.378906 C 77.410156 353.558594 77.105469 353.714844 76.785156 353.839844 C 76.464844 353.964844 76.132812 354.058594 75.796875 354.121094 C 75.457031 354.183594 75.117188 354.214844 74.773438 354.214844 C 74.429688 354.214844 74.085938 354.183594 73.75 354.121094 C 73.410156 354.058594 73.082031 353.964844 72.761719 353.839844 C 72.441406 353.714844 72.132812 353.558594 71.839844 353.378906 C 71.550781 353.195312 71.277344 352.988281 71.023438 352.753906 C 70.769531 352.523438 70.539062 352.269531 70.332031 351.992188 C 70.128906 351.71875 69.949219 351.425781 69.796875 351.117188 C 69.644531 350.808594 69.523438 350.488281 69.429688 350.15625 C 69.339844 349.824219 69.277344 349.488281 69.25 349.144531 C 69.121094 344.980469 69.183594 340.808594 69.25 336.640625 L 69.304688 332.492188 C 69.398438 322.230469 69.226562 316.042969 69.035156 309.488281 C 68.875 303.589844 68.703125 297.558594 68.730469 288.207031 C 68.785156 287.027344 68.621094 285.875 68.242188 284.757812 C 67.863281 283.640625 67.292969 282.628906 66.535156 281.722656 C 65.613281 280.96875 64.589844 280.394531 63.464844 279.996094 C 62.34375 279.601562 61.183594 279.410156 59.996094 279.421875 C 59.804688 279.421875 59.625 279.421875 59.453125 279.421875 C 59.054688 279.457031 58.660156 279.523438 58.273438 279.625 C 57.882812 279.730469 57.507812 279.863281 57.144531 280.035156 C 56.78125 280.207031 56.433594 280.40625 56.109375 280.636719 C 55.78125 280.871094 55.476562 281.128906 55.195312 281.414062 C 54.914062 281.703125 54.660156 282.011719 54.433594 282.34375 C 54.207031 282.675781 54.015625 283.023438 53.851562 283.390625 C 53.6875 283.757812 53.558594 284.132812 53.460938 284.523438 C 53.367188 284.914062 53.308594 285.308594 53.28125 285.710938 C 53.105469 287.238281 53.039062 288.773438 53.085938 290.3125 L 53.085938 291.128906 L 53.058594 294.078125 C 52.898438 311.496094 52.753906 328.894531 52.625 346.269531 C 52.574219 349.464844 51.730469 351.183594 49.710938 352.214844 C 48.894531 352.675781 48.019531 352.898438 47.082031 352.890625 C 46.144531 352.882812 45.273438 352.644531 44.464844 352.167969 C 43.578125 351.578125 42.894531 350.804688 42.410156 349.851562 C 41.929688 348.902344 41.710938 347.890625 41.757812 346.824219 C 41.757812 339.773438 41.855469 332.722656 41.953125 325.671875 L 42.273438 287.136719 C 42.300781 286.613281 42.277344 286.09375 42.203125 285.578125 C 42.125 285.0625 42 284.558594 41.824219 284.066406 C 41.648438 283.574219 41.421875 283.105469 41.152344 282.65625 C 40.882812 282.210938 40.570312 281.796875 40.214844 281.410156 C 39.859375 281.027344 39.472656 280.679688 39.046875 280.375 C 38.625 280.070312 38.175781 279.808594 37.699219 279.589844 C 37.226562 279.375 36.730469 279.207031 36.222656 279.089844 C 35.714844 278.972656 35.199219 278.90625 34.675781 278.894531 C 34.152344 278.878906 33.636719 278.917969 33.121094 279.007812 C 32.605469 279.097656 32.105469 279.234375 31.617188 279.425781 C 31.132812 279.617188 30.667969 279.851562 30.230469 280.136719 C 29.789062 280.417969 29.382812 280.742188 29.007812 281.105469 C 28.632812 281.46875 28.300781 281.867188 28.003906 282.300781 C 27.710938 282.730469 27.460938 283.1875 27.257812 283.667969 C 27.054688 284.148438 26.902344 284.648438 26.796875 285.160156 C 26.691406 285.671875 26.640625 286.1875 26.640625 286.710938 C 26.582031 287.457031 26.558594 288.203125 26.570312 288.949219 C 26.457031 303.027344 26.34375 317.164062 26.167969 331.269531 L 26.167969 332.625 C 26.246094 333.652344 26.128906 334.65625 25.8125 335.640625 C 25.496094 336.621094 25.007812 337.507812 24.347656 338.296875 C 23.886719 338.722656 23.359375 339.042969 22.769531 339.253906 C 22.175781 339.46875 21.566406 339.554688 20.941406 339.519531 C 19.59375 339.589844 18.417969 339.171875 17.410156 338.273438 C 16.757812 337.457031 16.285156 336.550781 15.984375 335.550781 C 15.6875 334.550781 15.585938 333.53125 15.683594 332.492188 L 15.921875 310.292969 C 16.148438 287.375 16.34375 264.453125 16.496094 241.53125 C 16.441406 239.289062 16.515625 237.046875 16.722656 234.8125 C 16.929688 232.578125 17.265625 230.359375 17.734375 228.164062 C 18.199219 225.96875 18.789062 223.804688 19.507812 221.679688 C 20.226562 219.550781 21.066406 217.472656 22.027344 215.445312 C 22.984375 213.414062 24.0625 211.449219 25.25 209.542969 C 26.441406 207.640625 27.738281 205.8125 29.140625 204.058594 C 30.546875 202.308594 32.046875 200.644531 33.644531 199.066406 C 35.242188 197.488281 36.925781 196.007812 38.695312 194.628906 C 39.339844 194.152344 39.917969 193.609375 40.425781 192.992188 C 40.9375 192.375 41.363281 191.707031 41.710938 190.988281 C 42.058594 190.265625 42.3125 189.515625 42.476562 188.730469 C 42.640625 187.949219 42.707031 187.15625 42.675781 186.359375 C 42.640625 183.28125 42.675781 166.140625 42.675781 149.652344 L 42.710938 124.765625 C 53.367188 125.339844 65.015625 125.421875 71.1875 125.402344 C 70.722656 127.148438 70.472656 128.921875 70.433594 130.722656 C 70.402344 132.351562 70.542969 133.96875 70.851562 135.566406 C 71.15625 137.167969 71.625 138.71875 72.257812 140.222656 C 72.886719 141.726562 73.664062 143.148438 74.589844 144.488281 C 75.519531 145.828125 76.574219 147.058594 77.753906 148.179688 L 78.152344 148.570312 C 79.277344 149.707031 80.53125 150.679688 81.910156 151.492188 C 83.285156 152.304688 84.746094 152.929688 86.285156 153.367188 C 87.824219 153.800781 89.390625 154.035156 90.992188 154.066406 C 92.589844 154.097656 94.167969 153.925781 95.722656 153.550781 L 96.660156 153.449219 C 98.0625 153.285156 99.457031 153.132812 100.859375 152.980469 C 100.859375 166.941406 100.859375 180.691406 100.75 182.792969 C 100.683594 183.664062 100.730469 184.527344 100.886719 185.386719 C 101.042969 186.246094 101.304688 187.070312 101.667969 187.863281 C 102.035156 188.65625 102.496094 189.390625 103.050781 190.066406 C 103.601562 190.742188 104.230469 191.335938 104.9375 191.851562 C 107.644531 193.875 110.1875 196.089844 112.566406 198.496094 C 114.945312 200.898438 117.136719 203.464844 119.132812 206.195312 C 121.128906 208.921875 122.914062 211.785156 124.488281 214.777344 C 126.0625 217.773438 127.40625 220.867188 128.519531 224.058594 C 129.671875 227.519531 130.40625 231.066406 130.722656 234.699219 C 131.417969 242.109375 132.042969 249.574219 132.617188 256.976562 L 133.480469 268.371094 C 133.882812 273.480469 134.230469 278.53125 134.574219 283.683594 C 134.695312 285.429688 134.328125 287.0625 133.476562 288.585938 C 133.199219 289.050781 132.855469 289.457031 132.445312 289.808594 C 132.035156 290.160156 131.582031 290.4375 131.082031 290.636719 C 130.578125 290.839844 130.058594 290.957031 129.519531 290.988281 C 128.980469 291.015625 128.453125 290.960938 127.929688 290.816406 C 127.378906 290.742188 126.851562 290.585938 126.351562 290.347656 C 125.847656 290.109375 125.394531 289.796875 124.992188 289.414062 C 124.585938 289.035156 124.25 288.597656 123.984375 288.113281 C 123.714844 287.625 123.527344 287.105469 123.421875 286.5625 C 123.101562 285.042969 122.847656 283.523438 122.601562 282.007812 C 122.410156 280.855469 122.214844 279.664062 122.023438 278.554688 C 121.292969 274.015625 118.574219 271.210938 115.121094 271.078125 C 114.625 270.992188 114.121094 270.960938 113.617188 270.980469 C 113.078125 271.023438 112.550781 271.121094 112.035156 271.269531 C 111.515625 271.417969 111.015625 271.617188 110.539062 271.867188 C 110.0625 272.117188 109.613281 272.410156 109.195312 272.75 C 108.777344 273.089844 108.394531 273.464844 108.050781 273.882812 C 107.707031 274.296875 107.410156 274.742188 107.15625 275.21875 C 106.902344 275.695312 106.699219 276.191406 106.546875 276.707031 C 106.390625 277.222656 106.289062 277.75 106.242188 278.285156 C 106.195312 278.824219 106.199219 279.359375 106.257812 279.894531 C 106.109375 293.167969 105.992188 306.445312 105.902344 319.71875 L 105.65625 346.699219 C 105.597656 349.910156 104.851562 351.566406 102.957031 352.617188 C 102.179688 353.09375 101.335938 353.335938 100.425781 353.34375 C 99.511719 353.355469 98.664062 353.132812 97.875 352.675781 C 97.003906 352.128906 96.332031 351.402344 95.851562 350.496094 C 95.371094 349.589844 95.152344 348.621094 95.1875 347.597656 C 95.1875 341.269531 95.25 334.898438 95.3125 328.546875 L 95.417969 316.042969 C 95.53125 306.667969 95.648438 297.289062 95.707031 287.894531 C 95.738281 287.445312 95.734375 287 95.691406 286.550781 C 95.648438 286.105469 95.570312 285.664062 95.453125 285.230469 C 95.335938 284.796875 95.183594 284.375 94.996094 283.964844 C 94.804688 283.558594 94.585938 283.167969 94.332031 282.796875 C 94.078125 282.425781 93.792969 282.078125 93.480469 281.753906 C 93.167969 281.433594 92.832031 281.136719 92.46875 280.871094 C 92.105469 280.605469 91.722656 280.371094 91.324219 280.171875 C 90.921875 279.96875 90.503906 279.800781 90.074219 279.671875 Z M 24.460938 101.023438 C 25.007812 100.15625 25.734375 99.488281 26.640625 99.011719 C 27.546875 98.535156 28.511719 98.316406 29.535156 98.355469 C 37.390625 98.355469 45.242188 98.453125 53.117188 98.542969 L 89.21875 98.871094 C 89.667969 98.914062 90.121094 98.921875 90.574219 98.886719 C 91.027344 98.851562 91.472656 98.78125 91.910156 98.667969 C 92.351562 98.554688 92.777344 98.40625 93.191406 98.21875 C 93.605469 98.035156 94 97.8125 94.375 97.558594 C 94.75 97.304688 95.101562 97.019531 95.425781 96.703125 C 95.75 96.386719 96.046875 96.042969 96.3125 95.675781 C 96.578125 95.308594 96.8125 94.921875 97.007812 94.511719 C 97.207031 94.105469 97.371094 93.683594 97.496094 93.246094 C 97.75 92.453125 97.871094 91.640625 97.855469 90.804688 C 97.839844 89.972656 97.683594 89.164062 97.394531 88.378906 C 97.105469 87.597656 96.699219 86.882812 96.167969 86.238281 C 95.640625 85.59375 95.019531 85.054688 94.308594 84.621094 C 92.632812 83.644531 90.824219 83.171875 88.882812 83.203125 C 76.476562 83.050781 67.691406 83.203125 59.195312 83.335938 C 51.011719 83.464844 42.515625 83.59375 30.707031 83.492188 C 29.796875 83.492188 28.894531 83.492188 28.011719 83.441406 C 27.660156 83.425781 27.316406 83.375 26.976562 83.292969 C 26.636719 83.210938 26.308594 83.097656 25.988281 82.949219 C 25.671875 82.804688 25.371094 82.628906 25.085938 82.425781 C 24.804688 82.222656 24.542969 81.992188 24.300781 81.738281 C 24.0625 81.480469 23.851562 81.207031 23.664062 80.910156 C 23.476562 80.613281 23.320312 80.304688 23.195312 79.976562 C 23.070312 79.652344 22.976562 79.316406 22.914062 78.972656 C 22.855469 78.625 22.828125 78.28125 22.832031 77.929688 C 22.808594 77.578125 22.824219 77.226562 22.871094 76.875 C 22.917969 76.527344 23.003906 76.183594 23.121094 75.851562 C 23.238281 75.519531 23.390625 75.203125 23.574219 74.898438 C 23.757812 74.597656 23.96875 74.316406 24.207031 74.058594 C 24.449219 73.800781 24.714844 73.570312 25 73.363281 C 25.289062 73.160156 25.59375 72.988281 25.917969 72.84375 C 26.242188 72.703125 26.578125 72.59375 26.921875 72.523438 C 27.265625 72.449219 27.617188 72.410156 27.96875 72.410156 C 32.394531 72.316406 36.804688 72.367188 41.199219 72.410156 L 44.621094 72.449219 C 54.691406 72.546875 61.070312 72.367188 67.246094 72.203125 C 73.261719 72.035156 79.355469 71.863281 88.925781 71.929688 C 90.121094 71.984375 91.285156 71.8125 92.414062 71.421875 C 93.546875 71.027344 94.5625 70.441406 95.46875 69.660156 C 96.246094 68.652344 96.828125 67.539062 97.210938 66.324219 C 97.59375 65.113281 97.753906 63.867188 97.695312 62.597656 C 97.660156 62.199219 97.59375 61.808594 97.492188 61.425781 C 97.386719 61.042969 97.25 60.671875 97.082031 60.3125 C 96.910156 59.953125 96.710938 59.609375 96.480469 59.285156 C 96.25 58.964844 95.992188 58.664062 95.707031 58.386719 C 95.421875 58.109375 95.117188 57.855469 94.789062 57.632812 C 94.457031 57.410156 94.113281 57.21875 93.75 57.058594 C 93.386719 56.898438 93.011719 56.769531 92.625 56.675781 C 92.238281 56.582031 91.847656 56.523438 91.449219 56.5 C 90.136719 56.351562 88.824219 56.277344 87.503906 56.28125 L 83.117188 56.222656 C 65.664062 56.074219 48.3125 55.902344 30.855469 55.792969 C 30.273438 55.886719 29.6875 55.890625 29.101562 55.800781 C 28.515625 55.710938 27.957031 55.535156 27.425781 55.273438 C 26.894531 55.007812 26.417969 54.671875 25.992188 54.257812 C 25.570312 53.84375 25.21875 53.375 24.9375 52.851562 C 24.476562 52.050781 24.246094 51.191406 24.246094 50.265625 C 24.246094 49.339844 24.476562 48.476562 24.9375 47.675781 C 25.527344 46.773438 26.304688 46.078125 27.261719 45.582031 C 28.222656 45.089844 29.238281 44.867188 30.316406 44.910156 C 39.6875 44.96875 49.054688 45.082031 58.429688 45.199219 C 68.960938 45.3125 79.496094 45.429688 90.027344 45.429688 C 90.5625 45.460938 91.097656 45.4375 91.625 45.359375 C 92.15625 45.28125 92.671875 45.152344 93.175781 44.96875 C 93.679688 44.78125 94.15625 44.550781 94.613281 44.265625 C 95.066406 43.984375 95.488281 43.65625 95.875 43.289062 C 96.265625 42.917969 96.609375 42.511719 96.914062 42.070312 C 97.21875 41.632812 97.476562 41.164062 97.683594 40.671875 C 97.890625 40.175781 98.046875 39.667969 98.148438 39.140625 C 98.253906 38.613281 98.300781 38.085938 98.292969 37.546875 C 98.285156 37.03125 98.222656 36.515625 98.109375 36.011719 C 98 35.503906 97.839844 35.011719 97.632812 34.539062 C 97.425781 34.0625 97.171875 33.613281 96.875 33.1875 C 96.578125 32.761719 96.246094 32.367188 95.871094 32.007812 C 95.496094 31.648438 95.089844 31.328125 94.65625 31.046875 C 94.21875 30.765625 93.757812 30.53125 93.277344 30.34375 C 92.792969 30.152344 92.296875 30.011719 91.785156 29.917969 C 91.273438 29.828125 90.761719 29.785156 90.242188 29.796875 L 88.574219 29.796875 C 74.308594 29.621094 60.105469 29.507812 45.875 29.394531 L 44.476562 29.394531 C 41.320312 29.328125 37.574219 28.347656 37.574219 24.039062 C 37.574219 19.730469 41.460938 18.792969 44.660156 18.863281 L 75.453125 19.167969 C 95.503906 19.371094 115.550781 19.5625 135.597656 19.742188 C 137.84375 19.683594 140.085938 19.753906 142.324219 19.957031 C 144.5625 20.160156 146.777344 20.496094 148.976562 20.960938 C 151.175781 21.421875 153.339844 22.015625 155.46875 22.734375 C 157.597656 23.453125 159.675781 24.292969 161.707031 25.253906 C 163.738281 26.214844 165.703125 27.292969 167.609375 28.488281 C 169.511719 29.679688 171.339844 30.980469 173.089844 32.390625 C 174.839844 33.796875 176.503906 35.304688 178.078125 36.90625 C 179.652344 38.511719 181.125 40.199219 182.5 41.976562 C 182.980469 42.617188 183.527344 43.1875 184.144531 43.691406 C 184.765625 44.195312 185.4375 44.617188 186.160156 44.957031 C 186.882812 45.292969 187.636719 45.539062 188.417969 45.691406 C 189.203125 45.84375 189.992188 45.898438 190.789062 45.855469 C 195.460938 45.796875 234.179688 45.898438 252.199219 45.957031 C 251.894531 54.847656 251.835938 63.574219 251.824219 68.601562 C 250.09375 68.144531 248.332031 67.886719 246.539062 67.824219 C 244.867188 67.785156 243.214844 67.925781 241.574219 68.246094 C 239.933594 68.566406 238.347656 69.054688 236.8125 69.714844 C 235.277344 70.375 233.828125 71.191406 232.46875 72.164062 C 231.109375 73.136719 229.871094 74.242188 228.75 75.480469 C 227.597656 76.605469 226.609375 77.855469 225.78125 79.238281 C 224.957031 80.617188 224.320312 82.082031 223.871094 83.628906 C 223.425781 85.171875 223.183594 86.75 223.144531 88.359375 C 223.105469 89.96875 223.273438 91.554688 223.648438 93.121094 C 224.078125 96.800781 224.464844 100.449219 224.796875 104.117188 C 210.546875 104.117188 196.476562 104.117188 194.375 104 C 193.5 103.933594 192.632812 103.976562 191.769531 104.128906 C 190.910156 104.28125 190.078125 104.539062 189.28125 104.902344 C 188.484375 105.261719 187.746094 105.71875 187.0625 106.265625 C 186.378906 106.8125 185.777344 107.4375 185.25 108.136719 C 183.242188 110.855469 181.042969 113.410156 178.648438 115.796875 C 176.253906 118.183594 173.695312 120.378906 170.96875 122.375 C 168.242188 124.375 165.382812 126.160156 162.386719 127.722656 C 159.390625 129.289062 156.292969 130.621094 153.09375 131.71875 C 149.628906 132.851562 146.085938 133.605469 142.460938 133.980469 C 133.089844 134.785156 123.726562 135.589844 114.359375 136.28125 L 93.515625 137.832031 C 91.761719 137.945312 90.113281 137.578125 88.566406 136.738281 C 88.089844 136.46875 87.671875 136.125 87.3125 135.710938 C 86.949219 135.300781 86.667969 134.835938 86.464844 134.328125 C 86.261719 133.820312 86.148438 133.289062 86.125 132.742188 C 86.097656 132.195312 86.167969 131.65625 86.324219 131.132812 C 86.398438 130.578125 86.558594 130.050781 86.800781 129.550781 C 87.042969 129.046875 87.355469 128.597656 87.742188 128.195312 C 88.132812 127.792969 88.570312 127.460938 89.0625 127.203125 C 89.554688 126.941406 90.078125 126.761719 90.625 126.667969 C 92.5 126.230469 94.375 125.933594 96.257812 125.640625 L 98.617188 125.257812 C 99.855469 125.125 101.011719 124.746094 102.089844 124.117188 C 103.164062 123.492188 104.070312 122.675781 104.796875 121.664062 C 105.84375 120.21875 106.289062 118.605469 106.144531 116.828125 C 106.105469 116.289062 106.015625 115.757812 105.871094 115.238281 C 105.722656 114.71875 105.527344 114.214844 105.28125 113.734375 C 105.03125 113.253906 104.738281 112.804688 104.398438 112.382812 C 104.0625 111.960938 103.683594 111.582031 103.265625 111.234375 C 102.847656 110.890625 102.402344 110.59375 101.925781 110.339844 C 101.445312 110.085938 100.949219 109.886719 100.429688 109.734375 C 99.910156 109.582031 99.382812 109.484375 98.84375 109.441406 C 98.304688 109.394531 97.765625 109.40625 97.230469 109.472656 L 96.558594 109.472656 C 74.753906 109.242188 53.007812 109.011719 31.121094 108.84375 L 30.375 108.84375 C 27.28125 108.84375 25.59375 108.078125 24.554688 106.210938 C 24.066406 105.417969 23.8125 104.558594 23.796875 103.628906 C 23.78125 102.699219 24.003906 101.832031 24.460938 101.023438 Z M 116.640625 179.921875 C 116.589844 178.367188 116.582031 165.070312 116.582031 151.636719 L 137.933594 150.105469 C 138.761719 150.027344 139.605469 149.980469 140.515625 149.933594 C 142.242188 149.847656 144.140625 149.742188 146.445312 149.410156 C 150.949219 148.832031 155.359375 147.835938 159.675781 146.429688 L 160.132812 146.011719 C 167.003906 143.34375 173.425781 139.851562 179.398438 135.542969 C 185.375 131.230469 190.710938 126.238281 195.410156 120.558594 C 195.9375 120.09375 196.550781 119.839844 197.253906 119.800781 C 198.4375 119.722656 206.777344 119.726562 216.4375 119.738281 L 225.941406 119.738281 L 227.230469 137.394531 C 227.324219 139.222656 227.421875 141.238281 227.761719 143.8125 C 228.375 148.300781 229.382812 152.699219 230.773438 157.007812 L 231.148438 157.503906 C 233.796875 164.378906 237.277344 170.800781 241.589844 176.769531 C 245.90625 182.742188 250.914062 188.0625 256.609375 192.730469 C 257.054688 193.261719 257.304688 193.871094 257.359375 194.558594 C 257.414062 196.113281 257.414062 209.410156 257.414062 222.847656 L 236.066406 224.375 C 235.242188 224.457031 234.402344 224.496094 233.496094 224.542969 C 231.769531 224.632812 229.867188 224.730469 227.554688 225.070312 C 223.050781 225.648438 218.640625 226.632812 214.324219 228.035156 L 213.824219 228.464844 C 206.964844 231.136719 200.546875 234.628906 194.582031 238.945312 C 188.613281 243.257812 183.28125 248.25 178.589844 253.925781 C 178.058594 254.386719 177.445312 254.636719 176.746094 254.679688 C 175.554688 254.761719 166.824219 254.75 157.5625 254.738281 L 148.0625 254.738281 L 146.769531 237.085938 C 146.675781 235.257812 146.578125 233.246094 146.246094 230.660156 C 145.625 226.175781 144.621094 221.777344 143.226562 217.46875 L 142.851562 216.980469 C 140.199219 210.101562 136.714844 203.675781 132.402344 197.699219 C 128.089844 191.71875 123.085938 186.390625 117.394531 181.703125 C 116.945312 181.195312 116.691406 180.601562 116.640625 179.921875 Z M 335.3125 179.859375 C 334.671875 180.332031 334.09375 180.878906 333.582031 181.496094 C 333.070312 182.109375 332.640625 182.777344 332.296875 183.5 C 331.949219 184.21875 331.691406 184.972656 331.527344 185.753906 C 331.367188 186.539062 331.296875 187.328125 331.328125 188.128906 C 331.378906 192.777344 331.328125 232.265625 331.230469 249.726562 C 321.257812 249.199219 310.410156 249.078125 303.984375 249.078125 L 302.835938 249.078125 C 303.289062 247.335938 303.53125 245.5625 303.566406 243.765625 C 303.59375 242.136719 303.457031 240.519531 303.148438 238.921875 C 302.839844 237.320312 302.371094 235.769531 301.742188 234.269531 C 301.109375 232.769531 300.332031 231.347656 299.402344 230.007812 C 298.476562 228.667969 297.421875 227.4375 296.238281 226.320312 L 295.851562 225.933594 C 294.695312 224.78125 293.40625 223.796875 291.992188 222.980469 C 290.578125 222.160156 289.082031 221.535156 287.507812 221.101562 C 285.929688 220.667969 284.324219 220.441406 282.691406 220.425781 C 281.058594 220.40625 279.449219 220.597656 277.863281 220.992188 C 276.273438 221.171875 274.714844 221.351562 273.140625 221.511719 C 273.140625 207.558594 273.140625 193.800781 273.253906 191.707031 C 273.320312 190.835938 273.273438 189.96875 273.121094 189.109375 C 272.964844 188.25 272.703125 187.425781 272.335938 186.632812 C 271.96875 185.839844 271.507812 185.105469 270.953125 184.429688 C 270.398438 183.757812 269.769531 183.164062 269.0625 182.648438 C 266.355469 180.621094 263.8125 178.40625 261.429688 176.003906 C 259.050781 173.601562 256.863281 171.035156 254.867188 168.304688 C 252.867188 165.578125 251.082031 162.714844 249.511719 159.722656 C 247.9375 156.726562 246.59375 153.632812 245.480469 150.441406 C 244.332031 146.984375 243.597656 143.445312 243.277344 139.816406 C 242.644531 132.402344 242.011719 124.929688 241.4375 117.488281 C 241.09375 113.714844 240.804688 109.941406 240.574219 106.125 L 240.453125 104.59375 C 240.09375 99.992188 239.734375 95.449219 239.417969 90.789062 C 239.304688 89.046875 239.675781 87.414062 240.527344 85.890625 C 240.804688 85.429688 241.148438 85.023438 241.558594 84.671875 C 241.96875 84.320312 242.425781 84.046875 242.921875 83.84375 C 243.421875 83.644531 243.941406 83.527344 244.480469 83.496094 C 245.019531 83.460938 245.546875 83.515625 246.066406 83.660156 C 246.621094 83.730469 247.148438 83.886719 247.648438 84.125 C 248.152344 84.367188 248.605469 84.675781 249.011719 85.058594 C 249.414062 85.441406 249.75 85.875 250.019531 86.363281 C 250.285156 86.851562 250.472656 87.367188 250.578125 87.914062 C 250.90625 89.433594 251.152344 90.953125 251.398438 92.464844 C 251.589844 93.613281 251.785156 94.8125 251.976562 95.914062 C 251.992188 96.378906 252.046875 96.839844 252.144531 97.292969 C 252.242188 97.75 252.378906 98.191406 252.558594 98.621094 C 252.734375 99.050781 252.949219 99.460938 253.199219 99.851562 C 253.453125 100.246094 253.734375 100.609375 254.050781 100.953125 C 254.367188 101.292969 254.710938 101.601562 255.085938 101.882812 C 255.457031 102.160156 255.851562 102.402344 256.265625 102.613281 C 256.683594 102.820312 257.113281 102.988281 257.558594 103.121094 C 258.003906 103.253906 258.460938 103.34375 258.921875 103.390625 C 259.222656 103.441406 259.527344 103.472656 259.828125 103.484375 C 260.132812 103.5 260.4375 103.496094 260.742188 103.472656 C 261.046875 103.449219 261.347656 103.410156 261.648438 103.351562 C 261.945312 103.292969 262.238281 103.21875 262.53125 103.125 C 262.820312 103.03125 263.105469 102.921875 263.378906 102.792969 C 263.65625 102.667969 263.925781 102.523438 264.1875 102.367188 C 264.445312 102.207031 264.695312 102.035156 264.9375 101.847656 C 265.175781 101.660156 265.402344 101.457031 265.621094 101.242188 C 265.835938 101.027344 266.039062 100.800781 266.226562 100.5625 C 266.414062 100.320312 266.589844 100.074219 266.75 99.8125 C 266.90625 99.554688 267.050781 99.285156 267.179688 99.007812 C 267.308594 98.730469 267.417969 98.449219 267.511719 98.160156 C 267.605469 97.867188 267.683594 97.574219 267.742188 97.277344 C 267.800781 96.976562 267.84375 96.675781 267.867188 96.371094 C 267.890625 96.066406 267.894531 95.765625 267.882812 95.460938 C 267.871094 95.15625 267.839844 94.851562 267.792969 94.550781 C 268.019531 74.472656 268.195312 54.410156 268.308594 34.367188 C 268.367188 32.164062 268.367188 29.957031 268.367188 27.789062 C 268.417969 24.578125 269.175781 22.917969 271.0625 21.871094 C 271.84375 21.394531 272.6875 21.152344 273.601562 21.140625 C 274.511719 21.128906 275.363281 21.351562 276.152344 21.808594 C 277.023438 22.355469 277.695312 23.082031 278.175781 23.988281 C 278.652344 24.898438 278.875 25.863281 278.835938 26.890625 C 278.835938 33.21875 278.769531 39.589844 278.714844 45.941406 L 278.605469 58.457031 C 278.488281 67.832031 278.375 77.207031 278.316406 86.59375 C 278.285156 87.039062 278.289062 87.488281 278.332031 87.9375 C 278.375 88.382812 278.453125 88.824219 278.570312 89.257812 C 278.6875 89.691406 278.839844 90.113281 279.027344 90.523438 C 279.214844 90.929688 279.4375 91.320312 279.691406 91.691406 C 279.945312 92.0625 280.226562 92.410156 280.539062 92.730469 C 280.851562 93.054688 281.191406 93.351562 281.554688 93.617188 C 281.914062 93.882812 282.296875 94.117188 282.699219 94.316406 C 283.101562 94.519531 283.515625 94.683594 283.949219 94.816406 C 284.730469 95.089844 285.539062 95.226562 286.367188 95.222656 C 287.199219 95.214844 288.003906 95.070312 288.785156 94.789062 C 289.5625 94.503906 290.273438 94.097656 290.914062 93.566406 C 291.550781 93.035156 292.082031 92.414062 292.503906 91.699219 C 293.523438 90.03125 294.007812 88.222656 293.960938 86.269531 C 294.109375 73.839844 293.960938 65.058594 293.828125 56.558594 C 293.695312 48.371094 293.5625 39.878906 293.671875 28.171875 C 293.671875 27.640625 293.671875 27.121094 293.671875 26.601562 C 293.671875 26.171875 293.671875 25.742188 293.671875 25.339844 C 293.6875 24.988281 293.734375 24.644531 293.816406 24.304688 C 293.898438 23.96875 294.011719 23.640625 294.15625 23.320312 C 294.300781 23.003906 294.476562 22.707031 294.683594 22.421875 C 294.890625 22.140625 295.121094 21.882812 295.375 21.644531 C 295.632812 21.410156 295.910156 21.199219 296.207031 21.019531 C 296.503906 20.835938 296.820312 20.6875 297.144531 20.566406 C 297.472656 20.445312 297.808594 20.359375 298.15625 20.304688 C 298.5 20.253906 298.847656 20.234375 299.195312 20.246094 C 299.546875 20.222656 299.898438 20.230469 300.246094 20.277344 C 300.597656 20.320312 300.9375 20.402344 301.269531 20.515625 C 301.605469 20.632812 301.921875 20.78125 302.226562 20.960938 C 302.527344 21.144531 302.808594 21.355469 303.066406 21.59375 C 303.328125 21.832031 303.558594 22.09375 303.765625 22.382812 C 303.96875 22.667969 304.144531 22.972656 304.285156 23.296875 C 304.425781 23.617188 304.535156 23.953125 304.609375 24.296875 C 304.683594 24.640625 304.71875 24.992188 304.722656 25.34375 C 304.855469 29.515625 304.789062 33.683594 304.722656 37.851562 L 304.664062 41.996094 C 304.574219 52.261719 304.75 58.449219 304.933594 65 C 305.101562 70.894531 305.269531 76.933594 305.238281 86.28125 C 305.1875 87.46875 305.351562 88.625 305.738281 89.75 C 306.121094 90.871094 306.699219 91.886719 307.472656 92.792969 C 308.472656 93.578125 309.578125 94.167969 310.789062 94.554688 C 312.003906 94.945312 313.246094 95.105469 314.515625 95.046875 C 314.917969 95.015625 315.3125 94.945312 315.699219 94.84375 C 316.085938 94.742188 316.464844 94.605469 316.828125 94.433594 C 317.191406 94.265625 317.535156 94.066406 317.863281 93.832031 C 318.191406 93.601562 318.496094 93.339844 318.777344 93.054688 C 319.058594 92.769531 319.3125 92.460938 319.539062 92.128906 C 319.765625 91.796875 319.960938 91.449219 320.125 91.082031 C 320.285156 90.714844 320.417969 90.335938 320.511719 89.945312 C 320.609375 89.554688 320.667969 89.160156 320.695312 88.761719 C 320.863281 87.242188 320.929688 85.714844 320.890625 84.1875 L 320.890625 83.367188 L 321.40625 28.191406 C 321.40625 25.027344 322.234375 23.320312 324.28125 22.285156 C 325.097656 21.824219 325.976562 21.597656 326.910156 21.605469 C 327.847656 21.613281 328.71875 21.855469 329.527344 22.328125 C 330.414062 22.921875 331.101562 23.695312 331.582031 24.644531 C 332.066406 25.597656 332.285156 26.605469 332.238281 27.671875 C 332.238281 33.328125 332.175781 38.980469 332.117188 44.632812 L 332.035156 55.796875 C 331.921875 66.324219 331.804688 76.855469 331.75 87.398438 C 331.71875 87.917969 331.742188 88.441406 331.820312 88.957031 C 331.894531 89.476562 332.023438 89.980469 332.199219 90.472656 C 332.378906 90.964844 332.601562 91.433594 332.875 91.878906 C 333.144531 92.328125 333.457031 92.742188 333.8125 93.128906 C 334.167969 93.511719 334.558594 93.855469 334.984375 94.164062 C 335.40625 94.46875 335.859375 94.730469 336.335938 94.945312 C 336.8125 95.160156 337.304688 95.328125 337.8125 95.445312 C 338.324219 95.5625 338.839844 95.625 339.363281 95.640625 C 339.886719 95.652344 340.40625 95.613281 340.921875 95.523438 C 341.4375 95.429688 341.9375 95.289062 342.421875 95.097656 C 342.910156 94.90625 343.375 94.667969 343.8125 94.382812 C 344.25 94.101562 344.65625 93.773438 345.03125 93.410156 C 345.40625 93.042969 345.738281 92.644531 346.03125 92.210938 C 346.328125 91.777344 346.574219 91.320312 346.777344 90.835938 C 346.976562 90.355469 347.128906 89.855469 347.230469 89.34375 C 347.332031 88.828125 347.382812 88.3125 347.382812 87.789062 C 347.445312 87.046875 347.46875 86.304688 347.457031 85.5625 C 347.570312 71.476562 347.679688 57.332031 347.851562 43.226562 L 347.851562 41.867188 C 347.777344 40.839844 347.894531 39.832031 348.210938 38.851562 C 348.527344 37.871094 349.015625 36.984375 349.675781 36.191406 C 350.140625 35.769531 350.667969 35.449219 351.257812 35.238281 C 351.851562 35.027344 352.460938 34.9375 353.085938 34.972656 C 354.425781 34.910156 355.597656 35.324219 356.59375 36.21875 C 357.246094 37.03125 357.71875 37.933594 358.019531 38.929688 C 358.316406 39.921875 358.417969 40.9375 358.320312 41.972656 L 358.101562 64.148438 C 357.875 87.066406 357.683594 109.988281 357.527344 132.914062 C 357.582031 135.160156 357.507812 137.402344 357.300781 139.640625 C 357.097656 141.878906 356.761719 144.097656 356.296875 146.296875 C 355.828125 148.492188 355.238281 150.65625 354.519531 152.785156 C 353.800781 154.914062 352.960938 156.996094 352 159.027344 C 351.039062 161.058594 349.964844 163.027344 348.773438 164.933594 C 347.582031 166.839844 346.285156 168.667969 344.878906 170.421875 C 343.472656 172.175781 341.972656 173.839844 340.371094 175.417969 C 338.773438 176.996094 337.085938 178.476562 335.3125 179.859375 Z M 260.285156 101.316406 Z M 113.738281 273.171875 Z M 113.738281 273.171875 " fill-opacity="1" fill-rule="nonzero"/></svg>