<svg xmlns="http://www.w3.org/2000/svg" xmlns:xlink="http://www.w3.org/1999/xlink" width="500" zoomAndPan="magnify" viewBox="0 0 375 374.999991" height="500" preserveAspectRatio="xMidYMid meet" version="1.0"><defs><clipPath id="b456474462"><path d="M 2 19 L 375 19 L 375 356.53125 L 2 356.53125 Z M 2 19 " clip-rule="nonzero"/></clipPath></defs><rect x="-37.5" width="450" fill="#ffffff" y="-37.499999" height="449.999989" fill-opacity="1"/><rect x="-37.5" width="450" fill="#ffffff" y="-37.499999" height="449.999989" fill-opacity="1"/><g clip-path="url(#b456474462)"><path fill="#60c6b4" d="M 287.917969 152.300781 C 295.304688 147.652344 300.59375 140.503906 302.863281 132.023438 C 305.253906 123.109375 304.027344 113.796875 299.414062 105.804688 C 290.113281 89.699219 269.71875 83.917969 253.398438 92.515625 L 222.371094 38.773438 C 218.265625 31.664062 211.617188 26.574219 203.644531 24.4375 C 195.671875 22.300781 187.367188 23.382812 180.261719 27.488281 C 173.152344 31.59375 168.0625 38.242188 165.925781 46.214844 C 164.316406 52.21875 164.539062 58.414062 166.5 64.144531 C 151.761719 101.285156 120.566406 139.164062 78.21875 171.476562 C 77.5625 171.039062 76.835938 170.699219 76.054688 170.488281 C 74.191406 169.988281 72.203125 170.25 70.527344 171.21875 L 30.933594 194.078125 C 17.613281 201.769531 8.070312 214.238281 4.066406 229.183594 C 0.0625 244.132812 2.089844 259.703125 9.78125 273.023438 C 20.472656 291.542969 39.9375 301.910156 59.929688 301.910156 C 69.726562 301.910156 79.648438 299.417969 88.726562 294.179688 L 90.992188 292.871094 L 134.660156 349.878906 C 137.675781 353.820312 141.882812 356.136719 146.824219 356.585938 C 147.386719 356.636719 147.941406 356.660156 148.492188 356.660156 C 152.789062 356.660156 156.738281 355.125 159.996094 352.167969 L 172.019531 341.257812 C 178.710938 335.183594 179.628906 325.183594 174.15625 317.992188 L 133.101562 264.046875 C 181.867188 243.882812 229.820312 235.980469 269.046875 241.746094 C 274.988281 248.546875 283.546875 252.277344 292.300781 252.277344 C 297.527344 252.277344 302.820312 250.949219 307.664062 248.152344 C 322.382812 239.65625 327.445312 220.765625 318.945312 206.042969 Z M 286.796875 113.089844 C 289.46875 117.710938 290.175781 123.097656 288.792969 128.253906 C 287.53125 132.972656 284.648438 136.980469 280.625 139.671875 L 260.691406 105.144531 C 270.039062 100.550781 281.515625 103.9375 286.796875 113.089844 Z M 59.902344 287.347656 C 44.953125 287.347656 30.394531 279.59375 22.394531 265.742188 C 16.648438 255.789062 15.136719 244.148438 18.136719 232.957031 C 21.132812 221.765625 28.265625 212.4375 38.21875 206.691406 L 71.503906 187.472656 L 114.730469 262.34375 L 81.445312 281.5625 C 74.652344 285.484375 67.234375 287.347656 59.902344 287.347656 Z M 162.230469 330.472656 L 150.207031 341.382812 C 149.570312 341.960938 148.988281 342.15625 148.136719 342.078125 C 147.28125 342 146.746094 341.703125 146.222656 341.023438 L 103.714844 285.523438 L 122.769531 274.523438 L 162.566406 326.8125 C 163.429688 327.945312 163.28125 329.515625 162.230469 330.472656 Z M 125.300781 251.515625 L 86.167969 183.734375 C 126.929688 152.808594 158.054688 116.691406 175.261719 80.484375 L 259.269531 225.984375 C 219.304688 222.785156 172.464844 231.679688 125.300781 251.515625 Z M 300.378906 235.539062 C 292.613281 240.023438 282.652344 237.351562 278.167969 229.585938 L 181.59375 62.3125 C 177.109375 54.546875 179.78125 44.585938 187.542969 40.101562 C 190.023438 38.667969 192.789062 37.9375 195.597656 37.9375 C 197.023438 37.9375 198.457031 38.125 199.875 38.503906 C 204.089844 39.632812 207.597656 42.316406 209.757812 46.054688 L 306.332031 213.328125 C 310.8125 221.089844 308.144531 231.054688 300.378906 235.539062 Z M 308.300781 100.675781 C 306.289062 97.191406 307.480469 92.738281 310.964844 90.726562 L 340.203125 73.847656 C 343.683594 71.835938 348.140625 73.03125 350.148438 76.511719 C 352.160156 79.996094 350.96875 84.449219 347.484375 86.460938 L 318.25 103.339844 C 317.101562 104.003906 315.847656 104.316406 314.613281 104.316406 C 312.097656 104.316406 309.648438 103.011719 308.300781 100.675781 Z M 274.59375 53.769531 L 292.398438 22.929688 C 294.410156 19.445312 298.863281 18.25 302.347656 20.261719 C 305.832031 22.273438 307.023438 26.730469 305.011719 30.210938 L 287.207031 61.050781 C 285.859375 63.390625 283.410156 64.695312 280.894531 64.695312 C 279.660156 64.695312 278.40625 64.378906 277.261719 63.71875 C 273.777344 61.707031 272.582031 57.253906 274.59375 53.769531 Z M 374.960938 146.035156 C 374.960938 150.058594 371.703125 153.320312 367.679688 153.320312 L 332.070312 153.320312 C 328.046875 153.320312 324.785156 150.058594 324.785156 146.035156 C 324.785156 142.015625 328.046875 138.753906 332.070312 138.753906 L 367.679688 138.753906 C 371.703125 138.753906 374.960938 142.015625 374.960938 146.035156 Z M 374.960938 146.035156 " fill-opacity="1" fill-rule="nonzero"/></g></svg>