<svg xmlns="http://www.w3.org/2000/svg" xmlns:xlink="http://www.w3.org/1999/xlink" width="500" zoomAndPan="magnify" viewBox="0 0 375 374.999991" height="500" preserveAspectRatio="xMidYMid meet" version="1.0"><path fill="#60c6b4" d="M 216.667969 124.78125 L 212.0625 116.886719 C 175.65625 103.289062 158.992188 70.613281 162.9375 19.957031 C 163.378906 16.007812 168.203125 14.035156 171.273438 16.667969 C 203.507812 44.078125 224.34375 65.789062 220.613281 111.84375 L 221.710938 113.597656 L 232.675781 94.515625 C 226.316406 56.140625 246.273438 25.4375 292.105469 3.507812 C 295.613281 1.753906 299.78125 5.042969 299.121094 8.992188 C 291.449219 50.65625 283.113281 79.605469 241.449219 99.34375 L 226.535156 124.78125 L 226.535156 131.359375 L 234.648438 126.535156 C 247.148438 93.640625 274.78125 76.972656 316.886719 76.972656 C 321.492188 76.972656 326.535156 77.191406 331.578125 77.632812 C 335.746094 77.851562 337.71875 82.675781 335.085938 85.746094 C 309.210938 115.789062 289.472656 135.527344 250.21875 135.527344 C 246.929688 135.527344 243.421875 135.308594 239.914062 135.085938 L 226.535156 142.761719 L 226.535156 199.34375 C 246.492188 201.097656 264.472656 212.28125 274.5625 229.605469 C 291.007812 219.515625 314.472656 208.113281 328.289062 225.21875 C 346.929688 217.324219 366.007812 216.667969 374.121094 237.28125 C 375 239.253906 374.34375 241.886719 372.367188 243.203125 C 355.484375 254.824219 340.570312 265.789062 327.414062 275.65625 C 262.9375 323.683594 230.261719 348.027344 122.585938 319.515625 L 96.929688 334.429688 C 99.5625 338.816406 103.726562 344.296875 102.851562 347.367188 C 102.414062 348.683594 101.753906 349.78125 100.4375 350.4375 L 64.035156 371.929688 C 61.621094 373.246094 58.550781 372.367188 57.238281 369.957031 L 1.316406 274.34375 C 0 271.929688 0.65625 268.859375 3.070312 267.542969 L 39.472656 246.273438 C 45.175781 242.984375 48.027344 251.097656 51.535156 256.796875 C 88.816406 231.578125 122.585938 199.5625 172.585938 223.683594 C 183.113281 209.648438 199.121094 200.878906 216.667969 199.34375 L 216.667969 173.464844 L 196.492188 153.289062 C 157.675781 149.5625 133.332031 122.367188 123.902344 72.367188 C 123.246094 68.421875 127.414062 65.351562 130.921875 67.105469 C 169.296875 85.308594 194.957031 100.65625 203.289062 146.050781 L 216.667969 159.429688 Z M 266.007812 234.867188 C 248.246094 203.726562 204.386719 200 181.796875 228.070312 C 205.921875 227.632812 241.007812 224.34375 261.621094 237.5 C 262.9375 236.84375 264.472656 235.746094 266.007812 234.867188 Z M 91.886719 325.878906 L 119.296875 309.867188 C 120.613281 309.210938 121.929688 308.992188 123.246094 309.429688 C 227.851562 337.28125 257.238281 315.570312 321.492188 267.542969 C 333.773438 258.550781 347.585938 248.246094 363.15625 237.28125 C 361.183594 233.992188 358.550781 231.796875 355.042969 230.703125 C 338.15625 225.878906 306.796875 248.027344 288.15625 261.402344 C 282.675781 265.132812 274.34375 271.929688 271.050781 271.929688 L 198.027344 272.148438 C 191.667969 272.148438 191.449219 262.28125 198.027344 262.28125 L 266.226562 261.84375 C 262.71875 225.878906 183.773438 241.449219 177.191406 237.5 C 126.753906 207.675781 97.148438 237.9375 56.578125 265.570312 Z M 45.613281 266.667969 L 40.351562 257.238281 L 12.5 273.683594 L 63.378906 360.746094 L 91.226562 344.515625 Z M 269.515625 244.515625 C 272.585938 248.246094 274.78125 252.851562 275.65625 257.894531 C 289.253906 248.464844 303.289062 237.9375 318.859375 229.605469 C 307.238281 219.296875 282.894531 235.964844 269.515625 244.515625 Z M 287.28125 17.105469 C 253.726562 35.527344 238.816406 58.773438 241.886719 87.9375 C 273.027344 71.492188 280.921875 49.5625 287.28125 17.105469 Z M 245.832031 125.4375 C 280.484375 126.753906 298.464844 112.28125 320.832031 86.84375 C 283.550781 85.964844 258.332031 97.808594 245.832031 125.4375 Z M 135.746094 80.484375 C 144.957031 117.542969 163.597656 138.15625 192.542969 142.761719 C 184.648438 108.550781 165.570312 95.175781 135.746094 80.484375 Z M 172.367188 30.921875 C 171.492188 69.078125 184.210938 93.640625 210.964844 105.703125 C 212.28125 70.613281 197.367188 52.632812 172.367188 30.921875 Z M 172.367188 30.921875 " fill-opacity="1" fill-rule="evenodd"/></svg>