<svg xmlns="http://www.w3.org/2000/svg" xmlns:xlink="http://www.w3.org/1999/xlink" width="500" zoomAndPan="magnify" viewBox="0 0 375 374.999991" height="500" preserveAspectRatio="xMidYMid meet" version="1.0"><defs><clipPath id="d1f1cc3d8f"><path d="M 37.5 131.863281 L 337.5 131.863281 L 337.5 337.363281 L 37.5 337.363281 Z M 37.5 131.863281 " clip-rule="nonzero"/></clipPath></defs><path fill="#60c6b4" d="M 166.9375 240.554688 C 176.65625 240.554688 184.5625 232.644531 184.5625 222.929688 L 184.5625 175.925781 C 184.5625 166.207031 176.65625 158.300781 166.9375 158.300781 C 157.21875 158.300781 149.3125 166.207031 149.3125 175.925781 L 149.3125 222.929688 C 149.3125 232.644531 157.21875 240.554688 166.9375 240.554688 Z M 166.9375 240.554688 " fill-opacity="1" fill-rule="nonzero"/><path fill="#60c6b4" d="M 114.0625 158.300781 C 104.34375 158.300781 96.4375 166.207031 96.4375 175.925781 L 96.4375 222.929688 C 96.4375 232.644531 104.34375 240.554688 114.0625 240.554688 C 123.78125 240.554688 131.6875 232.644531 131.6875 222.929688 L 131.6875 175.925781 C 131.6875 166.207031 123.78125 158.300781 114.0625 158.300781 Z M 114.0625 158.300781 " fill-opacity="1" fill-rule="nonzero"/><path fill="#60c6b4" d="M 114.0625 296.367188 C 114.0625 296.753906 114.023438 297.132812 113.949219 297.511719 C 113.871094 297.890625 113.761719 298.257812 113.613281 298.613281 C 113.464844 298.972656 113.285156 299.308594 113.070312 299.628906 C 112.855469 299.953125 112.613281 300.25 112.339844 300.519531 C 112.066406 300.792969 111.769531 301.039062 111.449219 301.25 C 111.128906 301.464844 110.789062 301.648438 110.433594 301.792969 C 110.078125 301.941406 109.710938 302.054688 109.332031 302.128906 C 108.953125 302.203125 108.570312 302.242188 108.1875 302.242188 C 107.800781 302.242188 107.417969 302.203125 107.039062 302.128906 C 106.660156 302.054688 106.292969 301.941406 105.9375 301.792969 C 105.582031 301.648438 105.242188 301.464844 104.921875 301.25 C 104.601562 301.039062 104.304688 300.792969 104.03125 300.519531 C 103.757812 300.25 103.515625 299.953125 103.300781 299.628906 C 103.085938 299.308594 102.90625 298.972656 102.757812 298.613281 C 102.609375 298.257812 102.5 297.890625 102.421875 297.511719 C 102.347656 297.132812 102.3125 296.753906 102.3125 296.367188 C 102.3125 295.980469 102.347656 295.597656 102.421875 295.21875 C 102.5 294.84375 102.609375 294.476562 102.757812 294.117188 C 102.90625 293.761719 103.085938 293.421875 103.300781 293.101562 C 103.515625 292.78125 103.757812 292.484375 104.03125 292.210938 C 104.304688 291.941406 104.601562 291.695312 104.921875 291.480469 C 105.242188 291.265625 105.582031 291.085938 105.9375 290.9375 C 106.292969 290.792969 106.660156 290.679688 107.039062 290.605469 C 107.417969 290.527344 107.800781 290.492188 108.1875 290.492188 C 108.570312 290.492188 108.953125 290.527344 109.332031 290.605469 C 109.710938 290.679688 110.078125 290.792969 110.433594 290.9375 C 110.789062 291.085938 111.128906 291.265625 111.449219 291.480469 C 111.769531 291.695312 112.066406 291.941406 112.339844 292.210938 C 112.613281 292.484375 112.855469 292.78125 113.070312 293.101562 C 113.285156 293.421875 113.464844 293.761719 113.613281 294.117188 C 113.761719 294.476562 113.871094 294.84375 113.949219 295.21875 C 114.023438 295.597656 114.0625 295.980469 114.0625 296.367188 Z M 114.0625 296.367188 " fill-opacity="1" fill-rule="nonzero"/><path fill="#60c6b4" d="M 272.6875 296.367188 C 272.6875 296.753906 272.652344 297.132812 272.578125 297.511719 C 272.5 297.890625 272.390625 298.257812 272.242188 298.613281 C 272.09375 298.972656 271.914062 299.308594 271.699219 299.628906 C 271.484375 299.953125 271.242188 300.25 270.96875 300.519531 C 270.695312 300.792969 270.398438 301.039062 270.078125 301.25 C 269.757812 301.464844 269.417969 301.648438 269.0625 301.792969 C 268.707031 301.941406 268.339844 302.054688 267.960938 302.128906 C 267.582031 302.203125 267.199219 302.242188 266.8125 302.242188 C 266.429688 302.242188 266.046875 302.203125 265.667969 302.128906 C 265.289062 302.054688 264.921875 301.941406 264.566406 301.792969 C 264.210938 301.648438 263.871094 301.464844 263.550781 301.25 C 263.230469 301.039062 262.933594 300.792969 262.660156 300.519531 C 262.386719 300.25 262.144531 299.953125 261.929688 299.628906 C 261.714844 299.308594 261.535156 298.972656 261.386719 298.613281 C 261.238281 298.257812 261.128906 297.890625 261.050781 297.511719 C 260.976562 297.132812 260.9375 296.753906 260.9375 296.367188 C 260.9375 295.980469 260.976562 295.597656 261.050781 295.21875 C 261.128906 294.84375 261.238281 294.476562 261.386719 294.117188 C 261.535156 293.761719 261.714844 293.421875 261.929688 293.101562 C 262.144531 292.78125 262.386719 292.484375 262.660156 292.210938 C 262.933594 291.941406 263.230469 291.695312 263.550781 291.480469 C 263.871094 291.265625 264.210938 291.085938 264.566406 290.9375 C 264.921875 290.792969 265.289062 290.679688 265.667969 290.605469 C 266.046875 290.527344 266.429688 290.492188 266.8125 290.492188 C 267.199219 290.492188 267.582031 290.527344 267.960938 290.605469 C 268.339844 290.679688 268.707031 290.792969 269.0625 290.9375 C 269.417969 291.085938 269.757812 291.265625 270.078125 291.480469 C 270.398438 291.695312 270.695312 291.941406 270.96875 292.210938 C 271.242188 292.484375 271.484375 292.78125 271.699219 293.101562 C 271.914062 293.421875 272.09375 293.761719 272.242188 294.117188 C 272.390625 294.476562 272.5 294.84375 272.578125 295.21875 C 272.652344 295.597656 272.6875 295.980469 272.6875 296.367188 Z M 272.6875 296.367188 " fill-opacity="1" fill-rule="nonzero"/><g clip-path="url(#d1f1cc3d8f)"><path fill="#60c6b4" d="M 335.457031 206.890625 L 293.542969 167.59375 C 289.171875 163.496094 283.460938 161.238281 277.46875 161.238281 L 266.8125 161.238281 L 266.8125 149.488281 C 266.8125 139.769531 258.90625 131.863281 249.1875 131.863281 C 239.46875 131.863281 231.5625 139.769531 231.5625 149.488281 L 231.5625 161.238281 L 213.9375 161.238281 L 213.9375 155.363281 C 213.9375 142.40625 203.394531 131.863281 190.4375 131.863281 L 102.484375 131.863281 C 97.28125 131.863281 92.160156 133.621094 88.054688 136.8125 L 46.757812 168.933594 C 40.992188 173.417969 37.683594 180.179688 37.683594 187.484375 L 37.683594 296.367188 C 37.683594 309.324219 48.226562 319.867188 61.183594 319.867188 L 74.464844 319.867188 C 81.90625 330.511719 94.242188 337.492188 108.1875 337.492188 C 121.65625 337.492188 134.285156 330.816406 141.929688 319.867188 L 233.074219 319.867188 C 240.433594 330.40625 252.640625 337.492188 266.8125 337.492188 C 280.757812 337.492188 293.09375 330.511719 300.535156 319.867188 L 313.816406 319.867188 C 326.773438 319.867188 337.316406 309.324219 337.316406 296.367188 C 337.316406 288.835938 337.316406 243.148438 337.316406 231.742188 L 337.316406 211.175781 C 337.316406 209.523438 336.609375 207.96875 335.457031 206.890625 Z M 243.3125 149.488281 C 243.3125 146.25 245.949219 143.613281 249.1875 143.613281 C 252.429688 143.613281 255.0625 146.25 255.0625 149.488281 L 255.0625 161.238281 L 243.3125 161.238281 Z M 240.375 172.988281 C 244.503906 172.988281 273.566406 172.988281 277.46875 172.988281 C 280.464844 172.988281 283.320312 174.117188 285.507812 176.167969 L 300.917969 190.613281 L 260.9375 190.613281 C 257.695312 190.613281 255.0625 193.246094 255.0625 196.488281 L 255.0625 225.867188 L 240.375 225.867188 Z M 61.183594 308.117188 C 54.707031 308.117188 49.433594 302.847656 49.433594 296.367188 L 67.058594 296.367188 C 67.058594 300.449219 67.667969 304.390625 68.78125 308.117188 Z M 108.1875 313.992188 C 98.46875 313.992188 90.5625 306.085938 90.5625 296.367188 C 90.5625 286.648438 98.46875 278.742188 108.1875 278.742188 C 117.90625 278.742188 125.8125 286.648438 125.8125 296.367188 C 125.8125 306.085938 117.90625 313.992188 108.1875 313.992188 Z M 108.1875 255.242188 C 89.59375 255.242188 73.847656 267.648438 68.78125 284.617188 L 49.433594 284.617188 L 49.433594 187.484375 C 49.433594 183.832031 51.089844 180.453125 53.972656 178.210938 L 95.269531 146.089844 C 97.320312 144.492188 99.882812 143.613281 102.484375 143.613281 L 190.4375 143.613281 C 196.917969 143.613281 202.1875 148.886719 202.1875 155.363281 L 202.1875 284.617188 L 147.601562 284.617188 C 142.316406 266.957031 126.113281 255.242188 108.1875 255.242188 Z M 147.601562 308.117188 C 148.742188 304.296875 149.320312 300.339844 149.320312 296.367188 C 156.195312 296.367188 215.808594 296.367188 225.667969 296.367188 C 225.660156 300.417969 226.257812 304.367188 227.382812 308.117188 Z M 266.8125 313.992188 C 257.09375 313.992188 249.1875 306.085938 249.1875 296.367188 C 249.1875 286.648438 257.09375 278.742188 266.8125 278.742188 C 276.53125 278.742188 284.4375 286.648438 284.4375 296.367188 C 284.4375 306.085938 276.53125 313.992188 266.8125 313.992188 Z M 313.816406 308.117188 L 306.21875 308.117188 C 307.332031 304.390625 307.941406 300.449219 307.941406 296.367188 L 325.566406 296.367188 C 325.566406 302.847656 320.292969 308.117188 313.816406 308.117188 Z M 325.566406 284.617188 L 306.21875 284.617188 C 301.152344 267.648438 285.40625 255.242188 266.8125 255.242188 C 248.21875 255.242188 232.425781 267.636719 227.398438 284.617188 L 213.9375 284.617188 L 213.9375 172.988281 L 228.625 172.988281 L 228.625 231.742188 C 228.625 234.984375 231.257812 237.617188 234.5 237.617188 C 242.273438 237.617188 314.503906 237.617188 325.566406 237.617188 Z M 325.566406 225.867188 L 266.8125 225.867188 L 266.8125 202.363281 L 313.449219 202.363281 L 325.566406 213.722656 Z M 325.566406 225.867188 " fill-opacity="1" fill-rule="nonzero"/></g></svg>