<svg xmlns="http://www.w3.org/2000/svg" xmlns:xlink="http://www.w3.org/1999/xlink" width="500" zoomAndPan="magnify" viewBox="0 0 375 374.999991" height="500" preserveAspectRatio="xMidYMid meet" version="1.0"><defs><clipPath id="fae2f3a494"><path d="M 37.5 97 L 337.5 97 L 337.5 278 L 37.5 278 Z M 37.5 97 " clip-rule="nonzero"/></clipPath><clipPath id="30887f3c9f"><path d="M 149.890625 161.925781 L 184 161.925781 L 184 212.925781 L 149.890625 212.925781 Z M 149.890625 161.925781 " clip-rule="nonzero"/></clipPath><clipPath id="e85b6451be"><path d="M 191 161.925781 L 224.890625 161.925781 L 224.890625 212.925781 L 191 212.925781 Z M 191 161.925781 " clip-rule="nonzero"/></clipPath></defs><g clip-path="url(#fae2f3a494)"><path fill="#60c6b4" d="M 187.390625 97.167969 L 37.390625 187.574219 L 187.390625 277.980469 L 337.351562 187.574219 Z M 187.390625 238.359375 L 153.59375 217.980469 L 115.558594 217.980469 L 115.558594 195.054688 L 103.140625 187.683594 L 115.558594 180.3125 L 115.558594 157.09375 L 153.59375 157.09375 L 187.390625 136.714844 L 221.148438 157.09375 L 259.183594 157.09375 L 259.183594 180.019531 L 271.601562 187.390625 L 259.183594 194.761719 L 259.183594 217.683594 L 221.148438 217.683594 Z M 187.390625 238.359375 " fill-opacity="1" fill-rule="nonzero"/></g><path fill="#60c6b4" d="M 261.027344 219.75 L 113.605469 219.75 L 113.605469 155.324219 L 261.027344 155.324219 Z M 117.292969 216.0625 L 257.339844 216.0625 L 257.339844 159.011719 L 117.292969 159.011719 Z M 117.292969 216.0625 " fill-opacity="1" fill-rule="nonzero"/><g clip-path="url(#30887f3c9f)"><path fill="#60c6b4" d="M 175.726562 203.15625 L 175.726562 161.984375 L 162.34375 161.984375 C 162.34375 166.246094 158.890625 169.699219 154.628906 169.699219 L 149.890625 169.699219 L 149.890625 179.273438 L 162.808594 179.273438 L 162.808594 203.15625 L 154.9375 203.15625 L 154.9375 213.003906 L 183.59375 213.003906 L 183.59375 203.15625 L 175.726562 203.15625 " fill-opacity="1" fill-rule="nonzero"/></g><g clip-path="url(#e85b6451be)"><path fill="#60c6b4" d="M 217.234375 203.15625 L 217.234375 161.984375 L 203.847656 161.984375 C 203.847656 166.246094 200.394531 169.699219 196.136719 169.699219 L 191.398438 169.699219 L 191.398438 179.273438 L 204.316406 179.273438 L 204.316406 203.15625 L 196.445312 203.15625 L 196.445312 213.003906 L 225.101562 213.003906 L 225.101562 203.15625 L 217.234375 203.15625 " fill-opacity="1" fill-rule="nonzero"/></g></svg>