<svg xmlns="http://www.w3.org/2000/svg" xmlns:xlink="http://www.w3.org/1999/xlink" width="500" zoomAndPan="magnify" viewBox="0 0 375 374.999991" height="500" preserveAspectRatio="xMidYMid meet" version="1.0"><defs><clipPath id="a06bc3dda9"><path d="M 0 26.953125 L 375 26.953125 L 375 347.953125 L 0 347.953125 Z M 0 26.953125 " clip-rule="nonzero"/></clipPath></defs><g clip-path="url(#a06bc3dda9)"><path fill="#60c6b4" d="M 14.570312 130.738281 L 62.238281 100.589844 L 62.238281 62.113281 C 62.238281 58.382812 65.265625 55.355469 68.996094 55.355469 L 133.765625 55.355469 L 170.824219 31.921875 C 176.027344 28.628906 181.761719 26.980469 187.503906 26.980469 C 193.246094 26.980469 198.984375 28.628906 204.1875 31.921875 L 241.242188 55.355469 L 306.011719 55.355469 C 309.742188 55.355469 312.769531 58.382812 312.769531 62.113281 L 312.769531 100.589844 L 360.4375 130.738281 L 360.550781 130.808594 L 360.65625 130.875 L 360.660156 130.878906 L 360.769531 130.949219 L 360.871094 131.015625 L 360.882812 131.023438 L 360.992188 131.09375 L 361.085938 131.15625 L 361.101562 131.167969 L 361.296875 131.300781 L 361.320312 131.3125 L 361.425781 131.386719 L 361.507812 131.441406 L 361.53125 131.460938 L 361.640625 131.535156 L 361.71875 131.589844 L 361.75 131.609375 L 361.855469 131.683594 L 361.925781 131.734375 L 361.960938 131.757812 L 362.066406 131.835938 L 362.132812 131.878906 L 362.175781 131.910156 L 362.277344 131.988281 L 362.339844 132.03125 L 362.382812 132.0625 L 362.484375 132.136719 L 362.542969 132.179688 L 362.589844 132.214844 L 362.695312 132.292969 L 362.742188 132.332031 L 362.796875 132.371094 L 363.105469 132.605469 L 363.144531 132.636719 L 363.207031 132.6875 L 363.507812 132.925781 L 363.535156 132.949219 C 363.859375 133.210938 364.175781 133.472656 364.484375 133.742188 L 364.496094 133.75 C 364.804688 134.023438 365.113281 134.300781 365.414062 134.582031 L 365.421875 134.589844 C 365.636719 134.792969 365.847656 134.996094 366.050781 135.203125 L 366.316406 135.46875 L 366.402344 135.558594 L 366.464844 135.621094 L 366.488281 135.648438 L 366.574219 135.738281 L 366.664062 135.828125 L 366.746094 135.921875 L 366.800781 135.972656 L 366.832031 136.011719 L 366.921875 136.105469 C 368.597656 137.917969 370.027344 139.902344 371.203125 142.03125 C 373.695312 146.554688 375.007812 151.675781 375.007812 157.140625 L 375.007812 316.773438 C 375.007812 325.382812 371.5 333.199219 365.839844 338.855469 C 360.933594 343.761719 354.410156 347.050781 347.152344 347.839844 L 347.101562 347.84375 L 346.875 347.871094 L 346.621094 347.894531 L 346.550781 347.898438 L 346.363281 347.914062 L 346.15625 347.933594 L 346.101562 347.9375 L 345.84375 347.953125 L 345.757812 347.960938 L 345.585938 347.972656 L 345.359375 347.984375 L 345.324219 347.984375 L 345.0625 347.996094 L 344.960938 348 L 344.804688 348.003906 L 344.5625 348.015625 L 344.542969 348.015625 L 344.175781 348.019531 L 344.160156 348.019531 L 344.019531 348.023438 L 30.992188 348.023438 L 30.851562 348.019531 L 30.835938 348.019531 L 30.464844 348.015625 L 30.445312 348.015625 L 30.203125 348.003906 L 30.046875 348 L 29.945312 347.996094 L 29.683594 347.984375 L 29.648438 347.984375 L 29.421875 347.972656 L 29.25 347.960938 L 29.164062 347.953125 L 28.90625 347.9375 L 28.851562 347.933594 L 28.648438 347.914062 L 28.457031 347.898438 L 28.390625 347.894531 L 28.132812 347.871094 L 28.0625 347.863281 L 27.875 347.839844 L 27.855469 347.839844 C 20.597656 347.050781 14.074219 343.761719 9.167969 338.855469 C 3.507812 333.195312 0 325.382812 0 316.773438 L 0 157.140625 C 0 151.675781 1.316406 146.554688 3.804688 142.035156 C 4.980469 139.902344 6.410156 137.917969 8.085938 136.109375 L 8.171875 136.015625 L 8.210938 135.976562 L 8.261719 135.921875 L 8.347656 135.828125 L 8.433594 135.742188 L 8.519531 135.648438 L 8.605469 135.5625 L 8.691406 135.472656 L 8.714844 135.445312 L 9.042969 135.117188 L 9.066406 135.097656 L 9.132812 135.027344 L 9.402344 134.765625 L 9.417969 134.753906 L 9.496094 134.679688 L 9.585938 134.59375 L 9.597656 134.582031 C 9.777344 134.414062 9.957031 134.246094 10.140625 134.082031 L 10.144531 134.078125 C 10.574219 133.695312 11.015625 133.316406 11.472656 132.949219 L 11.503906 132.925781 L 11.667969 132.792969 L 11.703125 132.765625 L 12.210938 132.371094 L 12.265625 132.332031 L 12.316406 132.292969 L 12.417969 132.21875 L 12.464844 132.179688 L 12.519531 132.140625 L 12.625 132.0625 L 12.667969 132.03125 L 12.730469 131.988281 L 12.835938 131.910156 L 12.875 131.882812 L 12.941406 131.835938 L 13.046875 131.757812 L 13.082031 131.734375 L 13.152344 131.683594 L 13.257812 131.609375 L 13.289062 131.589844 L 13.363281 131.535156 L 13.472656 131.460938 L 13.5 131.441406 L 13.691406 131.3125 L 13.710938 131.300781 L 13.796875 131.242188 L 13.90625 131.167969 L 13.925781 131.15625 L 14.015625 131.097656 L 14.125 131.023438 L 14.136719 131.015625 L 14.234375 130.949219 L 14.347656 130.878906 L 14.351562 130.875 L 14.460938 130.808594 Z M 62.238281 116.535156 L 21.75 142.140625 L 21.707031 142.164062 L 21.671875 142.191406 L 21.632812 142.21875 L 21.625 142.21875 L 21.589844 142.242188 L 21.550781 142.265625 L 21.511719 142.292969 L 21.5 142.300781 L 21.433594 142.34375 L 21.394531 142.371094 L 21.378906 142.378906 L 21.355469 142.394531 L 21.277344 142.449219 L 21.257812 142.460938 L 21.199219 142.5 L 21.160156 142.527344 L 21.136719 142.542969 L 21.121094 142.554688 L 21.085938 142.582031 L 21.046875 142.605469 L 21.015625 142.625 L 21.007812 142.632812 L 20.929688 142.6875 L 20.898438 142.710938 L 20.894531 142.714844 L 20.855469 142.742188 L 20.820312 142.765625 L 20.78125 142.792969 L 20.78125 142.796875 L 20.742188 142.820312 L 20.703125 142.847656 L 20.667969 142.875 L 20.664062 142.878906 L 20.628906 142.902344 L 20.59375 142.929688 L 20.554688 142.957031 L 20.546875 142.964844 L 20.519531 142.984375 L 20.480469 143.015625 L 20.261719 143.179688 L 20.226562 143.210938 L 20.152344 143.265625 L 20.113281 143.292969 L 20.042969 143.351562 L 20.007812 143.378906 L 19.976562 143.402344 L 19.972656 143.410156 L 19.9375 143.4375 L 19.898438 143.46875 L 19.726562 143.613281 L 19.6875 143.640625 L 19.652344 143.671875 L 19.648438 143.675781 L 19.617188 143.699219 L 19.375 143.90625 L 62.238281 171.015625 Z M 312.769531 171.015625 L 355.632812 143.90625 L 355.597656 143.875 L 355.578125 143.859375 L 355.5625 143.847656 L 355.527344 143.816406 L 355.492188 143.789062 L 355.460938 143.757812 L 355.425781 143.730469 L 355.390625 143.699219 L 355.363281 143.675781 L 355.355469 143.667969 L 355.320312 143.640625 L 355.285156 143.609375 L 355.253906 143.582031 L 355.25 143.582031 L 355.214844 143.550781 L 355.144531 143.496094 L 355.144531 143.492188 L 355.074219 143.4375 L 355.035156 143.410156 L 355.03125 143.402344 L 355.003906 143.378906 L 354.964844 143.351562 L 354.929688 143.320312 L 354.917969 143.316406 L 354.894531 143.292969 L 354.855469 143.265625 L 354.820312 143.238281 L 354.808594 143.226562 L 354.785156 143.210938 L 354.75 143.179688 L 354.710938 143.152344 L 354.691406 143.136719 L 354.675781 143.125 L 354.636719 143.097656 L 354.601562 143.066406 L 354.578125 143.050781 L 354.566406 143.039062 L 354.527344 143.015625 L 354.492188 142.984375 L 354.460938 142.964844 L 354.453125 142.957031 L 354.414062 142.929688 L 354.378906 142.902344 L 354.347656 142.878906 L 354.339844 142.875 L 354.304688 142.847656 L 354.265625 142.820312 L 354.230469 142.792969 L 354.152344 142.738281 L 354.109375 142.710938 L 354.078125 142.6875 L 354 142.632812 L 353.992188 142.625 L 353.960938 142.605469 L 353.921875 142.578125 L 353.882812 142.554688 L 353.871094 142.542969 L 353.847656 142.527344 L 353.808594 142.5 L 353.769531 142.476562 L 353.753906 142.460938 L 353.730469 142.449219 L 353.652344 142.394531 L 353.628906 142.378906 L 353.613281 142.371094 L 353.574219 142.34375 L 353.535156 142.320312 L 353.503906 142.300781 L 353.496094 142.292969 L 353.457031 142.265625 L 353.417969 142.242188 L 353.382812 142.21875 L 353.378906 142.21875 L 353.300781 142.164062 L 353.257812 142.140625 L 312.769531 116.535156 Z M 158.972656 55.355469 L 216.035156 55.355469 L 197.007812 43.324219 C 194.027344 41.4375 190.761719 40.492188 187.503906 40.492188 C 184.25 40.492188 180.980469 41.4375 178 43.324219 Z M 310.046875 188.679688 C 309.769531 188.886719 309.476562 189.074219 309.167969 189.234375 L 232.671875 237.617188 L 361.355469 319 C 361.445312 318.265625 361.496094 317.527344 361.496094 316.773438 L 361.496094 157.140625 C 361.496094 156.808594 361.484375 156.484375 361.46875 156.160156 Z M 239.324219 68.871094 L 75.753906 68.871094 L 75.753906 179.5625 L 176.59375 243.335938 C 180.015625 245.5 183.765625 246.582031 187.503906 246.582031 C 191.246094 246.582031 194.996094 245.5 198.414062 243.335938 L 299.253906 179.5625 L 299.253906 68.871094 Z M 13.652344 318.996094 L 142.339844 237.617188 L 65.410156 188.960938 L 65.3125 188.902344 L 13.539062 156.160156 C 13.523438 156.480469 13.515625 156.808594 13.515625 157.140625 L 13.515625 316.773438 C 13.515625 317.523438 13.5625 318.265625 13.652344 318.996094 Z M 154.941406 245.585938 L 20.324219 330.722656 C 22.894531 332.742188 26.027344 334.070312 29.445312 334.417969 L 29.480469 334.421875 L 29.667969 334.4375 L 29.769531 334.449219 L 29.890625 334.457031 L 29.917969 334.460938 L 30.066406 334.472656 L 30.117188 334.472656 L 30.214844 334.480469 L 30.34375 334.488281 L 30.359375 334.488281 L 30.507812 334.496094 L 30.570312 334.496094 L 30.65625 334.5 L 30.796875 334.503906 L 30.804688 334.503906 L 30.953125 334.507812 L 31.101562 334.507812 L 31.253906 334.511719 L 343.753906 334.511719 L 343.90625 334.507812 L 344.054688 334.507812 L 344.203125 334.503906 L 344.210938 334.503906 L 344.351562 334.5 L 344.4375 334.496094 L 344.5 334.496094 L 344.648438 334.488281 L 344.664062 334.488281 L 344.796875 334.480469 L 344.890625 334.472656 L 344.941406 334.472656 L 345.089844 334.460938 L 345.117188 334.457031 L 345.238281 334.449219 L 345.339844 334.4375 L 345.53125 334.421875 L 345.566406 334.417969 C 348.976562 334.066406 352.113281 332.742188 354.683594 330.722656 L 220.066406 245.585938 L 205.59375 254.738281 C 199.949219 258.3125 193.730469 260.09375 187.503906 260.09375 C 181.277344 260.09375 175.0625 258.3125 169.414062 254.738281 Z M 154.941406 245.585938 " fill-opacity="1" fill-rule="nonzero"/></g><path fill="#60c6b4" d="M 227.136719 174.167969 L 238.390625 174.167969 C 234.878906 181.355469 229.476562 186.972656 222.183594 191.042969 C 213.867188 195.707031 203.691406 198.042969 191.699219 198.042969 C 180.085938 198.042969 170.074219 196.085938 161.628906 192.15625 C 153.183594 188.214844 146.898438 182.417969 142.796875 174.765625 C 138.671875 167.09375 136.621094 158.757812 136.621094 149.71875 C 136.621094 139.816406 138.960938 130.597656 143.640625 122.042969 C 148.304688 113.507812 154.714844 107.097656 162.835938 102.8125 C 170.957031 98.527344 180.246094 96.382812 190.691406 96.382812 C 199.550781 96.382812 207.4375 98.113281 214.316406 101.550781 C 221.210938 105.007812 226.484375 109.90625 230.125 116.261719 C 233.761719 122.617188 235.578125 129.550781 235.578125 137.078125 C 235.578125 146.0625 232.828125 154.164062 227.296875 161.421875 C 220.382812 170.570312 211.503906 175.140625 200.683594 175.140625 C 197.765625 175.140625 195.570312 174.636719 194.09375 173.628906 C 192.617188 172.605469 191.644531 171.125 191.140625 169.164062 C 187 173.144531 182.210938 175.140625 176.808594 175.140625 C 170.976562 175.140625 166.132812 173.125 162.277344 169.109375 C 158.425781 165.078125 156.5 159.726562 156.5 153.050781 C 156.5 144.785156 158.820312 137.257812 163.449219 130.433594 C 169.082031 122.132812 176.289062 117.992188 185.074219 117.992188 C 191.320312 117.992188 195.949219 120.386719 198.917969 125.175781 L 200.234375 119.285156 L 214.152344 119.285156 L 206.175781 157.0625 C 205.6875 159.460938 205.4375 161.007812 205.4375 161.710938 C 205.4375 162.574219 205.636719 163.238281 206.050781 163.671875 C 206.445312 164.125 206.933594 164.339844 207.492188 164.339844 C 209.183594 164.339844 211.363281 163.3125 214.042969 161.277344 C 217.628906 158.613281 220.527344 155.011719 222.742188 150.527344 C 224.957031 146.027344 226.074219 141.363281 226.074219 136.539062 C 226.074219 127.894531 222.941406 120.65625 216.691406 114.839844 C 210.425781 109.023438 201.691406 106.109375 190.476562 106.109375 C 180.949219 106.109375 172.867188 108.054688 166.238281 111.941406 C 159.613281 115.847656 154.625 121.324219 151.277344 128.398438 C 147.910156 135.457031 146.234375 142.820312 146.234375 150.472656 C 146.234375 157.910156 148.105469 164.664062 151.851562 170.765625 C 155.597656 176.871094 160.855469 181.316406 167.625 184.128906 C 174.378906 186.917969 182.121094 188.320312 190.851562 188.320312 C 199.246094 188.320312 206.480469 187.132812 212.515625 184.773438 C 218.566406 182.417969 223.445312 178.886719 227.136719 174.167969 Z M 170.21875 152.492188 C 170.21875 156.957031 171.121094 160.253906 172.917969 162.359375 C 174.738281 164.464844 176.96875 165.527344 179.636719 165.527344 C 181.632812 165.527344 183.507812 165.042969 185.253906 164.050781 C 186.585938 163.347656 187.902344 162.230469 189.195312 160.71875 C 191.070312 158.578125 192.671875 155.460938 194.023438 151.339844 C 195.371094 147.230469 196.039062 143.398438 196.039062 139.832031 C 196.039062 135.871094 195.121094 132.808594 193.285156 130.6875 C 191.429688 128.558594 189.105469 127.5 186.316406 127.5 C 183.292969 127.5 180.5 128.671875 177.941406 131.007812 C 175.386719 133.351562 173.460938 136.683594 172.164062 141.003906 C 170.867188 145.324219 170.21875 149.160156 170.21875 152.492188 Z M 170.21875 152.492188 " fill-opacity="1" fill-rule="nonzero"/></svg>