<svg xmlns="http://www.w3.org/2000/svg" xmlns:xlink="http://www.w3.org/1999/xlink" width="500" zoomAndPan="magnify" viewBox="0 0 375 374.999991" height="500" preserveAspectRatio="xMidYMid meet" version="1.0"><path fill="#60c6b4" d="M 291.382812 375.117188 L 292.054688 375.117188 C 338.550781 374.882812 364.925781 354.671875 366.035156 353.765625 L 366.558594 353.300781 C 367.34375 352.507812 368.070312 351.667969 368.738281 350.773438 C 369.402344 349.882812 370.003906 348.945312 370.535156 347.96875 C 371.070312 346.988281 371.53125 345.976562 371.925781 344.933594 C 372.316406 343.890625 372.632812 342.824219 372.871094 341.738281 C 373.113281 340.648438 373.273438 339.550781 373.359375 338.4375 C 373.445312 337.328125 373.453125 336.214844 373.378906 335.105469 C 373.308594 333.992188 373.15625 332.890625 372.929688 331.800781 C 372.703125 330.710938 372.398438 329.640625 372.019531 328.59375 C 370.421875 324.175781 368.585938 319.863281 366.515625 315.648438 C 364.445312 311.433594 362.148438 307.34375 359.628906 303.382812 C 357.109375 299.417969 354.382812 295.605469 351.449219 291.9375 C 348.511719 288.273438 345.386719 284.78125 342.066406 281.457031 C 338.75 278.132812 335.261719 275 331.597656 272.058594 C 327.9375 269.117188 324.128906 266.386719 320.167969 263.859375 C 316.210938 261.335938 312.125 259.035156 307.914062 256.957031 C 303.703125 254.878906 299.390625 253.039062 294.976562 251.429688 C 293.925781 251.050781 292.851562 250.742188 291.757812 250.511719 C 290.660156 250.28125 289.554688 250.128906 288.4375 250.054688 C 287.324219 249.980469 286.207031 249.984375 285.089844 250.066406 C 283.976562 250.152344 282.871094 250.3125 281.777344 250.550781 C 280.683594 250.792969 279.613281 251.105469 278.566406 251.496094 C 277.515625 251.886719 276.5 252.347656 275.515625 252.882812 C 274.535156 253.417969 273.59375 254.015625 272.695312 254.683594 C 271.796875 255.351562 270.949219 256.078125 270.152344 256.863281 L 248.246094 278.855469 C 247.761719 279.34375 247.253906 279.8125 246.722656 280.257812 C 246.195312 280.699219 245.644531 281.117188 245.078125 281.511719 C 244.507812 281.90625 243.921875 282.269531 243.320312 282.609375 C 242.71875 282.949219 242.105469 283.261719 241.472656 283.542969 C 240.84375 283.828125 240.203125 284.082031 239.546875 284.304688 C 238.894531 284.53125 238.230469 284.722656 237.5625 284.886719 C 236.890625 285.050781 236.210938 285.183594 235.527344 285.28125 C 234.84375 285.382812 234.15625 285.453125 233.46875 285.492188 C 232.777344 285.53125 232.089844 285.535156 231.398438 285.511719 C 230.707031 285.484375 230.019531 285.429688 229.335938 285.339844 C 228.648438 285.25 227.96875 285.132812 227.296875 284.980469 C 226.621094 284.832031 225.953125 284.648438 225.296875 284.4375 C 224.640625 284.222656 223.992188 283.984375 223.359375 283.710938 C 222.722656 283.441406 222.101562 283.140625 221.492188 282.8125 C 220.886719 282.484375 220.292969 282.128906 219.71875 281.746094 C 219.144531 281.363281 218.585938 280.953125 218.050781 280.519531 C 207.535156 272.019531 166.910156 232.476562 155.050781 220.792969 C 143.75 209.460938 103.417969 167.933594 94.800781 157.242188 C 94.367188 156.707031 93.957031 156.152344 93.574219 155.578125 C 93.191406 155.003906 92.835938 154.414062 92.507812 153.808594 C 92.175781 153.203125 91.875 152.582031 91.601562 151.949219 C 91.332031 151.3125 91.089844 150.667969 90.875 150.011719 C 90.660156 149.355469 90.480469 148.691406 90.328125 148.019531 C 90.175781 147.347656 90.054688 146.667969 89.960938 145.984375 C 89.871094 145.300781 89.8125 144.613281 89.785156 143.921875 C 89.757812 143.234375 89.765625 142.542969 89.800781 141.855469 C 89.835938 141.167969 89.902344 140.480469 90.003906 139.796875 C 90.101562 139.113281 90.230469 138.4375 90.390625 137.765625 C 90.554688 137.097656 90.746094 136.433594 90.964844 135.78125 C 91.1875 135.128906 91.4375 134.484375 91.71875 133.855469 C 92 133.226562 92.308594 132.609375 92.644531 132.007812 C 92.984375 131.40625 93.347656 130.820312 93.738281 130.25 C 94.128906 129.679688 94.542969 129.132812 94.984375 128.601562 C 95.425781 128.070312 95.890625 127.5625 96.378906 127.074219 L 118.339844 105.082031 C 119.128906 104.289062 119.859375 103.441406 120.527344 102.542969 C 121.195312 101.644531 121.796875 100.703125 122.332031 99.722656 C 122.867188 98.738281 123.332031 97.722656 123.722656 96.671875 C 124.113281 95.625 124.429688 94.554688 124.667969 93.460938 C 124.90625 92.367188 125.070312 91.261719 125.152344 90.144531 C 125.234375 89.027344 125.238281 87.910156 125.160156 86.792969 C 125.085938 85.675781 124.933594 84.570312 124.699219 83.476562 C 124.464844 82.382812 124.15625 81.308594 123.773438 80.257812 C 122.167969 75.847656 120.328125 71.539062 118.253906 67.328125 C 116.179688 63.121094 113.882812 59.035156 111.359375 55.078125 C 108.839844 51.121094 106.113281 47.308594 103.175781 43.648438 C 100.238281 39.988281 97.113281 36.5 93.792969 33.179688 C 90.476562 29.863281 86.988281 26.734375 83.328125 23.796875 C 79.667969 20.859375 75.859375 18.128906 71.902344 15.605469 C 67.945312 13.082031 63.863281 10.785156 59.65625 8.707031 C 55.445312 6.628906 51.136719 4.789062 46.730469 3.183594 C 45.683594 2.804688 44.613281 2.5 43.523438 2.273438 C 42.433594 2.042969 41.332031 1.894531 40.21875 1.820312 C 39.109375 1.75 37.996094 1.757812 36.886719 1.84375 C 35.777344 1.929688 34.675781 2.09375 33.589844 2.335938 C 32.503906 2.578125 31.4375 2.894531 30.394531 3.285156 C 29.351562 3.679688 28.34375 4.144531 27.367188 4.679688 C 26.390625 5.21875 25.457031 5.820312 24.566406 6.488281 C 23.675781 7.15625 22.835938 7.886719 22.050781 8.675781 C 21.871094 8.828125 21.714844 9.003906 21.582031 9.199219 C 20.707031 10.28125 0.4375 36.800781 0.203125 83.148438 C 0 125.320312 17.085938 192.960938 99.738281 275.613281 C 181.863281 357.738281 249.152344 375.117188 291.382812 375.117188 Z M 30.578125 16.648438 C 31.378906 15.902344 32.265625 15.277344 33.238281 14.777344 C 34.210938 14.273438 35.230469 13.914062 36.304688 13.695312 C 37.375 13.476562 38.457031 13.40625 39.546875 13.488281 C 40.640625 13.566406 41.699219 13.792969 42.726562 14.164062 C 46.738281 15.625 50.660156 17.296875 54.488281 19.183594 C 58.320312 21.070312 62.035156 23.160156 65.632812 25.453125 C 69.234375 27.746094 72.699219 30.226562 76.03125 32.898438 C 79.359375 35.570312 82.535156 38.414062 85.550781 41.433594 C 88.570312 44.453125 91.414062 47.625 94.085938 50.957031 C 96.757812 54.285156 99.242188 57.75 101.535156 61.351562 C 103.828125 64.953125 105.917969 68.667969 107.804688 72.496094 C 109.691406 76.324219 111.363281 80.246094 112.820312 84.257812 C 113.214844 85.324219 113.453125 86.425781 113.53125 87.5625 C 113.609375 88.695312 113.53125 89.820312 113.289062 90.933594 C 113.050781 92.042969 112.660156 93.101562 112.117188 94.101562 C 111.574219 95.101562 110.90625 96.007812 110.105469 96.816406 L 88.140625 118.808594 C 87.398438 119.546875 86.691406 120.316406 86.019531 121.121094 C 85.351562 121.921875 84.714844 122.753906 84.121094 123.617188 C 83.523438 124.476562 82.96875 125.363281 82.457031 126.273438 C 81.941406 127.1875 81.46875 128.121094 81.042969 129.074219 C 80.613281 130.03125 80.230469 131.003906 79.890625 131.992188 C 79.550781 132.984375 79.257812 133.988281 79.007812 135.003906 C 78.761719 136.019531 78.5625 137.046875 78.40625 138.082031 C 78.253906 139.117188 78.148438 140.160156 78.089844 141.203125 C 78.03125 142.25 78.023438 143.292969 78.0625 144.339844 C 78.097656 145.386719 78.183594 146.429688 78.316406 147.46875 C 78.449219 148.503906 78.632812 149.535156 78.859375 150.558594 C 79.085938 151.578125 79.359375 152.585938 79.679688 153.585938 C 80 154.582031 80.367188 155.5625 80.777344 156.523438 C 81.1875 157.488281 81.640625 158.429688 82.136719 159.351562 C 82.632812 160.273438 83.171875 161.167969 83.75 162.042969 C 84.328125 162.914062 84.945312 163.757812 85.601562 164.574219 C 94.949219 176.253906 136.011719 218.3125 146.203125 228.503906 C 155.492188 237.820312 198.773438 280.050781 210.601562 289.542969 C 211.417969 290.199219 212.261719 290.816406 213.132812 291.394531 C 214.003906 291.972656 214.902344 292.511719 215.824219 293.007812 C 216.746094 293.503906 217.6875 293.957031 218.648438 294.367188 C 219.613281 294.777344 220.59375 295.144531 221.589844 295.464844 C 222.585938 295.785156 223.59375 296.058594 224.613281 296.285156 C 225.636719 296.515625 226.664062 296.695312 227.703125 296.828125 C 228.742188 296.964844 229.785156 297.050781 230.828125 297.085938 C 231.875 297.125 232.921875 297.117188 233.964844 297.058594 C 235.011719 297 236.050781 296.898438 237.085938 296.746094 C 238.121094 296.589844 239.148438 296.390625 240.164062 296.144531 C 241.183594 295.898438 242.183594 295.605469 243.175781 295.269531 C 244.167969 294.929688 245.140625 294.546875 246.09375 294.117188 C 247.050781 293.691406 247.984375 293.222656 248.894531 292.707031 C 249.808594 292.195312 250.695312 291.640625 251.554688 291.046875 C 252.417969 290.453125 253.25 289.820312 254.054688 289.148438 C 254.855469 288.480469 255.628906 287.773438 256.367188 287.03125 L 278.328125 265.039062 C 279.140625 264.242188 280.042969 263.570312 281.042969 263.027344 C 282.046875 262.488281 283.101562 262.097656 284.214844 261.855469 C 285.324219 261.617188 286.449219 261.535156 287.585938 261.613281 C 288.71875 261.695312 289.820312 261.929688 290.886719 262.324219 C 294.898438 263.78125 298.820312 265.457031 302.648438 267.34375 C 306.480469 269.230469 310.195312 271.320312 313.792969 273.613281 C 317.394531 275.90625 320.859375 278.386719 324.191406 281.058594 C 327.519531 283.730469 330.695312 286.574219 333.710938 289.59375 C 336.730469 292.613281 339.574219 295.785156 342.246094 299.117188 C 344.917969 302.445312 347.402344 305.910156 349.695312 309.511719 C 351.988281 313.113281 354.078125 316.828125 355.964844 320.65625 C 357.851562 324.484375 359.523438 328.40625 360.980469 332.417969 C 361.359375 333.449219 361.585938 334.511719 361.667969 335.605469 C 361.75 336.699219 361.683594 337.785156 361.464844 338.859375 C 361.246094 339.933594 360.882812 340.957031 360.378906 341.933594 C 359.875 342.910156 359.25 343.796875 358.5 344.597656 C 355.578125 346.613281 331.484375 363.257812 291.324219 363.257812 C 251.519531 363.257812 187.414062 346.554688 108.03125 267.171875 C 28.652344 187.792969 11.914062 123.859375 11.886719 84.054688 C 11.859375 43.664062 28.5625 19.421875 30.578125 16.648438 Z M 30.578125 16.648438 " fill-opacity="1" fill-rule="nonzero"/><path fill="#60c6b4" d="M 283.527344 147.402344 C 282.929688 147.402344 282.335938 147.464844 281.746094 147.582031 C 281.160156 147.699219 280.585938 147.875 280.035156 148.105469 C 279.480469 148.339844 278.957031 148.621094 278.457031 148.957031 C 277.960938 149.289062 277.5 149.671875 277.074219 150.09375 C 276.652344 150.519531 276.277344 150.984375 275.945312 151.484375 C 275.613281 151.980469 275.332031 152.507812 275.101562 153.0625 C 274.875 153.617188 274.703125 154.191406 274.585938 154.777344 C 274.472656 155.367188 274.414062 155.960938 274.414062 156.5625 C 274.417969 157.160156 274.476562 157.753906 274.59375 158.34375 C 274.714844 158.929688 274.886719 159.503906 275.117188 160.054688 C 275.347656 160.609375 275.632812 161.136719 275.964844 161.632812 C 276.300781 162.132812 276.679688 162.59375 277.105469 163.015625 C 277.527344 163.441406 277.992188 163.816406 278.488281 164.148438 C 278.988281 164.484375 279.515625 164.761719 280.070312 164.992188 C 280.625 165.222656 281.195312 165.394531 281.785156 165.511719 C 282.371094 165.625 282.96875 165.683594 283.566406 165.683594 C 284.167969 165.683594 284.761719 165.625 285.347656 165.507812 C 285.9375 165.386719 286.507812 165.214844 287.0625 164.984375 C 287.617188 164.753906 288.140625 164.472656 288.640625 164.140625 C 289.140625 163.804688 289.601562 163.425781 290.023438 163.003906 C 290.449219 162.578125 290.828125 162.117188 291.160156 161.617188 C 291.492188 161.117188 291.773438 160.59375 292.003906 160.039062 C 292.234375 159.484375 292.40625 158.914062 292.523438 158.324219 C 292.640625 157.734375 292.699219 157.140625 292.699219 156.542969 C 292.699219 155.941406 292.640625 155.34375 292.523438 154.753906 C 292.40625 154.164062 292.230469 153.59375 292 153.035156 C 291.769531 152.480469 291.488281 151.953125 291.152344 151.453125 C 290.816406 150.953125 290.4375 150.492188 290.011719 150.066406 C 289.585938 149.644531 289.121094 149.265625 288.621094 148.929688 C 288.121094 148.597656 287.589844 148.316406 287.035156 148.089844 C 286.480469 147.859375 285.90625 147.6875 285.316406 147.570312 C 284.726562 147.457031 284.128906 147.398438 283.527344 147.402344 Z M 283.527344 159.082031 C 283.195312 159.0625 282.878906 158.984375 282.578125 158.839844 C 282.28125 158.695312 282.019531 158.5 281.792969 158.253906 C 281.570312 158.007812 281.402344 157.730469 281.289062 157.417969 C 281.171875 157.105469 281.121094 156.78125 281.136719 156.449219 C 281.148438 156.117188 281.222656 155.800781 281.359375 155.496094 C 281.496094 155.195312 281.6875 154.929688 281.929688 154.699219 C 282.171875 154.472656 282.445312 154.296875 282.757812 154.175781 C 283.066406 154.058594 283.386719 154 283.71875 154.003906 C 284.050781 154.011719 284.371094 154.082031 284.675781 154.210938 C 284.984375 154.34375 285.253906 154.527344 285.484375 154.765625 C 285.71875 155 285.898438 155.273438 286.023438 155.582031 C 286.152344 155.890625 286.214844 156.210938 286.214844 156.542969 C 286.214844 156.890625 286.148438 157.226562 286.007812 157.550781 C 285.871094 157.871094 285.675781 158.152344 285.417969 158.390625 C 285.164062 158.632812 284.875 158.8125 284.546875 158.933594 C 284.214844 159.054688 283.878906 159.101562 283.527344 159.082031 Z M 283.527344 159.082031 " fill-opacity="1" fill-rule="nonzero"/><path fill="#60c6b4" d="M 312.734375 165.683594 C 313.335938 165.691406 313.933594 165.644531 314.527344 165.535156 C 315.117188 165.425781 315.695312 165.261719 316.253906 165.039062 C 316.8125 164.816406 317.347656 164.542969 317.851562 164.214844 C 318.355469 163.886719 318.824219 163.511719 319.257812 163.09375 C 319.6875 162.671875 320.074219 162.214844 320.414062 161.71875 C 320.757812 161.222656 321.046875 160.695312 321.28125 160.144531 C 321.519531 159.589844 321.699219 159.015625 321.824219 158.429688 C 321.949219 157.839844 322.015625 157.242188 322.019531 156.640625 C 322.027344 156.039062 321.972656 155.441406 321.863281 154.851562 C 321.75 154.257812 321.582031 153.683594 321.359375 153.125 C 321.132812 152.566406 320.855469 152.035156 320.523438 151.53125 C 320.195312 151.027344 319.816406 150.5625 319.394531 150.132812 C 318.972656 149.703125 318.511719 149.320312 318.015625 148.980469 C 317.515625 148.640625 316.988281 148.355469 316.433594 148.121094 C 315.878906 147.886719 315.308594 147.710938 314.71875 147.589844 C 314.128906 147.46875 313.53125 147.40625 312.929688 147.402344 C 312.328125 147.398438 311.730469 147.453125 311.140625 147.570312 C 310.546875 147.683594 309.972656 147.855469 309.414062 148.082031 C 308.859375 148.3125 308.328125 148.59375 307.828125 148.925781 C 307.324219 149.257812 306.859375 149.636719 306.433594 150.0625 C 306.007812 150.484375 305.625 150.949219 305.289062 151.449219 C 304.953125 151.949219 304.671875 152.476562 304.4375 153.03125 C 304.207031 153.589844 304.035156 154.164062 303.914062 154.753906 C 303.796875 155.34375 303.738281 155.941406 303.738281 156.542969 C 303.738281 157.136719 303.800781 157.722656 303.914062 158.304688 C 304.03125 158.886719 304.203125 159.453125 304.425781 160.003906 C 304.652344 160.550781 304.929688 161.074219 305.257812 161.570312 C 305.585938 162.0625 305.957031 162.523438 306.371094 162.945312 C 306.789062 163.371094 307.242188 163.75 307.730469 164.085938 C 308.222656 164.417969 308.738281 164.703125 309.285156 164.9375 C 309.828125 165.171875 310.394531 165.351562 310.972656 165.476562 C 311.554688 165.605469 312.140625 165.671875 312.734375 165.683594 Z M 312.734375 154 C 313.070312 153.996094 313.398438 154.058594 313.710938 154.183594 C 314.023438 154.308594 314.300781 154.492188 314.542969 154.726562 C 314.785156 154.964844 314.96875 155.238281 315.101562 155.550781 C 315.234375 155.859375 315.300781 156.183594 315.304688 156.523438 C 315.304688 156.859375 315.242188 157.183594 315.117188 157.5 C 314.988281 157.8125 314.808594 158.089844 314.570312 158.328125 C 314.332031 158.570312 314.058594 158.753906 313.746094 158.882812 C 313.433594 159.015625 313.109375 159.082031 312.773438 159.082031 C 312.433594 159.085938 312.109375 159.019531 311.796875 158.890625 C 311.484375 158.765625 311.210938 158.582031 310.96875 158.34375 C 310.730469 158.105469 310.546875 157.828125 310.417969 157.515625 C 310.285156 157.203125 310.222656 156.878906 310.222656 156.542969 C 310.222656 156.207031 310.285156 155.886719 310.414062 155.578125 C 310.539062 155.265625 310.71875 154.992188 310.957031 154.753906 C 311.191406 154.519531 311.460938 154.332031 311.769531 154.203125 C 312.078125 154.070312 312.398438 154.003906 312.734375 154 Z M 312.734375 154 " fill-opacity="1" fill-rule="nonzero"/><path fill="#60c6b4" d="M 254.324219 147.402344 C 253.722656 147.402344 253.128906 147.464844 252.539062 147.582031 C 251.953125 147.699219 251.382812 147.875 250.828125 148.105469 C 250.273438 148.339844 249.75 148.621094 249.25 148.957031 C 248.753906 149.289062 248.292969 149.671875 247.871094 150.09375 C 247.449219 150.519531 247.070312 150.984375 246.738281 151.484375 C 246.40625 151.980469 246.125 152.507812 245.898438 153.0625 C 245.667969 153.617188 245.496094 154.191406 245.382812 154.777344 C 245.265625 155.367188 245.210938 155.960938 245.210938 156.5625 C 245.210938 157.160156 245.269531 157.753906 245.390625 158.34375 C 245.507812 158.929688 245.683594 159.503906 245.914062 160.054688 C 246.144531 160.609375 246.425781 161.136719 246.757812 161.632812 C 247.09375 162.132812 247.472656 162.59375 247.898438 163.015625 C 248.324219 163.441406 248.785156 163.816406 249.285156 164.148438 C 249.785156 164.484375 250.308594 164.761719 250.863281 164.992188 C 251.417969 165.222656 251.992188 165.394531 252.578125 165.511719 C 253.167969 165.625 253.761719 165.683594 254.363281 165.683594 C 254.960938 165.683594 255.554688 165.625 256.144531 165.507812 C 256.730469 165.386719 257.300781 165.214844 257.855469 164.984375 C 258.410156 164.753906 258.9375 164.472656 259.433594 164.140625 C 259.933594 163.804688 260.394531 163.425781 260.820312 163.003906 C 261.242188 162.578125 261.621094 162.117188 261.953125 161.617188 C 262.289062 161.117188 262.570312 160.59375 262.796875 160.039062 C 263.027344 159.484375 263.199219 158.914062 263.316406 158.324219 C 263.433594 157.734375 263.492188 157.140625 263.492188 156.542969 C 263.492188 155.941406 263.433594 155.34375 263.316406 154.753906 C 263.199219 154.164062 263.023438 153.59375 262.792969 153.035156 C 262.5625 152.480469 262.28125 151.953125 261.945312 151.453125 C 261.613281 150.953125 261.230469 150.492188 260.804688 150.066406 C 260.378906 149.644531 259.914062 149.265625 259.414062 148.929688 C 258.914062 148.597656 258.386719 148.316406 257.828125 148.089844 C 257.273438 147.859375 256.699219 147.6875 256.109375 147.570312 C 255.519531 147.457031 254.925781 147.398438 254.324219 147.402344 Z M 254.324219 159.082031 C 253.992188 159.0625 253.675781 158.984375 253.375 158.839844 C 253.074219 158.695312 252.8125 158.5 252.589844 158.253906 C 252.363281 158.007812 252.195312 157.730469 252.082031 157.417969 C 251.96875 157.105469 251.917969 156.78125 251.929688 156.449219 C 251.941406 156.117188 252.015625 155.800781 252.152344 155.496094 C 252.292969 155.195312 252.480469 154.929688 252.722656 154.699219 C 252.964844 154.472656 253.238281 154.296875 253.550781 154.175781 C 253.859375 154.058594 254.183594 154 254.515625 154.003906 C 254.847656 154.011719 255.164062 154.082031 255.472656 154.210938 C 255.777344 154.34375 256.046875 154.527344 256.28125 154.765625 C 256.511719 155 256.691406 155.273438 256.820312 155.582031 C 256.945312 155.890625 257.007812 156.210938 257.007812 156.542969 C 257.011719 156.890625 256.941406 157.226562 256.804688 157.550781 C 256.664062 157.871094 256.46875 158.152344 256.214844 158.390625 C 255.960938 158.632812 255.667969 158.8125 255.339844 158.933594 C 255.011719 159.054688 254.671875 159.101562 254.324219 159.082031 Z M 254.324219 159.082031 " fill-opacity="1" fill-rule="nonzero"/><path fill="#60c6b4" d="M 155.753906 111.945312 L 148.746094 152.132812 C 148.65625 152.695312 148.652344 153.257812 148.730469 153.824219 C 148.804688 154.390625 148.960938 154.929688 149.199219 155.449219 C 149.433594 155.96875 149.742188 156.445312 150.117188 156.871094 C 150.492188 157.300781 150.917969 157.667969 151.402344 157.972656 C 152.34375 158.582031 153.375 158.886719 154.496094 158.878906 C 155.757812 158.875 156.894531 158.507812 157.914062 157.769531 L 194.742188 131.484375 C 196.203125 131.6875 197.984375 131.890625 199.882812 132.097656 C 197.734375 135.882812 196.097656 139.878906 194.972656 144.082031 C 193.851562 148.289062 193.277344 152.570312 193.253906 156.921875 C 193.253906 193.398438 233.761719 223.042969 283.527344 223.042969 C 289.328125 223.042969 295.101562 222.636719 300.847656 221.816406 L 349.472656 247.371094 C 350.320312 247.828125 351.226562 248.054688 352.191406 248.042969 C 352.621094 248.050781 353.042969 248.007812 353.464844 247.921875 C 353.882812 247.835938 354.289062 247.703125 354.679688 247.527344 C 355.074219 247.347656 355.441406 247.132812 355.78125 246.875 C 356.125 246.617188 356.4375 246.324219 356.714844 245.996094 C 356.996094 245.671875 357.234375 245.320312 357.4375 244.941406 C 357.636719 244.5625 357.792969 244.164062 357.90625 243.75 C 358.023438 243.335938 358.089844 242.914062 358.109375 242.488281 C 358.128906 242.058594 358.105469 241.632812 358.03125 241.210938 L 351.023438 201.023438 C 365.800781 188.902344 373.917969 173.363281 373.917969 156.921875 C 373.917969 126.34375 345.386719 100.527344 306.746094 93.050781 C 308.929688 89.207031 310.589844 85.148438 311.734375 80.878906 C 312.878906 76.609375 313.464844 72.265625 313.492188 67.84375 C 313.457031 64.929688 313.179688 62.035156 312.667969 59.164062 C 312.15625 56.292969 311.414062 53.484375 310.441406 50.734375 C 309.464844 47.984375 308.277344 45.332031 306.867188 42.777344 C 305.457031 40.226562 303.851562 37.804688 302.042969 35.515625 C 286.214844 14.71875 255.871094 1.753906 223.128906 1.753906 C 173.480469 1.753906 132.855469 31.425781 132.855469 67.875 C 132.855469 84.316406 140.945312 99.855469 155.753906 111.945312 Z M 362.148438 156.949219 C 362.148438 170.648438 354.671875 183.761719 341.0625 193.925781 C 340.632812 194.25 340.253906 194.625 339.929688 195.050781 C 339.601562 195.476562 339.339844 195.941406 339.140625 196.441406 C 338.941406 196.941406 338.816406 197.457031 338.761719 197.992188 C 338.703125 198.527344 338.722656 199.0625 338.8125 199.589844 L 344.390625 231.542969 L 304.613281 210.628906 C 303.765625 210.171875 302.863281 209.949219 301.898438 209.960938 C 301.585938 209.929688 301.273438 209.929688 300.964844 209.960938 C 295.15625 210.875 289.316406 211.332031 283.441406 211.332031 C 240.097656 211.332031 204.847656 186.914062 204.847656 156.890625 C 204.882812 154.574219 205.109375 152.277344 205.523438 149.996094 C 205.941406 147.71875 206.542969 145.488281 207.332031 143.308594 C 208.117188 141.128906 209.082031 139.03125 210.21875 137.011719 C 211.355469 134.992188 212.652344 133.082031 214.105469 131.277344 C 214.371094 131.023438 214.605469 130.742188 214.808594 130.433594 C 228.242188 113.785156 253.972656 102.484375 283.441406 102.484375 C 287.699219 102.488281 291.941406 102.730469 296.175781 103.210938 C 333.617188 107.503906 362.148438 129.964844 362.148438 156.949219 Z M 223.128906 13.433594 C 252.335938 13.433594 278.972656 24.621094 292.699219 42.640625 C 294.128906 44.417969 295.40625 46.300781 296.523438 48.289062 C 297.636719 50.277344 298.582031 52.347656 299.351562 54.492188 C 300.121094 56.640625 300.710938 58.835938 301.113281 61.082031 C 301.515625 63.328125 301.726562 65.59375 301.753906 67.875 C 301.683594 72.074219 300.988281 76.167969 299.660156 80.152344 C 298.335938 84.136719 296.445312 87.832031 293.984375 91.238281 C 290.566406 90.945312 287.089844 90.769531 283.527344 90.769531 C 251.753906 90.769531 223.742188 102.890625 207.59375 121.117188 C 202.160156 120.589844 196.789062 119.949219 194.101562 119.539062 C 193.339844 119.417969 192.585938 119.445312 191.839844 119.621094 C 191.089844 119.800781 190.402344 120.113281 189.777344 120.5625 L 162.644531 139.984375 L 167.816406 110.425781 C 167.925781 109.882812 167.957031 109.335938 167.910156 108.78125 C 167.863281 108.230469 167.738281 107.695312 167.539062 107.179688 C 167.339844 106.660156 167.074219 106.183594 166.738281 105.742188 C 166.402344 105.300781 166.011719 104.914062 165.566406 104.585938 C 151.957031 94.449219 144.480469 81.222656 144.480469 67.640625 C 144.539062 37.851562 179.789062 13.433594 223.128906 13.433594 Z M 223.128906 13.433594 " fill-opacity="1" fill-rule="nonzero"/></svg>