<svg xmlns="http://www.w3.org/2000/svg" xmlns:xlink="http://www.w3.org/1999/xlink" width="500" zoomAndPan="magnify" viewBox="0 0 375 374.999991" height="500" preserveAspectRatio="xMidYMid meet" version="1.0"><defs><clipPath id="e3ef9e53fe"><path d="M 37.5 38 L 337.5 38 L 337.5 337 L 37.5 337 Z M 37.5 38 " clip-rule="nonzero"/></clipPath></defs><g clip-path="url(#e3ef9e53fe)"><path fill="#60c6b4" d="M 145.246094 327.148438 C 149.757812 324.0625 155.15625 322.332031 160.800781 322.332031 L 165.109375 322.332031 L 173.101562 311.683594 C 177.148438 306.285156 183.578125 303.070312 190.3125 303.070312 C 196.070312 303.070312 201.46875 305.308594 205.53125 309.371094 L 210.855469 314.695312 L 219.074219 306.472656 C 221.277344 304.273438 224.191406 303.070312 227.292969 303.070312 L 228.121094 303.070312 C 231.226562 303.070312 234.140625 304.273438 236.34375 306.472656 L 243.152344 299.664062 C 239.144531 295.640625 233.804688 293.4375 228.121094 293.4375 L 227.292969 293.4375 C 221.613281 293.4375 216.273438 295.640625 212.265625 299.664062 L 210.796875 301.113281 C 205.492188 296.484375 198.855469 293.890625 191.78125 293.570312 C 196.144531 287.53125 203.125 283.808594 210.855469 283.808594 L 213.828125 283.808594 L 218.339844 274.777344 C 221.5 268.476562 227.839844 264.546875 234.894531 264.546875 C 239.839844 264.546875 244.488281 266.484375 247.984375 269.964844 L 252.199219 274.175781 L 261.546875 274.175781 C 273.003906 274.175781 283.292969 280.535156 288.410156 290.785156 L 289.5 292.96875 L 291.925781 293.382812 C 307.59375 295.976562 320.199219 307.621094 324.035156 323.027344 L 325.070312 327.148438 Z M 57.609375 266.238281 C 67.953125 269.832031 76.925781 276.753906 83.078125 285.894531 C 81.554688 289.453125 80.179688 293.0625 78.9375 296.710938 C 76.53125 291.3125 73.710938 286.085938 70.398438 281.136719 L 62.386719 286.480469 C 67.691406 294.4375 71.734375 303.144531 74.460938 312.324219 C 73.332031 317.214844 72.410156 322.164062 71.773438 327.148438 L 57.324219 327.148438 C 59.769531 306.925781 59.941406 286.480469 57.609375 266.238281 Z M 100.101562 273.59375 C 109.789062 289.960938 116.144531 308.300781 118.683594 327.148438 L 104.914062 327.148438 L 104.914062 298.253906 L 95.285156 298.253906 L 95.285156 327.148438 L 81.515625 327.148438 C 84.054688 308.300781 90.414062 289.960938 100.101562 273.59375 Z M 172.464844 256.175781 C 162.230469 273.460938 154.839844 292.140625 150.472656 311.855469 L 149.910156 314.394531 C 142.628906 316.613281 136.179688 321.035156 131.4375 327.148438 L 129.914062 327.148438 C 133.488281 308.410156 142.742188 290.976562 156.4375 277.621094 L 149.703125 270.734375 C 138.679688 281.476562 130.289062 294.679688 124.984375 309.050781 C 123.292969 302.355469 121.09375 295.769531 118.515625 289.339844 C 131.796875 271.9375 151.019531 260.105469 172.464844 256.175781 Z M 133.808594 133.382812 C 135.5 132.820312 137.117188 132.066406 138.625 131.070312 C 140.128906 132.066406 141.746094 132.820312 143.4375 133.382812 L 143.4375 256.042969 C 140.109375 257.773438 136.910156 259.695312 133.808594 261.78125 Z M 114.546875 197.128906 C 114.546875 203.695312 110.371094 209.507812 104.125 211.578125 L 102.320312 212.199219 L 99.308594 215.1875 C 95.433594 219.0625 90.261719 221.207031 84.789062 221.207031 C 77.886719 221.207031 71.507812 217.785156 67.691406 212.066406 L 64.550781 207.363281 L 56.949219 205.464844 C 51.175781 204.015625 47.128906 198.84375 47.128906 192.878906 C 47.128906 190.320312 47.882812 187.839844 49.3125 185.695312 L 56.761719 174.503906 L 56.761719 168.238281 C 56.761719 160.261719 63.230469 153.792969 71.207031 153.792969 L 82.832031 153.792969 L 87.890625 148.730469 C 90.847656 145.777344 94.757812 144.160156 98.933594 144.160156 C 107.550781 144.160156 114.546875 151.160156 114.546875 159.773438 L 114.546875 165.417969 L 120.472656 171.359375 C 122.824219 173.691406 124.175781 176.949219 124.175781 180.277344 C 124.175781 183.34375 122.992188 186.296875 121 188.570312 L 95.285156 177.871094 L 95.285156 163.421875 L 85.652344 163.421875 L 85.652344 173.863281 L 73.070312 168.613281 L 69.34375 177.492188 L 80.652344 182.214844 L 69.042969 188.007812 L 73.371094 196.621094 L 92.40625 187.105469 L 114.546875 196.320312 Z M 86.667969 105.921875 L 91.863281 102.476562 L 87.96875 94.671875 C 86.445312 91.644531 85.652344 88.277344 85.652344 84.890625 C 85.652344 74.167969 93.328125 65.101562 103.917969 63.332031 L 112.042969 61.980469 L 119.078125 54.945312 C 123.652344 50.375 129.746094 47.851562 136.214844 47.851562 C 142.6875 47.851562 148.78125 50.375 153.351562 54.945312 L 157.265625 58.855469 L 168.496094 51.390625 C 171.957031 49.074219 176 47.851562 180.175781 47.851562 C 191.78125 47.851562 201.222656 57.296875 201.222656 68.902344 L 201.222656 79.152344 L 206.714844 83.273438 C 215.332031 89.742188 220.484375 100.03125 220.484375 110.828125 C 220.484375 116.132812 219.226562 121.457031 216.855469 126.214844 L 214.277344 131.351562 C 209.652344 127.230469 203.820312 124.898438 197.574219 124.898438 C 183.65625 124.898438 172.332031 136.222656 172.332031 150.144531 L 172.332031 151.796875 L 169.207031 154.902344 C 165.070312 159.058594 162.699219 164.777344 162.699219 170.644531 C 162.699219 175.328125 164.28125 179.902344 167.007812 183.679688 L 153.070312 189.757812 L 153.070312 134.34375 C 158 133.871094 162.570312 131.839844 166.105469 128.304688 L 159.296875 121.496094 C 157.09375 123.695312 154.179688 124.898438 151.074219 124.898438 L 150.25 124.898438 C 147.144531 124.898438 144.230469 123.695312 142.027344 121.496094 L 138.625 118.089844 L 135.21875 121.496094 C 133.019531 123.695312 130.101562 124.898438 127 124.898438 L 126.171875 124.898438 C 123.066406 124.898438 120.152344 123.695312 117.953125 121.496094 L 111.140625 128.304688 C 114.679688 131.839844 119.25 133.871094 124.175781 134.34375 L 124.175781 159.773438 C 124.175781 145.855469 112.855469 134.53125 98.933594 134.53125 C 92.425781 134.53125 86.332031 137.03125 81.628906 141.472656 L 80.03125 139.101562 C 77.414062 135.152344 76.023438 130.5625 76.023438 125.839844 C 76.023438 117.808594 80.011719 110.378906 86.667969 105.921875 Z M 253.082031 79.398438 L 273.453125 55.300781 L 293.828125 79.398438 C 311.753906 100.558594 321.609375 127.496094 321.609375 155.203125 C 321.609375 184.566406 304.453125 211.199219 278.269531 223.597656 L 278.269531 165.832031 L 293.582031 154.335938 L 305.640625 158.363281 L 308.6875 149.222656 L 298.8125 145.929688 L 302.101562 136.054688 L 292.960938 133.007812 L 288.617188 146.023438 L 278.269531 153.792969 L 278.269531 131.707031 L 296.121094 113.859375 L 289.3125 107.046875 L 273.453125 122.90625 L 257.597656 107.046875 L 250.789062 113.859375 L 268.640625 131.707031 L 268.640625 223.617188 C 259.046875 219.082031 250.582031 212.613281 243.660156 204.5625 C 252.765625 201.476562 259.007812 193.011719 259.007812 183.25 C 259.007812 178.773438 257.691406 174.445312 255.210938 170.722656 L 249.378906 161.972656 L 249.378906 158.609375 C 249.378906 145.96875 239.558594 135.695312 227.183594 134.71875 C 230.792969 114.308594 239.632812 95.273438 253.082031 79.398438 Z M 176.035156 179.5625 C 173.6875 177.230469 172.332031 173.976562 172.332031 170.644531 C 172.332031 167.316406 173.6875 164.0625 176.035156 161.730469 L 181.960938 155.785156 L 181.960938 150.144531 C 181.960938 141.527344 188.960938 134.53125 197.574219 134.53125 C 201.75 134.53125 205.664062 136.148438 208.617188 139.101562 L 213.675781 144.160156 L 225.300781 144.160156 C 233.277344 144.160156 239.746094 150.632812 239.746094 158.609375 L 239.746094 164.871094 L 247.195312 176.0625 C 248.625 178.207031 249.378906 180.691406 249.378906 183.25 C 249.378906 189.210938 245.332031 194.382812 239.558594 195.832031 L 231.960938 197.734375 L 228.820312 202.433594 C 225 208.152344 218.605469 211.578125 211.71875 211.578125 C 206.246094 211.578125 201.074219 209.433594 197.199219 205.558594 L 194.1875 202.566406 L 192.363281 201.945312 C 186.195312 199.878906 182.039062 194.140625 181.980469 187.632812 L 204.609375 177.71875 L 223.136719 186.992188 L 227.464844 178.378906 L 216.101562 172.695312 L 227.238281 167.824219 L 223.363281 159.019531 L 210.855469 164.476562 L 210.855469 153.792969 L 201.222656 153.792969 L 201.222656 168.691406 L 176.132812 179.675781 Z M 261.546875 264.546875 L 256.1875 264.546875 L 254.796875 263.15625 C 249.492188 257.832031 242.417969 254.914062 234.894531 254.914062 C 224.171875 254.914062 214.523438 260.878906 209.726562 270.472656 L 207.808594 274.308594 C 195.394531 275.4375 184.671875 283.339844 179.96875 295.09375 L 179.894531 295.261719 C 174.195312 297.296875 169.097656 300.964844 165.390625 305.890625 L 160.292969 312.699219 C 160.253906 312.699219 160.199219 312.71875 160.160156 312.71875 C 165.089844 291.257812 173.761719 271.09375 185.96875 252.769531 L 191.628906 244.289062 L 178.539062 245.605469 C 169.71875 246.488281 161.160156 248.558594 153.070312 251.699219 L 153.070312 200.289062 L 172.746094 191.675781 C 174.25 200.496094 180.34375 207.945312 188.976562 210.957031 L 190.390625 212.367188 C 196.089844 218.066406 203.667969 221.207031 211.71875 221.207031 C 221.011719 221.207031 229.664062 216.917969 235.363281 209.714844 C 244.28125 220.472656 255.660156 228.769531 268.640625 234.074219 L 268.640625 265.261719 C 266.324219 264.828125 263.976562 264.546875 261.546875 264.546875 Z M 333.382812 320.695312 C 328.792969 302.355469 314.214844 288.304688 295.875 284.316406 C 291.71875 277.148438 285.53125 271.65625 278.269531 268.289062 L 278.269531 234.054688 C 310.078125 221.019531 331.238281 189.792969 331.238281 155.203125 C 331.238281 125.21875 320.574219 96.082031 301.179688 73.171875 L 273.453125 40.402344 L 245.730469 73.171875 C 238.882812 81.277344 233.183594 90.15625 228.59375 99.5625 C 226.054688 90.101562 220.464844 81.542969 212.492188 75.558594 L 210.855469 74.335938 L 210.855469 68.902344 C 210.855469 51.992188 197.085938 38.222656 180.175781 38.222656 C 174.082031 38.222656 168.210938 40.007812 163.152344 43.375 L 158.429688 46.519531 C 152.261719 41.15625 144.472656 38.222656 136.214844 38.222656 C 127.167969 38.222656 118.664062 41.738281 112.269531 48.136719 L 107.417969 52.988281 L 102.339844 53.835938 C 87.082031 56.375 76.023438 69.429688 76.023438 84.890625 C 76.023438 89.761719 77.171875 94.632812 79.351562 98.980469 L 79.484375 99.242188 C 71.246094 105.5625 66.390625 115.34375 66.390625 125.839844 C 66.390625 132.367188 68.292969 138.6875 71.867188 144.160156 L 71.207031 144.160156 C 57.929688 144.160156 47.128906 154.957031 47.128906 168.238281 L 47.128906 171.605469 L 41.300781 180.351562 C 38.816406 184.078125 37.5 188.402344 37.5 192.878906 C 37.5 203.261719 44.535156 212.273438 54.617188 214.792969 L 58.605469 215.789062 L 59.675781 217.410156 C 65.28125 225.816406 74.667969 230.839844 84.789062 230.839844 C 92.839844 230.839844 100.421875 227.699219 106.121094 221.996094 L 107.53125 220.585938 C 116.503906 217.445312 122.765625 209.527344 123.933594 200.234375 L 124.175781 200.328125 L 124.175781 269.191406 C 120.585938 272.316406 117.21875 275.738281 114.09375 279.40625 C 111.140625 273.351562 107.832031 267.460938 104.105469 261.875 L 100.101562 255.875 L 96.09375 261.875 C 93.046875 266.445312 90.28125 271.207031 87.742188 276.078125 C 78.957031 265.316406 66.65625 257.757812 52.886719 255.011719 L 46.339844 253.691406 L 47.769531 265.054688 C 50.347656 285.6875 50.289062 306.53125 47.695312 327.148438 L 37.5 327.148438 L 37.5 336.777344 L 337.410156 336.777344 L 333.382812 320.695312 " fill-opacity="1" fill-rule="nonzero"/></g><path fill="#60c6b4" d="M 274.433594 307.886719 C 270.597656 307.886719 266.929688 309.03125 263.824219 311.160156 C 260.71875 309.03125 257.050781 307.886719 253.214844 307.886719 C 246.046875 307.886719 239.597656 311.871094 236.378906 318.289062 L 235.441406 320.167969 L 244.054688 324.496094 L 244.996094 322.59375 C 246.554688 319.453125 249.714844 317.515625 253.214844 317.515625 C 255.621094 317.515625 257.992188 318.496094 259.703125 320.207031 L 263.824219 324.324219 L 267.945312 320.207031 C 269.65625 318.496094 272.027344 317.515625 274.433594 317.515625 C 277.933594 317.515625 281.09375 319.453125 282.652344 322.59375 L 283.59375 324.496094 L 292.207031 320.167969 L 291.269531 318.289062 C 288.050781 311.871094 281.601562 307.886719 274.433594 307.886719 " fill-opacity="1" fill-rule="nonzero"/><path fill="#60c6b4" d="M 254.195312 295.433594 C 256.769531 292.855469 261.246094 292.855469 263.824219 295.433594 L 265.234375 296.84375 L 272.042969 290.035156 L 270.632812 288.625 C 264.425781 282.417969 253.589844 282.417969 247.382812 288.625 L 245.972656 290.035156 L 252.78125 296.84375 L 254.195312 295.433594 " fill-opacity="1" fill-rule="nonzero"/><path fill="#60c6b4" d="M 111.140625 113.859375 L 117.953125 107.046875 L 117.238281 106.335938 C 115.507812 104.601562 114.546875 102.289062 114.546875 99.84375 C 114.546875 96.347656 116.484375 93.1875 119.605469 91.625 L 124.175781 89.347656 L 124.175781 86.375 C 124.175781 81.070312 128.503906 76.746094 133.808594 76.746094 L 133.808594 67.113281 C 124.234375 67.113281 116.277344 74.132812 114.792969 83.273438 C 108.679688 86.582031 104.914062 92.867188 104.914062 99.84375 C 104.914062 104.867188 106.871094 109.589844 110.425781 113.144531 L 111.140625 113.859375 " fill-opacity="1" fill-rule="nonzero"/><path fill="#60c6b4" d="M 160.707031 105.636719 C 164.902344 105.636719 168.90625 104.433594 172.332031 102.175781 C 175.753906 104.433594 179.761719 105.636719 183.957031 105.636719 L 184.785156 105.636719 C 190.464844 105.636719 195.804688 103.417969 199.8125 99.410156 L 193.003906 92.601562 C 190.804688 94.804688 187.886719 96.007812 184.785156 96.007812 L 183.957031 96.007812 C 180.851562 96.007812 177.9375 94.804688 175.734375 92.601562 L 172.332031 89.199219 L 168.925781 92.601562 C 166.726562 94.804688 163.808594 96.007812 160.707031 96.007812 L 159.878906 96.007812 C 156.777344 96.007812 153.859375 94.804688 151.660156 92.601562 L 144.851562 99.410156 C 148.855469 103.417969 154.199219 105.636719 159.878906 105.636719 L 160.707031 105.636719 " fill-opacity="1" fill-rule="nonzero"/></svg>