<svg xmlns="http://www.w3.org/2000/svg" xmlns:xlink="http://www.w3.org/1999/xlink" width="500" zoomAndPan="magnify" viewBox="0 0 375 374.999991" height="500" preserveAspectRatio="xMidYMid meet" version="1.0"><defs><clipPath id="b7ac46b455"><path d="M 37.5 69.273438 L 337.5 69.273438 L 337.5 317.523438 L 37.5 317.523438 Z M 37.5 69.273438 " clip-rule="nonzero"/></clipPath><clipPath id="328699bb6f"><path d="M 135.152344 202.414062 L 240 202.414062 L 240 337.414062 L 135.152344 337.414062 Z M 135.152344 202.414062 " clip-rule="nonzero"/></clipPath></defs><path fill="#60c6b4" d="M 146.1875 221.628906 L 156.332031 221.628906 L 156.332031 240.890625 L 146.1875 240.890625 Z M 173.847656 240.890625 L 163.699219 240.890625 L 163.699219 221.628906 L 173.847656 221.628906 Z M 160.015625 248.253906 L 177.527344 248.253906 C 179.5625 248.253906 181.210938 246.605469 181.210938 244.574219 L 181.210938 217.949219 C 181.210938 215.914062 179.5625 214.265625 177.527344 214.265625 L 142.503906 214.265625 C 140.46875 214.265625 138.816406 215.914062 138.816406 217.949219 L 138.816406 244.574219 C 138.816406 246.605469 140.46875 248.253906 142.503906 248.253906 L 160.015625 248.253906 " fill-opacity="1" fill-rule="nonzero"/><path fill="#60c6b4" d="M 201.140625 221.628906 L 211.289062 221.628906 L 211.289062 240.890625 L 201.140625 240.890625 Z M 228.8125 240.890625 L 218.65625 240.890625 L 218.65625 221.628906 L 228.8125 221.628906 Z M 197.460938 248.253906 L 232.496094 248.253906 C 234.53125 248.253906 236.183594 246.605469 236.183594 244.574219 L 236.183594 217.949219 C 236.183594 215.914062 234.53125 214.265625 232.496094 214.265625 L 197.460938 214.265625 C 195.425781 214.265625 193.777344 215.914062 193.777344 217.949219 L 193.777344 244.574219 C 193.777344 246.605469 195.425781 248.253906 197.460938 248.253906 " fill-opacity="1" fill-rule="nonzero"/><path fill="#60c6b4" d="M 297.863281 240.890625 L 287.714844 240.890625 L 287.714844 221.628906 L 297.863281 221.628906 Z M 270.191406 221.628906 L 280.347656 221.628906 L 280.347656 240.890625 L 270.191406 240.890625 Z M 301.546875 214.265625 L 266.511719 214.265625 C 264.476562 214.265625 262.824219 215.914062 262.824219 217.949219 L 262.824219 244.574219 C 262.824219 246.605469 264.476562 248.253906 266.511719 248.253906 L 301.546875 248.253906 C 303.578125 248.253906 305.226562 246.605469 305.226562 244.574219 L 305.226562 217.949219 C 305.226562 215.914062 303.578125 214.265625 301.546875 214.265625 " fill-opacity="1" fill-rule="nonzero"/><path fill="#60c6b4" d="M 297.863281 289.707031 L 287.714844 289.707031 L 287.714844 270.449219 L 297.863281 270.449219 Z M 270.191406 270.449219 L 280.347656 270.449219 L 280.347656 289.707031 L 270.191406 289.707031 Z M 301.546875 263.085938 L 266.511719 263.085938 C 264.476562 263.085938 262.824219 264.734375 262.824219 266.765625 L 262.824219 293.386719 C 262.824219 295.421875 264.476562 297.074219 266.511719 297.074219 L 301.546875 297.074219 C 303.578125 297.074219 305.226562 295.421875 305.226562 293.386719 L 305.226562 266.765625 C 305.226562 264.734375 303.578125 263.085938 301.546875 263.085938 " fill-opacity="1" fill-rule="nonzero"/><path fill="#60c6b4" d="M 104.796875 240.890625 L 94.652344 240.890625 L 94.652344 221.628906 L 104.796875 221.628906 Z M 77.125 221.628906 L 87.285156 221.628906 L 87.285156 240.890625 L 77.125 240.890625 Z M 108.480469 214.265625 L 73.445312 214.265625 C 71.410156 214.265625 69.761719 215.914062 69.761719 217.949219 L 69.761719 244.574219 C 69.761719 246.605469 71.410156 248.253906 73.445312 248.253906 L 108.480469 248.253906 C 110.515625 248.253906 112.164062 246.605469 112.164062 244.574219 L 112.164062 217.949219 C 112.164062 215.914062 110.515625 214.265625 108.480469 214.265625 " fill-opacity="1" fill-rule="nonzero"/><path fill="#60c6b4" d="M 146.1875 175.191406 L 156.332031 175.191406 L 156.332031 194.453125 L 146.1875 194.453125 Z M 173.847656 194.453125 L 163.699219 194.453125 L 163.699219 175.191406 L 173.847656 175.191406 Z M 142.503906 201.820312 L 177.527344 201.820312 C 179.5625 201.820312 181.210938 200.167969 181.210938 198.136719 L 181.210938 171.511719 C 181.210938 169.476562 179.5625 167.828125 177.527344 167.828125 L 142.503906 167.828125 C 140.46875 167.828125 138.816406 169.476562 138.816406 171.511719 L 138.816406 198.136719 C 138.816406 200.167969 140.46875 201.820312 142.503906 201.820312 " fill-opacity="1" fill-rule="nonzero"/><path fill="#60c6b4" d="M 201.140625 175.191406 L 211.289062 175.191406 L 211.289062 194.453125 L 201.140625 194.453125 Z M 228.8125 194.453125 L 218.65625 194.453125 L 218.65625 175.191406 L 228.8125 175.191406 Z M 197.460938 201.820312 L 232.496094 201.820312 C 234.53125 201.820312 236.183594 200.167969 236.183594 198.136719 L 236.183594 171.511719 C 236.183594 169.476562 234.53125 167.828125 232.496094 167.828125 L 197.460938 167.828125 C 195.425781 167.828125 193.777344 169.476562 193.777344 171.511719 L 193.777344 198.136719 C 193.777344 200.167969 195.425781 201.820312 197.460938 201.820312 " fill-opacity="1" fill-rule="nonzero"/><path fill="#60c6b4" d="M 297.863281 194.453125 L 287.714844 194.453125 L 287.714844 175.191406 L 297.863281 175.191406 Z M 270.191406 175.191406 L 280.347656 175.191406 L 280.347656 194.453125 L 270.191406 194.453125 Z M 301.546875 167.828125 L 266.511719 167.828125 C 264.476562 167.828125 262.824219 169.476562 262.824219 171.511719 L 262.824219 198.136719 C 262.824219 200.167969 264.476562 201.820312 266.511719 201.820312 L 301.546875 201.820312 C 303.578125 201.820312 305.226562 200.167969 305.226562 198.136719 L 305.226562 171.511719 C 305.226562 169.476562 303.578125 167.828125 301.546875 167.828125 " fill-opacity="1" fill-rule="nonzero"/><path fill="#60c6b4" d="M 104.796875 194.453125 L 94.652344 194.453125 L 94.652344 175.191406 L 104.796875 175.191406 Z M 77.125 175.191406 L 87.285156 175.191406 L 87.285156 194.453125 L 77.125 194.453125 Z M 108.480469 167.828125 L 73.445312 167.828125 C 71.410156 167.828125 69.761719 169.476562 69.761719 171.511719 L 69.761719 198.136719 C 69.761719 200.167969 71.410156 201.820312 73.445312 201.820312 L 108.480469 201.820312 C 110.515625 201.820312 112.164062 200.167969 112.164062 198.136719 L 112.164062 171.511719 C 112.164062 169.476562 110.515625 167.828125 108.480469 167.828125 " fill-opacity="1" fill-rule="nonzero"/><path fill="#60c6b4" d="M 146.1875 128.757812 L 156.332031 128.757812 L 156.332031 148.015625 L 146.1875 148.015625 Z M 173.847656 148.015625 L 163.699219 148.015625 L 163.699219 128.757812 L 173.847656 128.757812 Z M 142.503906 155.382812 L 177.527344 155.382812 C 179.5625 155.382812 181.210938 153.734375 181.210938 151.699219 L 181.210938 125.074219 C 181.210938 123.039062 179.5625 121.390625 177.527344 121.390625 L 142.503906 121.390625 C 140.46875 121.390625 138.816406 123.039062 138.816406 125.074219 L 138.816406 151.699219 C 138.816406 153.734375 140.46875 155.382812 142.503906 155.382812 " fill-opacity="1" fill-rule="nonzero"/><path fill="#60c6b4" d="M 201.140625 128.757812 L 211.289062 128.757812 L 211.289062 148.015625 L 201.140625 148.015625 Z M 228.8125 148.015625 L 218.65625 148.015625 L 218.65625 128.757812 L 228.8125 128.757812 Z M 197.460938 155.382812 L 232.496094 155.382812 C 234.53125 155.382812 236.183594 153.734375 236.183594 151.699219 L 236.183594 125.074219 C 236.183594 123.039062 234.53125 121.390625 232.496094 121.390625 L 197.460938 121.390625 C 195.425781 121.390625 193.777344 123.039062 193.777344 125.074219 L 193.777344 151.699219 C 193.777344 153.734375 195.425781 155.382812 197.460938 155.382812 " fill-opacity="1" fill-rule="nonzero"/><path fill="#60c6b4" d="M 297.863281 148.015625 L 287.714844 148.015625 L 287.714844 128.757812 L 297.863281 128.757812 Z M 270.191406 128.757812 L 280.347656 128.757812 L 280.347656 148.015625 L 270.191406 148.015625 Z M 301.546875 121.390625 L 266.511719 121.390625 C 264.476562 121.390625 262.824219 123.039062 262.824219 125.074219 L 262.824219 151.699219 C 262.824219 153.734375 264.476562 155.382812 266.511719 155.382812 L 301.546875 155.382812 C 303.578125 155.382812 305.226562 153.734375 305.226562 151.699219 L 305.226562 125.074219 C 305.226562 123.039062 303.578125 121.390625 301.546875 121.390625 " fill-opacity="1" fill-rule="nonzero"/><path fill="#60c6b4" d="M 104.796875 148.015625 L 94.652344 148.015625 L 94.652344 128.757812 L 104.796875 128.757812 Z M 77.125 128.757812 L 87.285156 128.757812 L 87.285156 148.015625 L 77.125 148.015625 Z M 108.480469 121.390625 L 73.445312 121.390625 C 71.410156 121.390625 69.761719 123.039062 69.761719 125.074219 L 69.761719 151.699219 C 69.761719 153.734375 71.410156 155.382812 73.445312 155.382812 L 108.480469 155.382812 C 110.515625 155.382812 112.164062 153.734375 112.164062 151.699219 L 112.164062 125.074219 C 112.164062 123.039062 110.515625 121.390625 108.480469 121.390625 " fill-opacity="1" fill-rule="nonzero"/><path fill="#60c6b4" d="M 104.796875 289.707031 L 94.652344 289.707031 L 94.652344 270.449219 L 104.796875 270.449219 Z M 77.125 270.449219 L 87.285156 270.449219 L 87.285156 289.707031 L 77.125 289.707031 Z M 108.480469 263.085938 L 73.445312 263.085938 C 71.410156 263.085938 69.761719 264.734375 69.761719 266.765625 L 69.761719 293.386719 C 69.761719 295.421875 71.410156 297.074219 73.445312 297.074219 L 108.480469 297.074219 C 110.515625 297.074219 112.164062 295.421875 112.164062 293.386719 L 112.164062 266.765625 C 112.164062 264.734375 110.515625 263.085938 108.480469 263.085938 " fill-opacity="1" fill-rule="nonzero"/><g clip-path="url(#b7ac46b455)"><path fill="#60c6b4" d="M 257.253906 310.113281 L 257.253906 105.609375 L 310.800781 105.609375 L 310.800781 310.113281 Z M 163.699219 310.113281 L 163.699219 291.382812 C 163.699219 279.839844 173.089844 270.449219 184.628906 270.449219 L 190.363281 270.449219 C 201.902344 270.449219 211.289062 279.839844 211.289062 291.382812 L 211.289062 310.113281 Z M 125.101562 101.921875 L 125.101562 76.617188 L 249.886719 76.617188 L 249.886719 310.113281 L 218.65625 310.113281 L 218.65625 291.382812 C 218.65625 275.777344 205.96875 263.085938 190.363281 263.085938 L 184.628906 263.085938 C 169.019531 263.085938 156.332031 275.777344 156.332031 291.382812 L 156.332031 310.113281 L 125.101562 310.113281 Z M 64.1875 105.609375 L 117.734375 105.609375 L 117.734375 310.113281 L 64.1875 310.113281 Z M 333.78125 310.113281 L 318.167969 310.113281 L 318.167969 101.921875 C 318.167969 99.890625 316.519531 98.242188 314.484375 98.242188 L 257.253906 98.242188 L 257.253906 72.933594 C 257.253906 70.898438 255.605469 69.25 253.570312 69.25 L 121.421875 69.25 C 119.386719 69.25 117.734375 70.898438 117.734375 72.933594 L 117.734375 98.242188 L 60.503906 98.242188 C 58.472656 98.242188 56.820312 99.890625 56.820312 101.921875 L 56.820312 310.113281 L 41.21875 310.113281 C 39.183594 310.113281 37.535156 311.761719 37.535156 313.792969 C 37.535156 315.828125 39.183594 317.476562 41.21875 317.476562 L 333.78125 317.476562 C 335.816406 317.476562 337.464844 315.828125 337.464844 313.792969 C 337.464844 311.761719 335.816406 310.113281 333.78125 310.113281 " fill-opacity="1" fill-rule="nonzero"/></g><g clip-path="url(#328699bb6f)"><path fill="#60c6b4" d="M 228.617188 254.617188 L 228.617188 243.53125 C 228.617188 220.863281 210.167969 202.414062 187.5 202.414062 C 164.832031 202.414062 146.371094 220.859375 146.371094 243.53125 L 146.371094 254.617188 C 140.164062 254.785156 135.175781 259.839844 135.175781 266.089844 L 135.175781 325.988281 C 135.175781 326.746094 135.25 327.492188 135.398438 328.234375 C 135.546875 328.972656 135.761719 329.695312 136.050781 330.390625 C 136.339844 331.089844 136.695312 331.753906 137.117188 332.382812 C 137.535156 333.007812 138.011719 333.589844 138.546875 334.125 C 139.082031 334.660156 139.660156 335.136719 140.289062 335.554688 C 140.917969 335.976562 141.582031 336.332031 142.277344 336.621094 C 142.976562 336.910156 143.695312 337.128906 144.4375 337.273438 C 145.179688 337.421875 145.925781 337.496094 146.683594 337.496094 L 228.308594 337.496094 C 229.066406 337.496094 229.8125 337.421875 230.554688 337.273438 C 231.296875 337.128906 232.015625 336.910156 232.714844 336.621094 C 233.410156 336.332031 234.074219 335.976562 234.703125 335.558594 C 235.332031 335.136719 235.914062 334.660156 236.445312 334.125 C 236.980469 333.589844 237.457031 333.011719 237.878906 332.382812 C 238.296875 331.753906 238.652344 331.089844 238.941406 330.394531 C 239.230469 329.695312 239.449219 328.976562 239.597656 328.234375 C 239.742188 327.492188 239.816406 326.746094 239.816406 325.988281 L 239.816406 266.089844 C 239.816406 259.839844 234.828125 254.78125 228.617188 254.617188 Z M 196.910156 287.761719 C 196.859375 288.117188 196.65625 288.933594 196.640625 288.996094 C 195.9375 291.429688 194.257812 293.425781 192.078125 294.644531 L 195.773438 310.390625 C 195.824219 310.550781 195.859375 310.71875 195.875 310.890625 C 195.886719 311.058594 195.882812 311.230469 195.859375 311.398438 C 195.832031 311.566406 195.789062 311.730469 195.722656 311.890625 C 195.660156 312.050781 195.578125 312.199219 195.480469 312.339844 C 195.382812 312.476562 195.269531 312.605469 195.140625 312.71875 C 195.011719 312.832031 194.871094 312.929688 194.722656 313.007812 C 194.570312 313.089844 194.410156 313.152344 194.246094 313.195312 C 194.082031 313.238281 193.914062 313.261719 193.742188 313.265625 L 181.503906 313.265625 C 181.332031 313.261719 181.164062 313.238281 180.996094 313.195312 C 180.832031 313.152344 180.675781 313.089844 180.523438 313.007812 C 180.371094 312.929688 180.234375 312.832031 180.105469 312.71875 C 179.976562 312.605469 179.863281 312.476562 179.765625 312.339844 C 179.664062 312.199219 179.585938 312.050781 179.519531 311.890625 C 179.457031 311.730469 179.414062 311.566406 179.386719 311.398438 C 179.363281 311.230469 179.355469 311.058594 179.371094 310.890625 C 179.386719 310.71875 179.421875 310.550781 179.472656 310.390625 L 182.917969 294.644531 C 180.734375 293.425781 179.054688 291.429688 178.355469 288.996094 C 178.335938 288.933594 178.136719 288.117188 178.085938 287.761719 C 178.019531 287.320312 177.988281 286.878906 177.988281 286.4375 C 177.988281 285.8125 178.046875 285.191406 178.167969 284.582031 C 178.289062 283.96875 178.472656 283.371094 178.710938 282.796875 C 178.949219 282.21875 179.242188 281.671875 179.589844 281.152344 C 179.933594 280.632812 180.328125 280.152344 180.769531 279.710938 C 181.210938 279.265625 181.691406 278.871094 182.210938 278.527344 C 182.730469 278.179688 183.28125 277.886719 183.855469 277.648438 C 184.433594 277.40625 185.027344 277.226562 185.640625 277.105469 C 186.253906 276.984375 186.871094 276.921875 187.496094 276.921875 C 188.121094 276.921875 188.738281 276.984375 189.351562 277.105469 C 189.964844 277.226562 190.558594 277.40625 191.136719 277.648438 C 191.714844 277.886719 192.261719 278.179688 192.78125 278.527344 C 193.300781 278.875 193.78125 279.265625 194.222656 279.710938 C 194.664062 280.152344 195.058594 280.632812 195.40625 281.152344 C 195.75 281.671875 196.042969 282.21875 196.285156 282.796875 C 196.523438 283.371094 196.703125 283.96875 196.824219 284.582031 C 196.945312 285.191406 197.007812 285.8125 197.007812 286.4375 C 197.007812 286.878906 196.972656 287.320312 196.910156 287.761719 Z M 214.578125 254.582031 L 160.414062 254.582031 L 160.414062 243.53125 C 160.414062 228.597656 172.558594 216.449219 187.5 216.449219 C 202.441406 216.449219 214.578125 228.597656 214.578125 243.53125 Z M 214.578125 254.582031 " fill-opacity="1" fill-rule="nonzero"/></g></svg>