<svg xmlns="http://www.w3.org/2000/svg" xmlns:xlink="http://www.w3.org/1999/xlink" width="500" zoomAndPan="magnify" viewBox="0 0 375 374.999991" height="500" preserveAspectRatio="xMidYMid meet" version="1.0"><defs><clipPath id="602d8042ff"><path d="M 150 49.125 L 297 49.125 L 297 260 L 150 260 Z M 150 49.125 " clip-rule="nonzero"/></clipPath><clipPath id="72c662c687"><path d="M 227 200 L 337.5 200 L 337.5 337.875 L 227 337.875 Z M 227 200 " clip-rule="nonzero"/></clipPath></defs><path fill="#60c6b4" d="M 130.441406 104.21875 C 128.386719 105.074219 126.371094 105.964844 124.410156 106.90625 C 52.359375 141.375 46.136719 232.523438 41.476562 267.847656 C 37.5 297.945312 80.804688 289.644531 116.132812 271.261719 C 137.210938 260.289062 150.328125 238.390625 150.328125 214.628906 L 150.328125 116.316406 C 150.125 106.671875 139.675781 100.386719 130.441406 104.21875 Z M 128.15625 120.71875 C 122.332031 123.503906 116.84375 126.839844 111.726562 130.707031 C 106.613281 134.574219 101.878906 138.964844 97.546875 143.847656 C 90.007812 152.351562 83.5 162.625 78.199219 174.363281 C 77.667969 175.527344 76.503906 176.28125 75.21875 176.28125 C 74.761719 176.28125 74.308594 176.183594 73.886719 175.996094 C 73.085938 175.632812 72.476562 174.984375 72.167969 174.167969 C 71.859375 173.347656 71.890625 172.460938 72.246094 171.664062 C 77.808594 159.34375 84.671875 148.515625 92.65625 139.5 C 101.890625 129.074219 112.886719 120.765625 125.335938 114.8125 C 126.117188 114.433594 127.011719 114.390625 127.832031 114.679688 C 128.65625 114.972656 129.316406 115.5625 129.695312 116.351562 C 130.472656 117.988281 129.785156 119.941406 128.15625 120.71875 Z M 128.15625 120.71875 " fill-opacity="1" fill-rule="nonzero"/><g clip-path="url(#602d8042ff)"><path fill="#60c6b4" d="M 296.300781 195.851562 C 285.75 161.515625 266.039062 125.75 226.660156 106.90625 C 224.695312 105.964844 222.6875 105.066406 220.628906 104.21875 C 211.394531 100.382812 200.945312 106.664062 200.746094 116.316406 C 200.738281 116.414062 200.738281 116.507812 200.738281 116.613281 L 200.738281 165.085938 C 200.667969 165.019531 200.59375 164.945312 200.527344 164.878906 C 193.078125 157.699219 188.929688 147.757812 188.929688 137.40625 L 188.929688 49.277344 L 162.210938 49.277344 L 162.210938 137.414062 C 162.210938 147.761719 158.0625 157.703125 150.613281 164.886719 C 150.523438 164.976562 150.429688 165.0625 150.339844 165.144531 L 150.339844 183.320312 L 165.140625 168.523438 C 171.078125 162.589844 180.695312 162.589844 186.632812 168.523438 L 200.746094 182.636719 L 200.746094 214.632812 C 200.746094 231.679688 207.492188 247.769531 219.105469 259.550781 L 219.105469 217.96875 L 282.589844 189.765625 Z M 278.90625 174.167969 C 278.597656 174.984375 277.988281 175.632812 277.191406 175.996094 L 277.1875 176.003906 C 276.765625 176.1875 276.3125 176.285156 275.851562 176.285156 C 274.570312 176.285156 273.398438 175.527344 272.867188 174.363281 C 267.574219 162.625 261.058594 152.359375 253.519531 143.847656 C 244.859375 134.066406 234.5625 126.285156 222.917969 120.71875 C 222.132812 120.339844 221.535156 119.679688 221.238281 118.855469 C 220.949219 118.027344 221 117.140625 221.378906 116.351562 C 221.753906 115.566406 222.414062 114.976562 223.234375 114.679688 C 224.054688 114.390625 224.949219 114.441406 225.734375 114.8125 C 238.167969 120.765625 249.164062 129.074219 258.410156 139.507812 C 266.390625 148.515625 273.261719 159.34375 278.828125 171.671875 C 279.183594 172.46875 279.214844 173.347656 278.90625 174.167969 Z M 278.90625 174.167969 " fill-opacity="1" fill-rule="nonzero"/></g><g clip-path="url(#72c662c687)"><path fill="#60c6b4" d="M 299.054688 207.726562 L 298.179688 207.335938 L 294.453125 205.683594 L 282.578125 200.410156 L 227.632812 224.820312 L 227.632812 265.730469 C 227.632812 265.875 227.632812 266.019531 227.640625 266.164062 C 227.703125 274.210938 229.714844 282.238281 233.457031 289.410156 C 238.398438 298.867188 244.914062 307.625 252.8125 315.441406 C 260.363281 322.914062 269.40625 329.742188 279.6875 335.726562 L 282.578125 337.414062 L 285.46875 335.726562 C 295.75 329.734375 304.792969 322.910156 312.335938 315.441406 C 320.238281 307.625 326.753906 298.867188 331.691406 289.410156 C 335.496094 282.113281 337.519531 273.921875 337.519531 265.738281 L 337.519531 224.828125 Z M 282.578125 298.878906 C 269.839844 298.878906 258.953125 290.9375 254.617188 279.730469 C 253.320312 276.371094 252.609375 272.722656 252.609375 268.910156 C 252.609375 252.359375 266.023438 238.941406 282.578125 238.941406 C 292.730469 238.941406 301.699219 243.988281 307.121094 251.707031 C 310.539062 256.574219 312.546875 262.503906 312.546875 268.910156 C 312.546875 285.464844 299.128906 298.878906 282.578125 298.878906 Z M 282.578125 298.878906 " fill-opacity="1" fill-rule="nonzero"/></g><path fill="#60c6b4" d="M 287.945312 247.179688 L 277.203125 247.179688 L 277.203125 263.542969 L 260.839844 263.542969 L 260.839844 274.277344 L 277.203125 274.277344 L 277.203125 290.648438 L 287.945312 290.648438 L 287.945312 274.277344 L 304.308594 274.277344 L 304.308594 263.542969 L 287.945312 263.542969 Z M 287.945312 247.179688 " fill-opacity="1" fill-rule="nonzero"/></svg>