<svg xmlns="http://www.w3.org/2000/svg" xmlns:xlink="http://www.w3.org/1999/xlink" width="500" zoomAndPan="magnify" viewBox="0 0 375 374.999991" height="500" preserveAspectRatio="xMidYMid meet" version="1.0"><path fill="#60c6b4" d="M 150 125 C 150 124.589844 149.960938 124.183594 149.878906 123.78125 C 149.800781 123.378906 149.683594 122.988281 149.523438 122.609375 C 149.367188 122.230469 149.175781 121.867188 148.945312 121.527344 C 148.71875 121.1875 148.460938 120.871094 148.167969 120.582031 C 147.878906 120.289062 147.5625 120.03125 147.222656 119.804688 C 146.882812 119.574219 146.519531 119.382812 146.140625 119.226562 C 145.761719 119.066406 145.371094 118.949219 144.96875 118.871094 C 144.566406 118.789062 144.160156 118.75 143.75 118.75 L 106.25 118.75 C 105.839844 118.75 105.433594 118.789062 105.03125 118.871094 C 104.628906 118.949219 104.238281 119.066406 103.859375 119.226562 C 103.480469 119.382812 103.117188 119.574219 102.777344 119.804688 C 102.4375 120.03125 102.121094 120.289062 101.832031 120.582031 C 101.539062 120.871094 101.28125 121.1875 101.054688 121.527344 C 100.824219 121.867188 100.632812 122.230469 100.476562 122.609375 C 100.316406 122.988281 100.199219 123.378906 100.121094 123.78125 C 100.039062 124.183594 100 124.589844 100 125 L 100 162.5 C 100 162.910156 100.039062 163.316406 100.121094 163.71875 C 100.199219 164.121094 100.316406 164.511719 100.476562 164.890625 C 100.632812 165.269531 100.824219 165.632812 101.054688 165.972656 C 101.28125 166.3125 101.539062 166.628906 101.832031 166.917969 C 102.121094 167.210938 102.4375 167.46875 102.777344 167.695312 C 103.117188 167.925781 103.480469 168.117188 103.859375 168.273438 C 104.238281 168.433594 104.628906 168.550781 105.03125 168.628906 C 105.433594 168.710938 105.839844 168.75 106.25 168.75 L 143.75 168.75 C 144.160156 168.75 144.566406 168.710938 144.96875 168.628906 C 145.371094 168.550781 145.761719 168.433594 146.140625 168.273438 C 146.519531 168.117188 146.882812 167.925781 147.222656 167.695312 C 147.5625 167.46875 147.878906 167.210938 148.167969 166.917969 C 148.460938 166.628906 148.71875 166.3125 148.945312 165.972656 C 149.175781 165.632812 149.367188 165.269531 149.523438 164.890625 C 149.683594 164.511719 149.800781 164.121094 149.878906 163.71875 C 149.960938 163.316406 150 162.910156 150 162.5 Z M 137.5 156.25 L 112.5 156.25 L 112.5 131.25 L 137.5 131.25 Z M 168.75 118.75 C 168.339844 118.75 167.933594 118.789062 167.53125 118.871094 C 167.128906 118.949219 166.738281 119.066406 166.359375 119.226562 C 165.980469 119.382812 165.617188 119.574219 165.277344 119.804688 C 164.9375 120.03125 164.621094 120.289062 164.332031 120.582031 C 164.039062 120.871094 163.78125 121.1875 163.554688 121.527344 C 163.324219 121.867188 163.132812 122.230469 162.976562 122.609375 C 162.816406 122.988281 162.699219 123.378906 162.621094 123.78125 C 162.539062 124.183594 162.5 124.589844 162.5 125 L 162.5 162.5 C 162.5 162.910156 162.539062 163.316406 162.621094 163.71875 C 162.699219 164.121094 162.816406 164.511719 162.976562 164.890625 C 163.132812 165.269531 163.324219 165.632812 163.554688 165.972656 C 163.78125 166.3125 164.039062 166.628906 164.332031 166.917969 C 164.621094 167.210938 164.9375 167.46875 165.277344 167.695312 C 165.617188 167.925781 165.980469 168.117188 166.359375 168.273438 C 166.738281 168.433594 167.128906 168.550781 167.53125 168.628906 C 167.933594 168.710938 168.339844 168.75 168.75 168.75 L 206.25 168.75 C 206.660156 168.75 207.066406 168.710938 207.46875 168.628906 C 207.871094 168.550781 208.261719 168.433594 208.640625 168.273438 C 209.019531 168.117188 209.382812 167.925781 209.722656 167.695312 C 210.0625 167.46875 210.378906 167.210938 210.667969 166.917969 C 210.960938 166.628906 211.21875 166.3125 211.445312 165.972656 C 211.675781 165.632812 211.867188 165.269531 212.023438 164.890625 C 212.183594 164.511719 212.300781 164.121094 212.378906 163.71875 C 212.460938 163.316406 212.5 162.910156 212.5 162.5 L 212.5 125 C 212.5 124.589844 212.460938 124.183594 212.378906 123.78125 C 212.300781 123.378906 212.183594 122.988281 212.023438 122.609375 C 211.867188 122.230469 211.675781 121.867188 211.445312 121.527344 C 211.21875 121.1875 210.960938 120.871094 210.667969 120.582031 C 210.378906 120.289062 210.0625 120.03125 209.722656 119.804688 C 209.382812 119.574219 209.019531 119.382812 208.640625 119.226562 C 208.261719 119.066406 207.871094 118.949219 207.46875 118.871094 C 207.066406 118.789062 206.660156 118.75 206.25 118.75 Z M 200 156.25 L 175 156.25 L 175 131.25 L 200 131.25 Z M 87.5 187.5 C 87.5 187.089844 87.460938 186.683594 87.378906 186.28125 C 87.300781 185.878906 87.183594 185.488281 87.023438 185.109375 C 86.867188 184.730469 86.675781 184.367188 86.445312 184.027344 C 86.21875 183.6875 85.960938 183.371094 85.667969 183.082031 C 85.378906 182.789062 85.0625 182.53125 84.722656 182.304688 C 84.382812 182.074219 84.019531 181.882812 83.640625 181.726562 C 83.261719 181.566406 82.871094 181.449219 82.46875 181.371094 C 82.066406 181.289062 81.660156 181.25 81.25 181.25 L 43.75 181.25 C 43.339844 181.25 42.933594 181.289062 42.53125 181.371094 C 42.128906 181.449219 41.738281 181.566406 41.359375 181.726562 C 40.980469 181.882812 40.617188 182.074219 40.277344 182.304688 C 39.9375 182.53125 39.621094 182.789062 39.332031 183.082031 C 39.039062 183.371094 38.78125 183.6875 38.554688 184.027344 C 38.324219 184.367188 38.132812 184.730469 37.976562 185.109375 C 37.816406 185.488281 37.699219 185.878906 37.621094 186.28125 C 37.539062 186.683594 37.5 187.089844 37.5 187.5 L 37.5 225 C 37.5 225.410156 37.539062 225.816406 37.621094 226.21875 C 37.699219 226.621094 37.816406 227.011719 37.976562 227.390625 C 38.132812 227.769531 38.324219 228.132812 38.554688 228.472656 C 38.78125 228.8125 39.039062 229.128906 39.332031 229.417969 C 39.621094 229.710938 39.9375 229.96875 40.277344 230.195312 C 40.617188 230.425781 40.980469 230.617188 41.359375 230.773438 C 41.738281 230.933594 42.128906 231.050781 42.53125 231.128906 C 42.933594 231.210938 43.339844 231.25 43.75 231.25 L 81.25 231.25 C 81.660156 231.25 82.066406 231.210938 82.46875 231.128906 C 82.871094 231.050781 83.261719 230.933594 83.640625 230.773438 C 84.019531 230.617188 84.382812 230.425781 84.722656 230.195312 C 85.0625 229.96875 85.378906 229.710938 85.667969 229.417969 C 85.960938 229.128906 86.21875 228.8125 86.445312 228.472656 C 86.675781 228.132812 86.867188 227.769531 87.023438 227.390625 C 87.183594 227.011719 87.300781 226.621094 87.378906 226.21875 C 87.460938 225.816406 87.5 225.410156 87.5 225 Z M 75 218.75 L 50 218.75 L 50 193.75 L 75 193.75 Z M 150 187.5 C 150 187.089844 149.960938 186.683594 149.878906 186.28125 C 149.800781 185.878906 149.683594 185.488281 149.523438 185.109375 C 149.367188 184.730469 149.175781 184.367188 148.945312 184.027344 C 148.71875 183.6875 148.460938 183.371094 148.167969 183.082031 C 147.878906 182.789062 147.5625 182.53125 147.222656 182.304688 C 146.882812 182.074219 146.519531 181.882812 146.140625 181.726562 C 145.761719 181.566406 145.371094 181.449219 144.96875 181.371094 C 144.566406 181.289062 144.160156 181.25 143.75 181.25 L 106.25 181.25 C 105.839844 181.25 105.433594 181.289062 105.03125 181.371094 C 104.628906 181.449219 104.238281 181.566406 103.859375 181.726562 C 103.480469 181.882812 103.117188 182.074219 102.777344 182.304688 C 102.4375 182.53125 102.121094 182.789062 101.832031 183.082031 C 101.539062 183.371094 101.28125 183.6875 101.054688 184.027344 C 100.824219 184.367188 100.632812 184.730469 100.476562 185.109375 C 100.316406 185.488281 100.199219 185.878906 100.121094 186.28125 C 100.039062 186.683594 100 187.089844 100 187.5 L 100 225 C 100 225.410156 100.039062 225.816406 100.121094 226.21875 C 100.199219 226.621094 100.316406 227.011719 100.476562 227.390625 C 100.632812 227.769531 100.824219 228.132812 101.054688 228.472656 C 101.28125 228.8125 101.539062 229.128906 101.832031 229.417969 C 102.121094 229.710938 102.4375 229.96875 102.777344 230.195312 C 103.117188 230.425781 103.480469 230.617188 103.859375 230.773438 C 104.238281 230.933594 104.628906 231.050781 105.03125 231.128906 C 105.433594 231.210938 105.839844 231.25 106.25 231.25 L 143.75 231.25 C 144.160156 231.25 144.566406 231.210938 144.96875 231.128906 C 145.371094 231.050781 145.761719 230.933594 146.140625 230.773438 C 146.519531 230.617188 146.882812 230.425781 147.222656 230.195312 C 147.5625 229.96875 147.878906 229.710938 148.167969 229.417969 C 148.460938 229.128906 148.71875 228.8125 148.945312 228.472656 C 149.175781 228.132812 149.367188 227.769531 149.523438 227.390625 C 149.683594 227.011719 149.800781 226.621094 149.878906 226.21875 C 149.960938 225.816406 150 225.410156 150 225 Z M 137.5 218.75 L 112.5 218.75 L 112.5 193.75 L 137.5 193.75 Z M 81.25 243.75 L 43.75 243.75 C 43.339844 243.75 42.933594 243.789062 42.53125 243.871094 C 42.128906 243.949219 41.738281 244.066406 41.359375 244.226562 C 40.980469 244.382812 40.617188 244.574219 40.277344 244.804688 C 39.9375 245.03125 39.621094 245.289062 39.332031 245.578125 C 39.039062 245.871094 38.78125 246.1875 38.554688 246.527344 C 38.324219 246.867188 38.132812 247.230469 37.976562 247.609375 C 37.816406 247.988281 37.699219 248.378906 37.621094 248.78125 C 37.539062 249.183594 37.5 249.589844 37.5 250 L 37.5 287.5 C 37.5 287.910156 37.539062 288.316406 37.621094 288.71875 C 37.699219 289.121094 37.816406 289.511719 37.976562 289.890625 C 38.132812 290.269531 38.324219 290.632812 38.554688 290.972656 C 38.78125 291.3125 39.039062 291.628906 39.332031 291.917969 C 39.621094 292.210938 39.9375 292.46875 40.277344 292.695312 C 40.617188 292.925781 40.980469 293.117188 41.359375 293.273438 C 41.738281 293.433594 42.128906 293.550781 42.53125 293.628906 C 42.933594 293.710938 43.339844 293.75 43.75 293.75 L 81.25 293.75 C 81.660156 293.75 82.066406 293.710938 82.46875 293.628906 C 82.871094 293.550781 83.261719 293.433594 83.640625 293.273438 C 84.019531 293.117188 84.382812 292.925781 84.722656 292.695312 C 85.0625 292.46875 85.378906 292.210938 85.667969 291.917969 C 85.960938 291.628906 86.21875 291.3125 86.445312 290.972656 C 86.675781 290.632812 86.867188 290.269531 87.023438 289.890625 C 87.183594 289.511719 87.300781 289.121094 87.378906 288.71875 C 87.460938 288.316406 87.5 287.910156 87.5 287.5 L 87.5 250 C 87.5 249.589844 87.460938 249.183594 87.378906 248.78125 C 87.300781 248.378906 87.183594 247.988281 87.023438 247.609375 C 86.867188 247.230469 86.675781 246.867188 86.445312 246.527344 C 86.21875 246.1875 85.960938 245.871094 85.667969 245.578125 C 85.378906 245.289062 85.0625 245.03125 84.722656 244.804688 C 84.382812 244.574219 84.019531 244.382812 83.640625 244.226562 C 83.261719 244.066406 82.871094 243.949219 82.46875 243.871094 C 82.066406 243.789062 81.660156 243.75 81.25 243.75 Z M 75 281.25 L 50 281.25 L 50 256.25 L 75 256.25 Z M 143.75 243.75 L 106.25 243.75 C 105.839844 243.75 105.433594 243.789062 105.03125 243.871094 C 104.628906 243.949219 104.238281 244.066406 103.859375 244.226562 C 103.480469 244.382812 103.117188 244.574219 102.777344 244.804688 C 102.4375 245.03125 102.121094 245.289062 101.832031 245.578125 C 101.539062 245.871094 101.28125 246.1875 101.054688 246.527344 C 100.824219 246.867188 100.632812 247.230469 100.476562 247.609375 C 100.316406 247.988281 100.199219 248.378906 100.121094 248.78125 C 100.039062 249.183594 100 249.589844 100 250 L 100 287.5 C 100 287.910156 100.039062 288.316406 100.121094 288.71875 C 100.199219 289.121094 100.316406 289.511719 100.476562 289.890625 C 100.632812 290.269531 100.824219 290.632812 101.054688 290.972656 C 101.28125 291.3125 101.539062 291.628906 101.832031 291.917969 C 102.121094 292.210938 102.4375 292.46875 102.777344 292.695312 C 103.117188 292.925781 103.480469 293.117188 103.859375 293.273438 C 104.238281 293.429688 104.628906 293.550781 105.03125 293.628906 C 105.433594 293.710938 105.839844 293.75 106.25 293.75 L 143.75 293.75 C 144.160156 293.75 144.566406 293.710938 144.96875 293.628906 C 145.371094 293.550781 145.761719 293.433594 146.140625 293.273438 C 146.519531 293.117188 146.882812 292.925781 147.222656 292.695312 C 147.5625 292.46875 147.878906 292.210938 148.167969 291.917969 C 148.460938 291.628906 148.71875 291.3125 148.945312 290.972656 C 149.175781 290.632812 149.367188 290.269531 149.523438 289.890625 C 149.683594 289.511719 149.800781 289.121094 149.878906 288.71875 C 149.960938 288.316406 150 287.910156 150 287.5 L 150 250 C 150 249.589844 149.960938 249.183594 149.878906 248.78125 C 149.800781 248.378906 149.683594 247.988281 149.523438 247.609375 C 149.367188 247.230469 149.175781 246.867188 148.945312 246.527344 C 148.71875 246.1875 148.460938 245.871094 148.167969 245.578125 C 147.878906 245.289062 147.5625 245.03125 147.222656 244.804688 C 146.882812 244.574219 146.519531 244.382812 146.140625 244.226562 C 145.761719 244.066406 145.371094 243.949219 144.96875 243.871094 C 144.566406 243.789062 144.160156 243.75 143.75 243.75 Z M 137.5 281.25 L 112.5 281.25 L 112.5 256.25 L 137.5 256.25 Z M 268.75 162.5 C 267.011719 162.5 265.273438 162.542969 263.535156 162.628906 C 261.800781 162.714844 260.066406 162.839844 258.335938 163.011719 C 256.605469 163.183594 254.878906 163.394531 253.160156 163.648438 C 251.441406 163.90625 249.726562 164.203125 248.023438 164.542969 C 246.316406 164.878906 244.621094 165.261719 242.933594 165.683594 C 241.246094 166.105469 239.570312 166.570312 237.90625 167.074219 C 236.242188 167.578125 234.59375 168.125 232.957031 168.710938 C 231.316406 169.296875 229.695312 169.921875 228.089844 170.585938 C 226.484375 171.253906 224.894531 171.957031 223.320312 172.699219 C 221.75 173.445312 220.199219 174.226562 218.664062 175.046875 C 217.128906 175.867188 215.617188 176.722656 214.125 177.617188 C 212.636719 178.511719 211.167969 179.441406 209.71875 180.40625 C 208.273438 181.371094 206.855469 182.375 205.457031 183.410156 C 204.058594 184.445312 202.691406 185.515625 201.34375 186.617188 C 200 187.722656 198.683594 188.855469 197.398438 190.023438 C 196.109375 191.191406 194.847656 192.390625 193.621094 193.621094 C 192.390625 194.847656 191.191406 196.109375 190.023438 197.398438 C 188.855469 198.683594 187.722656 200 186.617188 201.34375 C 185.515625 202.691406 184.445312 204.058594 183.410156 205.457031 C 182.375 206.855469 181.371094 208.273438 180.40625 209.71875 C 179.441406 211.167969 178.511719 212.636719 177.617188 214.125 C 176.722656 215.617188 175.867188 217.128906 175.046875 218.664062 C 174.226562 220.199219 173.445312 221.75 172.699219 223.320312 C 171.957031 224.894531 171.253906 226.484375 170.585938 228.089844 C 169.921875 229.695312 169.296875 231.316406 168.710938 232.957031 C 168.125 234.59375 167.578125 236.242188 167.074219 237.90625 C 166.570312 239.570312 166.105469 241.246094 165.683594 242.933594 C 165.261719 244.621094 164.878906 246.316406 164.542969 248.023438 C 164.203125 249.726562 163.90625 251.441406 163.648438 253.160156 C 163.394531 254.878906 163.183594 256.605469 163.011719 258.335938 C 162.839844 260.066406 162.714844 261.800781 162.628906 263.535156 C 162.542969 265.273438 162.5 267.011719 162.5 268.75 C 162.5 270.488281 162.542969 272.226562 162.628906 273.964844 C 162.714844 275.699219 162.839844 277.433594 163.011719 279.164062 C 163.183594 280.894531 163.394531 282.621094 163.648438 284.339844 C 163.90625 286.058594 164.203125 287.773438 164.542969 289.476562 C 164.878906 291.183594 165.261719 292.878906 165.683594 294.566406 C 166.105469 296.253906 166.570312 297.929688 167.074219 299.59375 C 167.578125 301.257812 168.125 302.90625 168.710938 304.542969 C 169.296875 306.183594 169.921875 307.804688 170.585938 309.410156 C 171.253906 311.015625 171.957031 312.605469 172.699219 314.175781 C 173.445312 315.75 174.226562 317.300781 175.046875 318.835938 C 175.867188 320.371094 176.722656 321.882812 177.617188 323.375 C 178.511719 324.863281 179.441406 326.332031 180.40625 327.777344 C 181.371094 329.226562 182.375 330.644531 183.410156 332.042969 C 184.445312 333.441406 185.515625 334.808594 186.617188 336.152344 C 187.722656 337.5 188.855469 338.816406 190.023438 340.101562 C 191.191406 341.390625 192.390625 342.652344 193.621094 343.878906 C 194.847656 345.109375 196.109375 346.308594 197.398438 347.476562 C 198.683594 348.644531 200 349.777344 201.34375 350.882812 C 202.691406 351.984375 204.058594 353.054688 205.457031 354.089844 C 206.855469 355.125 208.273438 356.128906 209.71875 357.09375 C 211.167969 358.058594 212.636719 358.988281 214.125 359.882812 C 215.617188 360.777344 217.128906 361.632812 218.664062 362.453125 C 220.199219 363.273438 221.75 364.054688 223.320312 364.796875 C 224.894531 365.542969 226.484375 366.246094 228.089844 366.914062 C 229.695312 367.578125 231.316406 368.203125 232.957031 368.789062 C 234.59375 369.375 236.242188 369.921875 237.90625 370.425781 C 239.570312 370.929688 241.246094 371.394531 242.933594 371.816406 C 244.621094 372.238281 246.316406 372.621094 248.023438 372.957031 C 249.726562 373.296875 251.441406 373.59375 253.160156 373.851562 C 254.878906 374.105469 256.605469 374.316406 258.335938 374.488281 C 260.066406 374.660156 261.800781 374.785156 263.535156 374.871094 C 265.273438 374.957031 267.011719 375 268.75 375 C 270.488281 375 272.226562 374.957031 273.964844 374.871094 C 275.699219 374.785156 277.433594 374.660156 279.164062 374.488281 C 280.894531 374.316406 282.621094 374.105469 284.339844 373.851562 C 286.058594 373.59375 287.773438 373.296875 289.476562 372.957031 C 291.183594 372.621094 292.878906 372.238281 294.566406 371.816406 C 296.253906 371.394531 297.929688 370.929688 299.59375 370.425781 C 301.257812 369.921875 302.90625 369.375 304.542969 368.789062 C 306.183594 368.203125 307.804688 367.578125 309.410156 366.914062 C 311.015625 366.246094 312.605469 365.542969 314.175781 364.796875 C 315.75 364.054688 317.300781 363.273438 318.835938 362.453125 C 320.371094 361.632812 321.882812 360.777344 323.375 359.882812 C 324.863281 358.988281 326.332031 358.058594 327.777344 357.09375 C 329.226562 356.128906 330.644531 355.125 332.042969 354.089844 C 333.441406 353.054688 334.808594 351.984375 336.152344 350.882812 C 337.5 349.777344 338.816406 348.644531 340.101562 347.476562 C 341.390625 346.308594 342.652344 345.109375 343.878906 343.878906 C 345.109375 342.652344 346.308594 341.390625 347.476562 340.101562 C 348.644531 338.816406 349.777344 337.5 350.882812 336.152344 C 351.984375 334.808594 353.054688 333.441406 354.089844 332.042969 C 355.125 330.644531 356.128906 329.226562 357.09375 327.777344 C 358.058594 326.332031 358.988281 324.863281 359.882812 323.375 C 360.777344 321.882812 361.632812 320.371094 362.453125 318.835938 C 363.273438 317.300781 364.054688 315.75 364.796875 314.175781 C 365.542969 312.605469 366.246094 311.015625 366.914062 309.410156 C 367.578125 307.804688 368.203125 306.183594 368.789062 304.542969 C 369.375 302.90625 369.921875 301.257812 370.425781 299.59375 C 370.929688 297.929688 371.394531 296.253906 371.816406 294.566406 C 372.238281 292.878906 372.621094 291.183594 372.957031 289.476562 C 373.296875 287.773438 373.59375 286.058594 373.851562 284.339844 C 374.105469 282.621094 374.316406 280.894531 374.488281 279.164062 C 374.660156 277.433594 374.785156 275.699219 374.871094 273.964844 C 374.957031 272.226562 375 270.488281 375 268.75 C 374.996094 267.011719 374.953125 265.273438 374.867188 263.539062 C 374.777344 261.800781 374.648438 260.070312 374.476562 258.339844 C 374.304688 256.609375 374.089844 254.886719 373.835938 253.164062 C 373.578125 251.445312 373.28125 249.734375 372.9375 248.03125 C 372.597656 246.324219 372.214844 244.628906 371.792969 242.945312 C 371.367188 241.257812 370.902344 239.582031 370.398438 237.921875 C 369.890625 236.257812 369.347656 234.609375 368.757812 232.972656 C 368.171875 231.335938 367.546875 229.714844 366.878906 228.109375 C 366.214844 226.503906 365.507812 224.914062 364.765625 223.34375 C 364.019531 221.773438 363.238281 220.21875 362.417969 218.6875 C 361.597656 217.15625 360.742188 215.644531 359.847656 214.152344 C 358.953125 212.660156 358.023438 211.195312 357.058594 209.75 C 356.089844 208.304688 355.089844 206.882812 354.054688 205.488281 C 353.019531 204.089844 351.949219 202.722656 350.847656 201.378906 C 349.742188 200.035156 348.609375 198.71875 347.441406 197.429688 C 346.273438 196.140625 345.074219 194.882812 343.84375 193.65625 C 342.617188 192.425781 341.359375 191.226562 340.070312 190.058594 C 338.78125 188.890625 337.464844 187.757812 336.121094 186.652344 C 334.777344 185.550781 333.410156 184.480469 332.011719 183.445312 C 330.617188 182.410156 329.195312 181.410156 327.75 180.441406 C 326.304688 179.476562 324.839844 178.546875 323.347656 177.652344 C 321.855469 176.757812 320.34375 175.902344 318.8125 175.082031 C 317.28125 174.261719 315.726562 173.480469 314.15625 172.734375 C 312.585938 171.992188 310.996094 171.285156 309.390625 170.621094 C 307.785156 169.953125 306.164062 169.328125 304.527344 168.742188 C 302.890625 168.152344 301.242188 167.609375 299.578125 167.101562 C 297.917969 166.597656 296.242188 166.132812 294.554688 165.707031 C 292.871094 165.285156 291.175781 164.902344 289.46875 164.5625 C 287.765625 164.21875 286.054688 163.921875 284.335938 163.664062 C 282.613281 163.410156 280.890625 163.195312 279.160156 163.023438 C 277.429688 162.851562 275.699219 162.71875 273.960938 162.632812 C 272.226562 162.546875 270.488281 162.5 268.75 162.5 Z M 268.75 362.5 C 267.214844 362.5 265.683594 362.460938 264.148438 362.386719 C 262.617188 362.3125 261.085938 362.199219 259.5625 362.046875 C 258.035156 361.898438 256.511719 361.710938 254.992188 361.484375 C 253.476562 361.261719 251.964844 360.996094 250.460938 360.699219 C 248.957031 360.398438 247.457031 360.0625 245.96875 359.691406 C 244.480469 359.316406 243.003906 358.910156 241.535156 358.464844 C 240.066406 358.019531 238.609375 357.535156 237.167969 357.019531 C 235.722656 356.503906 234.289062 355.949219 232.875 355.363281 C 231.457031 354.777344 230.054688 354.15625 228.667969 353.5 C 227.28125 352.84375 225.910156 352.152344 224.554688 351.429688 C 223.203125 350.707031 221.867188 349.949219 220.554688 349.160156 C 219.238281 348.375 217.941406 347.550781 216.664062 346.699219 C 215.390625 345.847656 214.136719 344.964844 212.902344 344.050781 C 211.671875 343.136719 210.460938 342.191406 209.277344 341.21875 C 208.089844 340.246094 206.929688 339.246094 205.792969 338.214844 C 204.65625 337.183594 203.542969 336.125 202.457031 335.042969 C 201.375 333.957031 200.316406 332.84375 199.285156 331.707031 C 198.253906 330.570312 197.253906 329.410156 196.28125 328.222656 C 195.308594 327.039062 194.363281 325.828125 193.449219 324.597656 C 192.535156 323.363281 191.652344 322.109375 190.800781 320.835938 C 189.949219 319.558594 189.125 318.261719 188.339844 316.945312 C 187.550781 315.632812 186.792969 314.296875 186.070312 312.945312 C 185.347656 311.589844 184.65625 310.21875 184 308.832031 C 183.34375 307.445312 182.722656 306.042969 182.136719 304.625 C 181.550781 303.210938 180.996094 301.777344 180.480469 300.332031 C 179.964844 298.890625 179.480469 297.433594 179.035156 295.964844 C 178.589844 294.496094 178.183594 293.019531 177.808594 291.53125 C 177.4375 290.042969 177.101562 288.542969 176.800781 287.039062 C 176.503906 285.535156 176.238281 284.023438 176.015625 282.507812 C 175.789062 280.988281 175.601562 279.464844 175.453125 277.9375 C 175.300781 276.414062 175.1875 274.882812 175.113281 273.351562 C 175.039062 271.816406 175 270.285156 175 268.75 C 175 267.214844 175.039062 265.683594 175.113281 264.148438 C 175.1875 262.617188 175.300781 261.085938 175.453125 259.5625 C 175.601562 258.035156 175.789062 256.511719 176.015625 254.992188 C 176.238281 253.476562 176.503906 251.964844 176.800781 250.460938 C 177.101562 248.957031 177.4375 247.457031 177.808594 245.96875 C 178.183594 244.480469 178.589844 243.003906 179.035156 241.535156 C 179.480469 240.066406 179.964844 238.609375 180.480469 237.167969 C 180.996094 235.722656 181.550781 234.289062 182.136719 232.875 C 182.722656 231.457031 183.34375 230.054688 184 228.667969 C 184.65625 227.28125 185.347656 225.910156 186.070312 224.554688 C 186.792969 223.203125 187.550781 221.867188 188.339844 220.554688 C 189.125 219.238281 189.949219 217.941406 190.800781 216.664062 C 191.652344 215.390625 192.535156 214.136719 193.449219 212.902344 C 194.363281 211.671875 195.308594 210.460938 196.28125 209.277344 C 197.253906 208.089844 198.253906 206.929688 199.285156 205.792969 C 200.316406 204.65625 201.375 203.542969 202.457031 202.457031 C 203.542969 201.375 204.65625 200.316406 205.792969 199.285156 C 206.929688 198.253906 208.089844 197.253906 209.277344 196.28125 C 210.460938 195.308594 211.671875 194.363281 212.902344 193.449219 C 214.136719 192.535156 215.390625 191.652344 216.664062 190.800781 C 217.941406 189.949219 219.238281 189.125 220.554688 188.339844 C 221.867188 187.550781 223.203125 186.792969 224.554688 186.070312 C 225.910156 185.347656 227.28125 184.65625 228.667969 184 C 230.054688 183.34375 231.457031 182.722656 232.875 182.136719 C 234.289062 181.550781 235.722656 180.996094 237.167969 180.480469 C 238.609375 179.964844 240.066406 179.480469 241.535156 179.035156 C 243.003906 178.589844 244.480469 178.183594 245.96875 177.808594 C 247.457031 177.4375 248.957031 177.101562 250.460938 176.800781 C 251.964844 176.503906 253.476562 176.238281 254.992188 176.015625 C 256.511719 175.789062 258.035156 175.601562 259.5625 175.453125 C 261.085938 175.300781 262.617188 175.1875 264.148438 175.113281 C 265.683594 175.039062 267.214844 175 268.75 175 C 270.285156 175 271.816406 175.039062 273.351562 175.113281 C 274.882812 175.1875 276.414062 175.300781 277.9375 175.453125 C 279.464844 175.601562 280.988281 175.789062 282.507812 176.015625 C 284.023438 176.238281 285.535156 176.503906 287.039062 176.800781 C 288.542969 177.101562 290.042969 177.4375 291.53125 177.808594 C 293.019531 178.183594 294.496094 178.589844 295.964844 179.035156 C 297.433594 179.480469 298.890625 179.964844 300.332031 180.480469 C 301.777344 180.996094 303.210938 181.550781 304.625 182.136719 C 306.042969 182.722656 307.445312 183.34375 308.832031 184 C 310.21875 184.65625 311.589844 185.347656 312.945312 186.070312 C 314.296875 186.792969 315.632812 187.550781 316.945312 188.339844 C 318.261719 189.125 319.558594 189.949219 320.835938 190.800781 C 322.109375 191.652344 323.363281 192.535156 324.597656 193.449219 C 325.828125 194.363281 327.039062 195.308594 328.222656 196.28125 C 329.410156 197.253906 330.570312 198.253906 331.707031 199.285156 C 332.84375 200.316406 333.957031 201.375 335.042969 202.457031 C 336.125 203.542969 337.183594 204.65625 338.214844 205.792969 C 339.246094 206.929688 340.246094 208.089844 341.21875 209.277344 C 342.191406 210.460938 343.136719 211.671875 344.050781 212.902344 C 344.964844 214.136719 345.847656 215.390625 346.699219 216.664062 C 347.550781 217.941406 348.375 219.238281 349.160156 220.554688 C 349.949219 221.867188 350.707031 223.203125 351.429688 224.554688 C 352.152344 225.910156 352.84375 227.28125 353.5 228.667969 C 354.15625 230.054688 354.777344 231.457031 355.363281 232.875 C 355.949219 234.289062 356.503906 235.722656 357.019531 237.167969 C 357.535156 238.609375 358.019531 240.066406 358.464844 241.535156 C 358.910156 243.003906 359.316406 244.480469 359.691406 245.96875 C 360.0625 247.457031 360.398438 248.957031 360.699219 250.460938 C 360.996094 251.964844 361.261719 253.476562 361.484375 254.992188 C 361.710938 256.511719 361.898438 258.035156 362.046875 259.5625 C 362.199219 261.085938 362.3125 262.617188 362.386719 264.148438 C 362.460938 265.683594 362.5 267.214844 362.5 268.75 C 362.5 270.285156 362.457031 271.816406 362.382812 273.347656 C 362.304688 274.878906 362.191406 276.410156 362.039062 277.9375 C 361.886719 279.460938 361.699219 280.984375 361.472656 282.5 C 361.246094 284.019531 360.980469 285.527344 360.679688 287.03125 C 360.378906 288.535156 360.042969 290.03125 359.667969 291.519531 C 359.296875 293.007812 358.886719 294.484375 358.441406 295.953125 C 357.992188 297.421875 357.511719 298.875 356.992188 300.320312 C 356.476562 301.761719 355.921875 303.195312 355.335938 304.609375 C 354.746094 306.027344 354.125 307.429688 353.46875 308.816406 C 352.8125 310.199219 352.121094 311.570312 351.398438 312.921875 C 350.675781 314.273438 349.917969 315.609375 349.128906 316.925781 C 348.339844 318.238281 347.519531 319.535156 346.667969 320.808594 C 345.816406 322.085938 344.933594 323.339844 344.019531 324.570312 C 343.105469 325.800781 342.160156 327.011719 341.1875 328.195312 C 340.214844 329.382812 339.214844 330.542969 338.183594 331.679688 C 337.152344 332.816406 336.09375 333.925781 335.011719 335.011719 C 333.925781 336.09375 332.816406 337.152344 331.679688 338.183594 C 330.542969 339.214844 329.382812 340.214844 328.195312 341.1875 C 327.011719 342.160156 325.800781 343.105469 324.570312 344.019531 C 323.339844 344.933594 322.085938 345.816406 320.808594 346.667969 C 319.535156 347.519531 318.238281 348.339844 316.925781 349.128906 C 315.609375 349.917969 314.273438 350.675781 312.921875 351.398438 C 311.570312 352.121094 310.199219 352.8125 308.816406 353.46875 C 307.429688 354.125 306.027344 354.746094 304.609375 355.335938 C 303.195312 355.921875 301.761719 356.476562 300.320312 356.992188 C 298.875 357.511719 297.421875 357.992188 295.953125 358.441406 C 294.484375 358.886719 293.007812 359.296875 291.519531 359.667969 C 290.03125 360.042969 288.535156 360.378906 287.03125 360.679688 C 285.527344 360.980469 284.019531 361.246094 282.5 361.472656 C 280.984375 361.699219 279.460938 361.886719 277.9375 362.039062 C 276.410156 362.191406 274.878906 362.304688 273.347656 362.382812 C 271.816406 362.457031 270.285156 362.5 268.75 362.5 Z M 156.25 318.75 L 31.25 318.75 C 30.636719 318.75 30.023438 318.71875 29.414062 318.65625 C 28.800781 318.597656 28.195312 318.507812 27.59375 318.386719 C 26.992188 318.265625 26.398438 318.117188 25.808594 317.9375 C 25.222656 317.757812 24.644531 317.550781 24.078125 317.316406 C 23.511719 317.082031 22.957031 316.820312 22.414062 316.53125 C 21.875 316.242188 21.347656 315.925781 20.839844 315.582031 C 20.328125 315.242188 19.835938 314.878906 19.359375 314.488281 C 18.886719 314.097656 18.433594 313.6875 17.996094 313.253906 C 17.5625 312.816406 17.152344 312.363281 16.761719 311.890625 C 16.371094 311.414062 16.007812 310.921875 15.667969 310.410156 C 15.324219 309.902344 15.007812 309.375 14.71875 308.835938 C 14.429688 308.292969 14.167969 307.738281 13.933594 307.171875 C 13.699219 306.605469 13.492188 306.027344 13.3125 305.441406 C 13.132812 304.851562 12.984375 304.257812 12.863281 303.65625 C 12.742188 303.054688 12.652344 302.449219 12.59375 301.835938 C 12.53125 301.226562 12.5 300.613281 12.5 300 L 12.5 93.75 L 300 93.75 L 300 150 C 300 150.410156 300.039062 150.816406 300.121094 151.21875 C 300.199219 151.621094 300.320312 152.011719 300.476562 152.390625 C 300.632812 152.769531 300.824219 153.132812 301.054688 153.472656 C 301.28125 153.8125 301.539062 154.128906 301.832031 154.417969 C 302.121094 154.710938 302.4375 154.96875 302.777344 155.195312 C 303.117188 155.425781 303.480469 155.617188 303.859375 155.773438 C 304.238281 155.929688 304.628906 156.050781 305.03125 156.128906 C 305.433594 156.210938 305.839844 156.25 306.25 156.25 C 306.660156 156.25 307.066406 156.210938 307.46875 156.128906 C 307.871094 156.050781 308.261719 155.929688 308.640625 155.773438 C 309.019531 155.617188 309.382812 155.425781 309.722656 155.195312 C 310.0625 154.96875 310.378906 154.710938 310.667969 154.417969 C 310.960938 154.128906 311.21875 153.8125 311.445312 153.472656 C 311.675781 153.132812 311.867188 152.769531 312.023438 152.390625 C 312.179688 152.011719 312.300781 151.621094 312.378906 151.21875 C 312.460938 150.816406 312.5 150.410156 312.5 150 L 312.5 62.5 C 312.5 61.476562 312.449219 60.457031 312.347656 59.4375 C 312.246094 58.421875 312.09375 57.410156 311.894531 56.40625 C 311.691406 55.402344 311.445312 54.410156 311.144531 53.433594 C 310.847656 52.453125 310.503906 51.492188 310.113281 50.546875 C 309.71875 49.601562 309.28125 48.679688 308.800781 47.777344 C 308.316406 46.875 307.789062 45.996094 307.222656 45.148438 C 306.652344 44.296875 306.042969 43.476562 305.394531 42.683594 C 304.746094 41.894531 304.058594 41.136719 303.335938 40.414062 C 302.613281 39.691406 301.855469 39.003906 301.066406 38.355469 C 300.273438 37.707031 299.453125 37.097656 298.601562 36.527344 C 297.753906 35.960938 296.875 35.433594 295.972656 34.949219 C 295.070312 34.46875 294.148438 34.03125 293.203125 33.636719 C 292.257812 33.246094 291.296875 32.902344 290.316406 32.605469 C 289.339844 32.304688 288.347656 32.058594 287.34375 31.855469 C 286.339844 31.65625 285.328125 31.503906 284.3125 31.402344 C 283.292969 31.300781 282.273438 31.25 281.25 31.25 L 262.5 31.25 L 262.5 18.75 C 262.5 18.136719 262.46875 17.523438 262.410156 16.914062 C 262.347656 16.300781 262.257812 15.695312 262.140625 15.09375 C 262.019531 14.488281 261.871094 13.894531 261.691406 13.308594 C 261.515625 12.71875 261.308594 12.140625 261.074219 11.574219 C 260.835938 11.007812 260.574219 10.453125 260.285156 9.910156 C 259.996094 9.371094 259.679688 8.84375 259.339844 8.332031 C 259 7.824219 258.632812 7.328125 258.242188 6.855469 C 257.855469 6.378906 257.441406 5.925781 257.007812 5.492188 C 256.574219 5.058594 256.121094 4.644531 255.644531 4.257812 C 255.171875 3.867188 254.675781 3.5 254.167969 3.160156 C 253.65625 2.820312 253.128906 2.503906 252.589844 2.214844 C 252.046875 1.925781 251.492188 1.664062 250.925781 1.425781 C 250.359375 1.191406 249.78125 0.984375 249.191406 0.808594 C 248.605469 0.628906 248.011719 0.480469 247.40625 0.359375 C 246.804688 0.242188 246.199219 0.152344 245.585938 0.0898438 C 244.976562 0.03125 244.363281 0 243.75 0 C 243.136719 0 242.523438 0.03125 241.914062 0.0898438 C 241.300781 0.152344 240.695312 0.242188 240.09375 0.359375 C 239.488281 0.480469 238.894531 0.628906 238.308594 0.808594 C 237.71875 0.984375 237.140625 1.191406 236.574219 1.425781 C 236.007812 1.664062 235.453125 1.925781 234.910156 2.214844 C 234.371094 2.503906 233.84375 2.820312 233.332031 3.160156 C 232.824219 3.5 232.328125 3.867188 231.855469 4.257812 C 231.378906 4.644531 230.925781 5.058594 230.492188 5.492188 C 230.058594 5.925781 229.644531 6.378906 229.257812 6.855469 C 228.867188 7.328125 228.5 7.824219 228.160156 8.332031 C 227.820312 8.84375 227.503906 9.371094 227.214844 9.910156 C 226.925781 10.453125 226.664062 11.007812 226.425781 11.574219 C 226.191406 12.140625 225.984375 12.71875 225.808594 13.308594 C 225.628906 13.894531 225.480469 14.488281 225.359375 15.09375 C 225.242188 15.695312 225.152344 16.300781 225.089844 16.914062 C 225.03125 17.523438 225 18.136719 225 18.75 L 225 31.25 L 175 31.25 L 175 18.75 C 175 18.136719 174.96875 17.523438 174.910156 16.914062 C 174.847656 16.300781 174.757812 15.695312 174.640625 15.09375 C 174.519531 14.488281 174.371094 13.894531 174.191406 13.308594 C 174.015625 12.71875 173.808594 12.140625 173.574219 11.574219 C 173.335938 11.007812 173.074219 10.453125 172.785156 9.910156 C 172.496094 9.371094 172.179688 8.84375 171.839844 8.332031 C 171.5 7.824219 171.132812 7.328125 170.742188 6.855469 C 170.355469 6.378906 169.941406 5.925781 169.507812 5.492188 C 169.074219 5.058594 168.621094 4.644531 168.144531 4.257812 C 167.671875 3.867188 167.175781 3.5 166.667969 3.160156 C 166.15625 2.820312 165.628906 2.503906 165.089844 2.214844 C 164.546875 1.925781 163.992188 1.664062 163.425781 1.425781 C 162.859375 1.191406 162.28125 0.984375 161.691406 0.808594 C 161.105469 0.628906 160.511719 0.480469 159.90625 0.359375 C 159.304688 0.242188 158.699219 0.152344 158.085938 0.0898438 C 157.476562 0.03125 156.863281 0 156.25 0 C 155.636719 0 155.023438 0.03125 154.414062 0.0898438 C 153.800781 0.152344 153.195312 0.242188 152.59375 0.359375 C 151.988281 0.480469 151.394531 0.628906 150.808594 0.808594 C 150.21875 0.984375 149.640625 1.191406 149.074219 1.425781 C 148.507812 1.664062 147.953125 1.925781 147.410156 2.214844 C 146.871094 2.503906 146.34375 2.820312 145.832031 3.160156 C 145.324219 3.5 144.828125 3.867188 144.355469 4.257812 C 143.878906 4.644531 143.425781 5.058594 142.992188 5.492188 C 142.558594 5.925781 142.144531 6.378906 141.757812 6.855469 C 141.367188 7.328125 141 7.824219 140.660156 8.332031 C 140.320312 8.84375 140.003906 9.371094 139.714844 9.910156 C 139.425781 10.453125 139.164062 11.007812 138.925781 11.574219 C 138.691406 12.140625 138.484375 12.71875 138.308594 13.308594 C 138.128906 13.894531 137.980469 14.488281 137.859375 15.09375 C 137.742188 15.695312 137.652344 16.300781 137.589844 16.914062 C 137.53125 17.523438 137.5 18.136719 137.5 18.75 L 137.5 31.25 L 87.5 31.25 L 87.5 18.75 C 87.5 18.136719 87.46875 17.523438 87.410156 16.914062 C 87.347656 16.300781 87.257812 15.695312 87.140625 15.09375 C 87.019531 14.488281 86.871094 13.894531 86.691406 13.308594 C 86.515625 12.71875 86.308594 12.140625 86.074219 11.574219 C 85.835938 11.007812 85.574219 10.453125 85.285156 9.910156 C 84.996094 9.371094 84.679688 8.84375 84.339844 8.332031 C 84 7.824219 83.632812 7.328125 83.242188 6.855469 C 82.855469 6.378906 82.441406 5.925781 82.007812 5.492188 C 81.574219 5.058594 81.121094 4.644531 80.644531 4.257812 C 80.171875 3.867188 79.675781 3.5 79.167969 3.160156 C 78.65625 2.820312 78.128906 2.503906 77.589844 2.214844 C 77.046875 1.925781 76.492188 1.664062 75.925781 1.425781 C 75.359375 1.191406 74.78125 0.984375 74.191406 0.808594 C 73.605469 0.628906 73.011719 0.480469 72.40625 0.359375 C 71.804688 0.242188 71.199219 0.152344 70.585938 0.0898438 C 69.976562 0.03125 69.363281 0 68.75 0 C 68.136719 0 67.523438 0.03125 66.914062 0.0898438 C 66.300781 0.152344 65.695312 0.242188 65.09375 0.359375 C 64.488281 0.480469 63.894531 0.628906 63.308594 0.808594 C 62.71875 0.984375 62.140625 1.191406 61.574219 1.425781 C 61.007812 1.664062 60.453125 1.925781 59.910156 2.214844 C 59.371094 2.503906 58.84375 2.820312 58.332031 3.160156 C 57.824219 3.5 57.328125 3.867188 56.855469 4.257812 C 56.378906 4.644531 55.925781 5.058594 55.492188 5.492188 C 55.058594 5.925781 54.644531 6.378906 54.257812 6.855469 C 53.867188 7.328125 53.5 7.824219 53.160156 8.332031 C 52.820312 8.84375 52.503906 9.371094 52.214844 9.910156 C 51.925781 10.453125 51.664062 11.007812 51.425781 11.574219 C 51.191406 12.140625 50.984375 12.71875 50.808594 13.308594 C 50.628906 13.894531 50.480469 14.488281 50.359375 15.09375 C 50.242188 15.695312 50.152344 16.300781 50.089844 16.914062 C 50.03125 17.523438 50 18.136719 50 18.75 L 50 31.25 L 31.25 31.25 C 30.226562 31.25 29.207031 31.300781 28.1875 31.402344 C 27.171875 31.503906 26.160156 31.65625 25.15625 31.855469 C 24.152344 32.058594 23.160156 32.304688 22.183594 32.605469 C 21.203125 32.902344 20.242188 33.246094 19.296875 33.636719 C 18.351562 34.03125 17.429688 34.46875 16.527344 34.949219 C 15.625 35.433594 14.746094 35.960938 13.898438 36.527344 C 13.046875 37.097656 12.226562 37.707031 11.433594 38.355469 C 10.644531 39.003906 9.886719 39.691406 9.164062 40.414062 C 8.441406 41.136719 7.753906 41.894531 7.105469 42.683594 C 6.457031 43.476562 5.847656 44.296875 5.277344 45.148438 C 4.710938 45.996094 4.183594 46.875 3.699219 47.777344 C 3.21875 48.679688 2.78125 49.601562 2.386719 50.546875 C 1.996094 51.492188 1.652344 52.453125 1.355469 53.433594 C 1.054688 54.410156 0.808594 55.402344 0.605469 56.40625 C 0.40625 57.410156 0.253906 58.421875 0.152344 59.4375 C 0.0507812 60.457031 0 61.476562 0 62.5 L 0 300 C 0 301.023438 0.0507812 302.042969 0.152344 303.0625 C 0.253906 304.078125 0.40625 305.089844 0.605469 306.09375 C 0.808594 307.097656 1.054688 308.089844 1.355469 309.066406 C 1.652344 310.046875 1.996094 311.007812 2.386719 311.953125 C 2.78125 312.898438 3.21875 313.820312 3.699219 314.722656 C 4.183594 315.625 4.710938 316.503906 5.277344 317.351562 C 5.847656 318.203125 6.457031 319.023438 7.105469 319.816406 C 7.753906 320.605469 8.441406 321.363281 9.164062 322.085938 C 9.886719 322.808594 10.644531 323.496094 11.433594 324.144531 C 12.226562 324.792969 13.046875 325.402344 13.898438 325.972656 C 14.746094 326.539062 15.625 327.066406 16.527344 327.550781 C 17.429688 328.03125 18.351562 328.46875 19.296875 328.863281 C 20.242188 329.253906 21.203125 329.597656 22.183594 329.894531 C 23.160156 330.195312 24.152344 330.441406 25.15625 330.644531 C 26.160156 330.84375 27.171875 330.996094 28.1875 331.097656 C 29.207031 331.199219 30.226562 331.25 31.25 331.25 L 156.25 331.25 C 156.660156 331.25 157.066406 331.210938 157.46875 331.128906 C 157.871094 331.050781 158.261719 330.929688 158.640625 330.773438 C 159.019531 330.617188 159.382812 330.425781 159.722656 330.195312 C 160.0625 329.96875 160.378906 329.710938 160.667969 329.417969 C 160.960938 329.128906 161.21875 328.8125 161.445312 328.472656 C 161.675781 328.132812 161.867188 327.769531 162.023438 327.390625 C 162.179688 327.011719 162.300781 326.621094 162.378906 326.21875 C 162.460938 325.816406 162.5 325.410156 162.5 325 C 162.5 324.589844 162.460938 324.183594 162.378906 323.78125 C 162.300781 323.378906 162.179688 322.988281 162.023438 322.609375 C 161.867188 322.230469 161.675781 321.867188 161.445312 321.527344 C 161.21875 321.1875 160.960938 320.871094 160.667969 320.582031 C 160.378906 320.289062 160.0625 320.03125 159.722656 319.804688 C 159.382812 319.574219 159.019531 319.382812 158.640625 319.226562 C 158.261719 319.070312 157.871094 318.949219 157.46875 318.871094 C 157.066406 318.789062 156.660156 318.75 156.25 318.75 Z M 237.5 18.75 C 237.5 18.339844 237.539062 17.933594 237.621094 17.53125 C 237.699219 17.128906 237.820312 16.738281 237.976562 16.359375 C 238.132812 15.980469 238.324219 15.617188 238.554688 15.277344 C 238.78125 14.9375 239.039062 14.621094 239.332031 14.332031 C 239.621094 14.039062 239.9375 13.78125 240.277344 13.554688 C 240.617188 13.324219 240.980469 13.132812 241.359375 12.976562 C 241.738281 12.820312 242.128906 12.699219 242.53125 12.621094 C 242.933594 12.539062 243.339844 12.5 243.75 12.5 C 244.160156 12.5 244.566406 12.539062 244.96875 12.621094 C 245.371094 12.699219 245.761719 12.820312 246.140625 12.976562 C 246.519531 13.132812 246.882812 13.324219 247.222656 13.554688 C 247.5625 13.78125 247.878906 14.039062 248.167969 14.332031 C 248.460938 14.621094 248.71875 14.9375 248.945312 15.277344 C 249.175781 15.617188 249.367188 15.980469 249.523438 16.359375 C 249.679688 16.738281 249.800781 17.128906 249.878906 17.53125 C 249.960938 17.933594 250 18.339844 250 18.75 L 250 50 C 250 50.410156 249.960938 50.816406 249.878906 51.21875 C 249.800781 51.621094 249.679688 52.011719 249.523438 52.390625 C 249.367188 52.769531 249.175781 53.132812 248.945312 53.472656 C 248.71875 53.8125 248.460938 54.128906 248.167969 54.417969 C 247.878906 54.710938 247.5625 54.96875 247.222656 55.195312 C 246.882812 55.425781 246.519531 55.617188 246.140625 55.773438 C 245.761719 55.929688 245.371094 56.050781 244.96875 56.128906 C 244.566406 56.210938 244.160156 56.25 243.75 56.25 C 243.339844 56.25 242.933594 56.210938 242.53125 56.128906 C 242.128906 56.050781 241.738281 55.929688 241.359375 55.773438 C 240.980469 55.617188 240.617188 55.425781 240.277344 55.195312 C 239.9375 54.96875 239.621094 54.710938 239.332031 54.417969 C 239.039062 54.128906 238.78125 53.8125 238.554688 53.472656 C 238.324219 53.132812 238.132812 52.769531 237.976562 52.390625 C 237.820312 52.011719 237.699219 51.621094 237.621094 51.21875 C 237.539062 50.816406 237.5 50.410156 237.5 50 Z M 150 18.75 C 150 18.339844 150.039062 17.933594 150.121094 17.53125 C 150.199219 17.128906 150.320312 16.738281 150.476562 16.359375 C 150.632812 15.980469 150.824219 15.617188 151.054688 15.277344 C 151.28125 14.9375 151.539062 14.621094 151.832031 14.332031 C 152.121094 14.039062 152.4375 13.78125 152.777344 13.554688 C 153.117188 13.324219 153.480469 13.132812 153.859375 12.976562 C 154.238281 12.820312 154.628906 12.699219 155.03125 12.621094 C 155.433594 12.539062 155.839844 12.5 156.25 12.5 C 156.660156 12.5 157.066406 12.539062 157.46875 12.621094 C 157.871094 12.699219 158.261719 12.820312 158.640625 12.976562 C 159.019531 13.132812 159.382812 13.324219 159.722656 13.554688 C 160.0625 13.78125 160.378906 14.039062 160.667969 14.332031 C 160.960938 14.621094 161.21875 14.9375 161.445312 15.277344 C 161.675781 15.617188 161.867188 15.980469 162.023438 16.359375 C 162.179688 16.738281 162.300781 17.128906 162.378906 17.53125 C 162.460938 17.933594 162.5 18.339844 162.5 18.75 L 162.5 50 C 162.5 50.410156 162.460938 50.816406 162.378906 51.21875 C 162.300781 51.621094 162.179688 52.011719 162.023438 52.390625 C 161.867188 52.769531 161.675781 53.132812 161.445312 53.472656 C 161.21875 53.8125 160.960938 54.128906 160.667969 54.417969 C 160.378906 54.710938 160.0625 54.96875 159.722656 55.195312 C 159.382812 55.425781 159.019531 55.617188 158.640625 55.773438 C 158.261719 55.929688 157.871094 56.050781 157.46875 56.128906 C 157.066406 56.210938 156.660156 56.25 156.25 56.25 C 155.839844 56.25 155.433594 56.210938 155.03125 56.128906 C 154.628906 56.050781 154.238281 55.929688 153.859375 55.773438 C 153.480469 55.617188 153.117188 55.425781 152.777344 55.195312 C 152.4375 54.96875 152.121094 54.710938 151.832031 54.417969 C 151.539062 54.128906 151.28125 53.8125 151.054688 53.472656 C 150.824219 53.132812 150.632812 52.769531 150.476562 52.390625 C 150.320312 52.011719 150.199219 51.621094 150.121094 51.21875 C 150.039062 50.816406 150 50.410156 150 50 Z M 62.5 18.75 C 62.5 18.339844 62.539062 17.933594 62.621094 17.53125 C 62.699219 17.128906 62.820312 16.738281 62.976562 16.359375 C 63.132812 15.980469 63.324219 15.617188 63.554688 15.277344 C 63.78125 14.9375 64.039062 14.621094 64.332031 14.332031 C 64.621094 14.039062 64.9375 13.78125 65.277344 13.554688 C 65.617188 13.324219 65.980469 13.132812 66.359375 12.976562 C 66.738281 12.820312 67.128906 12.699219 67.53125 12.621094 C 67.933594 12.539062 68.339844 12.5 68.75 12.5 C 69.160156 12.5 69.566406 12.539062 69.96875 12.621094 C 70.371094 12.699219 70.761719 12.820312 71.140625 12.976562 C 71.519531 13.132812 71.882812 13.324219 72.222656 13.554688 C 72.5625 13.78125 72.878906 14.039062 73.167969 14.332031 C 73.460938 14.621094 73.71875 14.9375 73.945312 15.277344 C 74.175781 15.617188 74.367188 15.980469 74.523438 16.359375 C 74.679688 16.738281 74.800781 17.128906 74.878906 17.53125 C 74.960938 17.933594 75 18.339844 75 18.75 L 75 50 C 75 50.410156 74.960938 50.816406 74.878906 51.21875 C 74.800781 51.621094 74.679688 52.011719 74.523438 52.390625 C 74.367188 52.769531 74.175781 53.132812 73.945312 53.472656 C 73.71875 53.8125 73.460938 54.128906 73.167969 54.417969 C 72.878906 54.710938 72.5625 54.96875 72.222656 55.195312 C 71.882812 55.425781 71.519531 55.617188 71.140625 55.773438 C 70.761719 55.929688 70.371094 56.050781 69.96875 56.128906 C 69.566406 56.210938 69.160156 56.25 68.75 56.25 C 68.339844 56.25 67.933594 56.210938 67.53125 56.128906 C 67.128906 56.050781 66.738281 55.929688 66.359375 55.773438 C 65.980469 55.617188 65.617188 55.425781 65.277344 55.195312 C 64.9375 54.96875 64.621094 54.710938 64.332031 54.417969 C 64.039062 54.128906 63.78125 53.8125 63.554688 53.472656 C 63.324219 53.132812 63.132812 52.769531 62.976562 52.390625 C 62.820312 52.011719 62.699219 51.621094 62.621094 51.21875 C 62.539062 50.816406 62.5 50.410156 62.5 50 Z M 31.25 43.75 L 50 43.75 L 50 50 C 50 50.613281 50.03125 51.226562 50.089844 51.835938 C 50.152344 52.449219 50.242188 53.054688 50.359375 53.65625 C 50.480469 54.261719 50.628906 54.855469 50.808594 55.441406 C 50.984375 56.03125 51.191406 56.609375 51.425781 57.175781 C 51.664062 57.742188 51.925781 58.296875 52.214844 58.839844 C 52.503906 59.378906 52.820312 59.90625 53.160156 60.417969 C 53.5 60.925781 53.867188 61.421875 54.257812 61.894531 C 54.644531 62.371094 55.058594 62.824219 55.492188 63.257812 C 55.925781 63.691406 56.378906 64.105469 56.855469 64.492188 C 57.328125 64.882812 57.824219 65.25 58.332031 65.589844 C 58.84375 65.929688 59.371094 66.246094 59.910156 66.535156 C 60.453125 66.824219 61.007812 67.085938 61.574219 67.324219 C 62.140625 67.558594 62.71875 67.765625 63.308594 67.941406 C 63.894531 68.121094 64.488281 68.269531 65.09375 68.390625 C 65.695312 68.507812 66.300781 68.597656 66.914062 68.660156 C 67.523438 68.71875 68.136719 68.75 68.75 68.75 C 69.363281 68.75 69.976562 68.71875 70.585938 68.660156 C 71.199219 68.597656 71.804688 68.507812 72.40625 68.390625 C 73.011719 68.269531 73.605469 68.121094 74.191406 67.941406 C 74.78125 67.765625 75.359375 67.558594 75.925781 67.324219 C 76.492188 67.085938 77.046875 66.824219 77.589844 66.535156 C 78.128906 66.246094 78.65625 65.929688 79.167969 65.589844 C 79.675781 65.25 80.171875 64.882812 80.644531 64.492188 C 81.121094 64.105469 81.574219 63.691406 82.007812 63.257812 C 82.441406 62.824219 82.855469 62.371094 83.242188 61.894531 C 83.632812 61.421875 84 60.925781 84.339844 60.417969 C 84.679688 59.90625 84.996094 59.378906 85.285156 58.839844 C 85.574219 58.296875 85.835938 57.742188 86.074219 57.175781 C 86.308594 56.609375 86.515625 56.03125 86.691406 55.441406 C 86.871094 54.855469 87.019531 54.261719 87.140625 53.65625 C 87.257812 53.054688 87.347656 52.449219 87.410156 51.835938 C 87.46875 51.226562 87.5 50.613281 87.5 50 L 87.5 43.75 L 137.5 43.75 L 137.5 50 C 137.5 50.613281 137.53125 51.226562 137.589844 51.835938 C 137.652344 52.449219 137.742188 53.054688 137.859375 53.65625 C 137.980469 54.261719 138.128906 54.855469 138.308594 55.441406 C 138.484375 56.03125 138.691406 56.609375 138.925781 57.175781 C 139.164062 57.742188 139.425781 58.296875 139.714844 58.839844 C 140.003906 59.378906 140.320312 59.90625 140.660156 60.417969 C 141 60.925781 141.367188 61.421875 141.757812 61.894531 C 142.144531 62.371094 142.558594 62.824219 142.992188 63.257812 C 143.425781 63.691406 143.878906 64.105469 144.355469 64.492188 C 144.828125 64.882812 145.324219 65.25 145.832031 65.589844 C 146.34375 65.929688 146.871094 66.246094 147.410156 66.535156 C 147.953125 66.824219 148.507812 67.085938 149.074219 67.324219 C 149.640625 67.558594 150.21875 67.765625 150.808594 67.941406 C 151.394531 68.121094 151.988281 68.269531 152.59375 68.390625 C 153.195312 68.507812 153.800781 68.597656 154.414062 68.660156 C 155.023438 68.71875 155.636719 68.75 156.25 68.75 C 156.863281 68.75 157.476562 68.71875 158.085938 68.660156 C 158.699219 68.597656 159.304688 68.507812 159.90625 68.390625 C 160.511719 68.269531 161.105469 68.121094 161.691406 67.941406 C 162.28125 67.765625 162.859375 67.558594 163.425781 67.324219 C 163.992188 67.085938 164.546875 66.824219 165.089844 66.535156 C 165.628906 66.246094 166.15625 65.929688 166.667969 65.589844 C 167.175781 65.25 167.671875 64.882812 168.144531 64.492188 C 168.621094 64.105469 169.074219 63.691406 169.507812 63.257812 C 169.941406 62.824219 170.355469 62.371094 170.742188 61.894531 C 171.132812 61.421875 171.5 60.925781 171.839844 60.417969 C 172.179688 59.90625 172.496094 59.378906 172.785156 58.839844 C 173.074219 58.296875 173.335938 57.742188 173.574219 57.175781 C 173.808594 56.609375 174.015625 56.03125 174.191406 55.441406 C 174.371094 54.855469 174.519531 54.261719 174.640625 53.65625 C 174.757812 53.054688 174.847656 52.449219 174.910156 51.835938 C 174.96875 51.226562 175 50.613281 175 50 L 175 43.75 L 225 43.75 L 225 50 C 225 50.613281 225.03125 51.226562 225.089844 51.835938 C 225.152344 52.449219 225.242188 53.054688 225.359375 53.65625 C 225.480469 54.261719 225.628906 54.855469 225.808594 55.441406 C 225.984375 56.03125 226.191406 56.609375 226.425781 57.175781 C 226.664062 57.742188 226.925781 58.296875 227.214844 58.839844 C 227.503906 59.378906 227.820312 59.90625 228.160156 60.417969 C 228.5 60.925781 228.867188 61.421875 229.257812 61.894531 C 229.644531 62.371094 230.058594 62.824219 230.492188 63.257812 C 230.925781 63.691406 231.378906 64.105469 231.855469 64.492188 C 232.328125 64.882812 232.824219 65.25 233.332031 65.589844 C 233.84375 65.929688 234.371094 66.246094 234.910156 66.535156 C 235.453125 66.824219 236.007812 67.085938 236.574219 67.324219 C 237.140625 67.558594 237.71875 67.765625 238.308594 67.941406 C 238.894531 68.121094 239.488281 68.269531 240.09375 68.390625 C 240.695312 68.507812 241.300781 68.597656 241.914062 68.660156 C 242.523438 68.71875 243.136719 68.75 243.75 68.75 C 244.363281 68.75 244.976562 68.71875 245.585938 68.660156 C 246.199219 68.597656 246.804688 68.507812 247.40625 68.390625 C 248.011719 68.269531 248.605469 68.121094 249.191406 67.941406 C 249.78125 67.765625 250.359375 67.558594 250.925781 67.324219 C 251.492188 67.085938 252.046875 66.824219 252.589844 66.535156 C 253.128906 66.246094 253.65625 65.929688 254.167969 65.589844 C 254.675781 65.25 255.171875 64.882812 255.644531 64.492188 C 256.121094 64.105469 256.574219 63.691406 257.007812 63.257812 C 257.441406 62.824219 257.855469 62.371094 258.242188 61.894531 C 258.632812 61.421875 259 60.925781 259.339844 60.417969 C 259.679688 59.90625 259.996094 59.378906 260.285156 58.839844 C 260.574219 58.296875 260.835938 57.742188 261.074219 57.175781 C 261.308594 56.609375 261.515625 56.03125 261.691406 55.441406 C 261.871094 54.855469 262.019531 54.261719 262.140625 53.65625 C 262.257812 53.054688 262.347656 52.449219 262.410156 51.835938 C 262.46875 51.226562 262.5 50.613281 262.5 50 L 262.5 43.75 L 281.25 43.75 C 281.863281 43.75 282.476562 43.78125 283.085938 43.84375 C 283.699219 43.902344 284.304688 43.992188 284.90625 44.113281 C 285.507812 44.234375 286.101562 44.382812 286.691406 44.5625 C 287.277344 44.742188 287.855469 44.949219 288.421875 45.183594 C 288.988281 45.417969 289.542969 45.679688 290.085938 45.96875 C 290.625 46.257812 291.152344 46.574219 291.660156 46.917969 C 292.171875 47.257812 292.664062 47.621094 293.140625 48.011719 C 293.613281 48.402344 294.066406 48.8125 294.503906 49.246094 C 294.9375 49.683594 295.347656 50.136719 295.738281 50.609375 C 296.128906 51.085938 296.492188 51.578125 296.832031 52.085938 C 297.175781 52.597656 297.492188 53.125 297.78125 53.664062 C 298.070312 54.207031 298.332031 54.761719 298.566406 55.328125 C 298.800781 55.894531 299.007812 56.472656 299.1875 57.058594 C 299.367188 57.648438 299.515625 58.242188 299.636719 58.84375 C 299.757812 59.445312 299.847656 60.050781 299.90625 60.664062 C 299.96875 61.273438 300 61.886719 300 62.5 L 300 81.25 L 12.5 81.25 L 12.5 62.5 C 12.5 61.886719 12.53125 61.273438 12.59375 60.664062 C 12.652344 60.050781 12.742188 59.445312 12.863281 58.84375 C 12.984375 58.242188 13.132812 57.648438 13.3125 57.058594 C 13.492188 56.472656 13.699219 55.894531 13.933594 55.328125 C 14.167969 54.761719 14.429688 54.207031 14.71875 53.664062 C 15.007812 53.125 15.324219 52.597656 15.667969 52.089844 C 16.007812 51.578125 16.371094 51.085938 16.761719 50.609375 C 17.152344 50.136719 17.5625 49.683594 17.996094 49.246094 C 18.433594 48.8125 18.886719 48.402344 19.359375 48.011719 C 19.835938 47.621094 20.328125 47.257812 20.839844 46.917969 C 21.347656 46.574219 21.875 46.257812 22.414062 45.96875 C 22.957031 45.679688 23.511719 45.417969 24.078125 45.183594 C 24.644531 44.949219 25.222656 44.742188 25.808594 44.5625 C 26.398438 44.382812 26.992188 44.234375 27.59375 44.113281 C 28.195312 43.992188 28.800781 43.902344 29.414062 43.84375 C 30.023438 43.78125 30.636719 43.75 31.25 43.75 Z M 262.5 143.75 L 262.5 131.25 L 237.5 131.25 L 237.5 149.492188 C 237.5 149.902344 237.460938 150.308594 237.378906 150.710938 C 237.300781 151.113281 237.179688 151.503906 237.023438 151.882812 C 236.867188 152.261719 236.675781 152.621094 236.445312 152.960938 C 236.21875 153.304688 235.960938 153.621094 235.667969 153.910156 C 235.378906 154.199219 235.0625 154.460938 234.722656 154.6875 C 234.382812 154.914062 234.019531 155.109375 233.640625 155.265625 C 233.261719 155.421875 232.871094 155.539062 232.46875 155.621094 C 232.066406 155.699219 231.660156 155.742188 231.25 155.742188 C 230.839844 155.742188 230.433594 155.699219 230.03125 155.621094 C 229.628906 155.539062 229.238281 155.421875 228.859375 155.265625 C 228.480469 155.109375 228.117188 154.914062 227.777344 154.6875 C 227.4375 154.460938 227.121094 154.199219 226.832031 153.910156 C 226.539062 153.621094 226.28125 153.304688 226.054688 152.960938 C 225.824219 152.621094 225.632812 152.261719 225.476562 151.882812 C 225.320312 151.503906 225.199219 151.113281 225.121094 150.710938 C 225.039062 150.308594 225 149.902344 225 149.492188 L 225 125 C 225 124.589844 225.039062 124.183594 225.121094 123.78125 C 225.199219 123.378906 225.316406 122.988281 225.476562 122.609375 C 225.632812 122.230469 225.824219 121.867188 226.054688 121.527344 C 226.28125 121.1875 226.539062 120.871094 226.832031 120.582031 C 227.121094 120.289062 227.4375 120.03125 227.777344 119.804688 C 228.117188 119.574219 228.480469 119.382812 228.859375 119.226562 C 229.238281 119.066406 229.628906 118.949219 230.03125 118.871094 C 230.433594 118.789062 230.839844 118.75 231.25 118.75 L 268.75 118.75 C 269.160156 118.75 269.566406 118.789062 269.96875 118.871094 C 270.371094 118.949219 270.761719 119.066406 271.140625 119.226562 C 271.519531 119.382812 271.882812 119.574219 272.222656 119.804688 C 272.5625 120.03125 272.878906 120.289062 273.167969 120.582031 C 273.460938 120.871094 273.71875 121.1875 273.945312 121.527344 C 274.175781 121.867188 274.367188 122.230469 274.523438 122.609375 C 274.683594 122.988281 274.800781 123.378906 274.878906 123.78125 C 274.960938 124.183594 275 124.589844 275 125 L 275 143.75 C 275 144.160156 274.960938 144.566406 274.878906 144.96875 C 274.800781 145.371094 274.679688 145.761719 274.523438 146.140625 C 274.367188 146.519531 274.175781 146.882812 273.945312 147.222656 C 273.71875 147.5625 273.460938 147.878906 273.167969 148.167969 C 272.878906 148.460938 272.5625 148.71875 272.222656 148.945312 C 271.882812 149.175781 271.519531 149.367188 271.140625 149.523438 C 270.761719 149.679688 270.371094 149.800781 269.96875 149.878906 C 269.566406 149.960938 269.160156 150 268.75 150 C 268.339844 150 267.933594 149.960938 267.53125 149.878906 C 267.128906 149.800781 266.738281 149.679688 266.359375 149.523438 C 265.980469 149.367188 265.617188 149.175781 265.277344 148.945312 C 264.9375 148.71875 264.621094 148.460938 264.332031 148.167969 C 264.039062 147.878906 263.78125 147.5625 263.554688 147.222656 C 263.324219 146.882812 263.132812 146.519531 262.976562 146.140625 C 262.820312 145.761719 262.699219 145.371094 262.621094 144.96875 C 262.539062 144.566406 262.5 144.160156 262.5 143.75 Z M 268.75 187.5 C 267.421875 187.5 266.089844 187.53125 264.761719 187.597656 C 263.433594 187.664062 262.109375 187.761719 260.785156 187.890625 C 259.460938 188.023438 258.144531 188.183594 256.828125 188.378906 C 255.511719 188.574219 254.203125 188.800781 252.898438 189.0625 C 251.59375 189.320312 250.296875 189.613281 249.007812 189.933594 C 247.71875 190.257812 246.4375 190.613281 245.164062 191 C 243.890625 191.382812 242.628906 191.800781 241.378906 192.25 C 240.125 192.699219 238.886719 193.175781 237.65625 193.683594 C 236.429688 194.195312 235.214844 194.730469 234.011719 195.300781 C 232.808594 195.871094 231.621094 196.46875 230.449219 197.09375 C 229.277344 197.71875 228.121094 198.375 226.980469 199.058594 C 225.839844 199.742188 224.714844 200.453125 223.609375 201.191406 C 222.503906 201.933594 221.417969 202.695312 220.347656 203.488281 C 219.28125 204.28125 218.234375 205.097656 217.207031 205.941406 C 216.175781 206.785156 215.171875 207.65625 214.1875 208.546875 C 213.199219 209.441406 212.238281 210.355469 211.296875 211.296875 C 210.355469 212.238281 209.441406 213.199219 208.546875 214.1875 C 207.65625 215.171875 206.785156 216.175781 205.941406 217.207031 C 205.097656 218.234375 204.28125 219.28125 203.488281 220.347656 C 202.695312 221.417969 201.933594 222.503906 201.191406 223.609375 C 200.453125 224.714844 199.742188 225.839844 199.058594 226.980469 C 198.375 228.121094 197.722656 229.277344 197.09375 230.449219 C 196.46875 231.621094 195.871094 232.808594 195.300781 234.011719 C 194.730469 235.214844 194.195312 236.429688 193.683594 237.65625 C 193.175781 238.886719 192.699219 240.125 192.25 241.378906 C 191.800781 242.628906 191.382812 243.890625 191 245.164062 C 190.613281 246.4375 190.257812 247.71875 189.933594 249.007812 C 189.613281 250.296875 189.320312 251.59375 189.0625 252.898438 C 188.800781 254.203125 188.574219 255.511719 188.378906 256.828125 C 188.183594 258.144531 188.023438 259.460938 187.890625 260.785156 C 187.761719 262.109375 187.664062 263.433594 187.597656 264.761719 C 187.53125 266.089844 187.5 267.421875 187.5 268.75 C 187.5 270.078125 187.53125 271.410156 187.597656 272.738281 C 187.664062 274.066406 187.761719 275.390625 187.890625 276.714844 C 188.023438 278.039062 188.183594 279.355469 188.378906 280.671875 C 188.574219 281.988281 188.800781 283.296875 189.0625 284.601562 C 189.320312 285.90625 189.613281 287.203125 189.933594 288.492188 C 190.257812 289.78125 190.613281 291.0625 191 292.335938 C 191.382812 293.609375 191.800781 294.871094 192.25 296.121094 C 192.699219 297.375 193.175781 298.613281 193.683594 299.84375 C 194.195312 301.070312 194.730469 302.285156 195.300781 303.488281 C 195.871094 304.691406 196.46875 305.878906 197.09375 307.050781 C 197.722656 308.222656 198.375 309.378906 199.058594 310.519531 C 199.742188 311.660156 200.453125 312.785156 201.191406 313.890625 C 201.933594 314.996094 202.695312 316.082031 203.488281 317.152344 C 204.28125 318.21875 205.097656 319.265625 205.941406 320.292969 C 206.785156 321.324219 207.65625 322.328125 208.546875 323.3125 C 209.441406 324.300781 210.355469 325.261719 211.296875 326.203125 C 212.238281 327.144531 213.199219 328.058594 214.1875 328.953125 C 215.171875 329.84375 216.175781 330.714844 217.207031 331.558594 C 218.234375 332.402344 219.28125 333.21875 220.347656 334.011719 C 221.417969 334.800781 222.503906 335.566406 223.609375 336.308594 C 224.714844 337.046875 225.839844 337.757812 226.980469 338.441406 C 228.121094 339.125 229.277344 339.777344 230.449219 340.40625 C 231.621094 341.03125 232.808594 341.628906 234.011719 342.199219 C 235.214844 342.765625 236.429688 343.304688 237.65625 343.816406 C 238.886719 344.324219 240.125 344.800781 241.378906 345.25 C 242.628906 345.699219 243.890625 346.117188 245.164062 346.5 C 246.4375 346.886719 247.71875 347.242188 249.007812 347.566406 C 250.296875 347.886719 251.59375 348.179688 252.898438 348.4375 C 254.203125 348.699219 255.511719 348.925781 256.828125 349.121094 C 258.144531 349.316406 259.460938 349.476562 260.785156 349.609375 C 262.109375 349.738281 263.433594 349.835938 264.761719 349.902344 C 266.089844 349.96875 267.421875 350 268.75 350 C 270.078125 350 271.410156 349.96875 272.738281 349.902344 C 274.066406 349.835938 275.390625 349.738281 276.714844 349.609375 C 278.039062 349.476562 279.355469 349.316406 280.671875 349.121094 C 281.988281 348.925781 283.296875 348.699219 284.601562 348.4375 C 285.90625 348.179688 287.203125 347.886719 288.492188 347.566406 C 289.78125 347.242188 291.0625 346.886719 292.335938 346.5 C 293.609375 346.117188 294.871094 345.699219 296.121094 345.25 C 297.375 344.800781 298.613281 344.324219 299.84375 343.816406 C 301.070312 343.304688 302.285156 342.765625 303.488281 342.199219 C 304.691406 341.628906 305.878906 341.03125 307.050781 340.40625 C 308.222656 339.777344 309.378906 339.125 310.519531 338.441406 C 311.660156 337.757812 312.785156 337.046875 313.890625 336.308594 C 314.996094 335.566406 316.082031 334.800781 317.152344 334.011719 C 318.21875 333.21875 319.265625 332.402344 320.292969 331.558594 C 321.324219 330.714844 322.328125 329.84375 323.3125 328.953125 C 324.300781 328.058594 325.261719 327.144531 326.203125 326.203125 C 327.144531 325.261719 328.058594 324.300781 328.953125 323.3125 C 329.84375 322.328125 330.714844 321.324219 331.558594 320.292969 C 332.402344 319.265625 333.21875 318.21875 334.011719 317.152344 C 334.800781 316.082031 335.566406 314.996094 336.308594 313.890625 C 337.046875 312.785156 337.757812 311.660156 338.441406 310.519531 C 339.125 309.378906 339.777344 308.222656 340.40625 307.050781 C 341.03125 305.878906 341.628906 304.691406 342.199219 303.488281 C 342.765625 302.285156 343.304688 301.070312 343.816406 299.84375 C 344.324219 298.613281 344.800781 297.375 345.25 296.121094 C 345.699219 294.871094 346.117188 293.609375 346.5 292.335938 C 346.886719 291.0625 347.242188 289.78125 347.566406 288.492188 C 347.886719 287.203125 348.179688 285.90625 348.4375 284.601562 C 348.699219 283.296875 348.925781 281.988281 349.121094 280.671875 C 349.316406 279.355469 349.476562 278.039062 349.609375 276.714844 C 349.738281 275.390625 349.835938 274.066406 349.902344 272.738281 C 349.96875 271.410156 350 270.078125 350 268.75 C 350 267.421875 349.964844 266.09375 349.898438 264.765625 C 349.832031 263.4375 349.730469 262.113281 349.601562 260.789062 C 349.46875 259.464844 349.304688 258.148438 349.109375 256.832031 C 348.914062 255.519531 348.683594 254.207031 348.421875 252.90625 C 348.164062 251.601562 347.871094 250.304688 347.546875 249.015625 C 347.222656 247.726562 346.867188 246.445312 346.480469 245.175781 C 346.09375 243.902344 345.675781 242.640625 345.226562 241.390625 C 344.777344 240.136719 344.300781 238.898438 343.789062 237.671875 C 343.28125 236.445312 342.742188 235.230469 342.171875 234.027344 C 341.605469 232.824219 341.007812 231.640625 340.378906 230.46875 C 339.75 229.296875 339.097656 228.140625 338.414062 227 C 337.730469 225.859375 337.015625 224.738281 336.277344 223.632812 C 335.539062 222.527344 334.773438 221.441406 333.980469 220.371094 C 333.191406 219.304688 332.371094 218.257812 331.527344 217.230469 C 330.683594 216.203125 329.816406 215.195312 328.925781 214.210938 C 328.03125 213.226562 327.117188 212.265625 326.175781 211.324219 C 325.234375 210.382812 324.273438 209.46875 323.289062 208.574219 C 322.304688 207.683594 321.296875 206.816406 320.269531 205.972656 C 319.242188 205.128906 318.195312 204.308594 317.128906 203.519531 C 316.058594 202.726562 314.972656 201.960938 313.867188 201.222656 C 312.761719 200.484375 311.640625 199.769531 310.5 199.085938 C 309.359375 198.402344 308.203125 197.75 307.03125 197.121094 C 305.859375 196.492188 304.675781 195.894531 303.472656 195.328125 C 302.269531 194.757812 301.054688 194.21875 299.828125 193.710938 C 298.601562 193.199219 297.359375 192.722656 296.109375 192.273438 C 294.859375 191.824219 293.597656 191.40625 292.324219 191.019531 C 291.054688 190.632812 289.773438 190.277344 288.484375 189.953125 C 287.195312 189.628906 285.898438 189.335938 284.59375 189.078125 C 283.292969 188.816406 281.980469 188.585938 280.667969 188.390625 C 279.351562 188.195312 278.035156 188.03125 276.710938 187.898438 C 275.386719 187.769531 274.0625 187.667969 272.734375 187.601562 C 271.40625 187.535156 270.078125 187.5 268.75 187.5 Z M 275 337.183594 L 275 325 C 275 324.589844 274.960938 324.183594 274.878906 323.78125 C 274.800781 323.378906 274.679688 322.988281 274.523438 322.609375 C 274.367188 322.230469 274.175781 321.867188 273.945312 321.527344 C 273.71875 321.1875 273.460938 320.871094 273.167969 320.582031 C 272.878906 320.289062 272.5625 320.03125 272.222656 319.804688 C 271.882812 319.574219 271.519531 319.382812 271.140625 319.226562 C 270.761719 319.070312 270.371094 318.949219 269.96875 318.871094 C 269.566406 318.789062 269.160156 318.75 268.75 318.75 C 268.339844 318.75 267.933594 318.789062 267.53125 318.871094 C 267.128906 318.949219 266.738281 319.070312 266.359375 319.226562 C 265.980469 319.382812 265.617188 319.574219 265.277344 319.804688 C 264.9375 320.03125 264.621094 320.289062 264.332031 320.582031 C 264.039062 320.871094 263.78125 321.1875 263.554688 321.527344 C 263.324219 321.867188 263.132812 322.230469 262.976562 322.609375 C 262.820312 322.988281 262.699219 323.378906 262.621094 323.78125 C 262.539062 324.183594 262.5 324.589844 262.5 325 L 262.5 337.183594 C 260.519531 337 258.550781 336.730469 256.59375 336.378906 C 254.636719 336.023438 252.699219 335.585938 250.78125 335.0625 C 248.863281 334.542969 246.96875 333.9375 245.101562 333.25 C 243.234375 332.566406 241.402344 331.800781 239.601562 330.953125 C 237.800781 330.109375 236.042969 329.1875 234.320312 328.191406 C 232.601562 327.191406 230.925781 326.125 229.300781 324.980469 C 227.671875 323.835938 226.097656 322.625 224.574219 321.347656 C 223.050781 320.066406 221.585938 318.726562 220.179688 317.320312 C 218.773438 315.914062 217.433594 314.449219 216.152344 312.925781 C 214.875 311.402344 213.664062 309.828125 212.519531 308.199219 C 211.375 306.574219 210.308594 304.898438 209.308594 303.179688 C 208.3125 301.457031 207.390625 299.699219 206.546875 297.898438 C 205.699219 296.097656 204.933594 294.265625 204.25 292.398438 C 203.5625 290.53125 202.957031 288.636719 202.4375 286.71875 C 201.914062 284.800781 201.476562 282.863281 201.121094 280.90625 C 200.769531 278.949219 200.5 276.980469 200.316406 275 L 212.5 275 C 212.910156 275 213.316406 274.960938 213.71875 274.878906 C 214.121094 274.800781 214.511719 274.679688 214.890625 274.523438 C 215.269531 274.367188 215.632812 274.175781 215.972656 273.945312 C 216.3125 273.71875 216.628906 273.460938 216.917969 273.167969 C 217.210938 272.878906 217.46875 272.5625 217.695312 272.222656 C 217.925781 271.882812 218.117188 271.519531 218.273438 271.140625 C 218.429688 270.761719 218.550781 270.371094 218.628906 269.96875 C 218.710938 269.566406 218.75 269.160156 218.75 268.75 C 218.75 268.339844 218.710938 267.933594 218.628906 267.53125 C 218.550781 267.128906 218.429688 266.738281 218.273438 266.359375 C 218.117188 265.980469 217.925781 265.617188 217.695312 265.277344 C 217.46875 264.9375 217.210938 264.621094 216.917969 264.332031 C 216.628906 264.039062 216.3125 263.78125 215.972656 263.554688 C 215.632812 263.324219 215.269531 263.132812 214.890625 262.976562 C 214.511719 262.820312 214.121094 262.699219 213.71875 262.621094 C 213.316406 262.539062 212.910156 262.5 212.5 262.5 L 200.316406 262.5 C 200.5 260.519531 200.769531 258.550781 201.121094 256.59375 C 201.476562 254.636719 201.914062 252.699219 202.4375 250.78125 C 202.957031 248.863281 203.5625 246.96875 204.25 245.101562 C 204.933594 243.234375 205.699219 241.402344 206.546875 239.601562 C 207.390625 237.800781 208.3125 236.042969 209.308594 234.320312 C 210.308594 232.601562 211.375 230.925781 212.519531 229.300781 C 213.664062 227.671875 214.875 226.097656 216.152344 224.574219 C 217.433594 223.050781 218.773438 221.585938 220.179688 220.179688 C 221.585938 218.773438 223.050781 217.433594 224.574219 216.152344 C 226.097656 214.875 227.671875 213.664062 229.300781 212.519531 C 230.925781 211.375 232.601562 210.308594 234.320312 209.308594 C 236.042969 208.3125 237.800781 207.390625 239.601562 206.546875 C 241.402344 205.699219 243.234375 204.933594 245.101562 204.25 C 246.96875 203.5625 248.863281 202.957031 250.78125 202.4375 C 252.699219 201.914062 254.636719 201.476562 256.59375 201.121094 C 258.550781 200.769531 260.519531 200.5 262.5 200.316406 L 262.5 212.5 C 262.5 212.910156 262.539062 213.316406 262.621094 213.71875 C 262.699219 214.121094 262.820312 214.511719 262.976562 214.890625 C 263.132812 215.269531 263.324219 215.632812 263.554688 215.972656 C 263.78125 216.3125 264.039062 216.628906 264.332031 216.917969 C 264.621094 217.210938 264.9375 217.46875 265.277344 217.695312 C 265.617188 217.925781 265.980469 218.117188 266.359375 218.273438 C 266.738281 218.429688 267.128906 218.550781 267.53125 218.628906 C 267.933594 218.710938 268.339844 218.75 268.75 218.75 C 269.160156 218.75 269.566406 218.710938 269.96875 218.628906 C 270.371094 218.550781 270.761719 218.429688 271.140625 218.273438 C 271.519531 218.117188 271.882812 217.925781 272.222656 217.695312 C 272.5625 217.46875 272.878906 217.210938 273.167969 216.917969 C 273.460938 216.628906 273.71875 216.3125 273.945312 215.972656 C 274.175781 215.632812 274.367188 215.269531 274.523438 214.890625 C 274.679688 214.511719 274.800781 214.121094 274.878906 213.71875 C 274.960938 213.316406 275 212.910156 275 212.5 L 275 200.316406 C 276.980469 200.5 278.949219 200.769531 280.90625 201.121094 C 282.863281 201.476562 284.800781 201.914062 286.71875 202.4375 C 288.636719 202.957031 290.53125 203.5625 292.398438 204.25 C 294.265625 204.933594 296.097656 205.699219 297.898438 206.546875 C 299.699219 207.390625 301.457031 208.3125 303.179688 209.308594 C 304.898438 210.308594 306.574219 211.375 308.199219 212.519531 C 309.828125 213.664062 311.402344 214.875 312.925781 216.152344 C 314.449219 217.433594 315.914062 218.773438 317.320312 220.179688 C 318.726562 221.585938 320.066406 223.050781 321.347656 224.574219 C 322.625 226.097656 323.835938 227.671875 324.980469 229.300781 C 326.121094 230.925781 327.191406 232.601562 328.191406 234.320312 C 329.1875 236.042969 330.109375 237.800781 330.953125 239.601562 C 331.800781 241.402344 332.566406 243.234375 333.25 245.101562 C 333.9375 246.96875 334.542969 248.863281 335.0625 250.78125 C 335.585938 252.699219 336.023438 254.636719 336.378906 256.59375 C 336.730469 258.550781 337 260.519531 337.183594 262.5 L 325 262.5 C 324.589844 262.5 324.183594 262.539062 323.78125 262.621094 C 323.378906 262.699219 322.988281 262.820312 322.609375 262.976562 C 322.230469 263.132812 321.867188 263.324219 321.527344 263.554688 C 321.1875 263.78125 320.871094 264.039062 320.582031 264.332031 C 320.289062 264.621094 320.03125 264.9375 319.804688 265.277344 C 319.574219 265.617188 319.382812 265.980469 319.226562 266.359375 C 319.070312 266.738281 318.949219 267.128906 318.871094 267.53125 C 318.789062 267.933594 318.75 268.339844 318.75 268.75 C 318.75 269.160156 318.789062 269.566406 318.871094 269.96875 C 318.949219 270.371094 319.070312 270.761719 319.226562 271.140625 C 319.382812 271.519531 319.574219 271.882812 319.804688 272.222656 C 320.03125 272.5625 320.289062 272.878906 320.582031 273.167969 C 320.871094 273.460938 321.1875 273.71875 321.527344 273.945312 C 321.867188 274.175781 322.230469 274.367188 322.609375 274.523438 C 322.988281 274.679688 323.378906 274.800781 323.78125 274.878906 C 324.183594 274.960938 324.589844 275 325 275 L 337.183594 275 C 337 276.980469 336.730469 278.949219 336.378906 280.90625 C 336.023438 282.863281 335.585938 284.800781 335.0625 286.71875 C 334.542969 288.636719 333.9375 290.53125 333.25 292.398438 C 332.566406 294.265625 331.800781 296.097656 330.953125 297.898438 C 330.109375 299.699219 329.1875 301.457031 328.191406 303.179688 C 327.191406 304.898438 326.125 306.574219 324.980469 308.199219 C 323.835938 309.828125 322.625 311.402344 321.347656 312.925781 C 320.066406 314.449219 318.726562 315.914062 317.320312 317.320312 C 315.914062 318.726562 314.449219 320.066406 312.925781 321.347656 C 311.402344 322.625 309.828125 323.835938 308.199219 324.980469 C 306.574219 326.125 304.898438 327.191406 303.179688 328.191406 C 301.457031 329.1875 299.699219 330.109375 297.898438 330.953125 C 296.097656 331.800781 294.265625 332.566406 292.398438 333.25 C 290.53125 333.9375 288.636719 334.542969 286.71875 335.0625 C 284.800781 335.585938 282.863281 336.023438 280.90625 336.378906 C 278.949219 336.730469 276.980469 337 275 337.183594 Z M 291.917969 283.082031 C 292.214844 283.371094 292.476562 283.6875 292.707031 284.027344 C 292.941406 284.367188 293.136719 284.730469 293.296875 285.109375 C 293.457031 285.488281 293.578125 285.882812 293.660156 286.285156 C 293.746094 286.691406 293.785156 287.097656 293.789062 287.511719 C 293.789062 287.925781 293.75 288.332031 293.671875 288.738281 C 293.59375 289.144531 293.476562 289.535156 293.316406 289.917969 C 293.160156 290.300781 292.96875 290.660156 292.738281 291.003906 C 292.511719 291.347656 292.25 291.667969 291.957031 291.957031 C 291.667969 292.25 291.347656 292.511719 291.003906 292.738281 C 290.660156 292.96875 290.300781 293.160156 289.917969 293.316406 C 289.535156 293.476562 289.144531 293.59375 288.738281 293.671875 C 288.332031 293.75 287.925781 293.789062 287.511719 293.789062 C 287.097656 293.785156 286.691406 293.746094 286.285156 293.660156 C 285.882812 293.578125 285.488281 293.457031 285.109375 293.296875 C 284.730469 293.136719 284.367188 292.941406 284.027344 292.707031 C 283.6875 292.476562 283.371094 292.214844 283.082031 291.917969 L 264.332031 273.167969 C 263.746094 272.582031 263.292969 271.90625 262.976562 271.140625 C 262.660156 270.375 262.5 269.578125 262.5 268.75 L 262.5 237.5 C 262.5 237.089844 262.539062 236.683594 262.621094 236.28125 C 262.699219 235.878906 262.820312 235.488281 262.976562 235.109375 C 263.132812 234.730469 263.324219 234.367188 263.554688 234.027344 C 263.78125 233.6875 264.039062 233.371094 264.332031 233.082031 C 264.621094 232.789062 264.9375 232.53125 265.277344 232.304688 C 265.617188 232.074219 265.980469 231.882812 266.359375 231.726562 C 266.738281 231.570312 267.128906 231.449219 267.53125 231.371094 C 267.933594 231.289062 268.339844 231.25 268.75 231.25 C 269.160156 231.25 269.566406 231.289062 269.96875 231.371094 C 270.371094 231.449219 270.761719 231.570312 271.140625 231.726562 C 271.519531 231.882812 271.882812 232.074219 272.222656 232.304688 C 272.5625 232.53125 272.878906 232.789062 273.167969 233.082031 C 273.460938 233.371094 273.71875 233.6875 273.945312 234.027344 C 274.175781 234.367188 274.367188 234.730469 274.523438 235.109375 C 274.679688 235.488281 274.800781 235.878906 274.878906 236.28125 C 274.960938 236.683594 275 237.089844 275 237.5 L 275 266.160156 Z M 291.917969 283.082031 " fill-opacity="1" fill-rule="nonzero"/></svg>