<svg xmlns="http://www.w3.org/2000/svg" xmlns:xlink="http://www.w3.org/1999/xlink" width="500" zoomAndPan="magnify" viewBox="0 0 375 374.999991" height="500" preserveAspectRatio="xMidYMid meet" version="1.0"><defs><clipPath id="a4be9ae1d9"><path d="M 113 0 L 362.953125 0 L 362.953125 291 L 113 291 Z M 113 0 " clip-rule="nonzero"/></clipPath></defs><rect x="-37.5" width="450" fill="#ffffff" y="-37.499999" height="449.999989" fill-opacity="1"/><rect x="-37.5" width="450" fill="#ffffff" y="-37.499999" height="449.999989" fill-opacity="1"/><g clip-path="url(#a4be9ae1d9)"><path fill="#60c6b4" d="M 355.460938 60.308594 C 276.40625 54.941406 254.339844 11.40625 253.394531 9.355469 C 250.632812 3.710938 244.828125 0 238.433594 0 C 232.121094 0 226.238281 3.710938 223.554688 9.355469 C 222.609375 11.25 200.703125 54.902344 121.410156 60.308594 C 117.183594 60.585938 113.949219 64.019531 113.949219 68.203125 L 113.949219 134.789062 C 115.960938 134.433594 118.015625 134.195312 120.105469 134.195312 C 122.117188 134.195312 124.09375 134.355469 126.144531 134.710938 C 127.367188 134.945312 128.671875 135.222656 129.933594 135.5 L 129.933594 75.585938 C 212.425781 67.335938 236.9375 18.433594 238.476562 15.945312 C 238.710938 15.945312 238.910156 16.105469 238.988281 16.222656 C 239.066406 16.222656 239.066406 16.300781 239.066406 16.300781 C 240.09375 18.394531 264.605469 67.296875 347.015625 75.585938 L 347.015625 145.878906 C 347.015625 213.492188 273.601562 258.484375 245.816406 273.050781 C 246.605469 276.246094 247.039062 279.5625 247.039062 282.996094 C 247.039062 285.679688 246.761719 288.285156 246.25 290.851562 C 268.667969 280.117188 363 230.027344 363 145.878906 L 363 68.203125 C 362.960938 63.980469 359.6875 60.585938 355.460938 60.308594 Z M 355.460938 60.308594 " fill-opacity="1" fill-rule="nonzero"/></g><path fill="#60c6b4" d="M 308.453125 146.195312 C 308.453125 107.59375 277.074219 76.214844 238.476562 76.214844 C 199.875 76.214844 168.496094 107.59375 168.496094 146.195312 C 168.496094 184.796875 199.875 216.175781 238.476562 216.175781 C 277.035156 216.175781 308.453125 184.796875 308.453125 146.195312 Z M 238.476562 200.230469 C 208.675781 200.230469 184.441406 175.996094 184.441406 146.195312 C 184.441406 116.394531 208.675781 92.160156 238.476562 92.160156 C 268.273438 92.160156 292.46875 116.394531 292.46875 146.195312 C 292.46875 175.996094 268.234375 200.230469 238.476562 200.230469 Z M 238.476562 200.230469 " fill-opacity="1" fill-rule="nonzero"/><path fill="#60c6b4" d="M 255.328125 126.738281 L 229.59375 152.472656 L 219.648438 142.523438 C 216.53125 139.40625 211.476562 139.40625 208.359375 142.523438 C 205.242188 145.640625 205.242188 150.695312 208.359375 153.8125 L 223.949219 169.402344 C 225.449219 170.902344 227.464844 171.730469 229.59375 171.730469 C 231.726562 171.730469 233.738281 170.902344 235.238281 169.402344 L 266.617188 138.023438 C 269.734375 134.90625 269.734375 129.855469 266.617188 126.738281 C 263.5 123.617188 258.445312 123.617188 255.328125 126.738281 Z M 255.328125 126.738281 " fill-opacity="1" fill-rule="nonzero"/><path fill="#60c6b4" d="M 230.34375 283.074219 C 230.34375 275.8125 227.066406 269.101562 221.34375 264.523438 C 224.777344 259.195312 226.082031 252.761719 224.582031 246.210938 C 222.054688 235.199219 211.515625 227.859375 200.230469 227.859375 L 143.550781 227.859375 C 145.722656 220.949219 148.367188 210.964844 149.511719 200.503906 C 150.300781 193.203125 149.984375 185.074219 148.445312 176.351562 C 146.273438 163.402344 136.25 153.339844 123.382812 151.207031 C 113 149.511719 103.015625 156.261719 100.765625 166.640625 L 95.871094 189.453125 C 93.304688 201.292969 87.304688 211.910156 78.542969 220.28125 L 51.625 245.894531 C 49.140625 248.261719 45.863281 249.566406 42.46875 249.566406 L 20.011719 249.566406 C 15.589844 249.566406 12 253.15625 12 257.578125 C 12 262 15.589844 265.589844 20.011719 265.589844 L 42.507812 265.589844 C 50.085938 265.589844 57.269531 262.710938 62.675781 257.539062 L 89.597656 231.882812 C 100.648438 221.34375 108.265625 207.726562 111.5 192.808594 L 116.394531 170.035156 C 116.871094 168.023438 118.765625 166.757812 120.777344 167.035156 C 126.855469 168.023438 131.671875 172.835938 132.734375 179.035156 C 133.921875 186.296875 134.234375 192.925781 133.605469 198.808594 C 131.789062 215.742188 125.117188 232.121094 124.84375 232.75 C 123.816406 235.238281 124.050781 238.039062 125.550781 240.25 C 127.050781 242.460938 129.539062 243.84375 132.222656 243.84375 L 145.5625 243.84375 L 145.167969 245.617188 C 135.300781 287.296875 101.671875 284.140625 100.214844 284.023438 C 98.042969 283.785156 95.949219 284.339844 94.332031 285.71875 C 92.636719 287.023438 91.609375 288.917969 91.332031 291.007812 C 91.136719 293.179688 91.726562 295.273438 93.03125 296.96875 C 94.332031 298.585938 96.226562 299.691406 98.320312 299.890625 C 98.4375 299.96875 99.738281 300.085938 101.988281 300.085938 C 108.582031 300.085938 125.199219 298.707031 139.5625 286.628906 C 140.394531 292.507812 143.550781 297.914062 148.246094 301.585938 C 145.722656 305.496094 144.378906 309.953125 144.378906 314.53125 C 144.378906 321.597656 147.496094 328.1875 152.984375 332.769531 C 150.261719 336.753906 148.800781 341.332031 148.800781 346.03125 C 148.800781 349.109375 149.472656 352.1875 150.695312 355.1875 C 135.417969 357.671875 117.777344 358.976562 98.238281 358.976562 L 95.238281 358.976562 C 82.253906 358.855469 70.296875 352.109375 63.347656 341.015625 L 59.164062 334.308594 C 57.703125 331.976562 55.179688 330.597656 52.453125 330.597656 L 20.011719 330.597656 C 15.589844 330.597656 12 334.1875 12 338.609375 C 12 343.03125 15.589844 346.621094 20.011719 346.621094 L 47.914062 346.621094 L 49.730469 349.503906 C 59.597656 365.25 76.53125 374.800781 95.003906 375 L 99.582031 375 C 116.75 375 142.167969 373.894531 165.417969 368.605469 C 167.980469 369.433594 170.230469 369.828125 172.519531 369.828125 L 196.953125 369.828125 C 210.015625 369.828125 220.675781 359.171875 220.675781 346.070312 C 220.675781 341.371094 219.253906 336.792969 216.492188 332.808594 C 222.054688 328.230469 225.171875 321.636719 225.171875 314.570312 C 225.171875 309.992188 223.792969 305.535156 221.304688 301.625 C 227.066406 297.085938 230.34375 290.378906 230.34375 283.074219 Z M 168.023438 243.882812 L 201.414062 243.882812 C 205.714844 243.882812 209.1875 247.355469 209.1875 251.578125 C 209.1875 255.882812 205.714844 259.355469 201.414062 259.355469 L 168.023438 259.355469 C 163.757812 259.355469 160.246094 255.882812 160.246094 251.578125 C 160.246094 247.316406 163.796875 243.882812 168.023438 243.882812 Z M 196.953125 353.804688 L 172.519531 353.804688 C 168.21875 353.804688 164.746094 350.292969 164.746094 346.03125 C 164.746094 341.804688 168.21875 338.332031 172.519531 338.332031 L 196.953125 338.332031 C 201.214844 338.332031 204.648438 341.804688 204.648438 346.03125 C 204.6875 350.253906 201.214844 353.804688 196.953125 353.804688 Z M 201.414062 322.308594 L 168.023438 322.308594 C 163.757812 322.308594 160.246094 318.835938 160.246094 314.53125 C 160.246094 310.269531 163.757812 306.835938 168.023438 306.835938 L 201.414062 306.835938 C 205.714844 306.835938 209.1875 310.308594 209.1875 314.53125 C 209.1875 318.835938 205.714844 322.308594 201.414062 322.308594 Z M 206.621094 290.8125 L 162.8125 290.8125 C 158.550781 290.8125 155.117188 287.339844 155.117188 283.035156 C 155.117188 278.773438 158.589844 275.339844 162.8125 275.339844 L 206.621094 275.339844 C 210.886719 275.339844 214.398438 278.8125 214.398438 283.035156 C 214.398438 287.378906 210.886719 290.8125 206.621094 290.8125 Z M 206.621094 290.8125 " fill-opacity="1" fill-rule="nonzero"/></svg>