<svg xmlns="http://www.w3.org/2000/svg" xmlns:xlink="http://www.w3.org/1999/xlink" width="500" zoomAndPan="magnify" viewBox="0 0 375 374.999991" height="500" preserveAspectRatio="xMidYMid meet" version="1.0"><rect x="-37.5" width="450" fill="#ffffff" y="-37.499999" height="449.999989" fill-opacity="1"/><rect x="-37.5" width="450" fill="#ffffff" y="-37.499999" height="449.999989" fill-opacity="1"/><path fill="#60c6b4" d="M 338.324219 69.667969 C 301.667969 33.011719 242.023438 33.011719 205.359375 69.667969 L 182.871094 92.15625 L 160.359375 69.660156 C 142.671875 51.972656 119.0625 42.226562 93.878906 42.226562 C 68.695312 42.226562 45.089844 51.972656 27.417969 69.660156 C 9.730469 87.347656 -0.015625 110.960938 -0.015625 136.128906 C -0.015625 161.296875 9.730469 184.90625 27.417969 202.59375 L 50.042969 225.21875 C 50.179688 225.371094 50.320312 225.519531 50.472656 225.65625 C 50.484375 225.671875 50.5 225.675781 50.515625 225.691406 L 143.136719 318.328125 C 143.144531 318.335938 143.15625 318.347656 143.164062 318.355469 L 155.402344 330.59375 C 162.976562 338.167969 172.917969 341.945312 182.863281 341.945312 C 192.808594 341.945312 202.753906 338.160156 210.324219 330.59375 L 222.578125 318.34375 L 249.910156 291.007812 L 249.917969 291.003906 L 338.332031 202.589844 C 374.953125 165.960938 374.953125 106.324219 338.324219 69.667969 Z M 133.519531 164.773438 C 123.738281 164.773438 115.78125 156.816406 115.78125 147.035156 C 115.78125 137.257812 123.738281 129.296875 133.519531 129.296875 C 143.300781 129.296875 151.257812 137.257812 151.257812 147.035156 C 151.257812 156.816406 143.300781 164.773438 133.519531 164.773438 Z M 125.03125 176.199219 L 142 176.199219 C 153.835938 176.199219 163.46875 184.207031 163.46875 194.058594 L 163.46875 209.144531 C 157.480469 214.488281 153.707031 222.253906 153.707031 230.894531 C 153.707031 238.628906 156.746094 245.671875 161.679688 250.894531 C 149.824219 255.324219 141.476562 265.761719 141.476562 277.914062 L 141.476562 300.53125 L 125.5625 284.617188 L 125.5625 235.992188 C 125.5625 223.847656 117.21875 213.417969 105.371094 208.980469 C 110.316406 203.753906 113.351562 196.714844 113.351562 188.972656 C 113.351562 185.835938 112.851562 182.8125 111.929688 179.984375 C 115.675781 177.546875 120.273438 176.199219 125.03125 176.199219 Z M 232.199219 164.773438 C 222.417969 164.773438 214.460938 156.816406 214.460938 147.035156 C 214.460938 137.257812 222.417969 129.296875 232.199219 129.296875 C 241.980469 129.296875 249.9375 137.257812 249.9375 147.035156 C 249.9375 156.816406 241.980469 164.773438 232.199219 164.773438 Z M 223.71875 176.199219 L 240.707031 176.199219 C 245.472656 176.199219 250.082031 177.554688 253.816406 179.992188 C 252.894531 182.820312 252.394531 185.84375 252.394531 188.980469 C 252.394531 196.714844 255.433594 203.757812 260.367188 208.980469 C 248.507812 213.410156 240.164062 223.847656 240.164062 236 L 240.164062 284.628906 L 224.25 300.546875 L 224.25 277.921875 C 224.25 265.777344 215.90625 255.347656 204.058594 250.910156 C 209.003906 245.679688 212.039062 238.644531 212.039062 230.898438 C 212.039062 222.253906 208.253906 214.484375 202.257812 209.132812 L 202.257812 194.058594 C 202.253906 184.207031 211.882812 176.199219 223.71875 176.199219 Z M 273.050781 218.132812 L 290.039062 218.132812 C 294.796875 218.132812 299.304688 219.433594 302.988281 221.785156 L 251.582031 273.191406 L 251.582031 235.984375 C 251.582031 226.148438 261.210938 218.132812 273.050781 218.132812 Z M 281.550781 206.710938 C 271.769531 206.710938 263.8125 198.75 263.8125 188.972656 C 263.8125 179.191406 271.769531 171.234375 281.550781 171.234375 C 291.332031 171.234375 299.289062 179.191406 299.289062 188.972656 C 299.289062 198.75 291.339844 206.710938 281.550781 206.710938 Z M 200.609375 230.894531 C 200.609375 240.671875 192.652344 248.632812 182.871094 248.632812 C 173.089844 248.632812 165.132812 240.671875 165.132812 230.894531 C 165.132812 221.113281 173.089844 213.152344 182.871094 213.152344 C 192.652344 213.152344 200.609375 221.113281 200.609375 230.894531 Z M 101.929688 188.972656 C 101.929688 198.75 93.972656 206.710938 84.191406 206.710938 C 74.394531 206.710938 66.429688 198.75 66.429688 188.972656 C 66.429688 179.191406 74.394531 171.234375 84.191406 171.234375 C 93.972656 171.234375 101.929688 179.191406 101.929688 188.972656 Z M 75.683594 218.132812 L 92.671875 218.132812 C 104.507812 218.132812 114.136719 226.140625 114.136719 235.992188 L 114.136719 273.191406 L 62.746094 221.792969 C 66.4375 219.433594 70.9375 218.132812 75.683594 218.132812 Z M 202.246094 322.535156 C 191.558594 333.222656 174.167969 333.222656 163.480469 322.535156 L 152.902344 311.957031 L 152.902344 277.914062 C 152.902344 268.0625 162.53125 260.054688 174.371094 260.054688 L 191.359375 260.054688 C 203.195312 260.054688 212.824219 268.0625 212.824219 277.914062 L 212.824219 311.960938 Z M 311.191406 213.589844 C 308.632812 211.667969 305.789062 210.117188 302.738281 208.980469 C 307.675781 203.753906 310.710938 196.714844 310.710938 188.972656 C 310.710938 172.890625 297.632812 159.808594 281.550781 159.808594 C 272.699219 159.808594 264.769531 163.773438 259.417969 170.019531 C 257.519531 168.847656 255.488281 167.855469 253.367188 167.0625 C 258.320312 161.832031 261.363281 154.78125 261.363281 147.027344 C 261.363281 130.949219 248.28125 117.867188 232.199219 117.867188 C 216.117188 117.867188 203.039062 130.949219 203.039062 147.027344 C 203.039062 154.773438 206.074219 161.816406 211.019531 167.039062 C 199.171875 171.46875 190.828125 181.90625 190.828125 194.050781 L 190.828125 202.839844 C 188.300781 202.117188 185.628906 201.722656 182.871094 201.722656 C 180.105469 201.722656 177.425781 202.117188 174.890625 202.84375 L 174.890625 194.050781 C 174.890625 181.914062 166.546875 171.476562 154.703125 167.039062 C 159.644531 161.808594 162.683594 154.773438 162.683594 147.027344 C 162.683594 130.949219 149.601562 117.867188 133.519531 117.867188 C 117.4375 117.867188 104.359375 130.949219 104.359375 147.027344 C 104.359375 154.78125 107.410156 161.839844 112.359375 167.066406 C 110.246094 167.859375 108.214844 168.847656 106.324219 170.019531 C 100.972656 163.773438 93.035156 159.808594 84.191406 159.808594 C 68.101562 159.808594 55.007812 172.890625 55.007812 188.972656 C 55.007812 196.714844 58.050781 203.753906 62.996094 208.980469 C 59.949219 210.117188 57.109375 211.667969 54.550781 213.589844 L 35.496094 194.535156 C 19.964844 179.003906 11.40625 158.265625 11.40625 136.140625 C 11.40625 114.015625 19.960938 93.277344 35.496094 77.746094 C 51.019531 62.214844 71.753906 53.664062 93.886719 53.664062 C 116.015625 53.664062 136.757812 62.214844 152.289062 77.746094 L 178.835938 104.273438 C 181.0625 106.5 184.679688 106.5 186.90625 104.273438 L 213.433594 77.746094 C 245.636719 45.542969 298.039062 45.542969 330.242188 77.746094 C 362.429688 109.945312 362.429688 162.339844 330.242188 194.535156 Z M 311.191406 213.589844 " fill-opacity="1" fill-rule="nonzero"/></svg>