<svg xmlns="http://www.w3.org/2000/svg" xmlns:xlink="http://www.w3.org/1999/xlink" width="500" zoomAndPan="magnify" viewBox="0 0 375 374.999991" height="500" preserveAspectRatio="xMidYMid meet" version="1.0"><defs><clipPath id="daed819156"><path d="M 1 1.640625 L 374 1.640625 L 374 373.640625 L 1 373.640625 Z M 1 1.640625 " clip-rule="nonzero"/></clipPath></defs><rect x="-37.5" width="450" fill="#ffffff" y="-37.499999" height="449.999989" fill-opacity="1"/><rect x="-37.5" width="450" fill="#ffffff" y="-37.499999" height="449.999989" fill-opacity="1"/><g clip-path="url(#daed819156)"><path fill="#60c6b4" d="M 201.472656 135.109375 L 193.816406 135.109375 L 193.816406 193.613281 L 205.710938 193.613281 C 207.355469 167.871094 219.023438 159.390625 229.4375 151.839844 C 240.402344 143.855469 249.890625 136.984375 249.890625 107.90625 C 249.890625 73.503906 221.90625 45.515625 187.5 45.515625 C 153.09375 45.515625 125.109375 73.503906 125.109375 107.90625 C 125.109375 136.984375 134.597656 143.855469 145.585938 151.839844 C 155.976562 159.390625 167.664062 167.871094 169.289062 193.613281 L 181.183594 193.613281 L 181.183594 135.109375 L 173.546875 135.109375 C 170.050781 135.109375 167.230469 132.292969 167.230469 128.792969 C 167.230469 125.316406 170.050781 122.476562 173.546875 122.476562 L 201.472656 122.476562 C 204.949219 122.476562 207.769531 125.316406 207.769531 128.792969 C 207.769531 132.292969 204.949219 135.109375 201.472656 135.109375 Z M 157.375 373.269531 C 155.152344 373.269531 153.054688 372.097656 151.921875 370.125 L 62.71875 215.628906 C 61.03125 212.6875 51.195312 195.976562 50.597656 194.539062 L 31.914062 150.253906 C 14.117188 148.898438 4.175781 134.203125 2.222656 113.667969 C 0 90.148438 8.785156 56.875 25.414062 44.550781 C 29.054688 41.75 34.136719 43.5 35.414062 47.761719 C 35.90625 49.28125 43.171875 71.648438 58.007812 79.324219 C 86.238281 93.933594 87.414062 111.980469 80.992188 124.308594 L 108.730469 160.957031 C 109.636719 162.191406 119.328125 179.226562 120.933594 182.027344 C 121.179688 182.4375 121.386719 182.890625 121.507812 183.34375 L 168.960938 333.453125 C 169.269531 334.421875 169.332031 335.449219 169.144531 336.457031 L 163.589844 368.066406 C 163.074219 371.050781 160.398438 373.269531 157.375 373.269531 Z M 70.496094 203.859375 L 106.859375 182.871094 L 101.382812 173.40625 L 65.023438 194.394531 Z M 76.816406 214.785156 L 154.164062 348.785156 L 156.449219 335.78125 L 111.816406 194.578125 Z M 38.335938 137.539062 C 49.921875 136.46875 68.253906 127.003906 71.21875 114.820312 C 73.789062 104.203125 62.308594 95.746094 52.203125 90.539062 C 45.207031 86.917969 39.632812 81.199219 35.3125 75.25 C 36.359375 86.734375 39.445312 99.449219 47.308594 106.980469 C 51.464844 110.972656 48.460938 117.847656 42.945312 117.847656 C 41.382812 117.847656 39.796875 117.269531 38.582031 116.097656 C 26.234375 104.285156 22.882812 84.46875 22.304688 69.34375 C 16.667969 81.566406 13.457031 98.234375 14.796875 112.476562 C 15.472656 119.511719 17.945312 131.984375 27.019531 136.261719 C 30.578125 137.929688 34.527344 137.828125 38.335938 137.539062 Z M 45.167969 149.207031 L 59.449219 183.035156 L 94.347656 162.890625 L 73.007812 134.65625 C 65.660156 141.613281 55.433594 146.941406 45.167969 149.207031 Z M 217.625 373.269531 C 214.601562 373.269531 211.925781 371.050781 211.410156 368.066406 L 205.855469 336.457031 C 205.667969 335.449219 205.753906 334.421875 206.039062 333.453125 L 253.492188 183.34375 L 254.128906 181.921875 C 255.917969 178.878906 265.28125 162.3125 266.269531 160.976562 L 294.007812 124.308594 C 287.585938 111.980469 288.761719 93.933594 317.011719 79.324219 C 329.75 72.71875 337.632812 54.242188 339.605469 47.675781 C 340.925781 43.273438 346.171875 41.9375 349.585938 44.550781 C 366.214844 56.875 375 90.148438 372.777344 113.667969 C 370.824219 134.203125 360.882812 148.898438 343.105469 150.253906 L 324.421875 194.515625 L 324.070312 195.238281 L 223.097656 370.125 C 221.945312 372.097656 219.847656 373.269531 217.625 373.269531 Z M 268.140625 182.871094 L 304.503906 203.859375 L 309.976562 194.394531 L 273.617188 173.40625 Z M 218.550781 335.78125 L 220.835938 348.785156 L 298.207031 214.785156 L 263.183594 194.578125 Z M 306.785156 121.054688 C 313.515625 130.582031 328.515625 137.746094 340.140625 137.746094 C 343.230469 137.746094 345.882812 137.25 347.980469 136.261719 C 357.054688 131.984375 359.546875 119.511719 360.203125 112.476562 C 361.5625 98.234375 358.332031 81.566406 352.695312 69.34375 C 352.117188 84.46875 348.765625 104.285156 336.4375 116.097656 C 333.90625 118.503906 329.914062 118.421875 327.507812 115.910156 C 325.101562 113.402344 325.183594 109.390625 327.691406 106.980469 C 335.554688 99.449219 338.640625 86.734375 339.6875 75.25 C 335.367188 81.21875 329.792969 86.917969 322.796875 90.539062 C 312.710938 95.746094 301.210938 104.203125 303.800781 114.820312 C 304.359375 117.144531 305.40625 119.121094 306.785156 121.054688 Z M 280.652344 162.890625 L 315.574219 183.035156 L 329.851562 149.207031 C 319.585938 146.941406 309.359375 141.613281 302.011719 134.65625 Z M 187.5 27.078125 C 184.023438 27.078125 181.183594 24.261719 181.183594 20.78125 L 181.183594 8.046875 C 181.183594 4.546875 184.023438 1.726562 187.5 1.726562 C 191 1.726562 193.816406 4.546875 193.816406 8.046875 L 193.816406 20.78125 C 193.816406 24.261719 191 27.078125 187.5 27.078125 Z M 236.886719 40.332031 C 232.152344 40.332031 228.984375 35.105469 231.433594 30.867188 L 237.789062 19.816406 C 239.539062 16.8125 243.410156 15.761719 246.414062 17.511719 C 249.4375 19.261719 250.464844 23.109375 248.738281 26.132812 L 242.359375 37.164062 C 241.1875 39.199219 239.066406 40.332031 236.886719 40.332031 Z M 138.113281 40.332031 C 135.933594 40.332031 133.8125 39.199219 132.640625 37.164062 L 126.28125 26.132812 C 124.535156 23.109375 125.5625 19.261719 128.585938 17.511719 C 131.613281 15.761719 135.460938 16.8125 137.210938 19.816406 L 143.566406 30.867188 C 146.015625 35.105469 142.847656 40.332031 138.113281 40.332031 Z M 218.160156 220.957031 C 218.160156 224.457031 215.320312 227.277344 211.84375 227.277344 L 163.15625 227.277344 C 159.679688 227.277344 156.859375 224.457031 156.859375 220.957031 L 156.859375 199.929688 C 156.859375 175.625 148.609375 169.640625 138.15625 162.046875 C 126.136719 153.320312 112.496094 143.421875 112.496094 107.90625 C 112.496094 66.546875 146.140625 32.882812 187.5 32.882812 C 228.859375 32.882812 262.523438 66.546875 262.523438 107.90625 C 262.523438 143.421875 248.882812 153.320312 236.84375 162.046875 C 226.390625 169.640625 218.160156 175.625 218.160156 199.929688 Z M 169.472656 214.660156 L 205.527344 214.660156 L 205.527344 206.246094 L 169.472656 206.246094 Z M 212.480469 249.355469 L 162.519531 249.355469 C 159.042969 249.355469 156.203125 246.535156 156.203125 243.058594 C 156.203125 239.558594 159.042969 236.742188 162.519531 236.742188 L 212.480469 236.742188 C 215.980469 236.742188 218.796875 239.558594 218.796875 243.058594 C 218.796875 246.535156 215.980469 249.355469 212.480469 249.355469 Z M 201.472656 271.230469 L 173.546875 271.230469 C 170.050781 271.230469 167.230469 268.410156 167.230469 264.910156 C 167.230469 261.433594 170.050781 258.59375 173.546875 258.59375 L 201.472656 258.59375 C 204.949219 258.59375 207.769531 261.433594 207.769531 264.910156 C 207.769531 268.410156 204.949219 271.230469 201.472656 271.230469 Z M 201.472656 271.230469 " fill-opacity="1" fill-rule="evenodd"/></g></svg>