<svg xmlns="http://www.w3.org/2000/svg" xmlns:xlink="http://www.w3.org/1999/xlink" width="500" zoomAndPan="magnify" viewBox="0 0 375 225" height="300" preserveAspectRatio="xMidYMid meet" version="1.0"><defs><clipPath id="7884d7e952"><path d="M 6.5625 70.65625 L 80.457031 70.65625 L 80.457031 210.941406 L 6.5625 210.941406 Z M 6.5625 70.65625 " clip-rule="nonzero"/></clipPath><clipPath id="6c12f551c7"><path d="M 79.582031 72.796875 L 79.582031 91.691406 C 79.582031 92.871094 78.621094 93.839844 77.441406 93.839844 L 35.507812 93.839844 C 34.324219 93.839844 33.355469 94.800781 33.355469 95.980469 L 33.355469 125.59375 C 33.355469 126.777344 34.3125 127.734375 35.507812 127.734375 L 73.097656 127.734375 C 74.28125 127.734375 75.238281 128.691406 75.238281 129.886719 L 75.238281 148.636719 C 75.238281 149.816406 74.28125 150.789062 73.097656 150.789062 L 35.507812 150.789062 C 34.324219 150.789062 33.355469 151.746094 33.355469 152.925781 L 33.355469 185.519531 C 33.355469 186.699219 34.3125 187.671875 35.507812 187.671875 L 78.308594 187.671875 C 79.488281 187.671875 80.445312 188.628906 80.445312 189.824219 L 80.445312 208.71875 C 80.445312 209.898438 79.488281 210.871094 78.308594 210.871094 L 8.710938 210.871094 C 7.53125 210.871094 6.5625 209.914062 6.5625 208.71875 L 6.5625 72.796875 C 6.5625 71.613281 7.519531 70.65625 8.710938 70.65625 L 77.441406 70.65625 C 78.621094 70.65625 79.582031 71.613281 79.582031 72.796875 " clip-rule="nonzero"/></clipPath><clipPath id="f0ac588f08"><path d="M 39.757812 13.558594 L 77.929688 13.558594 L 77.929688 51.140625 L 39.757812 51.140625 Z M 39.757812 13.558594 " clip-rule="nonzero"/></clipPath><clipPath id="0f637a323a"><path d="M 53.601562 50.714844 L 39.953125 14.40625 C 39.808594 14.011719 40.097656 13.59375 40.519531 13.59375 L 49.925781 13.59375 C 50.1875 13.59375 50.425781 13.765625 50.503906 14.011719 L 58.257812 37.578125 C 58.441406 38.128906 59.214844 38.128906 59.398438 37.578125 L 67.167969 14.011719 C 67.246094 13.765625 67.484375 13.59375 67.746094 13.59375 L 77.152344 13.59375 C 77.574219 13.59375 77.863281 14.011719 77.71875 14.40625 L 64.070312 50.714844 C 63.980469 50.949219 63.757812 51.105469 63.507812 51.105469 L 54.164062 51.105469 C 53.914062 51.105469 53.691406 50.949219 53.601562 50.714844 " clip-rule="nonzero"/></clipPath><clipPath id="63797272b6"><path d="M 6.527344 13.558594 L 46.285156 13.558594 L 46.285156 51.140625 L 6.527344 51.140625 Z M 6.527344 13.558594 " clip-rule="nonzero"/></clipPath><clipPath id="fac7073642"><path d="M 20.808594 42.367188 L 31.898438 42.277344 C 32.304688 42.277344 32.59375 41.871094 32.460938 41.476562 L 27.34375 26.347656 C 26.910156 25.125 26.597656 23.867188 26.375 22.542969 L 25.402344 26.347656 L 20.234375 41.566406 C 20.101562 41.960938 20.390625 42.367188 20.808594 42.367188 M 6.601562 50.28125 L 20.863281 13.972656 C 20.953125 13.738281 21.175781 13.59375 21.425781 13.59375 L 31.320312 13.59375 C 31.570312 13.59375 31.792969 13.75 31.882812 13.972656 L 46.148438 50.28125 C 46.304688 50.675781 46.015625 51.105469 45.582031 51.105469 L 7.164062 51.105469 C 6.746094 51.105469 6.441406 50.675781 6.601562 50.28125 " clip-rule="nonzero"/></clipPath><clipPath id="6b022ec664"><path d="M 100.789062 13.5625 L 128 13.5625 L 128 51.140625 L 100.789062 51.140625 Z M 100.789062 13.5625 " clip-rule="nonzero"/></clipPath><clipPath id="907e857fcf"><path d="M 110.742188 14.199219 L 110.742188 41.660156 C 110.742188 41.988281 111.019531 42.265625 111.347656 42.265625 L 127.289062 42.265625 C 127.617188 42.265625 127.894531 42.539062 127.894531 42.867188 L 127.894531 50.503906 C 127.894531 50.832031 127.617188 51.109375 127.289062 51.109375 L 101.425781 51.109375 C 101.097656 51.109375 100.824219 50.832031 100.824219 50.503906 L 100.824219 14.199219 C 100.824219 13.871094 101.097656 13.59375 101.425781 13.59375 L 110.140625 13.59375 C 110.46875 13.59375 110.742188 13.871094 110.742188 14.199219 " clip-rule="nonzero"/></clipPath><clipPath id="91077142eb"><path d="M 130.261719 13.5625 L 170.214844 13.5625 L 170.214844 51.140625 L 130.261719 51.140625 Z M 130.261719 13.5625 " clip-rule="nonzero"/></clipPath><clipPath id="0fe4fc3ab9"><path d="M 144.675781 42.371094 L 155.761719 42.277344 C 156.167969 42.277344 156.457031 41.871094 156.328125 41.476562 L 151.195312 26.347656 C 150.761719 25.128906 150.449219 23.867188 150.226562 22.542969 L 149.253906 26.347656 L 144.085938 41.570312 C 143.953125 41.960938 144.242188 42.371094 144.660156 42.371094 M 130.464844 50.28125 L 144.726562 13.976562 C 144.820312 13.738281 145.042969 13.59375 145.292969 13.59375 L 155.183594 13.59375 C 155.433594 13.59375 155.65625 13.753906 155.75 13.976562 L 170.011719 50.28125 C 170.167969 50.675781 169.878906 51.109375 169.449219 51.109375 L 131.027344 51.109375 C 130.609375 51.109375 130.308594 50.675781 130.464844 50.28125 " clip-rule="nonzero"/></clipPath><clipPath id="6dc56d3b53"><path d="M 95.402344 70.105469 L 368.886719 70.105469 L 368.886719 211.957031 L 95.402344 211.957031 Z M 95.402344 70.105469 " clip-rule="nonzero"/></clipPath><clipPath id="03246f2165"><path d="M 122.757812 72.808594 L 122.757812 185.347656 C 122.757812 186.53125 123.71875 187.5 124.898438 187.5 L 366.289062 187.5 C 367.472656 187.5 368.441406 188.457031 368.441406 189.652344 L 368.441406 209.269531 C 368.441406 210.449219 367.484375 211.421875 366.289062 211.421875 L 98.09375 211.421875 C 96.910156 211.421875 95.953125 210.464844 95.953125 209.269531 L 95.953125 72.808594 C 95.953125 71.613281 96.910156 70.65625 98.09375 70.65625 L 120.609375 70.65625 C 121.789062 70.65625 122.746094 71.613281 122.746094 72.796875 " clip-rule="nonzero"/></clipPath><clipPath id="16dbd4e6be"><path d="M 140 70.105469 L 166.929688 70.105469 L 166.929688 172.285156 L 140 172.285156 Z M 140 70.105469 " clip-rule="nonzero"/></clipPath><clipPath id="320c2d1a03"><path d="M 166.847656 72.808594 L 166.847656 169.933594 C 166.847656 171.113281 165.890625 172.082031 164.707031 172.082031 L 142.191406 172.082031 C 141.011719 172.082031 140.054688 171.125 140.054688 169.933594 L 140.054688 72.808594 C 140.054688 71.628906 141.011719 70.667969 142.191406 70.667969 L 164.695312 70.667969 C 165.875 70.667969 166.835938 71.628906 166.835938 72.808594 " clip-rule="nonzero"/></clipPath><clipPath id="e4225e1442"><path d="M 185.5625 70.105469 L 270.3125 70.105469 L 270.3125 172.285156 L 185.5625 172.285156 Z M 185.5625 70.105469 " clip-rule="nonzero"/></clipPath><clipPath id="dabbdb97a2"><path d="M 227.402344 93.839844 L 214.921875 93.839844 C 213.742188 93.839844 212.785156 94.800781 212.785156 95.992188 L 212.785156 114.875 C 212.785156 116.054688 213.742188 117.015625 214.921875 117.015625 L 227.414062 117.015625 C 237.648438 117.015625 242.765625 113.15625 242.765625 105.425781 C 242.765625 97.699219 237.648438 93.839844 227.414062 93.839844 M 226.101562 70.65625 C 255.558594 70.65625 270.296875 82.242188 270.296875 105.425781 C 270.296875 128.417969 255.558594 140.003906 226.101562 140.199219 L 214.921875 140.199219 C 213.742188 140.199219 212.785156 141.15625 212.785156 142.351562 L 212.785156 169.933594 C 212.785156 171.113281 211.828125 172.070312 210.632812 172.070312 L 188.117188 172.070312 C 186.9375 172.070312 185.976562 171.113281 185.976562 169.933594 L 185.976562 72.796875 C 185.976562 71.613281 186.9375 70.65625 188.117188 70.65625 Z M 226.101562 70.65625 " clip-rule="nonzero"/></clipPath><clipPath id="2f04d979e2"><path d="M 260.695312 70.105469 L 367.683594 70.105469 L 367.683594 172.285156 L 260.695312 172.285156 Z M 260.695312 70.105469 " clip-rule="nonzero"/></clipPath><clipPath id="8431ec83da"><path d="M 299.910156 148.476562 L 328.460938 148.253906 C 329.917969 148.242188 330.941406 146.8125 330.480469 145.421875 L 316.835938 105.164062 C 316.640625 104.613281 316.457031 104.0625 316.285156 103.511719 C 315.640625 101.492188 312.820312 101.492188 312.179688 103.511719 L 311.8125 104.613281 L 297.863281 145.644531 C 297.390625 147.046875 298.441406 148.492188 299.910156 148.476562 M 261.003906 169.210938 L 299.1875 72.019531 C 299.515625 71.195312 300.304688 70.65625 301.183594 70.65625 L 327.253906 70.65625 C 328.132812 70.65625 328.933594 71.195312 329.25 72.019531 L 367.433594 169.210938 C 367.984375 170.613281 366.945312 172.136719 365.4375 172.136719 L 263.011719 172.136719 C 261.503906 172.136719 260.46875 170.613281 261.019531 169.210938 " clip-rule="nonzero"/></clipPath><clipPath id="b61a6111e9"><path d="M 185.847656 13.460938 L 219.804688 13.460938 L 219.804688 51.238281 L 185.847656 51.238281 Z M 185.847656 13.460938 " clip-rule="nonzero"/></clipPath><clipPath id="0e85f68e89"><path d="M 185.976562 50.503906 L 185.976562 14.195312 C 185.976562 13.867188 186.253906 13.59375 186.582031 13.59375 L 195.03125 13.59375 C 195.226562 13.59375 195.410156 13.699219 195.527344 13.855469 L 208.792969 33.316406 C 209.136719 33.8125 209.921875 33.5625 209.898438 32.960938 L 209.816406 28.917969 L 209.816406 14.195312 C 209.816406 13.867188 210.09375 13.59375 210.421875 13.59375 L 219.132812 13.59375 C 219.460938 13.59375 219.738281 13.867188 219.738281 14.195312 L 219.738281 50.503906 C 219.738281 50.832031 219.460938 51.105469 219.132812 51.105469 L 210.683594 51.105469 C 210.488281 51.105469 210.304688 51.003906 210.183594 50.84375 L 196.917969 31.425781 C 196.578125 30.925781 195.792969 31.175781 195.816406 31.78125 L 195.894531 35.769531 L 195.894531 50.503906 C 195.894531 50.832031 195.621094 51.105469 195.292969 51.105469 L 186.582031 51.105469 C 186.253906 51.105469 185.976562 50.832031 185.976562 50.503906 " clip-rule="nonzero"/></clipPath><clipPath id="a4c6adf7cc"><path d="M 226.234375 13.460938 L 260.390625 13.460938 L 260.390625 52 L 226.234375 52 Z M 226.234375 13.460938 " clip-rule="nonzero"/></clipPath><clipPath id="98df65f518"><path d="M 259.585938 13.59375 L 260.191406 13.867188 L 260.191406 36.804688 C 260.191406 39.519531 259.703125 41.882812 258.746094 43.902344 C 257.789062 45.925781 256.476562 47.5 254.835938 48.613281 C 253.195312 49.730469 251.414062 50.570312 249.46875 51.105469 L 243.304688 51.90625 C 241.125 51.90625 239.066406 51.644531 237.136719 51.105469 C 235.207031 50.570312 233.421875 49.742188 231.769531 48.613281 C 230.117188 47.484375 228.816406 45.910156 227.859375 43.902344 C 226.902344 41.894531 226.417969 39.519531 226.417969 36.804688 L 226.417969 14.195312 C 226.417969 13.867188 226.691406 13.59375 227.019531 13.59375 L 235.730469 13.59375 C 236.058594 13.59375 236.335938 13.867188 236.335938 14.195312 L 236.335938 36.265625 C 236.335938 40.808594 238.660156 43.078125 243.304688 43.078125 C 247.949219 43.078125 250.269531 40.808594 250.269531 36.265625 L 250.269531 14.195312 C 250.269531 13.867188 250.546875 13.59375 250.875 13.59375 Z M 259.585938 13.59375 " clip-rule="nonzero"/></clipPath><clipPath id="8f7cc9fea7"><path d="M 266.820312 13.460938 L 294.347656 13.460938 L 294.347656 51.238281 L 266.820312 51.238281 Z M 266.820312 13.460938 " clip-rule="nonzero"/></clipPath><clipPath id="57b8eec542"><path d="M 293.898438 14.195312 L 293.898438 21.570312 C 293.898438 21.898438 293.625 22.175781 293.296875 22.175781 L 277.40625 22.175781 C 277.078125 22.175781 276.800781 22.449219 276.800781 22.777344 L 276.800781 27.304688 C 276.800781 27.632812 277.078125 27.910156 277.40625 27.910156 L 291.695312 27.910156 C 292.023438 27.910156 292.296875 28.183594 292.296875 28.511719 L 292.296875 35.820312 C 292.296875 36.148438 292.023438 36.425781 291.695312 36.425781 L 277.40625 36.425781 C 277.078125 36.425781 276.800781 36.699219 276.800781 37.027344 L 276.800781 41.933594 C 276.800781 42.261719 277.078125 42.539062 277.40625 42.539062 L 293.625 42.539062 C 293.953125 42.539062 294.226562 42.800781 294.226562 43.140625 L 294.226562 50.515625 C 294.226562 50.84375 293.953125 51.121094 293.625 51.121094 L 267.5 51.121094 C 267.171875 51.121094 266.894531 50.84375 266.894531 50.515625 L 266.894531 14.195312 C 266.894531 13.867188 267.171875 13.59375 267.5 13.59375 L 293.296875 13.59375 C 293.625 13.59375 293.898438 13.867188 293.898438 14.195312 " clip-rule="nonzero"/></clipPath><clipPath id="659073fb8f"><path d="M 296.757812 13.460938 L 334.734375 13.460938 L 334.734375 51.238281 L 296.757812 51.238281 Z M 296.757812 13.460938 " clip-rule="nonzero"/></clipPath><clipPath id="c3b31ff73b"><path d="M 310.523438 50.714844 L 296.878906 14.40625 C 296.734375 14.011719 297.023438 13.59375 297.441406 13.59375 L 306.847656 13.59375 C 307.113281 13.59375 307.347656 13.765625 307.425781 14.011719 L 315.179688 37.578125 C 315.367188 38.128906 316.140625 38.128906 316.324219 37.578125 L 324.078125 14.011719 C 324.15625 13.765625 324.394531 13.59375 324.65625 13.59375 L 334.0625 13.59375 C 334.484375 13.59375 334.773438 14.011719 334.628906 14.40625 L 320.996094 50.714844 C 320.902344 50.949219 320.679688 51.105469 320.429688 51.105469 L 311.085938 51.105469 C 310.839844 51.105469 310.617188 50.949219 310.523438 50.714844 " clip-rule="nonzero"/></clipPath><clipPath id="00276d4d0a"><path d="M 328.707031 13.460938 L 368.492188 13.460938 L 368.492188 51.238281 L 328.707031 51.238281 Z M 328.707031 13.460938 " clip-rule="nonzero"/></clipPath><clipPath id="feb95f1933"><path d="M 343.0625 42.367188 L 354.152344 42.277344 C 354.558594 42.277344 354.847656 41.871094 354.714844 41.476562 L 349.585938 26.347656 C 349.152344 25.125 348.835938 23.867188 348.628906 22.542969 L 347.65625 26.347656 L 342.488281 41.566406 C 342.355469 41.960938 342.644531 42.367188 343.0625 42.367188 M 328.855469 50.28125 L 343.117188 13.972656 C 343.207031 13.738281 343.429688 13.59375 343.679688 13.59375 L 353.574219 13.59375 C 353.824219 13.59375 354.046875 13.75 354.136719 13.972656 L 368.402344 50.28125 C 368.558594 50.675781 368.269531 51.105469 367.835938 51.105469 L 329.417969 51.105469 C 329 51.105469 328.695312 50.675781 328.855469 50.28125 " clip-rule="nonzero"/></clipPath></defs><g clip-path="url(#7884d7e952)"><g clip-path="url(#6c12f551c7)"><path fill="#ffffff" d="M 6.5625 70.65625 L 80.457031 70.65625 L 80.457031 210.941406 L 6.5625 210.941406 Z M 6.5625 70.65625 " fill-opacity="1" fill-rule="nonzero"/></g></g><g clip-path="url(#f0ac588f08)"><g clip-path="url(#0f637a323a)"><path fill="#ffffff" d="M 0 7.03125 L 84.257812 7.03125 L 84.257812 57.667969 L 0 57.667969 Z M 0 7.03125 " fill-opacity="1" fill-rule="nonzero"/></g></g><g clip-path="url(#63797272b6)"><g clip-path="url(#fac7073642)"><path fill="#ffffff" d="M 0 7.03125 L 84.257812 7.03125 L 84.257812 57.667969 L 0 57.667969 Z M 0 7.03125 " fill-opacity="1" fill-rule="nonzero"/></g></g><g clip-path="url(#6b022ec664)"><g clip-path="url(#907e857fcf)"><path fill="#ffffff" d="M 94.261719 7.035156 L 176.542969 7.035156 L 176.542969 57.667969 L 94.261719 57.667969 Z M 94.261719 7.035156 " fill-opacity="1" fill-rule="nonzero"/></g></g><g clip-path="url(#91077142eb)"><g clip-path="url(#0fe4fc3ab9)"><path fill="#ffffff" d="M 94.261719 7.035156 L 176.542969 7.035156 L 176.542969 57.667969 L 94.261719 57.667969 Z M 94.261719 7.035156 " fill-opacity="1" fill-rule="nonzero"/></g></g><g clip-path="url(#6dc56d3b53)"><g clip-path="url(#03246f2165)"><path fill="#ffffff" d="M 89.390625 64.097656 L 374.894531 64.097656 L 374.894531 217.96875 L 89.390625 217.96875 Z M 89.390625 64.097656 " fill-opacity="1" fill-rule="nonzero"/></g></g><g clip-path="url(#16dbd4e6be)"><g clip-path="url(#320c2d1a03)"><path fill="#ffffff" d="M 89.390625 64.097656 L 374.894531 64.097656 L 374.894531 217.96875 L 89.390625 217.96875 Z M 89.390625 64.097656 " fill-opacity="1" fill-rule="nonzero"/></g></g><g clip-path="url(#e4225e1442)"><g clip-path="url(#dabbdb97a2)"><path fill="#ffffff" d="M 89.390625 64.097656 L 374.894531 64.097656 L 374.894531 217.96875 L 89.390625 217.96875 Z M 89.390625 64.097656 " fill-opacity="1" fill-rule="nonzero"/></g></g><g clip-path="url(#2f04d979e2)"><g clip-path="url(#8431ec83da)"><path fill="#ffffff" d="M 89.390625 64.097656 L 374.894531 64.097656 L 374.894531 217.96875 L 89.390625 217.96875 Z M 89.390625 64.097656 " fill-opacity="1" fill-rule="nonzero"/></g></g><g clip-path="url(#b61a6111e9)"><g clip-path="url(#0e85f68e89)"><path fill="#ffffff" d="M 179.414062 7.03125 L 374.921875 7.03125 L 374.921875 58.46875 L 179.414062 58.46875 Z M 179.414062 7.03125 " fill-opacity="1" fill-rule="nonzero"/></g></g><g clip-path="url(#a4c6adf7cc)"><g clip-path="url(#98df65f518)"><path fill="#ffffff" d="M 179.414062 7.03125 L 374.921875 7.03125 L 374.921875 58.46875 L 179.414062 58.46875 Z M 179.414062 7.03125 " fill-opacity="1" fill-rule="nonzero"/></g></g><g clip-path="url(#8f7cc9fea7)"><g clip-path="url(#57b8eec542)"><path fill="#ffffff" d="M 179.414062 7.03125 L 374.921875 7.03125 L 374.921875 58.46875 L 179.414062 58.46875 Z M 179.414062 7.03125 " fill-opacity="1" fill-rule="nonzero"/></g></g><g clip-path="url(#659073fb8f)"><g clip-path="url(#c3b31ff73b)"><path fill="#ffffff" d="M 179.414062 7.03125 L 374.921875 7.03125 L 374.921875 58.46875 L 179.414062 58.46875 Z M 179.414062 7.03125 " fill-opacity="1" fill-rule="nonzero"/></g></g><g clip-path="url(#00276d4d0a)"><g clip-path="url(#feb95f1933)"><path fill="#ffffff" d="M 179.414062 7.03125 L 374.921875 7.03125 L 374.921875 58.46875 L 179.414062 58.46875 Z M 179.414062 7.03125 " fill-opacity="1" fill-rule="nonzero"/></g></g></svg>