<svg xmlns="http://www.w3.org/2000/svg" xmlns:xlink="http://www.w3.org/1999/xlink" width="300" zoomAndPan="magnify" viewBox="0 0 224.87999 225" height="300" preserveAspectRatio="xMidYMid meet" version="1.0"><defs><clipPath id="1dd1a77c1e"><path d="M 99.160156 57.0625 L 107.75 57.0625 L 107.75 67 L 99.160156 67 Z M 99.160156 57.0625 " clip-rule="nonzero"/></clipPath><clipPath id="f9d1ccfac7"><path d="M 107.113281 62.023438 C 107.113281 64.503906 105.339844 66.53125 103.15625 66.53125 C 100.96875 66.53125 99.203125 64.503906 99.203125 62.023438 C 99.203125 59.53125 100.976562 57.511719 103.15625 57.511719 C 105.332031 57.511719 107.113281 59.53125 107.113281 62.023438 " clip-rule="nonzero"/></clipPath><clipPath id="c4ab8892e8"><path d="M 91 85.171875 L 99 85.171875 L 99 90.636719 L 91 90.636719 Z M 91 85.171875 " clip-rule="nonzero"/></clipPath><clipPath id="a736e1f43c"><path d="M 98.925781 90.035156 L 91.007812 90.035156 C 91.007812 87.550781 92.78125 85.53125 94.96875 85.53125 C 97.152344 85.53125 98.925781 87.550781 98.925781 90.035156 " clip-rule="nonzero"/></clipPath><clipPath id="fdce72e724"><path d="M 75 85.171875 L 83.542969 85.171875 L 83.542969 90.636719 L 75 90.636719 Z M 75 85.171875 " clip-rule="nonzero"/></clipPath><clipPath id="4369fc0ca7"><path d="M 83.511719 90.035156 L 75.597656 90.035156 C 75.597656 87.550781 77.375 85.53125 79.558594 85.53125 C 81.742188 85.53125 83.511719 87.550781 83.511719 90.035156 " clip-rule="nonzero"/></clipPath><clipPath id="65ff325247"><path d="M 67.148438 57.0625 L 75.738281 57.0625 L 75.738281 67 L 67.148438 67 Z M 67.148438 57.0625 " clip-rule="nonzero"/></clipPath><clipPath id="231aca3bfa"><path d="M 75.238281 62.023438 C 75.238281 64.503906 73.460938 66.53125 71.277344 66.53125 C 69.09375 66.53125 67.324219 64.503906 67.324219 62.023438 C 67.324219 59.53125 69.101562 57.511719 71.277344 57.511719 C 73.453125 57.511719 75.238281 59.53125 75.238281 62.023438 " clip-rule="nonzero"/></clipPath><clipPath id="740fd6243e"><path d="M 3.902344 16.460938 L 220.964844 16.460938 L 220.964844 208.539062 L 3.902344 208.539062 Z M 3.902344 16.460938 " clip-rule="nonzero"/></clipPath><clipPath id="bfbea0814f"><path d="M 102.808594 93.648438 C 101.699219 93.933594 99.894531 94.316406 97.402344 94.65625 C 94.15625 95.078125 90.644531 95.300781 86.96875 95.300781 C 78.648438 95.300781 73.320312 94.183594 71.269531 93.65625 L 52.765625 37.445312 C 53.078125 37.355469 53.566406 37.238281 54.082031 37.105469 L 54.453125 37.011719 C 55.332031 36.800781 56.246094 36.570312 56.628906 36.460938 L 57.289062 36.210938 C 58.257812 35.371094 58.53125 34.363281 58.203125 33.453125 C 57.1875 30.550781 56 27.222656 54.679688 23.488281 C 62.851562 22.476562 66.460938 30.027344 67.378906 32.390625 C 67.765625 33.390625 68.777344 33.988281 69.855469 33.851562 C 73.074219 33.429688 75.046875 33.304688 78.535156 33.105469 C 79.277344 33.074219 79.960938 32.675781 80.359375 32.046875 L 87.1875 21.46875 L 94.007812 32.046875 C 94.410156 32.660156 95.09375 33.058594 95.832031 33.097656 C 99.722656 33.320312 100.214844 33.390625 103.476562 33.851562 L 104.074219 33.9375 C 105.160156 34.097656 106.195312 33.476562 106.582031 32.445312 C 109.792969 23.796875 115.828125 23.007812 119.347656 23.386719 L 117.589844 28.367188 C 116.921875 30.246094 116.300781 31.992188 115.734375 33.59375 C 115.523438 34.199219 115.570312 34.875 115.867188 35.441406 C 116.160156 36.011719 116.683594 36.4375 117.296875 36.609375 C 117.636719 36.707031 118.570312 36.925781 119.554688 37.160156 C 120.363281 37.347656 121.195312 37.546875 121.652344 37.664062 Z M 220.910156 177.828125 C 220.765625 174.09375 219.941406 170.371094 217.96875 167.03125 C 215.488281 162.789062 211.597656 159.839844 207.722656 157.320312 C 204.085938 154.976562 200.511719 152.988281 197.023438 150.921875 C 173.644531 137.210938 147.265625 117.441406 134.601562 93.195312 C 128.046875 80.425781 124.039062 67.78125 124.441406 53.605469 C 124.496094 51.46875 124.953125 45.84375 125.296875 43.769531 C 125.644531 41.695312 126.375 38.796875 126.820312 36.832031 C 127.160156 35.675781 126.5625 34.449219 125.429688 34.019531 L 125.421875 34.019531 L 125.21875 33.960938 C 124.03125 33.664062 122.011719 33.160156 120.929688 32.847656 L 124.621094 22.429688 C 124.839844 21.824219 124.792969 21.179688 124.503906 20.597656 C 124.222656 20.03125 123.710938 19.605469 123.105469 19.425781 C 113.007812 16.386719 106.101562 22.394531 102.949219 29.097656 L 101.84375 28.957031 C 100.960938 28.839844 100.59375 28.792969 100.222656 28.753906 C 99.5 28.675781 98.769531 28.621094 97.269531 28.535156 L 90.738281 18.421875 C 90.347656 17.816406 89.835938 17.335938 89.214844 17 L 87.1875 16.488281 C 85.75 16.488281 84.421875 17.210938 83.636719 18.421875 L 77.105469 28.542969 L 76.023438 28.605469 C 74.199219 28.722656 72.972656 28.792969 70.96875 29.035156 L 69.234375 26.042969 C 68.3125 24.722656 67.300781 23.558594 66.207031 22.585938 C 62.027344 18.851562 56.746094 17.808594 50.941406 19.558594 C 50.335938 19.742188 49.824219 20.164062 49.542969 20.730469 C 49.257812 21.296875 49.210938 21.941406 49.425781 22.5625 L 53.023438 32.722656 C 52.378906 32.925781 51.507812 33.167969 50.648438 33.40625 L 49.441406 33.734375 C 49.039062 33.84375 48.960938 33.859375 48.929688 33.867188 C 47.980469 34.277344 47.421875 35.273438 47.539062 36.273438 L 47.53125 36.296875 L 49 176.980469 C 49.007812 177.59375 49.511719 178.09375 50.132812 178.09375 L 50.140625 178.09375 C 50.753906 178.085938 51.238281 177.609375 51.261719 176.996094 L 54.863281 58.683594 L 67.238281 96.273438 C 67.464844 96.957031 67.992188 97.492188 68.691406 97.742188 C 68.988281 97.84375 70.453125 98.308594 73.035156 98.789062 L 73.035156 101.261719 C 73.035156 101.75 73.203125 102.207031 73.484375 102.550781 L 74.160156 103.164062 C 74.726562 103.257812 74.835938 103.265625 74.945312 103.265625 L 75.832031 103.109375 C 76.621094 102.449219 76.871094 101.914062 76.871094 101.351562 L 76.871094 99.371094 C 79.582031 99.699219 82.953125 99.941406 86.96875 99.941406 C 90.457031 99.941406 93.464844 99.761719 95.972656 99.503906 L 95.972656 101.261719 C 95.972656 101.75 96.144531 102.207031 96.429688 102.550781 L 97.105469 103.164062 C 97.664062 103.257812 97.78125 103.265625 97.890625 103.265625 L 98.777344 103.109375 C 99.5625 102.449219 99.808594 101.914062 99.808594 101.351562 L 99.808594 99 C 103.15625 98.457031 105.015625 97.859375 105.371094 97.742188 C 106.054688 97.515625 106.597656 96.964844 106.824219 96.289062 L 116.875 66.421875 C 119.851562 85.445312 129.070312 103.488281 141.289062 118.21875 C 152.132812 131.042969 168.160156 142.195312 182.101562 151.566406 C 188.851562 156.140625 196.347656 160.148438 203.117188 164.414062 C 206.058594 166.332031 208.957031 168.4375 210.679688 171.320312 C 211.847656 173.292969 212.367188 175.777344 212.4375 178.164062 C 212.699219 182.265625 211.480469 186.085938 208.574219 189.101562 C 203.597656 194.242188 195.789062 196.664062 188.683594 198.203125 C 176.984375 200.710938 161.574219 201.886719 149.617188 202.011719 C 119.914062 202.429688 48.960938 204.828125 12.777344 205.328125 L 12.523438 205.085938 C 15.816406 203.214844 18.167969 201.519531 21.019531 199.492188 C 26.324219 195.75 29.929688 194.195312 34.902344 199.167969 L 36.523438 198.996094 C 29.527344 188.191406 19.25 197.054688 12.039062 201.769531 C 9.65625 203.363281 7.808594 204.269531 5.289062 205.496094 C 4.824219 205.652344 3.976562 206.226562 3.929688 206.941406 C 3.890625 207.664062 4.472656 208.355469 5.140625 208.355469 C 44.371094 208.882812 126.710938 207.882812 165.128906 208.355469 C 180.78125 208.175781 202.570312 206.367188 214.472656 194.863281 C 219.007812 190.519531 221.285156 184.011719 220.910156 177.828125 " clip-rule="nonzero"/></clipPath><clipPath id="586a588b4a"><path d="M 60.121094 158 L 167.871094 158 L 167.871094 196.824219 L 60.121094 196.824219 Z M 60.121094 158 " clip-rule="nonzero"/></clipPath><clipPath id="c9d5b13604"><path d="M 165.207031 167.417969 L 165.191406 167.425781 C 148.054688 176.65625 134.378906 181.394531 116.558594 186.464844 C 100.355469 190.957031 84.109375 194.164062 68.265625 195.980469 L 61.304688 196.78125 C 61.265625 196.789062 61.226562 196.789062 61.1875 196.789062 L 60.238281 196.402344 C 60.117188 195.359375 60.480469 194.871094 61 194.777344 L 65.839844 193.871094 C 68.925781 193.316406 72.125 192.734375 74.710938 192.144531 C 88.5 189.199219 101.984375 185.394531 114.777344 180.84375 C 129.824219 175.460938 140.179688 170.683594 154.347656 162.585938 C 156.59375 161.296875 158.527344 160.117188 160.105469 159.078125 C 162.917969 157.375 165.667969 158.570312 166.933594 160.636719 C 168.160156 162.632812 168.136719 165.609375 165.207031 167.417969 " clip-rule="nonzero"/></clipPath></defs><g clip-path="url(#1dd1a77c1e)"><g clip-path="url(#f9d1ccfac7)"><path fill="#000000" d="M 0 12.558594 L 224.867188 12.558594 L 224.867188 212.441406 L 0 212.441406 Z M 0 12.558594 " fill-opacity="1" fill-rule="nonzero"/></g></g><g clip-path="url(#c4ab8892e8)"><g clip-path="url(#a736e1f43c)"><path fill="#000000" d="M 0 12.558594 L 224.867188 12.558594 L 224.867188 212.441406 L 0 212.441406 Z M 0 12.558594 " fill-opacity="1" fill-rule="nonzero"/></g></g><g clip-path="url(#fdce72e724)"><g clip-path="url(#4369fc0ca7)"><path fill="#000000" d="M 0 12.558594 L 224.867188 12.558594 L 224.867188 212.441406 L 0 212.441406 Z M 0 12.558594 " fill-opacity="1" fill-rule="nonzero"/></g></g><g clip-path="url(#65ff325247)"><g clip-path="url(#231aca3bfa)"><path fill="#000000" d="M 0 12.558594 L 224.867188 12.558594 L 224.867188 212.441406 L 0 212.441406 Z M 0 12.558594 " fill-opacity="1" fill-rule="nonzero"/></g></g><g clip-path="url(#740fd6243e)"><g clip-path="url(#bfbea0814f)"><path fill="#000000" d="M 0 12.558594 L 224.867188 12.558594 L 224.867188 212.441406 L 0 212.441406 Z M 0 12.558594 " fill-opacity="1" fill-rule="nonzero"/></g></g><g clip-path="url(#586a588b4a)"><g clip-path="url(#c9d5b13604)"><path fill="#000000" d="M 0 12.558594 L 224.867188 12.558594 L 224.867188 212.441406 L 0 212.441406 Z M 0 12.558594 " fill-opacity="1" fill-rule="nonzero"/></g></g></svg>