<svg xmlns="http://www.w3.org/2000/svg" xmlns:xlink="http://www.w3.org/1999/xlink" width="1920" zoomAndPan="magnify" viewBox="0 0 1440 225" height="300" preserveAspectRatio="xMidYMid meet" version="1.0"><defs><clipPath id="f7ae942da5"><path d="M 986.496094 30.335938 L 1073 30.335938 L 1073 194.441406 L 986.496094 194.441406 Z M 986.496094 30.335938 " clip-rule="nonzero"/></clipPath><clipPath id="574f41fdaf"><path d="M 1071.917969 32.839844 L 1071.917969 54.941406 C 1071.917969 56.324219 1070.796875 57.457031 1069.414062 57.457031 L 1020.359375 57.457031 C 1018.976562 57.457031 1017.855469 58.578125 1017.855469 59.960938 L 1017.855469 94.605469 C 1017.855469 95.984375 1018.976562 97.105469 1020.359375 97.105469 L 1064.332031 97.105469 C 1065.714844 97.105469 1066.835938 98.226562 1066.835938 99.625 L 1066.835938 121.558594 C 1066.835938 122.9375 1065.714844 124.058594 1064.332031 124.058594 L 1020.359375 124.058594 C 1018.976562 124.058594 1017.855469 125.179688 1017.855469 126.5625 L 1017.855469 164.703125 C 1017.855469 166.085938 1018.976562 167.207031 1020.359375 167.207031 L 1070.425781 167.207031 C 1071.808594 167.207031 1072.945312 168.328125 1072.945312 169.722656 L 1072.945312 191.828125 C 1072.945312 193.207031 1071.824219 194.328125 1070.425781 194.328125 L 989.015625 194.328125 C 987.632812 194.328125 986.496094 193.207031 986.496094 191.828125 L 986.496094 32.839844 C 986.496094 31.457031 987.617188 30.335938 989.015625 30.335938 L 1069.414062 30.335938 C 1070.796875 30.335938 1071.917969 31.457031 1071.917969 32.839844 " clip-rule="nonzero"/></clipPath><clipPath id="ba33cb5416"><path d="M 122 64.671875 L 217 64.671875 L 217 158.644531 L 122 158.644531 Z M 122 64.671875 " clip-rule="nonzero"/></clipPath><clipPath id="c2474fd78f"><path d="M 156.527344 157.574219 L 122.40625 66.789062 C 122.046875 65.804688 122.765625 64.757812 123.816406 64.757812 L 147.34375 64.757812 C 148 64.757812 148.589844 65.183594 148.785156 65.804688 L 168.175781 124.734375 C 168.636719 126.109375 170.570312 126.109375 171.03125 124.734375 L 190.453125 65.804688 C 190.652344 65.183594 191.242188 64.757812 191.898438 64.757812 L 215.421875 64.757812 C 216.472656 64.757812 217.195312 65.804688 216.832031 66.789062 L 182.710938 157.574219 C 182.480469 158.167969 181.925781 158.558594 181.300781 158.558594 L 157.941406 158.558594 C 157.316406 158.558594 156.757812 158.167969 156.527344 157.574219 " clip-rule="nonzero"/></clipPath><clipPath id="e59a6a44db"><path d="M 38.820312 64.671875 L 138.234375 64.671875 L 138.234375 158.644531 L 38.820312 158.644531 Z M 38.820312 64.671875 " clip-rule="nonzero"/></clipPath><clipPath id="abac7de02d"><path d="M 74.535156 136.707031 L 102.261719 136.480469 C 103.277344 136.480469 104 135.460938 103.671875 134.476562 L 90.875 96.648438 C 89.792969 93.628906 89.007812 90.445312 88.449219 87.132812 L 86.019531 96.648438 L 73.09375 134.707031 C 72.765625 135.691406 73.488281 136.707031 74.535156 136.707031 M 39.003906 156.492188 L 74.667969 65.707031 C 74.898438 65.117188 75.457031 64.757812 76.078125 64.757812 L 100.816406 64.757812 C 101.441406 64.757812 102 65.148438 102.226562 65.707031 L 137.894531 156.492188 C 138.285156 157.476562 137.566406 158.558594 136.480469 158.558594 L 40.414062 158.558594 C 39.363281 158.558594 38.609375 157.476562 39.003906 156.492188 " clip-rule="nonzero"/></clipPath><clipPath id="944cdd0b0c"><path d="M 274.527344 64.671875 L 342.78125 64.671875 L 342.78125 158.644531 L 274.527344 158.644531 Z M 274.527344 64.671875 " clip-rule="nonzero"/></clipPath><clipPath id="fbe3639f2a"><path d="M 299.417969 66.265625 L 299.417969 134.9375 C 299.417969 135.757812 300.105469 136.445312 300.925781 136.445312 L 340.789062 136.445312 C 341.609375 136.445312 342.300781 137.136719 342.300781 137.957031 L 342.300781 157.050781 C 342.300781 157.871094 341.609375 158.558594 340.789062 158.558594 L 276.121094 158.558594 C 275.300781 158.558594 274.613281 157.871094 274.613281 157.050781 L 274.613281 66.265625 C 274.613281 65.445312 275.300781 64.757812 276.121094 64.757812 L 297.90625 64.757812 C 298.726562 64.757812 299.417969 65.445312 299.417969 66.265625 " clip-rule="nonzero"/></clipPath><clipPath id="183388bec0"><path d="M 348.222656 64.671875 L 448 64.671875 L 448 158.644531 L 348.222656 158.644531 Z M 348.222656 64.671875 " clip-rule="nonzero"/></clipPath><clipPath id="ca9e194cdf"><path d="M 384.265625 136.707031 L 411.988281 136.480469 C 413.003906 136.480469 413.726562 135.460938 413.398438 134.476562 L 400.570312 96.648438 C 399.488281 93.628906 398.699219 90.445312 398.175781 87.132812 L 395.746094 96.648438 L 382.820312 134.707031 C 382.492188 135.691406 383.214844 136.707031 384.265625 136.707031 M 348.730469 156.492188 L 384.394531 65.707031 C 384.625 65.117188 385.183594 64.757812 385.804688 64.757812 L 410.542969 64.757812 C 411.167969 64.757812 411.726562 65.148438 411.957031 65.707031 L 447.621094 156.492188 C 448.011719 157.476562 447.292969 158.558594 446.210938 158.558594 L 350.140625 158.558594 C 349.089844 158.558594 348.335938 157.476562 348.730469 156.492188 " clip-rule="nonzero"/></clipPath><clipPath id="abcb3404f0"><path d="M 1091 30 L 1410 30 L 1410 195 L 1091 195 Z M 1091 30 " clip-rule="nonzero"/></clipPath><clipPath id="11763161ca"><path d="M 1122.429688 32.855469 L 1122.429688 164.503906 C 1122.429688 165.886719 1123.550781 167.007812 1124.945312 167.007812 L 1407.3125 167.007812 C 1408.695312 167.007812 1409.828125 168.128906 1409.828125 169.507812 L 1409.828125 192.457031 C 1409.828125 193.835938 1408.710938 194.957031 1407.3125 194.957031 L 1093.585938 194.957031 C 1092.207031 194.957031 1091.070312 193.835938 1091.070312 192.457031 L 1091.070312 32.855469 C 1091.070312 31.457031 1092.191406 30.335938 1093.585938 30.335938 L 1119.910156 30.335938 C 1121.292969 30.335938 1122.429688 31.457031 1122.429688 32.839844 " clip-rule="nonzero"/></clipPath><clipPath id="3ec6e55082"><path d="M 1142.457031 30 L 1174.097656 30 L 1174.097656 149 L 1142.457031 149 Z M 1142.457031 30 " clip-rule="nonzero"/></clipPath><clipPath id="3917f6a05c"><path d="M 1174.003906 32.855469 L 1174.003906 146.46875 C 1174.003906 147.851562 1172.882812 148.988281 1171.484375 148.988281 L 1145.160156 148.988281 C 1143.78125 148.988281 1142.660156 147.867188 1142.660156 146.46875 L 1142.660156 32.855469 C 1142.660156 31.472656 1143.78125 30.351562 1145.160156 30.351562 L 1171.484375 30.351562 C 1172.867188 30.351562 1174.003906 31.472656 1174.003906 32.855469 " clip-rule="nonzero"/></clipPath><clipPath id="725bd16815"><path d="M 1196 30 L 1295.035156 30 L 1295.035156 149 L 1196 149 Z M 1196 30 " clip-rule="nonzero"/></clipPath><clipPath id="e825065c2a"><path d="M 1244.839844 57.457031 L 1230.242188 57.457031 C 1228.863281 57.457031 1227.726562 58.578125 1227.726562 59.960938 L 1227.726562 82.0625 C 1227.726562 83.445312 1228.847656 84.566406 1230.242188 84.566406 L 1244.855469 84.566406 C 1256.828125 84.566406 1262.8125 80.054688 1262.8125 71.011719 C 1262.8125 61.972656 1256.828125 57.457031 1244.855469 57.457031 M 1243.320312 30.335938 C 1277.78125 30.335938 1295.015625 43.890625 1295.015625 71.011719 C 1295.015625 97.902344 1277.78125 111.457031 1243.320312 111.6875 L 1230.242188 111.6875 C 1228.863281 111.6875 1227.726562 112.808594 1227.726562 114.191406 L 1227.726562 146.46875 C 1227.726562 147.851562 1226.605469 148.972656 1225.222656 148.972656 L 1198.882812 148.972656 C 1197.503906 148.972656 1196.382812 147.851562 1196.382812 146.46875 L 1196.382812 32.839844 C 1196.382812 31.457031 1197.503906 30.335938 1198.882812 30.335938 Z M 1243.320312 30.335938 " clip-rule="nonzero"/></clipPath><clipPath id="a1b6da570c"><path d="M 1283.785156 30 L 1408.941406 30 L 1408.941406 149.222656 L 1283.785156 149.222656 Z M 1283.785156 30 " clip-rule="nonzero"/></clipPath><clipPath id="db4b07f12a"><path d="M 1329.660156 121.390625 L 1363.058594 121.128906 C 1364.765625 121.113281 1365.960938 119.4375 1365.425781 117.8125 L 1349.460938 70.707031 C 1349.230469 70.0625 1349.015625 69.414062 1348.816406 68.769531 C 1348.0625 66.40625 1344.765625 66.40625 1344.011719 68.769531 L 1343.582031 70.0625 L 1327.265625 118.074219 C 1326.714844 119.714844 1327.941406 121.402344 1329.660156 121.390625 M 1284.148438 145.625 L 1328.816406 31.933594 C 1329.199219 30.964844 1330.121094 30.335938 1331.148438 30.335938 L 1361.648438 30.335938 C 1362.675781 30.335938 1363.613281 30.964844 1363.980469 31.933594 L 1408.648438 145.625 C 1409.292969 147.269531 1408.078125 149.046875 1406.316406 149.046875 L 1286.496094 149.046875 C 1284.734375 149.046875 1283.519531 147.269531 1284.164062 145.625 " clip-rule="nonzero"/></clipPath><clipPath id="06fdbe8795"><path d="M 487.214844 64.429688 L 572 64.429688 L 572 158.886719 L 487.214844 158.886719 Z M 487.214844 64.429688 " clip-rule="nonzero"/></clipPath><clipPath id="37f8941504"><path d="M 487.542969 157.050781 L 487.542969 66.265625 C 487.542969 65.445312 488.230469 64.757812 489.050781 64.757812 L 510.183594 64.757812 C 510.675781 64.757812 511.167969 65.019531 511.429688 65.414062 L 544.601562 114.070312 C 545.453125 115.316406 547.421875 114.691406 547.355469 113.183594 L 547.160156 103.078125 L 547.160156 66.265625 C 547.160156 65.445312 547.847656 64.757812 548.667969 64.757812 L 570.453125 64.757812 C 571.273438 64.757812 571.964844 65.445312 571.964844 66.265625 L 571.964844 157.050781 C 571.964844 157.871094 571.273438 158.558594 570.453125 158.558594 L 549.324219 158.558594 C 548.832031 158.558594 548.371094 158.296875 548.078125 157.902344 L 514.90625 109.34375 C 514.054688 108.097656 512.085938 108.722656 512.152344 110.230469 L 512.347656 120.203125 L 512.347656 157.050781 C 512.347656 157.871094 511.660156 158.558594 510.839844 158.558594 L 489.050781 158.558594 C 488.230469 158.558594 487.542969 157.871094 487.542969 157.050781 " clip-rule="nonzero"/></clipPath><clipPath id="eb681b552d"><path d="M 588.203125 64.429688 L 673.617188 64.429688 L 673.617188 160.894531 L 588.203125 160.894531 Z M 588.203125 64.429688 " clip-rule="nonzero"/></clipPath><clipPath id="bd1cfbdc3d"><path d="M 671.609375 64.757812 L 673.117188 65.445312 L 673.117188 122.796875 C 673.117188 129.589844 671.902344 135.496094 669.507812 140.546875 C 667.113281 145.601562 663.832031 149.539062 659.730469 152.324219 C 655.628906 155.113281 651.167969 157.214844 646.3125 158.558594 L 630.890625 160.5625 C 625.445312 160.5625 620.292969 159.90625 615.46875 158.558594 C 610.648438 157.214844 606.183594 155.148438 602.050781 152.324219 C 597.917969 149.503906 594.667969 145.601562 592.273438 140.546875 C 589.878906 135.496094 588.664062 129.589844 588.664062 122.796875 L 588.664062 66.265625 C 588.664062 65.445312 589.351562 64.757812 590.171875 64.757812 L 611.957031 64.757812 C 612.777344 64.757812 613.46875 65.445312 613.46875 66.265625 L 613.46875 121.453125 C 613.46875 132.804688 619.277344 138.480469 630.890625 138.480469 C 642.503906 138.480469 648.3125 132.804688 648.3125 121.453125 L 648.3125 66.265625 C 648.3125 65.445312 649 64.757812 649.820312 64.757812 Z M 671.609375 64.757812 " clip-rule="nonzero"/></clipPath><clipPath id="56016d13d3"><path d="M 689.695312 64.429688 L 758.527344 64.429688 L 758.527344 158.886719 L 689.695312 158.886719 Z M 689.695312 64.429688 " clip-rule="nonzero"/></clipPath><clipPath id="6dc255a514"><path d="M 757.40625 66.265625 L 757.40625 84.671875 C 757.40625 85.492188 756.71875 86.179688 755.898438 86.179688 L 716.164062 86.179688 C 715.34375 86.179688 714.65625 86.871094 714.65625 87.691406 L 714.65625 99.007812 C 714.65625 99.828125 715.34375 100.519531 716.164062 100.519531 L 751.894531 100.519531 C 752.714844 100.519531 753.402344 101.207031 753.402344 102.027344 L 753.402344 120.304688 C 753.402344 121.125 752.714844 121.8125 751.894531 121.8125 L 716.164062 121.8125 C 715.34375 121.8125 714.65625 122.5 714.65625 123.320312 L 714.65625 135.625 C 714.65625 136.445312 715.34375 137.136719 716.164062 137.136719 L 756.71875 137.136719 C 757.539062 137.136719 758.226562 137.792969 758.226562 138.644531 L 758.226562 157.082031 C 758.226562 157.902344 757.539062 158.59375 756.71875 158.59375 L 691.390625 158.59375 C 690.570312 158.59375 689.882812 157.902344 689.882812 157.082031 L 689.882812 66.265625 C 689.882812 65.445312 690.570312 64.757812 691.390625 64.757812 L 755.898438 64.757812 C 756.71875 64.757812 757.40625 65.445312 757.40625 66.265625 " clip-rule="nonzero"/></clipPath><clipPath id="a0271fb05c"><path d="M 764.558594 64.429688 L 859.515625 64.429688 L 859.515625 158.886719 L 764.558594 158.886719 Z M 764.558594 64.429688 " clip-rule="nonzero"/></clipPath><clipPath id="d4c1888b96"><path d="M 798.976562 157.574219 L 764.855469 66.789062 C 764.492188 65.804688 765.214844 64.757812 766.265625 64.757812 L 789.789062 64.757812 C 790.445312 64.757812 791.035156 65.183594 791.234375 65.804688 L 810.625 124.734375 C 811.082031 126.109375 813.019531 126.109375 813.476562 124.734375 L 832.867188 65.804688 C 833.066406 65.183594 833.65625 64.757812 834.3125 64.757812 L 857.835938 64.757812 C 858.886719 64.757812 859.609375 65.804688 859.25 66.789062 L 825.160156 157.574219 C 824.929688 158.167969 824.371094 158.558594 823.746094 158.558594 L 800.386719 158.558594 C 799.765625 158.558594 799.207031 158.167969 798.976562 157.574219 " clip-rule="nonzero"/></clipPath><clipPath id="e6f3eedc23"><path d="M 844.445312 64.429688 L 943.925781 64.429688 L 943.925781 158.886719 L 844.445312 158.886719 Z M 844.445312 64.429688 " clip-rule="nonzero"/></clipPath><clipPath id="0bd2247f7c"><path d="M 880.34375 136.707031 L 908.070312 136.480469 C 909.085938 136.480469 909.808594 135.460938 909.480469 134.476562 L 896.652344 96.648438 C 895.570312 93.628906 894.78125 90.445312 894.257812 87.132812 L 891.828125 96.648438 L 878.902344 134.707031 C 878.574219 135.691406 879.296875 136.707031 880.34375 136.707031 M 844.8125 156.492188 L 880.476562 65.707031 C 880.707031 65.117188 881.265625 64.757812 881.886719 64.757812 L 906.625 64.757812 C 907.25 64.757812 907.808594 65.148438 908.035156 65.707031 L 943.703125 156.492188 C 944.09375 157.476562 943.375 158.558594 942.289062 158.558594 L 846.222656 158.558594 C 845.171875 158.558594 844.417969 157.476562 844.8125 156.492188 " clip-rule="nonzero"/></clipPath></defs><g clip-path="url(#f7ae942da5)"><g clip-path="url(#574f41fdaf)"><path fill="#000000" d="M 986.496094 30.335938 L 1072.941406 30.335938 L 1072.941406 194.441406 L 986.496094 194.441406 Z M 986.496094 30.335938 " fill-opacity="1" fill-rule="nonzero"/></g></g><g clip-path="url(#ba33cb5416)"><g clip-path="url(#c2474fd78f)"><path fill="#000000" d="M 22.5 48.351562 L 233.195312 48.351562 L 233.195312 174.964844 L 22.5 174.964844 Z M 22.5 48.351562 " fill-opacity="1" fill-rule="nonzero"/></g></g><g clip-path="url(#e59a6a44db)"><g clip-path="url(#abac7de02d)"><path fill="#000000" d="M 22.5 48.351562 L 233.195312 48.351562 L 233.195312 174.964844 L 22.5 174.964844 Z M 22.5 48.351562 " fill-opacity="1" fill-rule="nonzero"/></g></g><g clip-path="url(#944cdd0b0c)"><g clip-path="url(#fbe3639f2a)"><path fill="#000000" d="M 258.207031 48.351562 L 463.957031 48.351562 L 463.957031 174.964844 L 258.207031 174.964844 Z M 258.207031 48.351562 " fill-opacity="1" fill-rule="nonzero"/></g></g><g clip-path="url(#183388bec0)"><g clip-path="url(#ca9e194cdf)"><path fill="#000000" d="M 258.207031 48.351562 L 463.957031 48.351562 L 463.957031 174.964844 L 258.207031 174.964844 Z M 258.207031 48.351562 " fill-opacity="1" fill-rule="nonzero"/></g></g><g clip-path="url(#abcb3404f0)"><g clip-path="url(#11763161ca)"><path fill="#000000" d="M 1083.394531 22.660156 L 1417.378906 22.660156 L 1417.378906 202.660156 L 1083.394531 202.660156 Z M 1083.394531 22.660156 " fill-opacity="1" fill-rule="nonzero"/></g></g><g clip-path="url(#3ec6e55082)"><g clip-path="url(#3917f6a05c)"><path fill="#000000" d="M 1083.394531 22.660156 L 1417.378906 22.660156 L 1417.378906 202.660156 L 1083.394531 202.660156 Z M 1083.394531 22.660156 " fill-opacity="1" fill-rule="nonzero"/></g></g><g clip-path="url(#725bd16815)"><g clip-path="url(#e825065c2a)"><path fill="#000000" d="M 1083.394531 22.660156 L 1417.378906 22.660156 L 1417.378906 202.660156 L 1083.394531 202.660156 Z M 1083.394531 22.660156 " fill-opacity="1" fill-rule="nonzero"/></g></g><g clip-path="url(#a1b6da570c)"><g clip-path="url(#db4b07f12a)"><path fill="#000000" d="M 1083.394531 22.660156 L 1417.378906 22.660156 L 1417.378906 202.660156 L 1083.394531 202.660156 Z M 1083.394531 22.660156 " fill-opacity="1" fill-rule="nonzero"/></g></g><g clip-path="url(#06fdbe8795)"><g clip-path="url(#37f8941504)"><path fill="#000000" d="M 471.136719 48.351562 L 960.003906 48.351562 L 960.003906 176.972656 L 471.136719 176.972656 Z M 471.136719 48.351562 " fill-opacity="1" fill-rule="nonzero"/></g></g><g clip-path="url(#eb681b552d)"><g clip-path="url(#bd1cfbdc3d)"><path fill="#000000" d="M 471.136719 48.351562 L 960.003906 48.351562 L 960.003906 176.972656 L 471.136719 176.972656 Z M 471.136719 48.351562 " fill-opacity="1" fill-rule="nonzero"/></g></g><g clip-path="url(#56016d13d3)"><g clip-path="url(#6dc255a514)"><path fill="#000000" d="M 471.136719 48.351562 L 960.003906 48.351562 L 960.003906 176.972656 L 471.136719 176.972656 Z M 471.136719 48.351562 " fill-opacity="1" fill-rule="nonzero"/></g></g><g clip-path="url(#a0271fb05c)"><g clip-path="url(#d4c1888b96)"><path fill="#000000" d="M 471.136719 48.351562 L 960.003906 48.351562 L 960.003906 176.972656 L 471.136719 176.972656 Z M 471.136719 48.351562 " fill-opacity="1" fill-rule="nonzero"/></g></g><g clip-path="url(#e6f3eedc23)"><g clip-path="url(#0bd2247f7c)"><path fill="#000000" d="M 471.136719 48.351562 L 960.003906 48.351562 L 960.003906 176.972656 L 471.136719 176.972656 Z M 471.136719 48.351562 " fill-opacity="1" fill-rule="nonzero"/></g></g></svg>