<svg xmlns="http://www.w3.org/2000/svg" xmlns:xlink="http://www.w3.org/1999/xlink" width="1920" zoomAndPan="magnify" viewBox="0 0 1440 225" height="300" preserveAspectRatio="xMidYMid meet" version="1.0"><defs><clipPath id="98376226bd"><path d="M 984.613281 27.335938 L 1072.636719 27.335938 L 1072.636719 194.441406 L 984.613281 194.441406 Z M 984.613281 27.335938 " clip-rule="nonzero"/></clipPath><clipPath id="2f1edcbd6f"><path d="M 1071.59375 29.886719 L 1071.59375 52.390625 C 1071.59375 53.796875 1070.453125 54.953125 1069.046875 54.953125 L 1019.09375 54.953125 C 1017.6875 54.953125 1016.53125 56.097656 1016.53125 57.503906 L 1016.53125 92.777344 C 1016.53125 94.1875 1017.671875 95.328125 1019.09375 95.328125 L 1063.871094 95.328125 C 1065.277344 95.328125 1066.421875 96.46875 1066.421875 97.890625 L 1066.421875 120.226562 C 1066.421875 121.632812 1065.277344 122.789062 1063.871094 122.789062 L 1019.09375 122.789062 C 1017.6875 122.789062 1016.53125 123.929688 1016.53125 125.335938 L 1016.53125 164.160156 C 1016.53125 165.566406 1017.671875 166.722656 1019.09375 166.722656 L 1070.078125 166.722656 C 1071.484375 166.722656 1072.625 167.863281 1072.625 169.285156 L 1072.625 191.792969 C 1072.625 193.199219 1071.484375 194.355469 1070.078125 194.355469 L 987.175781 194.355469 C 985.769531 194.355469 984.613281 193.214844 984.613281 191.792969 L 984.613281 29.886719 C 984.613281 28.476562 985.753906 27.335938 987.175781 27.335938 L 1069.046875 27.335938 C 1070.453125 27.335938 1071.59375 28.476562 1071.59375 29.886719 " clip-rule="nonzero"/></clipPath><clipPath id="77bf5796c7"><path d="M 122 64.527344 L 217 64.527344 L 217 158.464844 L 122 158.464844 Z M 122 64.527344 " clip-rule="nonzero"/></clipPath><clipPath id="1e54d27afd"><path d="M 156.480469 157.398438 L 122.371094 66.644531 C 122.011719 65.660156 122.730469 64.609375 123.78125 64.609375 L 147.296875 64.609375 C 147.953125 64.609375 148.542969 65.039062 148.742188 65.660156 L 168.125 124.566406 C 168.582031 125.945312 170.519531 125.945312 170.976562 124.566406 L 190.394531 65.660156 C 190.589844 65.039062 191.183594 64.609375 191.839844 64.609375 L 215.355469 64.609375 C 216.402344 64.609375 217.125 65.660156 216.765625 66.644531 L 182.65625 157.398438 C 182.425781 157.988281 181.867188 158.382812 181.242188 158.382812 L 157.890625 158.382812 C 157.269531 158.382812 156.710938 157.988281 156.480469 157.398438 " clip-rule="nonzero"/></clipPath><clipPath id="910e2be2db"><path d="M 38.816406 64.527344 L 138 64.527344 L 138 158.464844 L 38.816406 158.464844 Z M 38.816406 64.527344 " clip-rule="nonzero"/></clipPath><clipPath id="c2a0685536"><path d="M 74.519531 136.539062 L 102.234375 136.308594 C 103.25 136.308594 103.972656 135.292969 103.644531 134.308594 L 90.851562 96.492188 C 89.769531 93.441406 88.980469 90.292969 88.425781 86.980469 L 85.996094 96.492188 L 73.074219 134.539062 C 72.746094 135.519531 73.46875 136.539062 74.519531 136.539062 M 38.996094 156.316406 L 74.648438 65.5625 C 74.878906 64.972656 75.4375 64.609375 76.058594 64.609375 L 100.789062 64.609375 C 101.414062 64.609375 101.96875 65.003906 102.199219 65.5625 L 137.851562 156.316406 C 138.246094 157.300781 137.523438 158.382812 136.441406 158.382812 L 40.40625 158.382812 C 39.359375 158.382812 38.605469 157.300781 38.996094 156.316406 " clip-rule="nonzero"/></clipPath><clipPath id="ea67facf42"><path d="M 274.4375 64.53125 L 342.667969 64.53125 L 342.667969 158.46875 L 274.4375 158.46875 Z M 274.4375 64.53125 " clip-rule="nonzero"/></clipPath><clipPath id="c1a3a7cfa0"><path d="M 299.316406 66.125 L 299.316406 134.769531 C 299.316406 135.589844 300.007812 136.277344 300.828125 136.277344 L 340.675781 136.277344 C 341.496094 136.277344 342.1875 136.96875 342.1875 137.789062 L 342.1875 156.875 C 342.1875 157.695312 341.496094 158.386719 340.675781 158.386719 L 276.03125 158.386719 C 275.210938 158.386719 274.523438 157.695312 274.523438 156.875 L 274.523438 66.125 C 274.523438 65.304688 275.210938 64.613281 276.03125 64.613281 L 297.808594 64.613281 C 298.628906 64.613281 299.316406 65.304688 299.316406 66.125 " clip-rule="nonzero"/></clipPath><clipPath id="5fc2163cc4"><path d="M 348.105469 64.53125 L 447.976562 64.53125 L 447.976562 158.46875 L 348.105469 158.46875 Z M 348.105469 64.53125 " clip-rule="nonzero"/></clipPath><clipPath id="4ee5831b55"><path d="M 384.132812 136.542969 L 411.847656 136.3125 C 412.867188 136.3125 413.585938 135.292969 413.257812 134.3125 L 400.433594 96.496094 C 399.351562 93.445312 398.566406 90.296875 398.007812 86.984375 L 395.582031 96.496094 L 382.660156 134.539062 C 382.332031 135.523438 383.050781 136.542969 384.101562 136.542969 M 348.613281 156.320312 L 384.265625 65.566406 C 384.496094 64.976562 385.054688 64.613281 385.675781 64.613281 L 410.40625 64.613281 C 411.03125 64.613281 411.585938 65.007812 411.816406 65.566406 L 447.46875 156.320312 C 447.863281 157.300781 447.140625 158.386719 446.058594 158.386719 L 350.023438 158.386719 C 348.976562 158.386719 348.21875 157.300781 348.613281 156.320312 " clip-rule="nonzero"/></clipPath><clipPath id="5330dc072e"><path d="M 1091 27 L 1416 27 L 1416 195.652344 L 1091 195.652344 Z M 1091 27 " clip-rule="nonzero"/></clipPath><clipPath id="4629262850"><path d="M 1123.027344 29.902344 L 1123.027344 163.957031 C 1123.027344 165.363281 1124.167969 166.519531 1125.574219 166.519531 L 1413.117188 166.519531 C 1414.523438 166.519531 1415.679688 167.660156 1415.679688 169.082031 L 1415.679688 192.449219 C 1415.679688 193.855469 1414.539062 195.011719 1413.117188 195.011719 L 1093.644531 195.011719 C 1092.238281 195.011719 1091.097656 193.871094 1091.097656 192.449219 L 1091.097656 29.902344 C 1091.097656 28.476562 1092.238281 27.335938 1093.644531 27.335938 L 1120.464844 27.335938 C 1121.871094 27.335938 1123.011719 28.476562 1123.011719 29.886719 " clip-rule="nonzero"/></clipPath><clipPath id="1cdf548fbc"><path d="M 1143.421875 27 L 1175.640625 27 L 1175.640625 148.398438 L 1143.421875 148.398438 Z M 1143.421875 27 " clip-rule="nonzero"/></clipPath><clipPath id="96ff167aa1"><path d="M 1175.542969 29.902344 L 1175.542969 145.59375 C 1175.542969 147 1174.402344 148.15625 1172.996094 148.15625 L 1146.175781 148.15625 C 1144.769531 148.15625 1143.628906 147.015625 1143.628906 145.59375 L 1143.628906 29.902344 C 1143.628906 28.492188 1144.769531 27.351562 1146.175781 27.351562 L 1172.980469 27.351562 C 1174.386719 27.351562 1175.527344 28.492188 1175.527344 29.902344 " clip-rule="nonzero"/></clipPath><clipPath id="a050f433a0"><path d="M 1198 27 L 1298.789062 27 L 1298.789062 148.398438 L 1198 148.398438 Z M 1198 27 " clip-rule="nonzero"/></clipPath><clipPath id="4064edaba7"><path d="M 1247.675781 54.953125 L 1232.8125 54.953125 C 1231.40625 54.953125 1230.265625 56.097656 1230.265625 57.519531 L 1230.265625 80.007812 C 1230.265625 81.417969 1231.40625 82.558594 1232.8125 82.558594 L 1247.691406 82.558594 C 1259.882812 82.558594 1265.976562 77.960938 1265.976562 68.757812 C 1265.976562 59.550781 1259.882812 54.953125 1247.691406 54.953125 M 1246.128906 27.335938 C 1281.21875 27.335938 1298.769531 41.136719 1298.769531 68.757812 C 1298.769531 96.140625 1281.21875 109.941406 1246.128906 110.175781 L 1232.8125 110.175781 C 1231.40625 110.175781 1230.265625 111.316406 1230.265625 112.738281 L 1230.265625 145.59375 C 1230.265625 147 1229.121094 148.140625 1227.699219 148.140625 L 1200.878906 148.140625 C 1199.472656 148.140625 1198.332031 147 1198.332031 145.59375 L 1198.332031 29.886719 C 1198.332031 28.476562 1199.472656 27.335938 1200.878906 27.335938 Z M 1246.128906 27.335938 " clip-rule="nonzero"/></clipPath><clipPath id="164b242c23"><path d="M 1287.332031 27 L 1414.777344 27 L 1414.777344 148.398438 L 1287.332031 148.398438 Z M 1287.332031 27 " clip-rule="nonzero"/></clipPath><clipPath id="f59394b481"><path d="M 1334.046875 120.039062 L 1368.054688 119.773438 C 1369.789062 119.757812 1371.011719 118.050781 1370.464844 116.394531 L 1354.207031 68.445312 C 1353.972656 67.785156 1353.753906 67.128906 1353.550781 66.472656 C 1352.785156 64.066406 1349.425781 64.066406 1348.660156 66.472656 L 1348.222656 67.785156 L 1331.605469 116.660156 C 1331.042969 118.332031 1332.296875 120.054688 1334.046875 120.039062 M 1287.703125 144.734375 L 1333.1875 28.960938 C 1333.578125 27.976562 1334.515625 27.335938 1335.5625 27.335938 L 1366.617188 27.335938 C 1367.664062 27.335938 1368.617188 27.976562 1368.992188 28.960938 L 1414.476562 144.734375 C 1415.132812 146.40625 1413.898438 148.21875 1412.101562 148.21875 L 1290.09375 148.21875 C 1288.296875 148.21875 1287.0625 146.40625 1287.71875 144.734375 " clip-rule="nonzero"/></clipPath><clipPath id="3a8c7685a2"><path d="M 487.046875 64.285156 L 571.925781 64.285156 L 571.925781 158.707031 L 487.046875 158.707031 Z M 487.046875 64.285156 " clip-rule="nonzero"/></clipPath><clipPath id="cfafce2f9f"><path d="M 487.375 156.871094 L 487.375 66.121094 C 487.375 65.300781 488.0625 64.609375 488.882812 64.609375 L 510.003906 64.609375 C 510.496094 64.609375 510.957031 64.875 511.25 65.265625 L 544.410156 113.90625 C 545.261719 115.152344 547.230469 114.53125 547.164062 113.023438 L 546.96875 102.917969 L 546.96875 66.121094 C 546.96875 65.300781 547.65625 64.609375 548.476562 64.609375 L 570.253906 64.609375 C 571.074219 64.609375 571.765625 65.300781 571.765625 66.121094 L 571.765625 156.871094 C 571.765625 157.691406 571.074219 158.382812 570.253906 158.382812 L 549.132812 158.382812 C 548.640625 158.382812 548.183594 158.121094 547.886719 157.726562 L 514.726562 109.183594 C 513.875 107.9375 511.90625 108.5625 511.972656 110.070312 L 512.167969 120.039062 L 512.167969 156.871094 C 512.167969 157.691406 511.480469 158.382812 510.660156 158.382812 L 488.882812 158.382812 C 488.0625 158.382812 487.375 157.691406 487.375 156.871094 " clip-rule="nonzero"/></clipPath><clipPath id="0945f40ee4"><path d="M 588 64.285156 L 673 64.285156 L 673 160.714844 L 588 160.714844 Z M 588 64.285156 " clip-rule="nonzero"/></clipPath><clipPath id="9c731580a0"><path d="M 671.371094 64.609375 L 672.882812 65.300781 L 672.882812 122.632812 C 672.882812 129.421875 671.667969 135.324219 669.273438 140.375 C 666.878906 145.425781 663.601562 149.363281 659.5 152.148438 C 655.398438 154.9375 650.941406 157.035156 646.085938 158.382812 L 630.671875 160.382812 C 625.226562 160.382812 620.078125 159.726562 615.253906 158.382812 C 610.433594 157.035156 605.972656 154.96875 601.839844 152.148438 C 597.707031 149.328125 594.460938 145.394531 592.066406 140.375 C 589.671875 135.355469 588.457031 129.421875 588.457031 122.632812 L 588.457031 66.121094 C 588.457031 65.300781 589.148438 64.609375 589.96875 64.609375 L 611.746094 64.609375 C 612.566406 64.609375 613.253906 65.300781 613.253906 66.121094 L 613.253906 121.285156 C 613.253906 132.636719 619.058594 138.308594 630.671875 138.308594 C 642.28125 138.308594 648.085938 132.636719 648.085938 121.285156 L 648.085938 66.121094 C 648.085938 65.300781 648.773438 64.609375 649.59375 64.609375 Z M 671.371094 64.609375 " clip-rule="nonzero"/></clipPath><clipPath id="da7501de44"><path d="M 689.453125 64.285156 L 758 64.285156 L 758 158.707031 L 689.453125 158.707031 Z M 689.453125 64.285156 " clip-rule="nonzero"/></clipPath><clipPath id="86feeb02cd"><path d="M 757.140625 66.121094 L 757.140625 84.550781 C 757.140625 85.371094 756.453125 86.0625 755.632812 86.0625 L 715.914062 86.0625 C 715.09375 86.0625 714.402344 86.75 714.402344 87.570312 L 714.402344 98.886719 C 714.402344 99.707031 715.09375 100.394531 715.914062 100.394531 L 751.628906 100.394531 C 752.449219 100.394531 753.140625 101.082031 753.140625 101.902344 L 753.140625 120.171875 C 753.140625 120.992188 752.449219 121.679688 751.628906 121.679688 L 715.914062 121.679688 C 715.09375 121.679688 714.402344 122.367188 714.402344 123.1875 L 714.402344 135.457031 C 714.402344 136.277344 715.09375 136.964844 715.914062 136.964844 L 756.453125 136.964844 C 757.273438 136.964844 757.960938 137.621094 757.960938 138.472656 L 757.960938 156.90625 C 757.960938 157.726562 757.273438 158.414062 756.453125 158.414062 L 691.148438 158.414062 C 690.332031 158.414062 689.640625 157.726562 689.640625 156.90625 L 689.640625 66.121094 C 689.640625 65.300781 690.332031 64.609375 691.148438 64.609375 L 755.632812 64.609375 C 756.453125 64.609375 757.140625 65.300781 757.140625 66.121094 " clip-rule="nonzero"/></clipPath><clipPath id="bab3b8c807"><path d="M 764.289062 64.285156 L 859.214844 64.285156 L 859.214844 158.707031 L 764.289062 158.707031 Z M 764.289062 64.285156 " clip-rule="nonzero"/></clipPath><clipPath id="873644b1ca"><path d="M 798.695312 157.398438 L 764.585938 66.644531 C 764.226562 65.660156 764.945312 64.609375 765.996094 64.609375 L 789.511719 64.609375 C 790.167969 64.609375 790.757812 65.039062 790.957031 65.660156 L 810.339844 124.566406 C 810.796875 125.945312 812.734375 125.945312 813.191406 124.566406 L 832.578125 65.660156 C 832.773438 65.039062 833.363281 64.609375 834.019531 64.609375 L 857.535156 64.609375 C 858.585938 64.609375 859.308594 65.660156 858.945312 66.644531 L 824.871094 157.398438 C 824.640625 157.988281 824.082031 158.382812 823.457031 158.382812 L 800.105469 158.382812 C 799.484375 158.382812 798.925781 157.988281 798.695312 157.398438 " clip-rule="nonzero"/></clipPath><clipPath id="75b51ce610"><path d="M 844.148438 64.285156 L 943.59375 64.285156 L 943.59375 158.707031 L 844.148438 158.707031 Z M 844.148438 64.285156 " clip-rule="nonzero"/></clipPath><clipPath id="12b5125c45"><path d="M 880.035156 136.539062 L 907.75 136.308594 C 908.765625 136.308594 909.488281 135.292969 909.160156 134.308594 L 896.335938 96.492188 C 895.253906 93.441406 894.46875 90.292969 893.941406 86.980469 L 891.515625 96.492188 L 878.59375 134.539062 C 878.265625 135.519531 878.988281 136.539062 880.035156 136.539062 M 844.515625 156.316406 L 880.167969 65.5625 C 880.398438 64.972656 880.953125 64.609375 881.578125 64.609375 L 906.308594 64.609375 C 906.929688 64.609375 907.488281 65.003906 907.71875 65.5625 L 943.371094 156.316406 C 943.761719 157.300781 943.042969 158.382812 941.960938 158.382812 L 845.925781 158.382812 C 844.875 158.382812 844.121094 157.300781 844.515625 156.316406 " clip-rule="nonzero"/></clipPath></defs><g clip-path="url(#98376226bd)"><g clip-path="url(#2f1edcbd6f)"><path fill="#ffffff" d="M 984.613281 27.335938 L 1072.636719 27.335938 L 1072.636719 194.441406 L 984.613281 194.441406 Z M 984.613281 27.335938 " fill-opacity="1" fill-rule="nonzero"/></g></g><g clip-path="url(#77bf5796c7)"><g clip-path="url(#1e54d27afd)"><path fill="#ffffff" d="M 22.5 48.210938 L 233.117188 48.210938 L 233.117188 174.78125 L 22.5 174.78125 Z M 22.5 48.210938 " fill-opacity="1" fill-rule="nonzero"/></g></g><g clip-path="url(#910e2be2db)"><g clip-path="url(#c2a0685536)"><path fill="#ffffff" d="M 22.5 48.210938 L 233.117188 48.210938 L 233.117188 174.78125 L 22.5 174.78125 Z M 22.5 48.210938 " fill-opacity="1" fill-rule="nonzero"/></g></g><g clip-path="url(#ea67facf42)"><g clip-path="url(#c1a3a7cfa0)"><path fill="#ffffff" d="M 258.125 48.214844 L 463.796875 48.214844 L 463.796875 174.785156 L 258.125 174.785156 Z M 258.125 48.214844 " fill-opacity="1" fill-rule="nonzero"/></g></g><g clip-path="url(#5fc2163cc4)"><g clip-path="url(#4ee5831b55)"><path fill="#ffffff" d="M 258.125 48.214844 L 463.796875 48.214844 L 463.796875 174.785156 L 258.125 174.785156 Z M 258.125 48.214844 " fill-opacity="1" fill-rule="nonzero"/></g></g><g clip-path="url(#5330dc072e)"><g clip-path="url(#4629262850)"><path fill="#ffffff" d="M 1083.28125 19.523438 L 1423.367188 19.523438 L 1423.367188 202.8125 L 1083.28125 202.8125 Z M 1083.28125 19.523438 " fill-opacity="1" fill-rule="nonzero"/></g></g><g clip-path="url(#1cdf548fbc)"><g clip-path="url(#96ff167aa1)"><path fill="#ffffff" d="M 1083.28125 19.523438 L 1423.367188 19.523438 L 1423.367188 202.8125 L 1083.28125 202.8125 Z M 1083.28125 19.523438 " fill-opacity="1" fill-rule="nonzero"/></g></g><g clip-path="url(#a050f433a0)"><g clip-path="url(#4064edaba7)"><path fill="#ffffff" d="M 1083.28125 19.523438 L 1423.367188 19.523438 L 1423.367188 202.8125 L 1083.28125 202.8125 Z M 1083.28125 19.523438 " fill-opacity="1" fill-rule="nonzero"/></g></g><g clip-path="url(#164b242c23)"><g clip-path="url(#f59394b481)"><path fill="#ffffff" d="M 1083.28125 19.523438 L 1423.367188 19.523438 L 1423.367188 202.8125 L 1083.28125 202.8125 Z M 1083.28125 19.523438 " fill-opacity="1" fill-rule="nonzero"/></g></g><g clip-path="url(#3a8c7685a2)"><g clip-path="url(#cfafce2f9f)"><path fill="#ffffff" d="M 470.976562 48.210938 L 959.664062 48.210938 L 959.664062 176.789062 L 470.976562 176.789062 Z M 470.976562 48.210938 " fill-opacity="1" fill-rule="nonzero"/></g></g><g clip-path="url(#0945f40ee4)"><g clip-path="url(#9c731580a0)"><path fill="#ffffff" d="M 470.976562 48.210938 L 959.664062 48.210938 L 959.664062 176.789062 L 470.976562 176.789062 Z M 470.976562 48.210938 " fill-opacity="1" fill-rule="nonzero"/></g></g><g clip-path="url(#da7501de44)"><g clip-path="url(#86feeb02cd)"><path fill="#ffffff" d="M 470.976562 48.210938 L 959.664062 48.210938 L 959.664062 176.789062 L 470.976562 176.789062 Z M 470.976562 48.210938 " fill-opacity="1" fill-rule="nonzero"/></g></g><g clip-path="url(#bab3b8c807)"><g clip-path="url(#873644b1ca)"><path fill="#ffffff" d="M 470.976562 48.210938 L 959.664062 48.210938 L 959.664062 176.789062 L 470.976562 176.789062 Z M 470.976562 48.210938 " fill-opacity="1" fill-rule="nonzero"/></g></g><g clip-path="url(#75b51ce610)"><g clip-path="url(#12b5125c45)"><path fill="#ffffff" d="M 470.976562 48.210938 L 959.664062 48.210938 L 959.664062 176.789062 L 470.976562 176.789062 Z M 470.976562 48.210938 " fill-opacity="1" fill-rule="nonzero"/></g></g></svg>