<svg xmlns="http://www.w3.org/2000/svg" xmlns:xlink="http://www.w3.org/1999/xlink" width="500" zoomAndPan="magnify" viewBox="0 0 375 374.999991" height="500" preserveAspectRatio="xMidYMid meet" version="1.0"><path fill="#000000" d="M 85.542969 195.804688 L 141.28125 195.804688 L 141.28125 97.398438 L 157.570312 97.398438 C 165.71875 97.398438 169.578125 102.546875 169.578125 107.902344 C 169.578125 113.050781 165.71875 118.414062 157.570312 118.414062 L 145.140625 118.414062 L 145.140625 138.996094 L 172.363281 195.804688 L 230.679688 195.804688 L 201.3125 141.78125 C 218.035156 136.210938 225.109375 119.910156 225.316406 104.261719 C 225.964844 72.742188 206.882812 45.734375 147.066406 45.734375 L 85.542969 45.734375 Z M 85.542969 195.804688 " fill-opacity="1" fill-rule="nonzero"/><path fill="#000000" d="M 80.230469 324.273438 L 80.230469 306.722656 L 60.761719 306.722656 C 49.265625 306.722656 39.699219 295.867188 39.699219 281.191406 L 39.699219 213.839844 C 39.699219 200.433594 35.546875 190.226562 25.015625 185.757812 C 35.546875 181.289062 39.699219 171.070312 39.699219 157.667969 L 39.699219 90.324219 C 39.699219 75.324219 49.265625 64.789062 60.761719 64.789062 L 80.230469 64.789062 L 80.230469 47.230469 L 60.761719 47.230469 C 40.65625 47.230469 20.859375 63.828125 20.859375 90.324219 L 20.859375 155.757812 C 20.859375 167.558594 15.4375 177.773438 4.265625 177.773438 L 4.265625 193.730469 C 15.4375 193.730469 20.859375 203.945312 20.859375 215.757812 L 20.859375 281.507812 C 20.859375 307.679688 40.65625 324.273438 60.761719 324.273438 Z M 80.230469 324.273438 " fill-opacity="1" fill-rule="nonzero"/><path fill="#000000" d="M 295.550781 323.578125 L 315.019531 323.578125 C 335.453125 323.578125 354.921875 306.984375 354.921875 280.8125 L 354.921875 215.0625 C 354.921875 203.25 360.34375 193.042969 371.515625 193.042969 L 371.515625 177.078125 C 360.34375 177.078125 354.921875 166.871094 354.921875 155.0625 L 354.921875 89.628906 C 354.921875 63.140625 335.453125 46.546875 315.019531 46.546875 L 295.550781 46.546875 L 295.550781 64.09375 L 315.019531 64.09375 C 326.515625 64.09375 336.082031 74.628906 336.082031 89.628906 L 336.082031 156.972656 C 336.082031 170.375 340.234375 180.59375 350.765625 185.0625 C 340.234375 189.53125 336.082031 199.738281 336.082031 213.144531 L 336.082031 280.484375 C 336.082031 295.171875 326.515625 306.027344 315.019531 306.027344 L 295.550781 306.027344 Z M 295.550781 323.578125 " fill-opacity="1" fill-rule="nonzero"/><path fill="#000000" d="M 144.34375 323.097656 L 200.082031 323.097656 L 200.082031 224.691406 L 216.371094 224.691406 C 224.523438 224.691406 228.378906 229.839844 228.378906 235.191406 C 228.378906 240.339844 224.523438 245.703125 216.371094 245.703125 L 203.941406 245.703125 L 203.941406 266.285156 L 231.167969 323.097656 L 289.484375 323.097656 L 260.113281 269.070312 C 276.835938 263.5 283.914062 247.199219 284.121094 231.550781 C 284.769531 200.035156 265.683594 173.027344 205.871094 173.027344 L 144.34375 173.027344 Z M 144.34375 323.097656 " fill-opacity="1" fill-rule="nonzero"/></svg>